<?xml version="1.0" encoding="utf-8"?>
<!-- Generator: Adobe Illustrator 17.0.0, SVG Export Plug-In . SVG Version: 6.00 Build 0)  -->
<!DOCTYPE svg PUBLIC "-//W3C//DTD SVG 1.1//EN" "http://www.w3.org/Graphics/SVG/1.1/DTD/svg11.dtd">
<svg version="1.1" id="Layer_1" xmlns="http://www.w3.org/2000/svg" xmlns:xlink="http://www.w3.org/1999/xlink" x="0px" y="0px"
	 width="100px" height="100px" viewBox="-10 -10 100 100" enable-background="new -10 -10 100 100" xml:space="preserve">
<circle fill="#E3FDFF" cx="40" cy="40" r="50"/>
<g>
	<path fill="none" stroke="#74CBE5" stroke-width="1.5" stroke-linecap="round" stroke-linejoin="round" stroke-miterlimit="10" d="
		M30.516,64.5l1.976-1.976V54.62c0,0,0-1.976,1.976-1.976s5.927,0,5.927,0s3.161,0,5.137,0s1.976,1.976,1.976,1.976v7.903
		l1.976,1.976C49.485,64.5,30.516,64.5,30.516,64.5z"/>
	
		<line fill="none" stroke="#74CBE5" stroke-width="1.5" stroke-linecap="round" stroke-linejoin="round" stroke-miterlimit="10" x1="32.887" y1="55.41" x2="47.113" y2="55.41"/>
	<path fill="none" stroke="#74CBE5" stroke-width="1.5" stroke-linecap="round" stroke-linejoin="round" stroke-miterlimit="10" d="
		M34.468,52.249c0,0,0-1.186,1.976-1.976c1.976-0.79,1.976-2.766,1.976-5.137c0,0-11.065,0-11.065-9.088s0-15.411,0-15.411h25.29
		c0,0,0,6.322,0,15.411s-11.064,9.088-11.064,9.088c0,2.371,0,4.347,1.976,5.137c1.976,0.79,1.976,1.976,1.976,1.976"/>
	<path fill="none" stroke="#74CBE5" stroke-width="1.5" stroke-linecap="round" stroke-linejoin="round" stroke-miterlimit="10" d="
		M52.645,20.637v-0.79c0,0,0-1.976-1.976-1.976c-1.976,0-21.339,0-21.339,0s-1.976,0-1.976,1.976v0.79"/>
	<path fill="none" stroke="#74CBE5" stroke-width="1.5" stroke-linecap="round" stroke-linejoin="round" stroke-miterlimit="10" d="
		M27.355,22.218h-2.766c0,0-1.581,0-1.581-1.581c0-1.581,0-5.137,0-5.137h-4.742v3.161c0,0,0,20.153,9.088,20.153"/>
	<path fill="none" stroke="#74CBE5" stroke-width="1.5" stroke-linecap="round" stroke-linejoin="round" stroke-miterlimit="10" d="
		M26.96,25.379h-2.766c0,0-1.58,0-1.58,1.581c0,1.581,0.395,5.927,4.347,8.298"/>
	<path fill="none" stroke="#74CBE5" stroke-width="1.5" stroke-linecap="round" stroke-linejoin="round" stroke-miterlimit="10" d="
		M52.645,22.218h2.766c0,0,1.581,0,1.581-1.581c0-1.581,0-5.137,0-5.137h4.742v3.161c0,0,0,20.153-9.088,20.153"/>
	<path fill="none" stroke="#74CBE5" stroke-width="1.5" stroke-linecap="round" stroke-linejoin="round" stroke-miterlimit="10" d="
		M53.04,25.379h2.766c0,0,1.581,0,1.581,1.581c0,1.581-0.395,5.927-4.347,8.298"/>
	
		<polygon fill="none" stroke="#74CBE5" stroke-width="1.5" stroke-linecap="round" stroke-linejoin="round" stroke-miterlimit="10" points="
		40,24.193 41.976,30.515 48.694,30.515 43.162,34.073 45.533,40.395 40,36.482 34.468,40.395 36.839,34.073 31.307,30.515 
		38.024,30.515 	"/>
</g>
</svg>
