<?xml version="1.0" encoding="utf-8"?>
<!-- Generator: Adobe Illustrator 17.0.0, SVG Export Plug-In . SVG Version: 6.00 Build 0)  -->
<!DOCTYPE svg PUBLIC "-//W3C//DTD SVG 1.1//EN" "http://www.w3.org/Graphics/SVG/1.1/DTD/svg11.dtd">
<svg version="1.1" id="Layer_1" xmlns="http://www.w3.org/2000/svg" xmlns:xlink="http://www.w3.org/1999/xlink" x="0px" y="0px"
	 width="80px" height="80px" viewBox="10 10 80 80" enable-background="new 10 10 80 80" xml:space="preserve">
<g>
	<path fill="none" stroke="#74CBE5" stroke-width="2" stroke-linecap="round" stroke-linejoin="round" stroke-miterlimit="10" d="
		M38.383,84.327l2.768-2.768V70.485c0,0,0-2.768,2.768-2.768s8.304,0,8.304,0s4.429,0,7.197,0s2.768,2.768,2.768,2.768v11.073
		l2.768,2.768C64.959,84.327,38.383,84.327,38.383,84.327z"/>
	
		<line fill="none" stroke="#74CBE5" stroke-width="2" stroke-linecap="round" stroke-linejoin="round" stroke-miterlimit="10" x1="41.705" y1="71.592" x2="61.636" y2="71.592"/>
	<path fill="none" stroke="#74CBE5" stroke-width="2" stroke-linecap="round" stroke-linejoin="round" stroke-miterlimit="10" d="
		M43.92,67.163c0,0,0-1.661,2.768-2.768c2.768-1.107,2.768-3.875,2.768-7.197c0,0-15.502,0-15.502-12.733s0-21.591,0-21.591h35.433
		c0,0,0,8.858,0,21.591S53.886,57.198,53.886,57.198c0,3.322,0,6.09,2.768,7.197c2.768,1.107,2.768,2.768,2.768,2.768"/>
	<path fill="none" stroke="#74CBE5" stroke-width="2" stroke-linecap="round" stroke-linejoin="round" stroke-miterlimit="10" d="
		M69.387,22.873v-1.107c0,0,0-2.768-2.768-2.768c-2.768,0-29.897,0-29.897,0s-2.768,0-2.768,2.768v1.107"/>
	<path fill="none" stroke="#74CBE5" stroke-width="2" stroke-linecap="round" stroke-linejoin="round" stroke-miterlimit="10" d="
		M33.954,25.088h-3.875c0,0-2.215,0-2.215-2.215s0-7.197,0-7.197H21.22v4.429c0,0,0,28.235,12.733,28.235"/>
	<path fill="none" stroke="#74CBE5" stroke-width="2" stroke-linecap="round" stroke-linejoin="round" stroke-miterlimit="10" d="
		M33.401,29.517h-3.875c0,0-2.214,0-2.214,2.215s0.554,8.304,6.09,11.626"/>
	<path fill="none" stroke="#74CBE5" stroke-width="2" stroke-linecap="round" stroke-linejoin="round" stroke-miterlimit="10" d="
		M69.387,25.088h3.875c0,0,2.215,0,2.215-2.215s0-7.197,0-7.197h6.644v4.429c0,0,0,28.235-12.733,28.235"/>
	<path fill="none" stroke="#74CBE5" stroke-width="2" stroke-linecap="round" stroke-linejoin="round" stroke-miterlimit="10" d="
		M69.94,29.517h3.875c0,0,2.215,0,2.215,2.215s-0.554,8.304-6.09,11.626"/>
	
		<polygon fill="none" stroke="#74CBE5" stroke-width="2" stroke-linecap="round" stroke-linejoin="round" stroke-miterlimit="10" points="
		51.671,27.855 54.439,36.713 63.851,36.713 56.1,41.697 59.422,50.555 51.671,45.073 43.92,50.555 47.242,41.697 39.491,36.713 
		48.902,36.713 	"/>
</g>
</svg>
