<?xml version="1.0" encoding="utf-8"?>
<!-- Generator: Adobe Illustrator 17.0.0, SVG Export Plug-In . SVG Version: 6.00 Build 0)  -->
<!DOCTYPE svg PUBLIC "-//W3C//DTD SVG 1.1//EN" "http://www.w3.org/Graphics/SVG/1.1/DTD/svg11.dtd">
<svg version="1.1" id="Layer_1" xmlns="http://www.w3.org/2000/svg" xmlns:xlink="http://www.w3.org/1999/xlink" x="0px" y="0px"
	 width="100px" height="100px" viewBox="-10 -10 100 100" enable-background="new -10 -10 100 100" xml:space="preserve">
<circle fill="#E3FDFF" cx="40" cy="40" r="50.912"/>
<g>
	<g>
		<path fill="#74CBE5" d="M61.315,55.463c0.136-0.96,0.136-1.923,0.004-2.87c3.2-2.861,2.925-2.748,0.809-6.412
			c-1.018-1.762-2.77-0.915-4.672-0.271c-0.783-0.619-1.556-1.065-2.484-1.434c-0.206-0.985-0.41-2.097-0.725-2.773
			c1.297-5.911-0.265-12.074-4.229-16.657l0.112-0.134l0.666,0.559c0.288,0.241,0.713,0.201,0.952-0.083l0.797-0.949
			c1.437-1.714,1.223-4.267-0.5-5.713l-0.843-0.708c-1.716-1.44-4.273-1.217-5.712,0.5l-0.797,0.949
			c-0.241,0.289-0.2,0.715,0.083,0.954l0.665,0.559l-0.112,0.134c-2.096-1.255-4.372-2.084-6.783-2.469v-0.171
			c0.418-0.014,0.854-0.092,1.176-0.406c0.168-0.165,0.368-0.464,0.368-0.948v-3.267c0-0.745-0.607-1.352-1.352-1.352h-6.508
			c-0.745,0-1.352,0.606-1.352,1.352v3.267c0,0.485,0.2,0.783,0.368,0.948c0.323,0.316,0.759,0.394,1.177,0.408v0.171
			c-2.411,0.385-4.688,1.213-6.783,2.468l-0.112-0.134l0.665-0.56c0.287-0.24,0.324-0.666,0.083-0.952l-0.797-0.949
			c-1.436-1.714-3.999-1.937-5.714-0.5l-0.842,0.709c-1.716,1.439-1.942,3.996-0.5,5.713l0.796,0.949
			c0.246,0.292,0.674,0.318,0.953,0.084l0.666-0.559l0.112,0.134c-3.018,3.491-4.675,7.926-4.675,12.557
			c0,12.368,11.609,21.62,23.752,18.651c-2.283,2.086-1.777,2.421,0.071,5.624c1.016,1.758,2.766,0.918,4.672,0.271
			c0.783,0.618,1.556,1.064,2.484,1.434c0.876,4.208,0.921,3.91,5.149,3.91c2.022,0,2.157-1.877,2.57-3.907
			c0.885-0.358,1.717-0.84,2.48-1.437c1.973,0.661,3.663,1.48,4.674-0.27C64.339,58.052,64.392,58.206,61.315,55.463z M17.63,37.603
			c0-4.489,1.675-8.782,4.716-12.087c0.229-0.25,0.238-0.632,0.02-0.892l-0.922-1.099c-0.24-0.287-0.667-0.324-0.951-0.084
			l-0.666,0.559l-0.36-0.431c-0.961-1.145-0.813-2.848,0.332-3.809l0.842-0.708c1.142-0.958,2.851-0.808,3.809,0.333l0.362,0.432
			l-0.666,0.559c-0.287,0.24-0.324,0.666-0.084,0.953l0.922,1.099c0.218,0.26,0.596,0.318,0.883,0.135
			c2.23-1.43,4.693-2.326,7.322-2.664c0.336-0.044,0.59-0.331,0.59-0.67v-1.436c0-0.373-0.302-0.676-0.675-0.676
			c-0.187,0.003-0.87-0.017-0.87-0.017v-3.248h6.508l-0.004,3.251c0,0-0.674,0.018-0.865,0.017c-0.374,0-0.675,0.303-0.675,0.676
			v1.436c0,0.34,0.253,0.626,0.59,0.67c2.628,0.338,5.092,1.234,7.321,2.665c0.288,0.183,0.664,0.127,0.883-0.135l0.923-1.101
			c0.241-0.288,0.2-0.714-0.083-0.953l-0.665-0.559l0.363-0.43c0.953-1.137,2.654-1.299,3.807-0.333l0.843,0.708
			c1.143,0.961,1.294,2.664,0.333,3.809l-0.362,0.431l-0.666-0.559c-0.282-0.237-0.709-0.206-0.953,0.084l-0.922,1.099
			c-0.218,0.26-0.21,0.642,0.021,0.892c3.736,4.058,5.42,9.636,4.441,15.178c-0.709-0.184-1.749-0.136-2.925-0.13
			c1.879-9.27-5.251-17.917-14.659-17.917c-8.246,0-14.955,6.709-14.955,14.955c0,10.015,9.767,17.351,19.501,14.234
			c0.294,0.258,0.563,0.485,0.881,0.764c-0.096,0.677-0.122,1.355-0.083,2.027C29.25,58.275,17.63,49.544,17.63,37.603z
			 M38.81,48.416c-0.528,0.914-0.343,1.65,0.155,2.324c-8.695,2.322-17.082-4.305-17.082-13.136C21.883,30.102,27.985,24,35.486,24
			c8.779,0,15.334,8.263,13.202,16.859c-0.962,0.602-1.118,2.057-1.434,3.616c-0.887,0.358-1.718,0.84-2.482,1.438
			C40.684,44.565,40.951,44.708,38.81,48.416z M60.958,61.203c-0.415,0.719-1.024,0.325-3.435-0.454
			c-0.22-0.071-0.465-0.024-0.643,0.127c-0.821,0.69-1.736,1.22-2.723,1.577c-0.219,0.08-0.381,0.266-0.431,0.494
			c-0.525,2.437-0.485,3.197-1.322,3.197c-0.392,0-2.789,0.103-3.083-0.15c-0.315-0.27-0.73-2.631-0.821-3.05
			c-0.049-0.227-0.211-0.415-0.431-0.493c-1.053-0.381-1.868-0.853-2.724-1.574c-0.175-0.148-0.416-0.199-0.643-0.127
			c-2.325,0.75-3.008,1.193-3.433,0.454c-0.195-0.337-1.483-2.366-1.413-2.746c0.075-0.407,1.911-1.943,2.228-2.231
			c0.174-0.157,0.254-0.392,0.213-0.62c-0.184-1.033-0.184-2.092,0.004-3.146c0.04-0.228-0.04-0.465-0.213-0.619
			c-1.815-1.64-2.537-2.007-2.109-2.746c0.197-0.34,1.306-2.465,1.673-2.594c0.392-0.139,2.643,0.682,3.051,0.814
			c0.22,0.071,0.465,0.024,0.643-0.127c0.821-0.69,1.736-1.22,2.723-1.577c0.22-0.079,0.381-0.266,0.431-0.494
			c0.525-2.437,0.485-3.196,1.322-3.196c0.388,0,2.791-0.101,3.083,0.15c0.315,0.27,0.73,2.63,0.821,3.05
			c0.048,0.228,0.211,0.415,0.431,0.494c1.052,0.381,1.868,0.852,2.724,1.574c0.178,0.15,0.423,0.197,0.643,0.126
			c2.318-0.749,3.006-1.195,3.433-0.455c0.195,0.338,1.484,2.363,1.412,2.743c-0.078,0.411-1.91,1.946-2.227,2.234
			c-0.174,0.157-0.254,0.392-0.213,0.62c0.184,1.033,0.184,2.092-0.004,3.146c-0.042,0.228,0.039,0.465,0.213,0.619
			c0.292,0.264,2.176,1.828,2.23,2.216C62.423,58.843,61.171,60.838,60.958,61.203z"/>
		<path fill="#74CBE5" d="M34.811,28.194c0-0.373,0.303-0.675,0.676-0.675c0.373,0,0.675,0.303,0.675,0.675
			s-0.303,0.676-0.675,0.676C35.114,28.869,34.811,28.566,34.811,28.194z"/>
		<path fill="#74CBE5" d="M36.387,47.082c0,0.373-0.303,0.675-0.675,0.675s-0.676-0.302-0.676-0.675
			c0-0.373,0.303-0.675,0.676-0.675C36.086,46.407,36.387,46.709,36.387,47.082z"/>
		<path fill="#74CBE5" d="M30.195,30.529c-0.187-0.324-0.076-0.737,0.248-0.923s0.737-0.075,0.923,0.248
			c0.185,0.324,0.075,0.737-0.248,0.923C30.794,30.962,30.381,30.85,30.195,30.529z"/>
		<path fill="#74CBE5" d="M26.778,32.674c0.187-0.323,0.6-0.434,0.923-0.248c0.323,0.185,0.434,0.599,0.248,0.923
			c-0.187,0.324-0.6,0.434-0.923,0.248C26.702,33.411,26.592,32.998,26.778,32.674z"/>
		<path fill="#74CBE5" d="M26.83,37.751c0,0.373-0.303,0.676-0.676,0.676s-0.676-0.303-0.676-0.676c0-0.373,0.303-0.675,0.676-0.675
			C26.528,37.075,26.83,37.377,26.83,37.751z"/>
		<path fill="#74CBE5" d="M44.369,37.525c0-0.373,0.303-0.675,0.676-0.675c0.373,0,0.675,0.303,0.675,0.675
			s-0.303,0.676-0.675,0.676C44.67,38.201,44.369,37.899,44.369,37.525z"/>
		<path fill="#74CBE5" d="M28.062,42.12c0.187,0.323,0.076,0.736-0.248,0.923s-0.736,0.077-0.923-0.248
			c-0.185-0.324-0.075-0.737,0.248-0.923C27.461,41.685,27.874,41.797,28.062,42.12z"/>
		<path fill="#74CBE5" d="M43.137,33.157c-0.187-0.324-0.075-0.737,0.248-0.923c0.324-0.185,0.737-0.075,0.923,0.248
			c0.185,0.324,0.075,0.737-0.248,0.923C43.737,33.59,43.324,33.479,43.137,33.157z"/>
		<path fill="#74CBE5" d="M31.559,46.212c-0.185,0.324-0.599,0.434-0.923,0.248c-0.324-0.187-0.434-0.6-0.248-0.923
			c0.187-0.324,0.599-0.434,0.923-0.248C31.635,45.475,31.747,45.888,31.559,46.212z"/>
		<path fill="#74CBE5" d="M39.638,29.065c0.185-0.323,0.599-0.433,0.923-0.248c0.324,0.185,0.434,0.599,0.248,0.923
			c-0.185,0.323-0.599,0.434-0.923,0.248C39.563,29.802,39.452,29.388,39.638,29.065z"/>
		<path fill="#74CBE5" d="M51.119,48.141L51.119,48.141c-3.845,0-6.7,3.652-5.693,7.413c1.356,5.061,8.173,5.948,10.788,1.421
			C58.466,53.073,55.663,48.141,51.119,48.141z M55.043,56.298c-0.84,1.455-2.366,2.269-3.933,2.269c-3.46,0-5.678-3.77-3.924-6.805
			c0.84-1.457,2.366-2.269,3.933-2.269C54.578,49.492,56.797,53.262,55.043,56.298z"/>
	</g>
	<path fill="#74CBE5" d="M34.866,41.949c-0.346-0.038-0.662-0.136-0.949-0.296c-0.285-0.157-0.532-0.353-0.739-0.586
		c-0.204-0.233-0.363-0.493-0.477-0.779c-0.115-0.288-0.171-0.577-0.171-0.867v-0.192h1.011c0,0.382,0.063,0.698,0.192,0.944
		c0.127,0.248,0.284,0.44,0.472,0.579c0.185,0.143,0.388,0.236,0.607,0.287c0.219,0.051,0.421,0.074,0.603,0.074
		c0.555,0,0.992-0.164,1.304-0.493c0.318-0.328,0.473-0.77,0.473-1.324c0-0.356-0.07-0.648-0.211-0.881
		c-0.144-0.232-0.313-0.416-0.507-0.552c-0.196-0.136-0.402-0.241-0.621-0.31c-0.219-0.066-0.41-0.124-0.574-0.17
		c-0.183-0.045-0.41-0.112-0.683-0.198c-0.273-0.087-0.539-0.223-0.798-0.404c-0.26-0.182-0.485-0.425-0.676-0.73
		c-0.192-0.306-0.29-0.695-0.301-1.169c0-0.638,0.185-1.18,0.554-1.632c0.37-0.451,0.867-0.732,1.496-0.842v-1.146h1.012v1.107
		c0.465,0.063,0.84,0.198,1.129,0.402c0.285,0.205,0.508,0.433,0.668,0.689s0.269,0.514,0.328,0.779
		c0.058,0.263,0.093,0.487,0.101,0.667h-1.012v-0.056c0-0.207-0.035-0.409-0.109-0.599c-0.07-0.192-0.179-0.362-0.319-0.514
		c-0.141-0.149-0.32-0.268-0.532-0.357c-0.214-0.085-0.465-0.129-0.745-0.129c-0.209,0-0.41,0.035-0.602,0.104
		c-0.192,0.067-0.356,0.168-0.498,0.299c-0.143,0.134-0.251,0.302-0.333,0.501c-0.082,0.198-0.126,0.44-0.126,0.722
		c0.012,0.283,0.07,0.515,0.179,0.699c0.109,0.183,0.246,0.333,0.416,0.45c0.168,0.119,0.357,0.21,0.561,0.281
		c0.204,0.066,0.41,0.129,0.621,0.184c0.164,0.047,0.39,0.119,0.683,0.219c0.289,0.101,0.578,0.254,0.858,0.457
		c0.281,0.207,0.527,0.479,0.739,0.821c0.211,0.341,0.318,0.776,0.318,1.304c0,0.294-0.051,0.586-0.153,0.884
		c-0.101,0.294-0.246,0.569-0.437,0.819s-0.433,0.464-0.723,0.634c-0.293,0.174-0.629,0.278-1.012,0.315V43.3h-1.011v-1.352h0.001
		L34.866,41.949L34.866,41.949z"/>
</g>
</svg>
