<?xml version="1.0" encoding="utf-8"?>
<!-- Generator: Adobe Illustrator 17.0.0, SVG Export Plug-In . SVG Version: 6.00 Build 0)  -->
<!DOCTYPE svg PUBLIC "-//W3C//DTD SVG 1.1//EN" "http://www.w3.org/Graphics/SVG/1.1/DTD/svg11.dtd">
<svg version="1.1" id="Layer_1" xmlns="http://www.w3.org/2000/svg" xmlns:xlink="http://www.w3.org/1999/xlink" x="0px" y="0px"
	 width="80px" height="80px" viewBox="-10 -10 80 80" enable-background="new -10 -10 80 80" xml:space="preserve">
<g>
	<g>
		<path fill="#74CBE5" d="M54.365,47.676c0.155-1.097,0.156-2.198,0.005-3.281c3.658-3.27,3.343-3.141,0.925-7.329
			c-1.164-2.014-3.166-1.046-5.34-0.31c-0.895-0.708-1.779-1.217-2.839-1.639c-0.235-1.126-0.469-2.397-0.829-3.17
			c1.483-6.757-0.303-13.801-4.834-19.04l0.128-0.153l0.761,0.639c0.329,0.275,0.815,0.23,1.088-0.095l0.911-1.085
			c1.643-1.959,1.398-4.878-0.571-6.53l-0.964-0.809c-1.961-1.646-4.884-1.391-6.529,0.571l-0.911,1.085
			C35.09,6.86,35.137,7.347,35.461,7.62l0.76,0.639l-0.128,0.153C33.697,6.977,31.096,6.03,28.34,5.59V5.394
			c0.478-0.016,0.976-0.105,1.344-0.464c0.192-0.189,0.421-0.53,0.421-1.084V0.111c0-0.852-0.694-1.545-1.545-1.545h-7.439
			c-0.852,0-1.545,0.693-1.545,1.545v3.734c0,0.554,0.229,0.895,0.421,1.084c0.369,0.361,0.868,0.45,1.345,0.466V5.59
			c-2.756,0.44-5.359,1.386-7.754,2.821l-0.128-0.153l0.76-0.64c0.328-0.274,0.37-0.761,0.095-1.088l-0.911-1.085
			c-1.642-1.959-4.571-2.214-6.531-0.571L5.911,5.684c-1.962,1.645-2.22,4.568-0.571,6.53l0.91,1.085
			c0.281,0.334,0.77,0.364,1.089,0.096L8.1,12.756l0.128,0.153c-3.45,3.99-5.344,9.06-5.344,14.354
			c0,14.138,13.27,24.713,27.15,21.32c-2.61,2.384-2.031,2.767,0.081,6.429c1.161,2.01,3.162,1.049,5.34,0.31
			c0.895,0.706,1.779,1.216,2.839,1.639c1.001,4.81,1.053,4.469,5.886,4.469c2.311,0,2.466-2.145,2.938-4.466
			c1.012-0.409,1.963-0.96,2.835-1.643c2.255,0.756,4.187,1.692,5.343-0.309C57.822,50.635,57.882,50.811,54.365,47.676z
			 M4.43,27.261c0-5.131,1.915-10.039,5.391-13.816c0.262-0.286,0.272-0.722,0.023-1.02L8.79,11.169
			c-0.274-0.328-0.763-0.37-1.087-0.096l-0.761,0.639l-0.412-0.493C5.431,9.91,5.601,7.964,6.91,6.865l0.963-0.809
			c1.305-1.095,3.259-0.924,4.354,0.381l0.414,0.494L11.88,7.57c-0.328,0.274-0.37,0.761-0.096,1.089l1.054,1.256
			c0.249,0.297,0.681,0.364,1.009,0.154c2.549-1.635,5.365-2.659,8.37-3.045c0.384-0.05,0.674-0.378,0.674-0.766V4.616
			c0-0.426-0.345-0.773-0.772-0.773c-0.214,0.003-0.994-0.02-0.994-0.02V0.11h7.439l-0.004,3.716c0,0-0.77,0.021-0.989,0.019
			c-0.427,0-0.772,0.346-0.772,0.773v1.641c0,0.389,0.289,0.716,0.674,0.766c3.004,0.386,5.82,1.411,8.369,3.046
			c0.329,0.209,0.759,0.145,1.009-0.154l1.055-1.258c0.276-0.329,0.229-0.816-0.095-1.089l-0.76-0.639l0.415-0.492
			c1.089-1.3,3.034-1.485,4.352-0.381l0.964,0.809c1.307,1.098,1.479,3.045,0.381,4.354l-0.414,0.493l-0.761-0.639
			c-0.322-0.271-0.811-0.235-1.089,0.096l-1.054,1.256c-0.249,0.297-0.24,0.734,0.024,1.02c4.27,4.639,6.196,11.015,5.076,17.35
			c-0.81-0.21-1.999-0.156-3.343-0.149C43.75,20.052,35.6,10.167,24.846,10.167c-9.426,0-17.095,7.669-17.095,17.095
			c0,11.448,11.164,19.834,22.291,16.27c0.336,0.295,0.644,0.554,1.007,0.873c-0.11,0.774-0.139,1.549-0.095,2.317
			C17.712,50.89,4.43,40.91,4.43,27.261z M28.64,39.621c-0.604,1.045-0.392,1.886,0.177,2.656
			c-9.939,2.654-19.526-4.921-19.526-15.016c0-8.574,6.975-15.55,15.55-15.55c10.035,0,17.528,9.445,15.091,19.271
			c-1.1,0.688-1.278,2.351-1.639,4.133c-1.014,0.409-1.964,0.96-2.837,1.644C30.782,35.219,31.087,35.382,28.64,39.621z
			 M53.957,54.237c-0.474,0.822-1.171,0.372-3.926-0.519c-0.251-0.081-0.531-0.028-0.735,0.145
			c-0.938,0.789-1.984,1.395-3.113,1.803c-0.25,0.091-0.436,0.304-0.493,0.565c-0.6,2.786-0.554,3.654-1.511,3.654
			c-0.448,0-3.188,0.118-3.524-0.171c-0.36-0.309-0.835-3.007-0.938-3.486c-0.056-0.26-0.241-0.474-0.493-0.564
			c-1.204-0.436-2.135-0.975-3.114-1.799c-0.2-0.169-0.475-0.227-0.735-0.145c-2.658,0.857-3.438,1.364-3.924,0.519
			c-0.223-0.385-1.695-2.704-1.615-3.139c0.086-0.465,2.184-2.221,2.547-2.55c0.199-0.179,0.29-0.448,0.243-0.709
			c-0.21-1.181-0.21-2.391,0.005-3.596c0.046-0.261-0.046-0.531-0.243-0.708c-2.075-1.875-2.9-2.294-2.411-3.139
			c0.225-0.389,1.493-2.818,1.912-2.965c0.448-0.159,3.021,0.78,3.488,0.93c0.252,0.081,0.531,0.028,0.735-0.145
			c0.938-0.789,1.984-1.395,3.113-1.803c0.251-0.09,0.436-0.304,0.493-0.565c0.6-2.786,0.554-3.653,1.511-3.653
			c0.444,0,3.19-0.115,3.524,0.171c0.36,0.309,0.835,3.006,0.938,3.486c0.055,0.261,0.241,0.474,0.493,0.565
			c1.203,0.435,2.135,0.974,3.114,1.799c0.204,0.171,0.484,0.225,0.735,0.144c2.65-0.856,3.436-1.366,3.924-0.52
			c0.223,0.386,1.696,2.701,1.614,3.136c-0.089,0.47-2.183,2.224-2.546,2.554c-0.199,0.179-0.29,0.448-0.243,0.709
			c0.21,1.181,0.21,2.391-0.005,3.596c-0.048,0.261,0.045,0.531,0.243,0.708c0.334,0.302,2.487,2.09,2.549,2.533
			C55.632,51.54,54.2,53.82,53.957,54.237z"/>
		<path fill="#74CBE5" d="M24.069,16.505c0-0.426,0.346-0.772,0.773-0.772c0.426,0,0.772,0.346,0.772,0.772
			c0,0.426-0.346,0.773-0.772,0.773C24.415,17.277,24.069,16.931,24.069,16.505z"/>
		<path fill="#74CBE5" d="M25.871,38.096c0,0.426-0.346,0.772-0.772,0.772c-0.426,0-0.773-0.345-0.773-0.772
			c0-0.426,0.346-0.772,0.773-0.772C25.526,37.324,25.871,37.67,25.871,38.096z"/>
		<path fill="#74CBE5" d="M18.792,19.174c-0.214-0.37-0.087-0.843,0.283-1.055c0.37-0.212,0.843-0.086,1.055,0.283
			c0.212,0.37,0.086,0.843-0.283,1.055C19.477,19.67,19.005,19.542,18.792,19.174z"/>
		<path fill="#74CBE5" d="M14.887,21.627c0.214-0.369,0.686-0.496,1.055-0.283c0.369,0.212,0.496,0.685,0.283,1.055
			c-0.214,0.37-0.686,0.496-1.055,0.284C14.8,22.469,14.674,21.997,14.887,21.627z"/>
		<path fill="#74CBE5" d="M14.946,27.43c0,0.426-0.346,0.773-0.773,0.773s-0.773-0.346-0.773-0.773c0-0.426,0.346-0.772,0.773-0.772
			C14.601,26.657,14.946,27.002,14.946,27.43z"/>
		<path fill="#74CBE5" d="M34.994,27.171c0-0.426,0.346-0.772,0.773-0.772c0.426,0,0.772,0.346,0.772,0.772
			c0,0.426-0.346,0.773-0.772,0.773C35.339,27.944,34.994,27.599,34.994,27.171z"/>
		<path fill="#74CBE5" d="M16.354,32.424c0.214,0.369,0.087,0.841-0.283,1.055c-0.37,0.214-0.841,0.088-1.055-0.283
			c-0.212-0.37-0.086-0.842,0.283-1.055C15.667,31.927,16.14,32.055,16.354,32.424z"/>
		<path fill="#74CBE5" d="M33.586,22.179c-0.214-0.37-0.086-0.843,0.283-1.055c0.37-0.212,0.842-0.086,1.055,0.283
			c0.212,0.37,0.086,0.843-0.283,1.055C34.272,22.674,33.8,22.547,33.586,22.179z"/>
		<path fill="#74CBE5" d="M20.352,37.101c-0.212,0.37-0.685,0.496-1.055,0.284c-0.37-0.214-0.496-0.686-0.284-1.055
			c0.214-0.37,0.685-0.496,1.055-0.284C20.439,36.259,20.566,36.731,20.352,37.101z"/>
		<path fill="#74CBE5" d="M29.587,17.501c0.212-0.369,0.685-0.495,1.055-0.283c0.37,0.212,0.496,0.685,0.284,1.055
			c-0.212,0.369-0.685,0.496-1.055,0.283C29.501,18.344,29.374,17.87,29.587,17.501z"/>
		<path fill="#74CBE5" d="M42.71,39.306L42.71,39.306c-4.395,0-7.659,4.174-6.507,8.474c1.55,5.785,9.342,6.799,12.331,1.624
			C51.109,44.944,47.904,39.306,42.71,39.306z M47.196,48.631c-0.96,1.663-2.704,2.594-4.496,2.594c-3.955,0-6.49-4.309-4.486-7.779
			c0.96-1.665,2.704-2.594,4.496-2.594C46.664,40.851,49.201,45.16,47.196,48.631z"/>
	</g>
	<path fill="#74CBE5" d="M24.132,32.229c-0.395-0.044-0.757-0.155-1.085-0.338c-0.326-0.18-0.608-0.404-0.845-0.67
		c-0.233-0.266-0.415-0.563-0.545-0.891c-0.131-0.329-0.196-0.659-0.196-0.991v-0.22h1.156c0,0.437,0.072,0.798,0.22,1.079
		c0.145,0.283,0.325,0.503,0.539,0.662c0.212,0.164,0.444,0.27,0.694,0.328c0.25,0.058,0.481,0.085,0.689,0.085
		c0.634,0,1.134-0.188,1.491-0.563c0.363-0.375,0.541-0.88,0.541-1.514c0-0.407-0.08-0.741-0.241-1.007
		c-0.165-0.265-0.358-0.475-0.58-0.631c-0.224-0.156-0.46-0.275-0.71-0.354c-0.25-0.075-0.469-0.142-0.656-0.194
		c-0.209-0.051-0.469-0.128-0.781-0.226c-0.312-0.099-0.616-0.255-0.912-0.462c-0.297-0.208-0.554-0.486-0.773-0.834
		c-0.22-0.35-0.332-0.795-0.344-1.336c0-0.729,0.212-1.349,0.633-1.865c0.423-0.516,0.991-0.837,1.71-0.962v-1.31h1.157v1.265
		c0.531,0.072,0.96,0.226,1.29,0.46c0.326,0.234,0.581,0.495,0.764,0.788c0.183,0.293,0.307,0.588,0.375,0.891
		c0.066,0.301,0.106,0.557,0.116,0.763h-1.157v-0.064c0-0.237-0.04-0.468-0.125-0.685c-0.08-0.22-0.205-0.414-0.365-0.588
		c-0.161-0.17-0.366-0.306-0.608-0.408c-0.245-0.097-0.531-0.147-0.852-0.147c-0.239,0-0.469,0.04-0.688,0.119
		c-0.22,0.077-0.407,0.192-0.569,0.342c-0.164,0.153-0.287,0.345-0.381,0.573C23,23.55,22.95,23.827,22.95,24.149
		c0.014,0.324,0.08,0.589,0.205,0.799c0.125,0.209,0.281,0.381,0.475,0.514c0.192,0.136,0.408,0.24,0.641,0.321
		c0.233,0.076,0.469,0.147,0.71,0.21c0.188,0.054,0.446,0.136,0.781,0.25c0.33,0.115,0.661,0.29,0.981,0.522
		c0.321,0.237,0.602,0.548,0.845,0.938c0.241,0.39,0.363,0.887,0.363,1.491c0,0.336-0.058,0.67-0.175,1.01
		c-0.115,0.336-0.281,0.65-0.5,0.936c-0.219,0.286-0.495,0.53-0.826,0.725c-0.335,0.199-0.719,0.318-1.157,0.36v1.548h-1.156v-1.545
		h0.001L24.132,32.229L24.132,32.229z"/>
</g>
</svg>
