<?xml version="1.0" encoding="utf-8"?>
<!-- Generator: Adobe Illustrator 17.0.0, SVG Export Plug-In . SVG Version: 6.00 Build 0)  -->
<!DOCTYPE svg PUBLIC "-//W3C//DTD SVG 1.1//EN" "http://www.w3.org/Graphics/SVG/1.1/DTD/svg11.dtd">
<svg version="1.1" id="Layer_1" xmlns="http://www.w3.org/2000/svg" xmlns:xlink="http://www.w3.org/1999/xlink" x="0px" y="0px"
	 width="80px" height="80px" viewBox="10 10 80 80" enable-background="new 10 10 80 80" xml:space="preserve">
<g>
	<path fill="#74CBE5" d="M60.249,52.688h20.463c0.547,0,0.996,0.448,0.996,0.996c0,2.911-1.195,5.56-3.11,7.475
		c-1.916,1.915-4.565,3.11-7.476,3.11h-1.269c-2.911,0-5.561-1.195-7.476-3.11c-1.916-1.916-3.11-4.565-3.11-7.475
		c0-0.548,0.447-0.996,0.995-0.996C60.26,52.688,60.249,52.688,60.249,52.688z M79.655,54.679H61.294
		c0.224,1.965,1.132,3.744,2.476,5.075c1.555,1.555,3.707,2.525,6.07,2.525h1.269c2.363,0,4.515-0.97,6.07-2.525
		C78.522,58.41,79.419,56.644,79.655,54.679z"/>
	<path fill="#74CBE5" d="M63.01,54.056c-0.198,0.51-0.783,0.759-1.293,0.548c-0.51-0.199-0.758-0.784-0.547-1.294l8.384-20.897
		c0.199-0.51,0.783-0.759,1.293-0.548c0.261,0.099,0.461,0.311,0.548,0.548l8.384,20.897c0.199,0.51-0.038,1.083-0.547,1.294
		c-0.51,0.199-1.083-0.038-1.293-0.548L70.475,35.46L63.01,54.056z"/>
	<path fill="#74CBE5" d="M18.999,52.688h20.463c0.547,0,0.995,0.448,0.995,0.996c0,2.911-1.194,5.56-3.11,7.475
		c-1.916,1.915-4.565,3.11-7.476,3.11h-1.267c-2.911,0-5.56-1.195-7.475-3.11c-1.916-1.916-3.11-4.565-3.11-7.475
		c0-0.548,0.448-0.996,0.995-0.996C19.012,52.688,18.999,52.688,18.999,52.688z M38.405,54.679H20.044
		c0.224,1.965,1.132,3.744,2.476,5.075c1.555,1.555,3.707,2.525,6.07,2.525h1.268c2.364,0,4.515-0.97,6.071-2.525
		C37.273,58.41,38.169,56.644,38.405,54.679z"/>
	<path fill="#74CBE5" d="M21.762,54.056c-0.199,0.51-0.784,0.759-1.294,0.548c-0.51-0.199-0.759-0.784-0.548-1.294l8.385-20.897
		c0.199-0.51,0.783-0.759,1.294-0.548c0.261,0.099,0.46,0.311,0.547,0.548L38.53,53.31c0.199,0.51-0.037,1.083-0.548,1.294
		c-0.51,0.199-1.082-0.038-1.294-0.548L29.225,35.46L21.762,54.056z"/>
	<path fill="#74CBE5" d="M29.76,33.632c-0.46,0.286-1.082,0.149-1.368-0.324c-0.286-0.461-0.149-1.082,0.324-1.368
		c2.575-1.604,5.498-2.848,8.62-3.744c3.209-0.921,6.63-1.468,10.101-1.643c0.547-0.025,1.008,0.398,1.033,0.946
		c0.025,0.547-0.398,1.008-0.946,1.032c-3.309,0.162-6.58,0.696-9.653,1.58C34.922,30.957,32.173,32.126,29.76,33.632z
		 M52.188,28.53c-0.547-0.024-0.97-0.485-0.946-1.032c0.025-0.548,0.486-0.971,1.033-0.946c3.471,0.174,6.891,0.721,10.101,1.643
		c3.11,0.896,6.033,2.14,8.62,3.744c0.461,0.287,0.61,0.908,0.324,1.368c-0.286,0.46-0.908,0.61-1.368,0.324
		c-2.413-1.505-5.162-2.674-8.11-3.52C58.769,29.227,55.497,28.706,52.188,28.53z"/>
	<path fill="#74CBE5" d="M47.473,20.545h4.765c0.547,0,0.995,0.448,0.995,0.996v47.58c0,0.547-0.448,0.995-0.995,0.995h-4.765
		c-0.547,0-0.995-0.448-0.995-0.995v-47.58C46.479,20.993,46.926,20.545,47.473,20.545z M51.243,22.535h-2.774v45.591h2.774V22.535z
		"/>
	<path fill="#74CBE5" d="M37.049,68.125h25.613c2.289,0,4.378,0.933,5.884,2.45c1.505,1.505,2.45,3.595,2.45,5.884
		c0,0.547-0.448,0.995-0.995,0.995H29.71c-0.547,0-0.996-0.448-0.996-0.995c0-2.289,0.933-4.378,2.45-5.884
		C32.671,69.071,34.76,68.125,37.049,68.125z M62.662,70.116H37.049c-1.742,0-3.321,0.709-4.478,1.866
		c-0.921,0.921-1.568,2.14-1.779,3.483h38.14c-0.211-1.344-0.858-2.55-1.78-3.483c-1.144-1.144-2.737-1.866-4.478-1.866H62.662z"/>
</g>
</svg>
