<?xml version="1.0" encoding="utf-8"?>
<!-- Generator: Adobe Illustrator 17.0.0, SVG Export Plug-In . SVG Version: 6.00 Build 0)  -->
<!DOCTYPE svg PUBLIC "-//W3C//DTD SVG 1.1//EN" "http://www.w3.org/Graphics/SVG/1.1/DTD/svg11.dtd">
<svg version="1.1" id="Layer_1" xmlns="http://www.w3.org/2000/svg" xmlns:xlink="http://www.w3.org/1999/xlink" x="0px" y="0px"
	 width="100px" height="100px" viewBox="-10 -10 100 100" enable-background="new -10 -10 100 100" xml:space="preserve">
<circle fill="#E3FCFF" cx="40" cy="40" r="50"/>
<g>
	<path fill="#74CBE5" d="M49.29,43.3h18.305c0.489,0,0.891,0.401,0.891,0.891c0,2.604-1.069,4.974-2.782,6.687
		c-1.714,1.713-4.084,2.782-6.688,2.782h-1.135c-2.604,0-4.975-1.069-6.688-2.782c-1.714-1.714-2.782-4.084-2.782-6.687
		c0-0.49,0.4-0.891,0.89-0.891C49.3,43.3,49.29,43.3,49.29,43.3z M66.65,45.081H50.225c0.2,1.758,1.013,3.349,2.215,4.54
		c1.391,1.391,3.316,2.259,5.43,2.259h1.135c2.114,0,4.039-0.868,5.43-2.259C65.637,48.418,66.439,46.838,66.65,45.081z"/>
	<path fill="#74CBE5" d="M51.76,44.523c-0.177,0.456-0.7,0.679-1.157,0.49c-0.456-0.178-0.678-0.701-0.489-1.158l7.5-18.693
		c0.178-0.456,0.7-0.679,1.157-0.49c0.233,0.089,0.412,0.278,0.49,0.49l7.5,18.693c0.178,0.456-0.034,0.969-0.489,1.158
		c-0.456,0.178-0.969-0.034-1.157-0.49l-6.677-16.635L51.76,44.523z"/>
	<path fill="#74CBE5" d="M12.39,43.3h18.305c0.489,0,0.89,0.401,0.89,0.891c0,2.604-1.068,4.974-2.782,6.687
		c-1.714,1.713-4.084,2.782-6.688,2.782h-1.133c-2.604,0-4.974-1.069-6.687-2.782c-1.714-1.714-2.782-4.084-2.782-6.687
		c0-0.49,0.401-0.891,0.89-0.891C12.402,43.3,12.39,43.3,12.39,43.3z M29.75,45.081H13.325c0.2,1.758,1.013,3.349,2.215,4.54
		c1.391,1.391,3.316,2.259,5.43,2.259h1.134c2.115,0,4.039-0.868,5.431-2.259C28.737,48.418,29.539,46.838,29.75,45.081z"/>
	<path fill="#74CBE5" d="M14.862,44.523c-0.178,0.456-0.701,0.679-1.158,0.49c-0.456-0.178-0.679-0.701-0.49-1.158l7.501-18.693
		c0.178-0.456,0.7-0.679,1.158-0.49c0.233,0.089,0.411,0.278,0.489,0.49l7.5,18.693c0.178,0.456-0.033,0.969-0.49,1.158
		c-0.456,0.178-0.968-0.034-1.158-0.49l-6.676-16.635L14.862,44.523z"/>
	<path fill="#74CBE5" d="M22.016,26.253c-0.411,0.256-0.968,0.133-1.224-0.29c-0.256-0.412-0.133-0.968,0.29-1.224
		c2.303-1.435,4.918-2.548,7.711-3.349c2.871-0.824,5.931-1.313,9.036-1.47c0.489-0.022,0.902,0.356,0.924,0.846
		c0.022,0.489-0.356,0.902-0.846,0.923c-2.96,0.145-5.886,0.623-8.635,1.413C26.634,23.86,24.175,24.906,22.016,26.253z
		 M42.079,21.689c-0.489-0.021-0.868-0.434-0.846-0.923c0.022-0.49,0.435-0.869,0.924-0.846c3.105,0.156,6.164,0.645,9.036,1.47
		c2.782,0.802,5.397,1.914,7.711,3.349c0.412,0.257,0.546,0.812,0.29,1.224c-0.256,0.411-0.812,0.546-1.224,0.29
		c-2.159-1.346-4.618-2.392-7.255-3.149C47.966,22.312,45.039,21.846,42.079,21.689z"/>
	<path fill="#74CBE5" d="M37.862,14.546h4.263c0.489,0,0.89,0.401,0.89,0.891V58c0,0.489-0.401,0.89-0.89,0.89h-4.263
		c-0.489,0-0.89-0.401-0.89-0.89V15.437C36.972,14.947,37.372,14.546,37.862,14.546z M41.234,16.326h-2.481V57.11h2.481V16.326z"/>
	<path fill="#74CBE5" d="M28.537,57.109h22.912c2.048,0,3.916,0.835,5.264,2.192c1.346,1.346,2.192,3.216,2.192,5.264
		c0,0.489-0.401,0.89-0.89,0.89H21.972c-0.489,0-0.891-0.401-0.891-0.89c0-2.048,0.835-3.916,2.192-5.264
		C24.62,57.955,26.489,57.109,28.537,57.109z M51.449,58.89H28.537c-1.558,0-2.971,0.634-4.006,1.669
		c-0.824,0.824-1.403,1.914-1.591,3.116h34.118c-0.189-1.202-0.768-2.281-1.592-3.116c-1.023-1.023-2.448-1.669-4.006-1.669H51.449z
		"/>
</g>
</svg>
