<?xml version="1.0" encoding="utf-8"?>
<!-- Generator: Adobe Illustrator 17.0.0, SVG Export Plug-In . SVG Version: 6.00 Build 0)  -->
<!DOCTYPE svg PUBLIC "-//W3C//DTD SVG 1.1//EN" "http://www.w3.org/Graphics/SVG/1.1/DTD/svg11.dtd">
<svg version="1.1" id="Layer_1" xmlns="http://www.w3.org/2000/svg" xmlns:xlink="http://www.w3.org/1999/xlink" x="0px" y="0px"
	 width="1124.713px" height="351.473px" viewBox="0 0 1124.713 351.473" enable-background="new 0 0 1124.713 351.473"
	 xml:space="preserve">
<g>
	<path fill="#5D73A2" d="M564.849,218.145c0.742,0,1.344-0.602,1.344-1.344s-0.602-1.344-1.344-1.344h-0.134
		c-0.742,0-1.344,0.602-1.344,1.344s0.602,1.344,1.344,1.344H564.849z"/>
	<path fill="#5D73A2" d="M552.488,218.145c0.742,0,1.344-0.602,1.344-1.344s-0.602-1.344-1.344-1.344h-0.134
		c-0.742,0-1.344,0.602-1.344,1.344s0.602,1.344,1.344,1.344H552.488z"/>
	<path fill="#5D73A2" d="M527.632,218.145h0.134c0.742,0,1.344-0.602,1.344-1.344s-0.602-1.344-1.344-1.344h-0.134
		c-0.742,0-1.344,0.602-1.344,1.344S526.889,218.145,527.632,218.145z"/>
	<path fill="#5D73A2" d="M558.669,218.145c0.742,0,1.344-0.602,1.344-1.344s-0.601-1.344-1.344-1.344h-0.134
		c-0.742,0-1.344,0.602-1.344,1.344s0.602,1.344,1.344,1.344H558.669z"/>
	<path fill="#5D73A2" d="M546.308,218.145c0.742,0,1.344-0.602,1.344-1.344s-0.602-1.344-1.344-1.344h-0.134
		c-0.742,0-1.344,0.602-1.344,1.344s0.601,1.344,1.344,1.344H546.308z"/>
	<path fill="#5D73A2" d="M540.127,218.145c0.742,0,1.344-0.602,1.344-1.344s-0.602-1.344-1.344-1.344h-0.134
		c-0.742,0-1.344,0.602-1.344,1.344s0.601,1.344,1.344,1.344H540.127z"/>
	<path fill="#5D73A2" d="M522.66,228.894c-0.742,0-1.344,0.602-1.344,1.344v0.134c0,0.742,0.601,1.344,1.344,1.344
		c0.742,0,1.344-0.602,1.344-1.344v-0.134C524.004,229.496,523.402,228.894,522.66,228.894z"/>
	<path fill="#5D73A2" d="M522.66,235.074c-0.742,0-1.344,0.602-1.344,1.344v0.134c0,0.742,0.601,1.344,1.344,1.344
		c0.742,0,1.344-0.601,1.344-1.344v-0.134C524.004,235.676,523.402,235.074,522.66,235.074z"/>
	<path fill="#5D73A2" d="M522.66,222.713c-0.742,0-1.344,0.602-1.344,1.344v0.134c0,0.742,0.601,1.344,1.344,1.344
		c0.742,0,1.344-0.602,1.344-1.344v-0.134C524.004,223.314,523.402,222.713,522.66,222.713z"/>
	<path fill="#5D73A2" d="M533.946,218.145c0.742,0,1.344-0.602,1.344-1.344s-0.602-1.344-1.344-1.344h-0.134
		c-0.742,0-1.344,0.602-1.344,1.344s0.602,1.344,1.344,1.344H533.946z"/>
	<path fill="#5D73A2" d="M522.66,216.532c-0.742,0-1.344,0.601-1.344,1.344v0.134c0,0.742,0.601,1.344,1.344,1.344
		c0.742,0,1.344-0.602,1.344-1.344v-0.134C524.004,217.134,523.402,216.532,522.66,216.532z"/>
	<path fill="#5D73A2" d="M601.933,218.145c0.742,0,1.344-0.602,1.344-1.344s-0.602-1.344-1.344-1.344h-0.134
		c-0.742,0-1.344,0.602-1.344,1.344s0.602,1.344,1.344,1.344H601.933z"/>
	<path fill="#5D73A2" d="M595.752,218.145c0.742,0,1.344-0.602,1.344-1.344s-0.602-1.344-1.344-1.344h-0.134
		c-0.742,0-1.344,0.602-1.344,1.344s0.602,1.344,1.344,1.344H595.752z"/>
	<path fill="#5D73A2" d="M602.605,233.193c-0.742,0-1.344,0.602-1.344,1.344v0.134c0,0.455,0.226,0.857,0.572,1.101
		c-0.421,0.227-0.707,0.672-0.707,1.184c0,0.742,0.602,1.344,1.344,1.344h0.134c0.742,0,1.344-0.602,1.344-1.344
		c0-0.482-0.254-0.906-0.635-1.142c0.382-0.237,0.635-0.66,0.635-1.142v-0.134C603.948,233.795,603.346,233.193,602.605,233.193z"/>
	<path fill="#5D73A2" d="M602.605,220.832c-0.742,0-1.344,0.602-1.344,1.344v0.134c0,0.742,0.602,1.344,1.344,1.344
		s1.344-0.602,1.344-1.344v-0.134C603.948,221.434,603.346,220.832,602.605,220.832z"/>
	<path fill="#5D73A2" d="M602.605,227.013c-0.742,0-1.344,0.602-1.344,1.344v0.134c0,0.742,0.602,1.344,1.344,1.344
		s1.344-0.601,1.344-1.344v-0.134C603.948,227.615,603.346,227.013,602.605,227.013z"/>
	<path fill="#5D73A2" d="M589.572,218.145c0.742,0,1.344-0.602,1.344-1.344s-0.602-1.344-1.344-1.344h-0.134
		c-0.742,0-1.344,0.602-1.344,1.344s0.602,1.344,1.344,1.344H589.572z"/>
	<path fill="#5D73A2" d="M577.21,218.145c0.742,0,1.344-0.602,1.344-1.344s-0.602-1.344-1.344-1.344h-0.134
		c-0.742,0-1.344,0.602-1.344,1.344s0.601,1.344,1.344,1.344H577.21z"/>
	<path fill="#5D73A2" d="M571.03,218.145c0.742,0,1.344-0.602,1.344-1.344s-0.602-1.344-1.344-1.344h-0.134
		c-0.742,0-1.344,0.602-1.344,1.344s0.601,1.344,1.344,1.344H571.03z"/>
	<path fill="#5D73A2" d="M583.391,218.145c0.742,0,1.344-0.602,1.344-1.344s-0.602-1.344-1.344-1.344h-0.134
		c-0.742,0-1.344,0.602-1.344,1.344s0.602,1.344,1.344,1.344H583.391z"/>
</g>
<path id="XMLID_165_" fill="#DCDEE0" stroke="#5D73A2" stroke-width="3" stroke-linecap="round" stroke-linejoin="round" stroke-miterlimit="10" d="
	M538.916,65.765v-6.058h-4.082c-0.287-1.228-0.756-2.384-1.377-3.443l2.852-2.852l-4.284-4.284l-2.808,2.808
	c-1.068-0.656-2.238-1.154-3.487-1.466v-3.95h-6.058v3.95c-1.248,0.312-2.419,0.81-3.487,1.466l-2.808-2.808l-4.284,4.284
	l2.852,2.852c-0.621,1.059-1.089,2.215-1.377,3.443h-4.082v6.058h4.174c0.314,1.182,0.795,2.292,1.42,3.308l-2.986,2.986
	l4.284,4.284l3.03-3.03c1.007,0.591,2.103,1.041,3.265,1.332v4.306h6.058v-4.306c1.162-0.29,2.257-0.74,3.265-1.332l3.03,3.03
	l4.284-4.284l-2.986-2.986c0.625-1.016,1.106-2.126,1.42-3.308C534.744,65.765,538.916,65.765,538.916,65.765z M522.701,66.478
	c-2.165,0-3.92-1.755-3.92-3.92s1.755-3.92,3.92-3.92s3.92,1.755,3.92,3.92S524.866,66.478,522.701,66.478z"/>
<polygon fill="#F1F2F3" points="111.371,238.764 57.127,238.764 57.127,314.834 98.374,314.834 111.371,301.836 "/>
<g>
	<polygon fill="#FFAD61" points="111.371,301.836 98.374,314.834 98.362,301.825 	"/>
	<path fill="#FFAD61" d="M69.82,251.423c0.052,0.803,0.464,1.551,1.139,1.989c0.833,0.541,1.905,0.541,2.738,0
		c0.675-0.439,1.087-1.186,1.139-1.989l0.199-3.048c0.102-1.565-1.139-2.889-2.707-2.889l0,0c-1.568,0-2.81,1.325-2.707,2.889
		L69.82,251.423z"/>
</g>
<g>
	<path fill="#5D73A2" d="M111.371,237.186H57.126c-0.872,0-1.578,0.707-1.578,1.578v76.069c0,0.872,0.707,1.578,1.578,1.578h41.247
		c0.419,0,0.82-0.167,1.116-0.462l12.997-12.998c0.296-0.296,0.462-0.697,0.462-1.116v-63.072
		C112.95,237.892,112.243,237.186,111.371,237.186z M58.705,273.169h0.135c0.872,0,1.578-0.707,1.578-1.578
		s-0.707-1.578-1.578-1.578h-0.135v-29.67h51.089v29.671c-0.861,0.012-1.556,0.713-1.556,1.577c0,0.864,0.695,1.565,1.555,1.577
		v27.089l-11.429-0.01h-0.001c-0.419,0-0.82,0.167-1.116,0.462c-0.296,0.296-0.463,0.698-0.462,1.117l0.01,11.429H58.706
		L58.705,273.169L58.705,273.169z M99.942,303.404l7.622,0.007l-7.615,7.615L99.942,303.404z"/>
	<path fill="#5D73A2" d="M86.335,250.609h8.639c0.871,0,1.578-0.707,1.578-1.578s-0.707-1.578-1.578-1.578h-8.639
		c-0.871,0-1.578,0.707-1.578,1.578S85.464,250.609,86.335,250.609z"/>
	<path fill="#5D73A2" d="M86.335,257.859h18.746c0.871,0,1.578-0.707,1.578-1.578c0-0.872-0.707-1.578-1.578-1.578H86.335
		c-0.871,0-1.578,0.707-1.578,1.578C84.757,257.153,85.464,257.859,86.335,257.859z"/>
	<path fill="#5D73A2" d="M86.335,265.121h18.746c0.871,0,1.578-0.707,1.578-1.578s-0.707-1.578-1.578-1.578H86.335
		c-0.871,0-1.578,0.707-1.578,1.578S85.464,265.121,86.335,265.121z"/>
	<path fill="#5D73A2" d="M64.679,278.701c-0.872,0-1.578,0.707-1.578,1.578s0.707,1.578,1.578,1.578h18.693
		c0.872,0,1.578-0.707,1.578-1.578c0-0.872-0.707-1.578-1.578-1.578H64.679z"/>
	<path fill="#5D73A2" d="M105.239,285.084h-40.56c-0.872,0-1.578,0.707-1.578,1.578c0,0.872,0.707,1.578,1.578,1.578h40.56
		c0.871,0,1.578-0.707,1.578-1.578C106.818,285.791,106.11,285.084,105.239,285.084z"/>
	<path fill="#5D73A2" d="M105.239,291.477h-40.56c-0.872,0-1.578,0.707-1.578,1.578c0,0.872,0.707,1.578,1.578,1.578h40.56
		c0.871,0,1.578-0.707,1.578-1.578C106.818,292.183,106.11,291.477,105.239,291.477z"/>
	<path fill="#5D73A2" d="M81.724,302.366h-1.333c-0.872,0-1.578,0.707-1.578,1.578s0.707,1.578,1.578,1.578h1.333
		c0.871,0,1.578-0.707,1.578-1.578S82.595,302.366,81.724,302.366z"/>
	<path fill="#5D73A2" d="M74.937,302.366H64.679c-0.872,0-1.578,0.707-1.578,1.578s0.707,1.578,1.578,1.578h10.258
		c0.871,0,1.578-0.707,1.578-1.578S75.809,302.366,74.937,302.366z"/>
	<path fill="#5D73A2" d="M68.244,251.526c0.085,1.311,0.779,2.511,1.854,3.21c0.677,0.44,1.453,0.66,2.228,0.66
		s1.552-0.22,2.229-0.66c1.076-0.699,1.769-1.899,1.855-3.21l0.199-3.048c0.077-1.18-0.343-2.351-1.151-3.213
		c-0.808-0.863-1.95-1.357-3.131-1.357s-2.323,0.494-3.131,1.357s-1.227,2.034-1.151,3.213L68.244,251.526z M71.5,247.423
		c0.217-0.232,0.511-0.359,0.828-0.359s0.611,0.128,0.828,0.359c0.217,0.231,0.325,0.533,0.304,0.85l-0.199,3.048
		c-0.021,0.322-0.179,0.609-0.425,0.768c-0.31,0.201-0.709,0.201-1.018,0c-0.245-0.159-0.403-0.446-0.425-0.768l0,0l-0.199-3.048
		C71.175,247.956,71.283,247.654,71.5,247.423z"/>
	<path fill="#5D73A2" d="M63.732,265.278h17.191c0.468,0,0.912-0.208,1.211-0.567c0.3-0.359,0.425-0.832,0.342-1.293l-0.345-1.903
		c-0.478-2.639-2.569-4.746-5.203-5.241c-0.398-0.075-0.804-0.113-1.208-0.113h-1.039c-0.419,0-0.82,0.167-1.116,0.462
		c-0.331,0.331-0.771,0.513-1.238,0.513c-0.468,0-0.908-0.182-1.238-0.513c-0.296-0.296-0.697-0.462-1.116-0.462h-1.039
		c-0.404,0-0.81,0.038-1.209,0.113c-2.634,0.496-4.725,2.602-5.203,5.241l-0.345,1.903c-0.083,0.46,0.042,0.934,0.342,1.293
		C62.821,265.071,63.264,265.278,63.732,265.278z M65.63,262.078c0.247-1.36,1.324-2.447,2.681-2.702
		c0.206-0.039,0.415-0.058,0.624-0.058h0.456c1.735,1.297,4.138,1.297,5.873,0h0.456c0.209,0,0.419,0.019,0.624,0.058
		c1.357,0.255,2.435,1.342,2.681,2.702l0.008,0.044H65.621L65.63,262.078z"/>
	<path fill="#5D73A2" d="M100.013,273.169c0.871,0,1.578-0.707,1.578-1.578s-0.707-1.578-1.578-1.578h-1.96
		c-0.871,0-1.578,0.707-1.578,1.578c0,0.872,0.707,1.578,1.578,1.578H100.013z"/>
	<path fill="#5D73A2" d="M94.131,273.169c0.871,0,1.578-0.707,1.578-1.578s-0.707-1.578-1.578-1.578h-1.96
		c-0.871,0-1.578,0.707-1.578,1.578c0,0.872,0.707,1.578,1.578,1.578H94.131z"/>
	<path fill="#5D73A2" d="M66.3,271.591c0-0.871-0.707-1.578-1.578-1.578h-1.96c-0.872,0-1.578,0.707-1.578,1.578
		c0,0.872,0.707,1.578,1.578,1.578h1.96C65.593,273.169,66.3,272.463,66.3,271.591z"/>
	<path fill="#5D73A2" d="M80.407,270.013c-0.872,0-1.578,0.707-1.578,1.578s0.707,1.578,1.578,1.578h1.96
		c0.872,0,1.578-0.707,1.578-1.578c0-0.872-0.707-1.578-1.578-1.578H80.407z"/>
	<path fill="#5D73A2" d="M76.485,273.169c0.872,0,1.578-0.707,1.578-1.578s-0.707-1.578-1.578-1.578h-1.96
		c-0.872,0-1.578,0.707-1.578,1.578c0,0.872,0.707,1.578,1.578,1.578H76.485z"/>
	<path fill="#5D73A2" d="M103.934,270.013c-0.871,0-1.578,0.707-1.578,1.578s0.707,1.578,1.578,1.578h1.961
		c0.871,0,1.578-0.707,1.578-1.578c0-0.872-0.707-1.578-1.578-1.578H103.934z"/>
	<path fill="#5D73A2" d="M86.288,273.169h1.96c0.871,0,1.578-0.707,1.578-1.578s-0.707-1.578-1.578-1.578h-1.96
		c-0.871,0-1.578,0.707-1.578,1.578C84.71,272.463,85.417,273.169,86.288,273.169z"/>
	<path fill="#5D73A2" d="M70.604,273.169c0.872,0,1.578-0.707,1.578-1.578s-0.707-1.578-1.578-1.578h-1.96
		c-0.871,0-1.578,0.707-1.578,1.578c0,0.872,0.707,1.578,1.578,1.578H70.604z"/>
</g>
<polygon fill="#F1F2F3" points="197.969,238.764 143.724,238.764 143.724,314.834 184.972,314.834 197.969,301.836 "/>
<g>
	<polygon fill="#FFAD61" points="197.969,301.836 184.972,314.834 184.96,301.825 	"/>
	<path fill="#FFAD61" d="M156.417,251.423c0.052,0.803,0.464,1.551,1.139,1.989c0.833,0.541,1.905,0.541,2.738,0
		c0.675-0.439,1.087-1.186,1.139-1.989l0.199-3.048c0.102-1.565-1.139-2.889-2.707-2.889l0,0c-1.568,0-2.809,1.325-2.707,2.889
		L156.417,251.423z"/>
</g>
<g>
	<path fill="#5D73A2" d="M197.969,237.186h-54.245c-0.872,0-1.578,0.707-1.578,1.578v76.069c0,0.872,0.707,1.578,1.578,1.578h41.247
		c0.419,0,0.82-0.167,1.116-0.462l12.997-12.998c0.296-0.296,0.462-0.697,0.462-1.116v-63.072
		C199.547,237.892,198.84,237.186,197.969,237.186z M145.303,273.169h0.135c0.871,0,1.578-0.707,1.578-1.578
		s-0.707-1.578-1.578-1.578h-0.135v-29.67h51.089v29.671c-0.861,0.012-1.555,0.713-1.555,1.577c0,0.864,0.695,1.565,1.555,1.577
		v27.089l-11.429-0.01c-0.001,0-0.001,0-0.001,0c-0.419,0-0.82,0.167-1.117,0.462c-0.296,0.296-0.462,0.698-0.462,1.117
		l0.011,11.429h-38.09L145.303,273.169L145.303,273.169z M186.54,303.404l7.622,0.007l-7.615,7.615L186.54,303.404z"/>
	<path fill="#5D73A2" d="M172.933,250.609h8.639c0.871,0,1.578-0.707,1.578-1.578s-0.707-1.578-1.578-1.578h-8.639
		c-0.871,0-1.578,0.707-1.578,1.578S172.062,250.609,172.933,250.609z"/>
	<path fill="#5D73A2" d="M172.933,257.859h18.746c0.871,0,1.578-0.707,1.578-1.578c0-0.872-0.707-1.578-1.578-1.578h-18.746
		c-0.871,0-1.578,0.707-1.578,1.578C171.355,257.153,172.062,257.859,172.933,257.859z"/>
	<path fill="#5D73A2" d="M172.933,265.121h18.746c0.871,0,1.578-0.707,1.578-1.578s-0.707-1.578-1.578-1.578h-18.746
		c-0.871,0-1.578,0.707-1.578,1.578S172.062,265.121,172.933,265.121z"/>
	<path fill="#5D73A2" d="M151.277,278.701c-0.872,0-1.578,0.707-1.578,1.578s0.707,1.578,1.578,1.578h18.693
		c0.872,0,1.578-0.707,1.578-1.578c0-0.872-0.707-1.578-1.578-1.578H151.277z"/>
	<path fill="#5D73A2" d="M191.837,285.084h-40.56c-0.872,0-1.578,0.707-1.578,1.578c0,0.872,0.707,1.578,1.578,1.578h40.56
		c0.871,0,1.578-0.707,1.578-1.578S192.708,285.084,191.837,285.084z"/>
	<path fill="#5D73A2" d="M191.837,291.477h-40.56c-0.872,0-1.578,0.707-1.578,1.578c0,0.872,0.707,1.578,1.578,1.578h40.56
		c0.871,0,1.578-0.707,1.578-1.578C193.415,292.183,192.708,291.477,191.837,291.477z"/>
	<path fill="#5D73A2" d="M168.321,302.366h-1.333c-0.871,0-1.578,0.707-1.578,1.578s0.707,1.578,1.578,1.578h1.333
		c0.872,0,1.578-0.707,1.578-1.578C169.9,303.073,169.193,302.366,168.321,302.366z"/>
	<path fill="#5D73A2" d="M161.535,302.366h-10.258c-0.872,0-1.578,0.707-1.578,1.578s0.707,1.578,1.578,1.578h10.258
		c0.872,0,1.578-0.707,1.578-1.578S162.407,302.366,161.535,302.366z"/>
	<path fill="#5D73A2" d="M154.842,251.526c0.085,1.311,0.779,2.511,1.855,3.21c0.677,0.44,1.453,0.66,2.228,0.66
		c0.776,0,1.552-0.22,2.229-0.66c1.076-0.699,1.769-1.899,1.854-3.21l0.199-3.048c0.077-1.18-0.343-2.351-1.151-3.213
		c-0.808-0.863-1.95-1.357-3.131-1.357s-2.323,0.494-3.131,1.357s-1.227,2.034-1.151,3.213L154.842,251.526z M158.097,247.423
		c0.217-0.232,0.511-0.359,0.828-0.359s0.611,0.128,0.828,0.359c0.217,0.231,0.325,0.533,0.304,0.85l-0.199,3.048
		c-0.021,0.322-0.179,0.609-0.425,0.768c-0.309,0.201-0.709,0.201-1.018,0c-0.245-0.159-0.403-0.446-0.425-0.768l0,0l-0.199-3.048
		C157.772,247.956,157.88,247.654,158.097,247.423z"/>
	<path fill="#5D73A2" d="M150.33,265.278h17.191c0.468,0,0.912-0.208,1.211-0.567c0.3-0.359,0.425-0.832,0.342-1.293l-0.345-1.903
		c-0.478-2.639-2.569-4.746-5.203-5.241c-0.398-0.075-0.804-0.113-1.208-0.113h-1.039c-0.419,0-0.82,0.167-1.116,0.462
		c-0.331,0.331-0.771,0.513-1.238,0.513s-0.908-0.182-1.238-0.513c-0.296-0.296-0.697-0.462-1.116-0.462h-1.039
		c-0.404,0-0.81,0.038-1.209,0.113c-2.634,0.496-4.725,2.602-5.202,5.241l-0.345,1.903c-0.083,0.46,0.042,0.934,0.341,1.293
		C149.419,265.071,149.862,265.278,150.33,265.278z M152.227,262.078c0.247-1.36,1.324-2.447,2.681-2.702
		c0.206-0.039,0.415-0.058,0.624-0.058h0.456c1.735,1.297,4.138,1.297,5.873,0h0.456c0.209,0,0.419,0.019,0.624,0.058
		c1.357,0.255,2.435,1.342,2.681,2.702l0.008,0.044h-13.411L152.227,262.078z"/>
	<path fill="#5D73A2" d="M186.61,273.169c0.871,0,1.578-0.707,1.578-1.578s-0.707-1.578-1.578-1.578h-1.96
		c-0.871,0-1.578,0.707-1.578,1.578c0,0.872,0.707,1.578,1.578,1.578H186.61z"/>
	<path fill="#5D73A2" d="M180.729,273.169c0.871,0,1.578-0.707,1.578-1.578s-0.707-1.578-1.578-1.578h-1.96
		c-0.871,0-1.578,0.707-1.578,1.578c0,0.872,0.707,1.578,1.578,1.578H180.729z"/>
	<path fill="#5D73A2" d="M152.897,271.591c0-0.871-0.707-1.578-1.578-1.578h-1.96c-0.871,0-1.578,0.707-1.578,1.578
		c0,0.872,0.707,1.578,1.578,1.578h1.96C152.191,273.169,152.897,272.463,152.897,271.591z"/>
	<path fill="#5D73A2" d="M167.004,270.013c-0.871,0-1.578,0.707-1.578,1.578s0.707,1.578,1.578,1.578h1.96
		c0.872,0,1.578-0.707,1.578-1.578c0-0.872-0.707-1.578-1.578-1.578H167.004z"/>
	<path fill="#5D73A2" d="M163.083,273.169c0.872,0,1.578-0.707,1.578-1.578s-0.707-1.578-1.578-1.578h-1.96
		c-0.872,0-1.578,0.707-1.578,1.578c0,0.872,0.707,1.578,1.578,1.578H163.083z"/>
	<path fill="#5D73A2" d="M190.532,270.013c-0.871,0-1.578,0.707-1.578,1.578s0.707,1.578,1.578,1.578h1.961
		c0.871,0,1.578-0.707,1.578-1.578c0-0.872-0.707-1.578-1.578-1.578H190.532z"/>
	<path fill="#5D73A2" d="M172.886,273.169h1.96c0.871,0,1.578-0.707,1.578-1.578s-0.707-1.578-1.578-1.578h-1.96
		c-0.871,0-1.578,0.707-1.578,1.578C171.308,272.463,172.015,273.169,172.886,273.169z"/>
	<path fill="#5D73A2" d="M157.201,273.169c0.872,0,1.578-0.707,1.578-1.578s-0.707-1.578-1.578-1.578h-1.96
		c-0.872,0-1.578,0.707-1.578,1.578c0,0.872,0.707,1.578,1.578,1.578H157.201z"/>
</g>
<polygon fill="#F1F2F3" points="284.352,238.764 230.107,238.764 230.107,314.834 271.354,314.834 284.352,301.836 "/>
<g>
	<polygon fill="#FFAD61" points="284.352,301.836 271.354,314.834 271.343,301.825 	"/>
	<path fill="#FFAD61" d="M242.8,251.423c0.052,0.803,0.464,1.551,1.139,1.989c0.833,0.541,1.905,0.541,2.738,0
		c0.675-0.439,1.087-1.186,1.139-1.989l0.199-3.048c0.102-1.565-1.139-2.889-2.707-2.889l0,0c-1.568,0-2.809,1.325-2.707,2.889
		L242.8,251.423z"/>
</g>
<g>
	<path fill="#5D73A2" d="M284.351,237.186h-54.245c-0.871,0-1.578,0.707-1.578,1.578v76.069c0,0.872,0.707,1.578,1.578,1.578h41.247
		c0.419,0,0.82-0.167,1.116-0.462l12.997-12.998c0.296-0.296,0.462-0.697,0.462-1.116v-63.072
		C285.93,237.892,285.223,237.186,284.351,237.186z M231.685,273.169h0.135c0.872,0,1.578-0.707,1.578-1.578
		s-0.707-1.578-1.578-1.578h-0.135v-29.67h51.089v29.671c-0.861,0.012-1.555,0.713-1.555,1.577c0,0.864,0.695,1.565,1.555,1.577
		v27.089l-11.429-0.01h-0.001c-0.419,0-0.82,0.167-1.116,0.462c-0.296,0.296-0.462,0.698-0.462,1.117l0.01,11.429h-38.09
		L231.685,273.169L231.685,273.169z M272.923,303.404l7.622,0.007l-7.615,7.615L272.923,303.404z"/>
	<path fill="#5D73A2" d="M259.316,250.609h8.639c0.871,0,1.578-0.707,1.578-1.578s-0.707-1.578-1.578-1.578h-8.639
		c-0.871,0-1.578,0.707-1.578,1.578C257.737,249.902,258.444,250.609,259.316,250.609z"/>
	<path fill="#5D73A2" d="M259.316,257.859h18.746c0.871,0,1.578-0.707,1.578-1.578c0-0.872-0.707-1.578-1.578-1.578h-18.746
		c-0.871,0-1.578,0.707-1.578,1.578C257.737,257.153,258.444,257.859,259.316,257.859z"/>
	<path fill="#5D73A2" d="M259.316,265.121h18.746c0.871,0,1.578-0.707,1.578-1.578s-0.707-1.578-1.578-1.578h-18.746
		c-0.871,0-1.578,0.707-1.578,1.578C257.737,264.414,258.444,265.121,259.316,265.121z"/>
	<path fill="#5D73A2" d="M237.659,278.701c-0.871,0-1.578,0.707-1.578,1.578s0.707,1.578,1.578,1.578h18.694
		c0.871,0,1.578-0.707,1.578-1.578c0-0.872-0.707-1.578-1.578-1.578H237.659z"/>
	<path fill="#5D73A2" d="M278.219,285.084h-40.56c-0.871,0-1.578,0.707-1.578,1.578c0,0.872,0.707,1.578,1.578,1.578h40.56
		c0.871,0,1.578-0.707,1.578-1.578C279.798,285.791,279.09,285.084,278.219,285.084z"/>
	<path fill="#5D73A2" d="M278.219,291.477h-40.56c-0.871,0-1.578,0.707-1.578,1.578c0,0.872,0.707,1.578,1.578,1.578h40.56
		c0.871,0,1.578-0.707,1.578-1.578C279.798,292.183,279.09,291.477,278.219,291.477z"/>
	<path fill="#5D73A2" d="M254.704,302.366h-1.333c-0.871,0-1.578,0.707-1.578,1.578s0.707,1.578,1.578,1.578h1.333
		c0.872,0,1.578-0.707,1.578-1.578S255.575,302.366,254.704,302.366z"/>
	<path fill="#5D73A2" d="M247.918,302.366h-10.259c-0.871,0-1.578,0.707-1.578,1.578s0.707,1.578,1.578,1.578h10.258
		c0.872,0,1.578-0.707,1.578-1.578C249.496,303.073,248.79,302.366,247.918,302.366z"/>
	<path fill="#5D73A2" d="M241.224,251.526c0.085,1.311,0.779,2.511,1.855,3.21c0.677,0.44,1.453,0.66,2.229,0.66
		s1.552-0.22,2.229-0.66c1.076-0.699,1.769-1.899,1.854-3.21l0.199-3.048c0.077-1.18-0.343-2.351-1.151-3.213
		c-0.808-0.863-1.95-1.357-3.131-1.357s-2.323,0.494-3.131,1.357s-1.227,2.034-1.151,3.213L241.224,251.526z M244.48,247.423
		c0.217-0.232,0.511-0.359,0.828-0.359s0.611,0.128,0.828,0.359c0.217,0.231,0.325,0.533,0.304,0.85l-0.199,3.048
		c-0.021,0.322-0.179,0.609-0.425,0.768c-0.309,0.201-0.709,0.201-1.018,0c-0.245-0.159-0.403-0.446-0.425-0.768l0,0l-0.199-3.048
		C244.155,247.956,244.263,247.654,244.48,247.423z"/>
	<path fill="#5D73A2" d="M236.713,265.278h17.191c0.468,0,0.912-0.208,1.211-0.567c0.3-0.359,0.425-0.832,0.342-1.293l-0.345-1.903
		c-0.478-2.639-2.569-4.746-5.203-5.241c-0.398-0.075-0.804-0.113-1.208-0.113h-1.039c-0.419,0-0.82,0.167-1.116,0.462
		c-0.331,0.331-0.771,0.513-1.238,0.513s-0.908-0.182-1.238-0.513c-0.296-0.296-0.697-0.462-1.116-0.462h-1.039
		c-0.404,0-0.81,0.038-1.209,0.113c-2.634,0.496-4.725,2.602-5.203,5.241l-0.345,1.903c-0.083,0.46,0.042,0.934,0.341,1.293
		C235.801,265.071,236.244,265.278,236.713,265.278z M238.61,262.078c0.247-1.36,1.324-2.447,2.681-2.702
		c0.206-0.039,0.415-0.058,0.624-0.058h0.456c1.735,1.297,4.138,1.297,5.873,0h0.456c0.208,0,0.419,0.019,0.624,0.058
		c1.357,0.255,2.435,1.342,2.681,2.702l0.008,0.044h-13.412L238.61,262.078z"/>
	<path fill="#5D73A2" d="M272.993,273.169c0.871,0,1.578-0.707,1.578-1.578s-0.707-1.578-1.578-1.578h-1.96
		c-0.871,0-1.578,0.707-1.578,1.578c0,0.872,0.707,1.578,1.578,1.578H272.993z"/>
	<path fill="#5D73A2" d="M267.111,273.169c0.871,0,1.578-0.707,1.578-1.578s-0.707-1.578-1.578-1.578h-1.96
		c-0.871,0-1.578,0.707-1.578,1.578c0,0.872,0.707,1.578,1.578,1.578H267.111z"/>
	<path fill="#5D73A2" d="M239.28,271.591c0-0.871-0.707-1.578-1.578-1.578h-1.96c-0.871,0-1.578,0.707-1.578,1.578
		c0,0.872,0.707,1.578,1.578,1.578h1.96C238.573,273.169,239.28,272.463,239.28,271.591z"/>
	<path fill="#5D73A2" d="M253.387,270.013c-0.871,0-1.578,0.707-1.578,1.578s0.707,1.578,1.578,1.578h1.96
		c0.872,0,1.578-0.707,1.578-1.578c0-0.872-0.707-1.578-1.578-1.578H253.387z"/>
	<path fill="#5D73A2" d="M249.465,273.169c0.871,0,1.578-0.707,1.578-1.578s-0.707-1.578-1.578-1.578h-1.96
		c-0.871,0-1.578,0.707-1.578,1.578c0,0.872,0.707,1.578,1.578,1.578H249.465z"/>
	<path fill="#5D73A2" d="M276.915,270.013c-0.871,0-1.578,0.707-1.578,1.578s0.707,1.578,1.578,1.578h1.961
		c0.871,0,1.578-0.707,1.578-1.578c0-0.872-0.707-1.578-1.578-1.578H276.915z"/>
	<path fill="#5D73A2" d="M259.268,273.169h1.96c0.871,0,1.578-0.707,1.578-1.578s-0.707-1.578-1.578-1.578h-1.96
		c-0.871,0-1.578,0.707-1.578,1.578C257.69,272.463,258.397,273.169,259.268,273.169z"/>
	<path fill="#5D73A2" d="M243.584,273.169c0.872,0,1.578-0.707,1.578-1.578s-0.707-1.578-1.578-1.578h-1.96
		c-0.872,0-1.578,0.707-1.578,1.578c0,0.872,0.707,1.578,1.578,1.578H243.584z"/>
</g>
<g transform="translate(1 1)">
	<g>
		<path fill="#F1F2F3" d="M474.113,237.345v75.581c0,1.54,1.12,2.799,2.38,2.799h48.288c1.399,0,2.38-1.26,2.38-2.799v-75.581
			c0-1.54-1.12-2.799-2.38-2.799h-48.288C475.233,234.546,474.113,235.805,474.113,237.345"/>
	</g>
	<path fill="#FFFFFF" d="M474.113,312.926v-75.581c0-1.54,1.12-2.799,2.38-2.799h-3.779c-1.54,0-2.799,1.26-2.799,2.799v75.581
		c0,1.54,1.26,2.799,2.799,2.799h3.779C475.233,315.726,474.113,314.466,474.113,312.926"/>
	<path fill="#3BDDBA" d="M528.699,234.546h-3.779c1.399,0,2.38,1.26,2.38,2.799v75.581c0,1.54-1.12,2.799-2.38,2.799h3.779
		c1.54,0,2.799-1.26,2.799-2.799v-75.581C531.499,235.805,530.239,234.546,528.699,234.546"/>
	<g>
		<path fill="#54C9FD" d="M523.101,262.539v-6.718c0-3.919-3.079-6.998-6.998-6.998s-6.998,3.079-6.998,6.998v6.718H523.101
			L523.101,262.539z"/>
		<path fill="#54C9FD" d="M516.103,248.822c-2.38,0-4.199-1.819-4.199-4.199s1.819-4.199,4.199-4.199s4.199,1.819,4.199,4.199
			S518.482,248.822,516.103,248.822"/>
	</g>
	<path fill="#5D73A2" d="M516.103,250.222c-3.079,0-5.599-2.519-5.599-5.599c0-3.079,2.519-5.599,5.599-5.599
		c3.079,0,5.598,2.519,5.598,5.599C521.701,247.703,519.182,250.222,516.103,250.222z M516.103,241.824
		c-1.54,0-2.799,1.26-2.799,2.799s1.26,2.799,2.799,2.799c1.54,0,2.799-1.26,2.799-2.799
		C518.902,243.084,517.642,241.824,516.103,241.824z"/>
	<path fill="#5D73A2" d="M523.101,263.938h-13.996c-0.84,0-1.399-0.56-1.399-1.399v-6.718c0-4.619,3.779-8.398,8.398-8.398
		s8.398,3.779,8.398,8.398v6.718C524.501,263.379,523.941,263.938,523.101,263.938z M510.504,261.139h11.197v-5.319
		c0-3.079-2.519-5.598-5.599-5.598c-3.079,0-5.599,2.519-5.599,5.598L510.504,261.139L510.504,261.139z"/>
	<path fill="#5D73A2" d="M528.699,317.125h-55.986c-2.379,0-4.199-1.819-4.199-4.199v-75.581c0-2.38,1.819-4.199,4.199-4.199h55.986
		c2.38,0,4.199,1.819,4.199,4.199v5.599c0,0.84-0.56,1.399-1.399,1.399c-0.84,0-1.399-0.56-1.399-1.399v-5.599
		c0-0.84-0.56-1.399-1.399-1.399h-55.986c-0.84,0-1.399,0.56-1.399,1.399v75.581c0,0.84,0.56,1.399,1.399,1.399h55.986
		c0.84,0,1.399-0.56,1.399-1.399v-58.785c0-0.84,0.56-1.399,1.399-1.399c0.84,0,1.399,0.56,1.399,1.399v58.785
		C532.899,315.306,531.079,317.125,528.699,317.125z"/>
	<path fill="#5D73A2" d="M532.899,248.543c0-0.84-0.56-1.399-1.399-1.399c-0.84,0-1.399,0.56-1.399,1.399s0.56,1.399,1.399,1.399
		C532.338,249.942,532.899,249.383,532.899,248.543"/>
	<path fill="#5D73A2" d="M488.11,247.143h-9.798c-0.84,0-1.399-0.56-1.399-1.399c0-0.84,0.56-1.399,1.399-1.399h9.798
		c0.84,0,1.399,0.56,1.399,1.399C489.51,246.583,488.949,247.143,488.11,247.143z"/>
	<path fill="#5D73A2" d="M488.11,258.34h-9.798c-0.84,0-1.399-0.56-1.399-1.399s0.56-1.399,1.399-1.399h9.798
		c0.84,0,1.399,0.56,1.399,1.399C489.51,257.78,488.949,258.34,488.11,258.34z"/>
	<path fill="#5D73A2" d="M495.108,247.143h-1.399c-0.84,0-1.399-0.56-1.399-1.399c0-0.84,0.56-1.399,1.399-1.399h1.399
		c0.84,0,1.399,0.56,1.399,1.399C496.508,246.583,495.948,247.143,495.108,247.143z"/>
	<path fill="#5D73A2" d="M500.707,252.742h-6.998c-0.84,0-1.399-0.56-1.399-1.399s0.56-1.399,1.399-1.399h6.998
		c0.84,0,1.399,0.56,1.399,1.399S501.546,252.742,500.707,252.742z"/>
	<path fill="#5D73A2" d="M495.108,258.34h-1.399c-0.84,0-1.399-0.56-1.399-1.399s0.56-1.399,1.399-1.399h1.399
		c0.84,0,1.399,0.56,1.399,1.399C496.508,257.78,495.948,258.34,495.108,258.34z"/>
	<path fill="#5D73A2" d="M500.707,263.938h-6.998c-0.84,0-1.399-0.56-1.399-1.399s0.56-1.399,1.399-1.399h6.998
		c0.84,0,1.399,0.56,1.399,1.399C502.106,263.379,501.546,263.938,500.707,263.938z"/>
</g>
<g>
	<path fill="#FFC433" d="M517.28,113.688c-0.643-1.209-1.911-2.034-3.375-2.034c-2.113,0-3.826,1.713-3.826,3.826
		c0,2.113,1.712,3.826,3.826,3.826c1.465,0,2.732-0.825,3.375-2.034V113.688z"/>
	<path fill="#FFC433" d="M517.28,126.965c-0.643-1.209-1.911-2.034-3.375-2.034c-2.113,0-3.826,1.713-3.826,3.826
		s1.712,3.826,3.826,3.826c1.465,0,2.732-0.826,3.375-2.034V126.965z"/>
	<path fill="#FFC433" d="M578.428,184.653c-1.208,0.643-2.033,1.911-2.033,3.375c0,2.113,1.713,3.826,3.826,3.826
		s3.826-1.712,3.826-3.826c0-1.465-0.825-2.732-2.033-3.375H578.428z"/>
	<path fill="#FFC433" d="M565.152,184.653c-1.209,0.643-2.034,1.911-2.034,3.375c0,2.113,1.713,3.826,3.826,3.826
		s3.826-1.712,3.826-3.826c0-1.465-0.825-2.732-2.033-3.375H565.152z"/>
	<path fill="#FFC433" d="M591.919,184.69c-1.204,0.644-2.025,1.91-2.025,3.371c0,2.113,1.713,3.826,3.826,3.826
		s3.826-1.712,3.826-3.826c0-1.468-0.829-2.738-2.042-3.38L591.919,184.69z"/>
</g>
<g>
	<path fill="#7EFFE3" d="M568.938,74.861v31.372h30.215c0,0,0.502-7.722-4.914-10.667c-0.327-0.177-0.672-0.344-1.043-0.493
		c0,0,0.654-1.948,0.494-4.191c-0.177-2.486-1.354-5.335-5.529-6.305c0,0,0.183-7.208-7.099-8.066
		c-0.527-0.062-1.089-0.093-1.696-0.084c0,0-1.316-1.295-3.319-2.109C574.126,73.536,571.574,73.196,568.938,74.861z"/>
	<path fill="#7EFFE3" d="M551.081,76.427c-9.01-0.142-8.797,8.15-8.797,8.15c-7.943,1.843-5.035,10.496-5.035,10.496
		c-6.525,2.624-5.958,11.16-5.958,11.16h30.214V74.861C556.121,71.457,551.081,76.427,551.081,76.427z"/>
</g>
<path opacity="0.1" enable-background="new    " d="M531.293,106.233h9.447c0,0-0.501-7.573,4.894-10.645
	c-0.005-0.007-0.01-0.015-0.015-0.022c0.327-0.177,0.672-0.344,1.043-0.493c0,0-0.654-1.948-0.494-4.191
	c0.012,0,0.023,0.002,0.034,0.002c0.177-2.487,1.353-5.338,5.529-6.307c0,0-0.181-7.182,7.063-8.061
	c0.001-0.001,0.002-0.003,0.003-0.005c0.04-0.005,0.082-0.008,0.123-0.012c0.02-0.002,0.041-0.004,0.062-0.006
	c0.228-0.024,0.462-0.042,0.703-0.052c0.024-0.001,0.049-0.001,0.073-0.002c0.238-0.009,0.482-0.014,0.735-0.01
	c0,0,0.371-0.363,1.014-0.825v-0.741c-2.649-1.674-5.213-1.322-7.135-0.533c-0.002-0.004-0.004-0.007-0.006-0.011
	c-2.003,0.815-3.319,2.109-3.319,2.109c-0.253-0.004-0.497,0.001-0.735,0.01c-0.024,0.001-0.049,0.001-0.073,0.002
	c-0.242,0.011-0.476,0.03-0.703,0.052c-0.021,0.002-0.042,0.004-0.062,0.006c-0.04,0.004-0.083,0.007-0.123,0.012
	c-0.001,0.002-0.002,0.003-0.003,0.005c-7.243,0.878-7.063,8.061-7.063,8.061c-4.176,0.969-5.352,3.821-5.529,6.307
	c-0.012,0-0.023-0.003-0.034-0.002c-0.16,2.244,0.494,4.191,0.494,4.191c-0.372,0.149-0.717,0.316-1.043,0.493
	c0.005,0.007,0.01,0.015,0.015,0.022C530.792,98.66,531.293,106.233,531.293,106.233z"/>
<path opacity="0.1" enable-background="new    " d="M599.147,106.233H589.7c0,0,0.501-7.573-4.894-10.645
	c0.005-0.007,0.01-0.015,0.015-0.022c-0.327-0.177-0.672-0.344-1.043-0.493c0,0,0.654-1.948,0.494-4.191
	c-0.012,0-0.023,0.002-0.034,0.002c-0.177-2.487-1.353-5.338-5.529-6.307c0,0,0.181-7.182-7.063-8.061
	c-0.001-0.001-0.001-0.003-0.003-0.005c-0.04-0.005-0.082-0.008-0.123-0.012c-0.02-0.002-0.041-0.004-0.062-0.006
	c-0.228-0.024-0.462-0.042-0.703-0.052c-0.024-0.001-0.049-0.001-0.073-0.002c-0.239-0.009-0.482-0.014-0.735-0.01
	c0,0-0.371-0.363-1.014-0.825v-0.741c2.649-1.674,5.213-1.322,7.135-0.533c0.002-0.004,0.004-0.007,0.006-0.011
	c2.003,0.815,3.319,2.109,3.319,2.109c0.253-0.004,0.497,0.001,0.735,0.01c0.024,0.001,0.049,0.001,0.073,0.002
	c0.242,0.011,0.476,0.03,0.703,0.052c0.021,0.002,0.042,0.004,0.062,0.006c0.04,0.004,0.083,0.007,0.123,0.012
	c0.001,0.002,0.002,0.003,0.003,0.005c7.243,0.878,7.063,8.061,7.063,8.061c4.176,0.969,5.352,3.821,5.529,6.307
	c0.012,0,0.023-0.003,0.034-0.002c0.16,2.244-0.494,4.191-0.494,4.191c0.371,0.149,0.717,0.316,1.043,0.493
	c-0.005,0.007-0.01,0.015-0.015,0.022C599.648,98.66,599.147,106.233,599.147,106.233z"/>
<path fill="#A6D4FF" d="M527.879,171.798v-64.371c0-1.319,1.069-2.39,2.39-2.39h70.44c1.32,0,2.39,1.069,2.39,2.39v64.371
	c0,1.319-1.069,2.39-2.39,2.39h-70.44C528.95,174.187,527.879,173.118,527.879,171.798z"/>
<path opacity="0.1" enable-background="new    " d="M527.879,107.427v64.371c0,1.319,1.069,2.39,2.39,2.39h70.44
	c1.32,0,2.39-1.07,2.39-2.39v-4.471h-65.968c-1.319,0-2.39-1.07-2.39-2.39v-59.899h-4.471
	C528.95,105.038,527.879,106.108,527.879,107.427z"/>
<path fill="#FFFFFF" d="M546.459,154.718v-30.21c0-1.319,1.07-2.39,2.39-2.39h33.281c1.319,0,2.39,1.069,2.39,2.39v30.21
	c0,1.319-1.069,2.39-2.39,2.39h-33.281C547.529,157.108,546.459,156.037,546.459,154.718z"/>
<path fill="#FFC433" d="M554.693,139.793L554.693,139.793c0-1.707,1.397-3.104,3.104-3.104h15.076c1.707,0,3.104,1.397,3.104,3.104
	l0,0c0,1.707-1.397,3.104-3.104,3.104h-15.076C556.09,142.897,554.693,141.5,554.693,139.793z"/>
<g>
	<circle fill="#3A9CB4" cx="593.663" cy="114.926" r="2.971"/>
	<circle fill="#3A9CB4" cx="536.781" cy="114.926" r="2.971"/>
	<circle fill="#3A9CB4" cx="593.663" cy="164.661" r="2.971"/>
	<circle fill="#3A9CB4" cx="536.781" cy="164.661" r="2.971"/>
</g>
<path fill="#5D73A2" d="M508.288,128.757c0,3.098,2.52,5.618,5.618,5.618c2.471,0,4.573-1.605,5.323-3.826h6.86v41.249
	c0,2.306,1.876,4.181,4.181,4.181h34.883v6.726c-2.222,0.75-3.826,2.852-3.826,5.323c0,3.098,2.52,5.618,5.618,5.618
	s5.618-2.52,5.618-5.618c0-2.471-1.604-4.574-3.826-5.323v-6.726h9.692v6.726c-2.221,0.75-3.826,2.852-3.826,5.323
	c0,3.098,2.521,5.618,5.618,5.618c3.098,0,5.618-2.52,5.618-5.618c0-2.471-1.604-4.574-3.826-5.323v-6.726h9.916v6.758
	c-2.222,0.75-3.826,2.852-3.826,5.323c0,3.098,2.521,5.618,5.618,5.618c3.098,0,5.618-2.52,5.618-5.618
	c0-2.472-1.604-4.574-3.826-5.323v-6.758h5.197c2.306,0,4.181-1.876,4.181-4.181v-16.219c0-0.99-0.802-1.792-1.792-1.792
	s-1.792,0.802-1.792,1.792v16.218c0,0.329-0.268,0.597-0.597,0.597h-70.438c-0.329,0-0.597-0.268-0.597-0.597v-24.396h14.995v7.316
	c0,2.306,1.876,4.181,4.181,4.181h33.281c2.306,0,4.181-1.876,4.181-4.181v-30.21c0-2.306-1.876-4.181-4.181-4.181h-33.28
	c-2.306,0-4.181,1.876-4.181,4.181v3.231h-9.064v-2.421c0-0.99-0.802-1.792-1.792-1.792s-1.792,0.802-1.792,1.792v4.214
	c0,0.99,0.802,1.792,1.792,1.792h10.856v6.678h-14.995v-30.574c0-0.329,0.268-0.597,0.597-0.597h1.024h30.214h11.634
	c0.99,0,1.792-0.802,1.792-1.792c0-0.99-0.802-1.792-1.792-1.792h-2.411V75.933c2.104-0.916,4.104-0.309,5.491,0.436
	c0.114,0.136,0.25,0.257,0.407,0.357c0.294,0.195,2.711,1.939,1.417,5.71c-0.321,0.936,0.177,1.955,1.114,2.277
	c0.193,0.066,0.389,0.097,0.582,0.097c0.744,0,1.44-0.468,1.695-1.211c0.677-1.973,0.693-3.699,0.354-5.145
	c1.133,0.266,2.063,0.756,2.778,1.469c1.82,1.817,1.802,4.59,1.801,4.618c-0.012,0.843,0.565,1.591,1.387,1.782
	c1.694,0.394,2.837,1.151,3.492,2.315c0.646,1.147,0.736,2.524,0.651,3.655c-0.347,0.938-2.04,4.688-6.631,3.721
	c-0.968-0.204-1.919,0.416-2.123,1.385c-0.204,0.968,0.416,1.919,1.385,2.123c0.789,0.167,1.532,0.242,2.23,0.242
	c2.823,0,4.913-1.239,6.351-2.763c3.049,1.514,3.931,4.408,4.176,6.246h-17.85c-0.99,0-1.792,0.802-1.792,1.792
	c0,0.99,0.802,1.792,1.792,1.792h21.273c0.329,0,0.597,0.268,0.597,0.597v17.155h-10.615c-0.99,0-1.792,0.802-1.792,1.792
	s0.802,1.792,1.792,1.792h10.615v5.325h-10.615c-0.99,0-1.792,0.802-1.792,1.792s0.802,1.792,1.792,1.792h10.615v5.325h-10.614
	c-0.99,0-1.792,0.802-1.792,1.792s0.802,1.792,1.792,1.792h10.614v2.732c0,0.99,0.802,1.792,1.792,1.792s1.792-0.802,1.792-1.792
	v-41.29c0-2.24-1.772-4.069-3.988-4.172c-0.294-2.917-1.7-6.924-5.63-9.167c0.062-0.344,0.12-0.734,0.161-1.158
	c0.011-0.072,0.017-0.144,0.019-0.215c0.142-1.698,0.014-3.874-1.07-5.814c-0.966-1.731-2.488-2.97-4.535-3.698
	c-0.21-1.495-0.839-3.888-2.715-5.784c-1.742-1.759-4.121-2.694-7.077-2.782c-2.383-1.999-7.284-4.324-12.078-1.294
	c-0.52,0.329-0.835,0.9-0.835,1.515v28.384H563.3V74.858c0-0.615-0.315-1.186-0.835-1.515c-4.794-3.029-9.694-0.705-12.078,1.294
	c-2.957,0.088-5.334,1.022-7.077,2.782c-1.876,1.895-2.505,4.288-2.715,5.784c-2.046,0.728-3.569,1.968-4.535,3.698
	c-1.083,1.94-1.212,4.116-1.069,5.814c0.002,0.072,0.008,0.144,0.019,0.216c0.042,0.423,0.099,0.812,0.162,1.156
	c-3.956,2.257-5.355,6.304-5.636,9.225c-1.957,0.348-3.449,2.058-3.449,4.113v6.261h-6.858c-0.75-2.221-2.852-3.826-5.323-3.826
	c-3.098,0-5.618,2.52-5.618,5.618c0,3.098,2.52,5.618,5.618,5.618c2.472,0,4.573-1.605,5.323-3.826h6.86v9.692h-6.86
	c-0.75-2.222-2.852-3.826-5.323-3.826C510.806,123.139,508.286,125.659,508.288,128.757z M515.938,115.48
	c0,1.122-0.912,2.034-2.034,2.034s-2.034-0.913-2.034-2.034s0.912-2.034,2.034-2.034S515.938,114.359,515.938,115.48z
	 M591.686,188.061c0-1.122,0.913-2.034,2.034-2.034s2.034,0.912,2.034,2.034s-0.912,2.034-2.034,2.034
	C592.599,190.095,591.686,189.182,591.686,188.061z M578.187,188.029c0-1.12,0.91-2.032,2.03-2.034c0.001,0,0.003,0,0.003,0
	c0.001,0,0.002,0,0.003,0c1.12,0.001,2.03,0.914,2.03,2.034c0,1.121-0.912,2.034-2.034,2.034S578.187,189.151,578.187,188.029z
	 M564.91,188.029c0-1.12,0.91-2.032,2.03-2.034c0.001,0,0.003,0,0.003,0s0.002,0,0.003,0c1.12,0.001,2.03,0.914,2.03,2.034
	c0,1.121-0.912,2.034-2.034,2.034S564.91,189.151,564.91,188.029z M559.715,103.245h-26.556c0.244-1.836,1.126-4.734,4.175-6.248
	c1.438,1.524,3.528,2.765,6.352,2.765c0.699,0,1.441-0.076,2.23-0.243c0.969-0.204,1.588-1.154,1.385-2.123
	c-0.204-0.968-1.153-1.587-2.123-1.385c-4.592,0.966-6.285-2.784-6.631-3.721c-0.085-1.131,0.005-2.507,0.651-3.655
	c0.656-1.164,1.798-1.922,3.492-2.315c0.829-0.192,1.408-0.941,1.387-1.792c0-0.017-0.018-2.791,1.801-4.608
	c0.715-0.713,1.645-1.205,2.778-1.471c-0.339,1.446-0.323,3.173,0.353,5.146c0.255,0.744,0.951,1.211,1.695,1.211
	c0.193,0,0.389-0.032,0.582-0.097c0.937-0.321,1.435-1.34,1.114-2.277c-1.346-3.927,1.289-5.63,1.402-5.7
	c0.164-0.102,0.304-0.227,0.422-0.367c1.386-0.744,3.386-1.352,5.491-0.435V103.245L559.715,103.245z M548.251,154.718v-30.21
	c0-0.329,0.268-0.597,0.597-0.597h33.281c0.329,0,0.597,0.268,0.597,0.597v30.21c0,0.329-0.268,0.597-0.597,0.597h-33.281
	C548.519,155.315,548.251,155.047,548.251,154.718L548.251,154.718z M529.672,143.817v-2.232h14.995v2.232H529.672z M511.87,128.756
	c0-1.121,0.912-2.034,2.034-2.034c1.121,0,2.034,0.912,2.034,2.034s-0.912,2.034-2.034,2.034
	C512.783,130.79,511.87,129.878,511.87,128.756z"/>
<path fill="#5D73A2" d="M552.901,140.403c0,2.699,2.197,4.896,4.896,4.896h15.076c2.699,0,4.896-2.196,4.896-4.896
	c0-2.7-2.196-4.896-4.896-4.896h-15.076C555.097,135.507,552.901,137.704,552.901,140.403z M556.485,140.403
	c0-0.724,0.589-1.311,1.311-1.311h15.076c0.724,0,1.311,0.589,1.311,1.311c0,0.724-0.589,1.311-1.311,1.311h-15.076
	C557.073,141.715,556.485,141.127,556.485,140.403z"/>
<path fill="#5D73A2" d="M593.664,110.163c-2.627,0-4.764,2.137-4.764,4.763c0,2.627,2.137,4.764,4.764,4.764
	s4.764-2.137,4.764-4.764C598.427,112.299,596.29,110.162,593.664,110.163z M593.664,113.747c0.65,0,1.179,0.529,1.179,1.179
	s-0.529,1.18-1.179,1.18c-0.65,0-1.179-0.529-1.179-1.18C592.484,114.276,593.013,113.747,593.664,113.747z"/>
<path fill="#5D73A2" d="M536.782,119.69c2.627,0,4.764-2.137,4.764-4.764s-2.137-4.763-4.764-4.763s-4.764,2.137-4.764,4.763
	C532.018,117.553,534.155,119.69,536.782,119.69z M536.782,116.106c-0.65,0-1.179-0.529-1.179-1.18s0.529-1.179,1.179-1.179
	s1.179,0.529,1.179,1.179C537.962,115.576,537.432,116.106,536.782,116.106z"/>
<path fill="#5D73A2" d="M593.664,169.424c2.627,0,4.764-2.137,4.764-4.764s-2.137-4.763-4.764-4.763s-4.764,2.137-4.764,4.763
	S591.037,169.424,593.664,169.424z M593.664,165.839c-0.65,0-1.179-0.529-1.179-1.179s0.529-1.179,1.179-1.179
	c0.65,0,1.179,0.529,1.179,1.179C594.843,165.31,594.314,165.839,593.664,165.839z"/>
<path fill="#5D73A2" d="M536.782,169.424c2.627,0,4.764-2.137,4.764-4.764s-2.137-4.763-4.764-4.763s-4.764,2.137-4.764,4.763
	S534.155,169.424,536.782,169.424z M536.782,165.839c-0.65,0-1.179-0.529-1.179-1.179s0.529-1.179,1.179-1.179
	s1.179,0.529,1.179,1.179S537.432,165.839,536.782,165.839z"/>
<path fill="#F1F2F3" d="M213.943,163.052c-5.646,0-10.224-4.578-10.224-10.225V74.441c0-5.647-4.578-10.225-10.224-10.225h-51.122
	c0,0-0.05,63.362-0.03,88.622c0.005,5.643,4.581,10.215,10.224,10.215L213.943,163.052L213.943,163.052z"/>
<g>
	<path fill="#CED7D9" d="M205.09,157.941h-50.816c-3.761,0-6.811-3.045-6.816-6.806c-0.024-18.679,0.01-70.435,0.022-86.918h-5.108
		c0,0-0.05,63.362-0.03,88.622c0.005,5.644,4.581,10.215,10.224,10.215h61.376C210.159,163.052,206.858,160.995,205.09,157.941z"/>
	<path fill="#CED7D9" d="M135.555,64.216c-5.646,0-10.224,4.578-10.224,10.225s4.578,10.224,10.224,10.224h57.938V64.216H135.555z"
		/>
</g>
<g>
	<path fill="#B6C4C6" d="M125.653,71.885c-0.21,0.817-0.322,1.673-0.322,2.556c0,5.646,4.578,10.224,10.224,10.224h57.938v-5.112
		h-57.938C130.792,79.553,126.788,76.295,125.653,71.885z"/>
	<circle fill="#B6C4C6" cx="193.494" cy="74.441" r="10.224"/>
</g>
<circle fill="#859CA0" cx="197.54" cy="70.395" r="5.112"/>
<circle fill="#B6C4C6" cx="211.943" cy="154.828" r="10.224"/>
<circle fill="#859CA0" cx="211.943" cy="154.828" r="5.112"/>
<circle fill="#94C54B" cx="161.117" cy="106.818" r="11.929"/>
<circle fill="#F57811" cx="184.974" cy="140.9" r="11.929"/>
<path fill="#5D73A2" d="M140.742,124.369c0,0.882,0.715,1.598,1.598,1.598l0,0c0.883,0,1.598-0.715,1.598-1.598
	c0.003-12.932,0.011-26.892,0.017-38.107h49.54c3.401,0,6.468-1.445,8.627-3.751v7.266c0,0.882,0.715,1.598,1.598,1.598
	s1.598-0.715,1.598-1.598V74.44c0-6.519-5.303-11.822-11.822-11.822h-57.938c-6.518,0-11.822,5.303-11.822,11.822
	s5.303,11.822,11.822,11.822h5.204C140.752,97.477,140.745,111.437,140.742,124.369z M202.121,74.441
	c0,4.757-3.87,8.627-8.627,8.627s-8.627-3.87-8.627-8.627s3.87-8.627,8.627-8.627S202.121,69.684,202.121,74.441z M126.929,74.441
	c0-4.757,3.87-8.627,8.627-8.627h49.868c-2.306,2.158-3.751,5.226-3.751,8.627s1.445,6.468,3.751,8.627h-49.868
	C130.798,83.068,126.929,79.197,126.929,74.441z"/>
<path fill="#5D73A2" d="M186.831,74.395c0,3.7,3.01,6.71,6.71,6.71s6.71-3.01,6.71-6.71c0-3.7-3.01-6.71-6.71-6.71
	C189.841,67.685,186.831,70.695,186.831,74.395z M197.055,74.395c0,1.938-1.577,3.515-3.515,3.515s-3.515-1.577-3.515-3.515
	s1.577-3.515,3.515-3.515S197.055,72.457,197.055,74.395z"/>
<path fill="#5D73A2" d="M213.943,141.006c-3.401,0-6.468,1.445-8.627,3.751V96.594c0-0.882-0.715-1.598-1.598-1.598
	c-0.882,0-1.598,0.715-1.598,1.598v56.235c0,2.525,0.828,5.022,2.338,7.046c0.422,0.566,0.893,1.098,1.409,1.581h-53.301
	c-4.753,0-8.623-3.866-8.627-8.618c-0.005-5.913-0.006-13.914-0.005-22.701c0-0.882-0.715-1.598-1.598-1.598l0,0
	c-0.882,0-1.598,0.715-1.598,1.598c-0.001,8.788-0.001,16.79,0.005,22.704c0.005,6.512,5.309,11.811,11.822,11.811h61.376
	c6.518,0,11.822-5.303,11.822-11.822C225.765,146.31,220.462,141.006,213.943,141.006z M213.943,161.455
	c-4.757,0-8.627-3.87-8.627-8.627c0-4.757,3.87-8.627,8.627-8.627s8.627,3.87,8.627,8.627S218.7,161.455,213.943,161.455z"/>
<path fill="#5D73A2" d="M212.943,146.118c-3.7,0-6.71,3.01-6.71,6.71c0,3.7,3.01,6.71,6.71,6.71s6.71-3.01,6.71-6.71
	C219.652,149.129,216.643,146.118,212.943,146.118z M212.943,156.343c-1.938,0-3.515-1.577-3.515-3.515
	c0-1.938,1.577-3.515,3.515-3.515s3.515,1.577,3.515,3.515C216.457,154.766,214.881,156.343,212.943,156.343z"/>
<path fill="#5D73A2" d="M174.643,106.818c0-7.458-6.068-13.526-13.526-13.526s-13.526,6.068-13.526,13.526
	s6.068,13.526,13.526,13.526C168.575,120.345,174.643,114.276,174.643,106.818z M161.117,117.149
	c-5.696,0-10.331-4.634-10.331-10.331c0-5.696,4.634-10.331,10.331-10.331c5.696,0,10.331,4.634,10.331,10.331
	S166.813,117.149,161.117,117.149z"/>
<path fill="#5D73A2" d="M165.099,102.28l-5.686,5.687l-2.278-2.279c-0.624-0.624-1.635-0.624-2.259,0
	c-0.624,0.624-0.624,1.635,0,2.259l3.408,3.408c0.615,0.615,1.644,0.615,2.259,0l6.816-6.816c0.624-0.624,0.624-1.635,0-2.259
	C166.734,101.656,165.723,101.656,165.099,102.28z"/>
<path fill="#5D73A2" d="M184.974,154.426c7.458,0,13.526-6.068,13.526-13.526s-6.068-13.526-13.526-13.526
	s-13.526,6.068-13.526,13.526S177.515,154.426,184.974,154.426z M184.974,130.569c5.696,0,10.331,4.634,10.331,10.331
	c0,5.696-4.634,10.331-10.331,10.331c-5.696,0-10.331-4.635-10.331-10.331C174.643,135.203,179.277,130.569,184.974,130.569z"/>
<path fill="#5D73A2" d="M176.731,149.141c0.615,0.615,1.644,0.615,2.259,0l3.982-3.982l3.982,3.982
	c0.65,0.65,1.747,0.606,2.345-0.091c0.535-0.625,0.497-1.586-0.085-2.168l-3.982-3.982l3.982-3.982c0.624-0.624,0.624-1.636,0-2.259
	c-0.624-0.624-1.635-0.624-2.259,0l-3.982,3.982l-3.982-3.982c-0.624-0.624-1.635-0.624-2.259,0c-0.624,0.624-0.624,1.636,0,2.259
	l3.982,3.982l-3.982,3.982C176.108,147.506,176.108,148.518,176.731,149.141z"/>
<path fill="#5D73A2" d="M179.861,101.599h13.632c0.883,0,1.598-0.715,1.598-1.598c0-0.883-0.715-1.598-1.598-1.598h-13.632
	c-0.882,0-1.598,0.715-1.598,1.598C178.264,100.884,178.979,101.599,179.861,101.599z"/>
<path fill="#5D73A2" d="M179.861,108.415h13.632c0.883,0,1.598-0.715,1.598-1.598s-0.715-1.598-1.598-1.598h-13.632
	c-0.882,0-1.598,0.715-1.598,1.598C178.264,107.701,178.979,108.415,179.861,108.415z"/>
<path fill="#5D73A2" d="M179.861,115.232h13.632c0.883,0,1.598-0.715,1.598-1.598s-0.715-1.598-1.598-1.598h-13.632
	c-0.882,0-1.598,0.715-1.598,1.598S178.979,115.232,179.861,115.232z"/>
<path fill="#5D73A2" d="M166.229,134.19h-13.633c-0.882,0-1.598,0.715-1.598,1.598s0.715,1.598,1.598,1.598h13.632
	c0.883,0,1.598-0.715,1.598-1.598C167.827,134.905,167.111,134.19,166.229,134.19z"/>
<path fill="#5D73A2" d="M166.229,141.006h-13.633c-0.882,0-1.598,0.715-1.598,1.598s0.715,1.598,1.598,1.598h13.632
	c0.883,0,1.598-0.715,1.598-1.598C167.827,141.721,167.111,141.006,166.229,141.006z"/>
<path fill="#5D73A2" d="M166.229,147.823h-13.633c-0.882,0-1.598,0.715-1.598,1.598s0.715,1.598,1.598,1.598h13.632
	c0.883,0,1.598-0.715,1.598-1.598C167.827,148.538,167.111,147.823,166.229,147.823z"/>
<g transform="translate(1 1)">
	<g>
		<path fill="#F1F2F3" d="M583.726,237.345v75.581c0,1.54,1.12,2.799,2.38,2.799h48.288c1.399,0,2.38-1.26,2.38-2.799v-75.581
			c0-1.54-1.12-2.799-2.38-2.799h-48.288C584.846,234.546,583.726,235.805,583.726,237.345"/>
	</g>
	<path fill="#FFFFFF" d="M583.726,312.926v-75.581c0-1.54,1.12-2.799,2.38-2.799h-3.779c-1.54,0-2.799,1.26-2.799,2.799v75.581
		c0,1.54,1.26,2.799,2.799,2.799h3.779C584.846,315.726,583.726,314.466,583.726,312.926"/>
	<path fill="#3BDDBA" d="M638.312,234.546h-3.779c1.399,0,2.38,1.26,2.38,2.799v75.581c0,1.54-1.12,2.799-2.38,2.799h3.779
		c1.54,0,2.799-1.26,2.799-2.799v-75.581C641.111,235.805,639.852,234.546,638.312,234.546"/>
	<g>
		<path fill="#54C9FD" d="M632.714,262.539v-6.718c0-3.919-3.079-6.998-6.998-6.998c-3.919,0-6.998,3.079-6.998,6.998v6.718H632.714
			L632.714,262.539z"/>
		<path fill="#54C9FD" d="M625.716,248.822c-2.38,0-4.199-1.819-4.199-4.199s1.819-4.199,4.199-4.199s4.199,1.819,4.199,4.199
			S628.095,248.822,625.716,248.822"/>
	</g>
	<path fill="#5D73A2" d="M625.716,250.222c-3.079,0-5.599-2.519-5.599-5.599c0-3.079,2.519-5.599,5.599-5.599
		c3.079,0,5.599,2.519,5.599,5.599C631.314,247.703,628.794,250.222,625.716,250.222z M625.716,241.824
		c-1.54,0-2.799,1.26-2.799,2.799s1.26,2.799,2.799,2.799c1.54,0,2.799-1.26,2.799-2.799S627.255,241.824,625.716,241.824z"/>
	<path fill="#5D73A2" d="M632.714,263.938h-13.996c-0.84,0-1.399-0.56-1.399-1.399v-6.718c0-4.619,3.779-8.398,8.398-8.398
		c4.619,0,8.398,3.779,8.398,8.398v6.718C634.113,263.379,633.553,263.938,632.714,263.938z M620.117,261.139h11.197v-5.319
		c0-3.079-2.519-5.598-5.599-5.598c-3.079,0-5.599,2.519-5.599,5.598L620.117,261.139L620.117,261.139z"/>
	<path fill="#5D73A2" d="M638.312,317.125h-55.986c-2.38,0-4.199-1.819-4.199-4.199v-75.581c0-2.38,1.819-4.199,4.199-4.199h55.986
		c2.38,0,4.199,1.819,4.199,4.199v5.599c0,0.84-0.56,1.399-1.399,1.399s-1.399-0.56-1.399-1.399v-5.599
		c0-0.84-0.56-1.399-1.399-1.399h-55.986c-0.84,0-1.399,0.56-1.399,1.399v75.581c0,0.84,0.56,1.399,1.399,1.399h55.986
		c0.84,0,1.399-0.56,1.399-1.399v-58.785c0-0.84,0.56-1.399,1.399-1.399s1.399,0.56,1.399,1.399v58.785
		C642.511,315.306,640.691,317.125,638.312,317.125z"/>
	<path fill="#5D73A2" d="M642.511,248.543c0-0.84-0.56-1.399-1.399-1.399c-0.84,0-1.399,0.56-1.399,1.399s0.56,1.399,1.399,1.399
		S642.511,249.383,642.511,248.543"/>
	<path fill="#5D73A2" d="M597.722,247.143h-9.797c-0.84,0-1.399-0.56-1.399-1.399c0-0.84,0.56-1.399,1.399-1.399h9.797
		c0.84,0,1.399,0.56,1.399,1.399C599.122,246.583,598.562,247.143,597.722,247.143z"/>
	<path fill="#5D73A2" d="M597.722,258.34h-9.797c-0.84,0-1.399-0.56-1.399-1.399s0.56-1.399,1.399-1.399h9.797
		c0.84,0,1.399,0.56,1.399,1.399C599.122,257.78,598.562,258.34,597.722,258.34z"/>
	<path fill="#5D73A2" d="M604.72,247.143h-1.399c-0.84,0-1.399-0.56-1.399-1.399c0-0.84,0.56-1.399,1.399-1.399h1.399
		c0.84,0,1.399,0.56,1.399,1.399C606.12,246.583,605.56,247.143,604.72,247.143z"/>
	<path fill="#5D73A2" d="M610.319,252.742h-6.998c-0.84,0-1.399-0.56-1.399-1.399s0.56-1.399,1.399-1.399h6.998
		c0.84,0,1.399,0.56,1.399,1.399S611.159,252.742,610.319,252.742z"/>
	<path fill="#5D73A2" d="M604.72,258.34h-1.399c-0.84,0-1.399-0.56-1.399-1.399s0.56-1.399,1.399-1.399h1.399
		c0.84,0,1.399,0.56,1.399,1.399C606.12,257.78,605.56,258.34,604.72,258.34z"/>
	<path fill="#5D73A2" d="M610.319,263.938h-6.998c-0.84,0-1.399-0.56-1.399-1.399s0.56-1.399,1.399-1.399h6.998
		c0.84,0,1.399,0.56,1.399,1.399C611.719,263.379,611.159,263.938,610.319,263.938z"/>
</g>
<path opacity="0.35" fill="#939598" enable-background="new    " d="M1003.925,158.163h-47.098c-5.865,0-10.637,4.772-10.637,10.636
	v72.881c0,5.867,4.772,10.637,10.637,10.637h47.098c5.865,0,10.636-4.77,10.636-10.637v-72.881
	C1014.561,162.935,1009.79,158.163,1003.925,158.163z"/>
<g>
	<path fill="#FFFFFF" stroke="#5D73A2" stroke-width="3" stroke-linecap="round" stroke-linejoin="round" d="M999.257,158.163
		c5.865,0,10.636,4.772,10.636,10.636v72.881c0,5.867-4.771,10.637-10.636,10.637h-47.098c-5.865,0-10.637-4.77-10.637-10.637
		v-72.881c0-5.864,4.772-10.636,10.637-10.636H999.257z"/>
	<rect x="947.3" y="167.492" fill="#7EB3E4" width="56.604" height="69.733"/>
	<path fill="none" stroke="#5D73A2" stroke-width="3" stroke-linecap="round" stroke-linejoin="round" d="M975.602,241.13
		c-1.723,0-3.125,1.394-3.125,3.124c0,1.727,1.402,3.128,3.125,3.128c1.731,0,3.127-1.401,3.127-3.128
		C978.729,242.524,977.331,241.13,975.602,241.13z"/>
</g>
<g>
	<path fill="#A9CD68" stroke="#5D73A2" stroke-width="3" stroke-miterlimit="10" d="M956.461,197.014
		c0,10.234,8.293,18.529,18.526,18.529c10.232,0,18.527-8.295,18.527-18.529c0-10.231-8.295-18.526-18.527-18.526
		C964.753,178.488,956.461,186.783,956.461,197.014z"/>
	<path fill="#FFFFFF" stroke="#5D73A2" stroke-width="3" stroke-miterlimit="10" d="M974.992,197.014v-20.335
		c11.286,0,20.45,9.081,20.587,20.335H974.992z"/>
	<path fill="#36B8D1" stroke="#5D73A2" stroke-width="3" stroke-miterlimit="10" d="M993.517,196.9c0,0.041,0,0.079,0,0.114
		c0,10.234-8.295,18.529-18.526,18.529c-10.234,0-18.53-8.295-18.53-18.529c0-0.036,0.007-0.073,0.007-0.114H993.517z"/>
	<path fill="#FAD978" stroke="#5D73A2" stroke-width="3" stroke-miterlimit="10" d="M974.992,196.922l15.595-15.599
		c8.655,8.658,8.715,22.648,0.192,31.385L974.992,196.922z"/>
	<path fill="#FFFFFF" stroke="#5D73A2" stroke-width="3" stroke-miterlimit="10" d="M974.981,197.033l-9.263,18.108
		c-10.047-5.142-14.068-17.401-9.063-27.483L974.981,197.033z"/>
	<path fill="#F0777E" stroke="#5D73A2" stroke-width="3" stroke-miterlimit="10" d="M975.009,196.9l6.611,20.471
		c-11.358,3.668-23.535-2.492-27.33-13.777L975.009,196.9z"/>
	<path fill="#65CBE9" stroke="#5D73A2" stroke-width="3" stroke-miterlimit="10" d="M967.708,196.9c0,4.024,3.262,7.284,7.284,7.284
		c4.022,0,7.28-3.26,7.28-7.284c0-4.018-3.257-7.283-7.28-7.283C970.971,189.617,967.708,192.882,967.708,196.9z"/>
</g>
<rect x="954.206" y="225.66" fill="#FFFFFF" width="37.562" height="2.328"/>
<rect x="954.206" y="229.821" fill="#FFFFFF" width="31.666" height="2.328"/>
<path opacity="0.35" fill="#939598" enable-background="new    " d="M938.153,134.552c-7.232,0-6.123,5.381-6.123,12.612v92.037
	c0,7.235,5.884,13.117,13.116,13.117h10.143c6.997-1.962,11.818-6.588,11.818-14.903v-2.493h-13.822l0.001-90.815
	c0-5.276-4.278-9.554-9.554-9.554L938.153,134.552L938.153,134.552z"/>
<g>
	<g>
		<g>
			<g>
				<g>
					<g>
						
							<path fill="#EFEFEF" stroke="#5D73A2" stroke-width="3" stroke-linecap="round" stroke-linejoin="round" stroke-miterlimit="10" d="
							M782.211,142.429c0-4.353,3.526-7.878,7.876-7.878H939.22c4.349,0,7.877,3.525,7.877,7.878l-0.002,93.38H782.209
							L782.211,142.429z"/>
						<g>
							
								<path fill="#EFEFEF" stroke="#5D73A2" stroke-width="3" stroke-linecap="round" stroke-linejoin="round" stroke-miterlimit="10" d="
								M770.928,235.809v3.411c0,9.494,7.696,13.097,17.19,13.097h153.069c9.494,0,17.19-3.604,17.19-13.097v-3.411H770.928z"/>
						</g>
						
							<rect x="793.566" y="147.205" fill="#7EB3E4" stroke="#5D73A2" stroke-width="3" stroke-linecap="round" stroke-linejoin="round" stroke-miterlimit="10" width="144.118" height="83.027"/>
					</g>
				</g>
			</g>
		</g>
	</g>
	<g>
		<rect x="821.224" y="163.139" fill="#FFFFFF" width="18.162" height="1.743"/>
		<rect x="821.224" y="166.817" fill="#FFFFFF" width="28.125" height="1.743"/>
		<rect x="821.224" y="170.494" fill="#FFFFFF" width="23.711" height="1.743"/>
		<g>
			<g>
				<rect x="821.824" y="204.977" fill="#F0777E" width="11.302" height="13.503"/>
				<rect x="838.686" y="197.152" fill="#FAD978" width="11.302" height="21.328"/>
				<rect x="855.549" y="189.888" fill="#A9CD68" width="11.303" height="28.591"/>
				<rect x="872.412" y="193.224" fill="#F0777E" width="11.302" height="25.255"/>
				<rect x="889.275" y="177.491" fill="#FAD978" width="11.302" height="40.989"/>
				<rect x="906.137" y="159.979" fill="#A9CD68" width="11.302" height="58.5"/>
				<g>
					<rect x="809.498" y="163.638" fill="#FFFFFF" width="4.049" height="1.804"/>
					<rect x="809.498" y="172.693" fill="#FFFFFF" width="4.049" height="1.804"/>
					<rect x="809.498" y="181.751" fill="#FFFFFF" width="4.049" height="1.804"/>
					<rect x="809.498" y="190.807" fill="#FFFFFF" width="4.049" height="1.804"/>
					<rect x="809.498" y="199.864" fill="#FFFFFF" width="4.049" height="1.803"/>
					<rect x="809.498" y="208.92" fill="#FFFFFF" width="4.049" height="1.803"/>
					<rect x="809.498" y="217.976" fill="#FFFFFF" width="4.049" height="1.804"/>
				</g>
			</g>
			<path fill="none" stroke="#EFEFEF" stroke-width="3" stroke-miterlimit="10" d="M826.024,191.464l11.618-9.641l5.206,6.241
				l17.395-14.602c0,0,7.569,9.248,8.227,10.052l21.064-17.527"/>
			<polyline fill="none" stroke="#5D73A2" stroke-width="3" stroke-miterlimit="10" points="816.19,163.642 816.19,218.951 
				920.717,218.951 			"/>
		</g>
	</g>
</g>
<g>
	
		<rect x="1021.7" y="225.841" transform="matrix(0.3195 -0.9476 0.9476 0.3195 477.5304 1131.6694)" fill="#FFFFFF" stroke="#5D73A2" stroke-width="3" stroke-miterlimit="10" width="9.957" height="15.037"/>
	<circle fill="#FFFFFF" stroke="#5D73A2" stroke-width="3" stroke-miterlimit="10" cx="995.272" cy="222.754" r="28.65"/>
	<circle fill="#7EB3E4" stroke="#5D73A2" stroke-miterlimit="10" cx="995.271" cy="222.754" r="22.279"/>
	<path fill="#F0777E" stroke="#5D73A2" stroke-width="3" stroke-miterlimit="10" d="M1057.663,235.242
		c4.226,1.426,6.498,6.008,5.071,10.234c-1.426,4.226-6.008,6.498-10.233,5.073l-20.39-6.847c-1.276-0.429-1.961-1.812-1.531-3.09
		l3.604-10.685c0.431-1.275,1.814-1.96,3.089-1.53L1057.663,235.242z"/>
</g>
<g>
	<g>
		<path id="SVGID_1_" fill="#3DD0EC" d="M999.273,200.609c12.232,2.211,20.354,13.917,18.143,26.147
			c-2.21,12.228-13.917,20.353-26.147,18.143c-12.231-2.21-20.354-13.917-18.143-26.147
			C975.338,206.523,987.044,198.4,999.273,200.609z"/>
	</g>
	<g>
		<g>
			<defs>
				<circle id="SVGID_3_" cx="995.271" cy="222.754" r="22.504"/>
			</defs>
			<clipPath id="SVGID_4_">
				<use xlink:href="#SVGID_3_"  overflow="visible"/>
			</clipPath>
			<g clip-path="url(#SVGID_4_)">
				<path fill="#36B8D1" stroke="#5D73A2" stroke-width="6" stroke-miterlimit="10" d="M974.881,204.118l-3.38-32.125
					c17.83-1.876,33.817,10.946,35.903,28.703L974.881,204.118z"/>
				<path fill="#A9CD68" stroke="#5D73A2" stroke-width="3" stroke-miterlimit="10" d="M1004.128,200.857
					c0.007,0.065,0.013,0.124,0.019,0.181c1.701,16.168-10.024,30.65-26.186,32.35c-16.168,1.701-30.652-10.023-32.354-26.191
					c-0.006-0.056-0.002-0.117-0.009-0.181L1004.128,200.857z"/>
				<path fill="#FAD978" stroke="#5D73A2" stroke-width="3" stroke-miterlimit="10" d="M974.866,203.972l22.044-27.236
					c15.113,12.238,17.533,34.332,5.519,49.548L974.866,203.972z"/>
				<path fill="#F0777E" stroke="#5D73A2" stroke-width="6" stroke-miterlimit="10" d="M974.869,204.15l-11.623,30.147
					c-16.727-6.454-25.117-25.152-18.887-41.911L974.869,204.15z"/>
				<path fill="#F0777E" stroke="#5D73A2" stroke-width="3" stroke-miterlimit="10" d="M974.89,203.934l13.848,31.24
					c-17.334,7.683-37.595-0.024-45.465-17.22L974.89,203.934z"/>
				<path fill="#65CBE9" stroke="#5D73A2" stroke-width="3" stroke-miterlimit="10" d="M963.355,205.148
					c0.669,6.357,6.365,10.964,12.718,10.296c6.355-0.668,10.958-6.361,10.289-12.717c-0.668-6.348-6.355-10.964-12.71-10.295
					C967.299,193.1,962.688,198.8,963.355,205.148z"/>
			</g>
		</g>
	</g>
	<g>
		<path id="SVGID_2_" fill="none" stroke="#5D73A2" stroke-width="3" stroke-miterlimit="10" d="M999.273,200.609
			c12.232,2.211,20.354,13.917,18.143,26.147c-2.21,12.228-13.917,20.353-26.147,18.143c-12.231-2.21-20.354-13.917-18.143-26.147
			C975.338,206.523,987.044,198.4,999.273,200.609z"/>
	</g>
</g>
<line fill="none" stroke="#BAD9FF" stroke-width="3" stroke-miterlimit="10" x1="1064.504" y1="169.672" x2="1042.082" y2="169.672"/>
<g>
	<line fill="none" stroke="#BAD9FF" stroke-width="3" stroke-miterlimit="10" x1="931.376" y1="98.823" x2="923.963" y2="91.409"/>
	<line fill="none" stroke="#BAD9FF" stroke-width="3" stroke-miterlimit="10" x1="923.963" y1="98.823" x2="931.376" y2="91.409"/>
</g>
<line fill="none" stroke="#BAD9FF" stroke-width="3" stroke-miterlimit="10" x1="992.819" y1="72.143" x2="1043.514" y2="72.143"/>
<line fill="none" stroke="#BAD9FF" stroke-width="3" stroke-miterlimit="10" x1="1027.685" y1="80.155" x2="1050.108" y2="80.155"/>
<line fill="none" stroke="#BAD9FF" stroke-width="3" stroke-miterlimit="10" x1="993.76" y1="64.134" x2="1016.182" y2="64.134"/>
<line fill="none" stroke="#BAD9FF" stroke-width="3" stroke-miterlimit="10" x1="898.932" y1="62.736" x2="921.354" y2="62.736"/>
<line fill="none" stroke="#BAD9FF" stroke-width="3" stroke-miterlimit="10" x1="780.555" y1="77.377" x2="804.991" y2="77.377"/>
<path fill="none" stroke="#BAD9FF" stroke-width="3" stroke-linecap="round" stroke-linejoin="round" stroke-miterlimit="10" d="
	M1074.476,169.791c0,1.771-1.442,3.21-3.215,3.21c-1.772,0-3.21-1.439-3.21-3.21c0-1.776,1.438-3.216,3.21-3.216
	C1073.034,166.575,1074.476,168.015,1074.476,169.791z"/>
<g>
	<g>
		<line fill="none" stroke="#BAD9FF" stroke-width="3" stroke-miterlimit="10" x1="983.012" y1="95.135" x2="982.45" y2="95.135"/>
		
			<line fill="none" stroke="#BAD9FF" stroke-width="3" stroke-miterlimit="10" stroke-dasharray="1.9612,1.9612" x1="981.348" y1="95.135" x2="935.626" y2="95.135"/>
		<line fill="none" stroke="#BAD9FF" stroke-width="3" stroke-miterlimit="10" x1="935.076" y1="95.135" x2="934.514" y2="95.135"/>
	</g>
</g>
<line fill="none" stroke="#BAD9FF" stroke-width="3" stroke-miterlimit="10" x1="955.123" y1="118.511" x2="930.558" y2="118.511"/>
<rect x="986.957" y="136.076" fill="none" stroke="#BAD9FF" stroke-width="3" stroke-miterlimit="10" width="4.71" height="7.104"/>
<rect x="995.262" y="127.352" fill="none" stroke="#BAD9FF" stroke-width="3" stroke-miterlimit="10" width="4.711" height="15.828"/>
<rect x="1003.569" y="130.1" fill="none" stroke="#BAD9FF" stroke-width="3" stroke-miterlimit="10" width="4.711" height="13.08"/>
<rect x="1011.876" y="122.817" fill="none" stroke="#BAD9FF" stroke-width="3" stroke-miterlimit="10" width="4.709" height="20.363"/>
<polyline fill="none" stroke="#BAD9FF" stroke-width="3" stroke-miterlimit="10" points="1019.368,143.18 983.361,143.18 
	983.361,120.56 "/>
<g>
	<polyline fill="none" stroke="#BAD9FF" stroke-width="3" stroke-miterlimit="10" points="958.369,54.951 925.548,54.951 
		925.548,42.56 	"/>
	<g>
		<g>
			<path fill="none" stroke="#BAD9FF" stroke-width="3" stroke-miterlimit="10" d="M946.195,51.911
				c-5.542-0.377-5.742-9.065-5.937-17.467c-0.12-5.271-0.271-11.813-2.265-11.988c-1.993,0.175-2.144,6.717-2.265,11.988
				c-0.195,8.402-0.394,17.09-5.937,17.467"/>
		</g>
		<g>
			<path fill="none" stroke="#BAD9FF" stroke-width="3" stroke-miterlimit="10" d="M956.699,51.912c-5.559,0-6.629-5.73-7.413-9.914
				c-0.584-3.127-1.058-5.191-2.235-5.249c-1.178,0.058-1.653,2.122-2.237,5.249c-0.781,4.184-1.853,9.914-7.412,9.914"/>
		</g>
	</g>
</g>
<g>
	<g>
		<g>
			<path fill="#BAD9FF" stroke="#BAD9FF" stroke-miterlimit="10" d="M888.431,97.734c0.008,0,0.016,0,0.025,0.001l2.184,0.703
				c0.054,0.018,0.082,0.057,0.093,0.079c0.011,0.021,0.028,0.067,0.009,0.121l-0.522,1.624l0.304,0.163
				c0.726,0.388,1.393,0.868,1.98,1.424l0.25,0.238l1.372-1.004c0.036-0.026,0.07-0.046,0.105-0.046c0.037,0,0.075,0.021,0.118,0.08
				l1.354,1.851c0.051,0.071,0.037,0.172-0.034,0.223l-1.372,1.004l0.152,0.312c0.361,0.742,0.622,1.522,0.773,2.32l0.065,0.338
				l1.684-0.005c0.087,0,0.158,0.072,0.159,0.159l0.006,2.294c0.001,0.057-0.028,0.095-0.046,0.112
				c-0.017,0.018-0.054,0.047-0.112,0.047l-1.676,0.005l-0.06,0.341c-0.074,0.421-0.175,0.832-0.3,1.22
				c-0.113,0.353-0.261,0.719-0.45,1.121l-0.146,0.31l1.354,0.978c0.046,0.034,0.06,0.079,0.064,0.103
				c0.004,0.024,0.005,0.072-0.028,0.118l-1.344,1.861c-0.043,0.058-0.104,0.065-0.129,0.065c-0.024,0-0.058-0.005-0.093-0.03
				l-1.343-0.969l-0.249,0.241c-0.593,0.573-1.262,1.063-1.99,1.46l-0.304,0.165l0.514,1.569c0.028,0.083-0.018,0.173-0.101,0.201
				l-2.23,0.723c-0.058,0-0.127-0.034-0.152-0.109l-0.515-1.57l-0.342,0.046c-0.449,0.061-0.848,0.092-1.25,0.092
				c-0.388,0-0.778-0.029-1.219-0.087l-0.343-0.046l-0.506,1.575c-0.026,0.077-0.095,0.111-0.153,0.111l-2.232-0.71
				c-0.085-0.027-0.13-0.117-0.104-0.2l0.507-1.575l-0.304-0.163c-0.732-0.394-1.405-0.88-1.997-1.446l-0.251-0.24l-1.341,0.98
				c-0.035,0.026-0.069,0.046-0.105,0.046c-0.037,0-0.076-0.021-0.118-0.08l-1.354-1.852c-0.033-0.046-0.033-0.094-0.028-0.12
				c0.003-0.024,0.017-0.069,0.063-0.103l1.35-0.987l-0.149-0.311c-0.359-0.745-0.616-1.531-0.764-2.335l-0.062-0.341l-1.677,0.005
				c-0.087,0-0.159-0.072-0.16-0.159l-0.005-2.295c-0.001-0.057,0.028-0.095,0.046-0.112c0.017-0.018,0.055-0.047,0.112-0.047
				l1.684-0.005l0.062-0.338c0.076-0.413,0.171-0.795,0.29-1.167c0.12-0.371,0.273-0.75,0.469-1.16l0.149-0.312l-1.375-0.993
				c-0.071-0.052-0.087-0.152-0.036-0.223l1.343-1.86c0.043-0.059,0.081-0.081,0.118-0.081c0.036,0,0.069,0.02,0.104,0.045
				l1.375,0.994l0.249-0.239c0.589-0.564,1.253-1.048,1.973-1.438l0.304-0.165l-0.529-1.616c-0.027-0.084,0.018-0.173,0.101-0.202
				l2.231-0.723c0.057,0,0.126,0.034,0.151,0.109l0.532,1.624l0.341-0.046c0.447-0.06,0.844-0.091,1.241-0.091
				c0.382,0,0.764,0.028,1.194,0.085l0.343,0.046l0.524-1.629C888.277,97.767,888.338,97.734,888.431,97.734 M886.185,113.675
				c2.798,0,5.075-2.276,5.075-5.074s-2.277-5.075-5.075-5.075s-5.075,2.277-5.075,5.075
				C881.111,111.399,883.387,113.675,886.185,113.675 M888.431,96.048L888.431,96.048L888.431,96.048
				c-0.83,0-1.528,0.498-1.779,1.268l-0.109,0.34c-0.117-0.004-0.232-0.006-0.349-0.006c-0.134,0-0.267,0.003-0.403,0.009
				l-0.109-0.335c-0.252-0.762-0.955-1.27-1.753-1.27h-0.266l-0.253,0.082l-2.231,0.723c-0.968,0.324-1.494,1.362-1.186,2.32
				l0.112,0.34c-0.209,0.141-0.413,0.29-0.611,0.445l-0.28-0.203c-0.337-0.243-0.703-0.364-1.091-0.364
				c-0.584,0-1.125,0.283-1.483,0.777l-1.345,1.863c-0.283,0.386-0.404,0.889-0.326,1.372c0.078,0.484,0.339,0.91,0.734,1.199
				l0.28,0.202c-0.047,0.128-0.091,0.255-0.132,0.383c-0.036,0.114-0.071,0.228-0.104,0.343l-0.335,0.001
				c-0.49,0-0.972,0.204-1.317,0.559c-0.332,0.332-0.528,0.816-0.521,1.31l0.005,2.275c0.009,1.02,0.837,1.84,1.845,1.84
				l0.328-0.001c0.071,0.247,0.151,0.492,0.24,0.734l-0.261,0.19c-0.387,0.281-0.655,0.716-0.732,1.194
				c-0.078,0.478,0.039,0.976,0.322,1.371l1.364,1.866c0.353,0.488,0.894,0.771,1.479,0.771c0.396,0,0.767-0.126,1.103-0.373
				l0.242-0.177c0.206,0.161,0.417,0.313,0.634,0.459l-0.093,0.289c-0.151,0.469-0.11,0.97,0.116,1.409s0.61,0.764,1.081,0.914
				l2.232,0.71l0.249,0.079h0.262c0.799,0,1.503-0.51,1.753-1.268l0.094-0.292c0.126,0.005,0.25,0.007,0.374,0.007
				c0.137,0,0.274-0.003,0.414-0.009l0.091,0.28c0.25,0.76,0.954,1.27,1.753,1.27h0.267l0.253-0.082l2.23-0.723
				c0.476-0.157,0.856-0.485,1.078-0.926s0.258-0.942,0.103-1.409l-0.091-0.278c0.217-0.147,0.428-0.302,0.633-0.464l0.244,0.176
				c0.323,0.23,0.693,0.349,1.08,0.349c0.583,0,1.138-0.28,1.485-0.75l1.354-1.875c0.287-0.396,0.405-0.902,0.324-1.385
				c-0.075-0.47-0.336-0.896-0.734-1.186l-0.263-0.189c0.042-0.116,0.081-0.23,0.118-0.343c0.042-0.13,0.081-0.261,0.118-0.395
				l0.318-0.001c0.485,0,0.957-0.197,1.3-0.541c0.348-0.347,0.544-0.825,0.539-1.319l-0.005-2.282
				c-0.003-1.015-0.83-1.84-1.844-1.84l-0.344,0.001c-0.071-0.243-0.152-0.483-0.24-0.722l0.277-0.202
				c0.814-0.589,1.001-1.743,0.408-2.568l-1.361-1.862c-0.361-0.491-0.899-0.771-1.479-0.771c-0.388,0-0.754,0.122-1.088,0.361
				l-0.294,0.215c-0.199-0.154-0.402-0.3-0.612-0.44l0.107-0.335c0.155-0.462,0.109-0.992-0.13-1.436
				c-0.218-0.414-0.594-0.732-1.055-0.883l-2.19-0.705l-0.203-0.065l-0.213-0.013l-0.05-0.003L888.431,96.048L888.431,96.048
				L888.431,96.048z M886.185,111.989c-1.869,0-3.389-1.52-3.389-3.389s1.52-3.389,3.389-3.389s3.389,1.52,3.389,3.389
				S888.054,111.989,886.185,111.989L886.185,111.989z"/>
		</g>
	</g>
	<g>
		<g>
			<path fill="none" stroke="#BAD9FF" stroke-miterlimit="10" d="M877.852,90.128c-0.142-0.103-0.195-0.286-0.158-0.456
				c0.091-0.424,0.142-0.862,0.142-1.313s-0.051-0.889-0.142-1.313c-0.037-0.171,0.017-0.353,0.158-0.456l1.965-1.428
				c0.125-0.091,0.153-0.267,0.062-0.392l-2.311-3.182c-0.091-0.126-0.267-0.153-0.392-0.062l-1.897,1.378
				c-0.144,0.105-0.338,0.087-0.489-0.006c-0.777-0.481-1.665-0.798-2.615-0.91c-0.173-0.021-0.33-0.129-0.384-0.296l-0.697-2.142
				c-0.048-0.148-0.206-0.228-0.354-0.181L867,80.584c-0.148,0.048-0.228,0.206-0.181,0.354l0.657,2.021
				c0.047,0.145,0.026,0.311-0.093,0.407c-0.803,0.648-1.444,1.485-1.859,2.444c-0.073,0.167-0.22,0.302-0.402,0.302h-2.06
				c-0.155,0-0.281,0.126-0.281,0.281v3.933c0,0.155,0.126,0.281,0.281,0.281h2.06c0.154,0,0.307,0.073,0.366,0.216
				c0.402,0.966,1.032,1.812,1.824,2.471c0.138,0.115,0.22,0.295,0.165,0.466l-0.657,2.021c-0.048,0.148,0.033,0.306,0.181,0.354
				l3.74,1.215c0.148,0.048,0.306-0.033,0.354-0.181l0.697-2.142c0.056-0.175,0.231-0.277,0.414-0.299
				c0.949-0.117,1.835-0.437,2.609-0.922c0.143-0.089,0.328-0.09,0.464,0.009l1.897,1.378c0.125,0.091,0.301,0.063,0.392-0.062
				l2.312-3.182c0.091-0.126,0.063-0.301-0.062-0.392L877.852,90.128z"/>
		</g>
		<circle fill="none" stroke="#BAD9FF" stroke-miterlimit="10" cx="871.357" cy="88.358" r="2.388"/>
	</g>
</g>
<line fill="none" stroke="#5D73A2" stroke-width="3" stroke-linecap="round" stroke-linejoin="round" stroke-miterlimit="10" stroke-dasharray="8" x1="299.286" y1="164.737" x2="433.647" y2="164.737"/>
<line fill="none" stroke="#5D73A2" stroke-width="3" stroke-linecap="round" stroke-linejoin="round" stroke-miterlimit="10" stroke-dasharray="8" x1="647.951" y1="162.721" x2="751.409" y2="162.721"/>
<polyline fill="#5D73A2" points="434.498,154.828 445.695,165.053 433.367,172.693 "/>
<polyline fill="#5D73A2" points="746.757,154.828 757.492,161.537 746.757,172.238 "/>
<path fill="none" stroke="#BAD9FF" stroke-width="3" stroke-linecap="round" stroke-linejoin="round" stroke-miterlimit="10" stroke-dasharray="8" d="
	M175.003,210.419h91.029v22.505 M171.308,228.222v-17.803H80.615v22.505"/>
<line fill="none" stroke="#BAD9FF" stroke-width="3" stroke-linecap="round" stroke-linejoin="round" stroke-miterlimit="10" stroke-dasharray="8" x1="171.308" y1="173.806" x2="171.308" y2="210.083"/>
<g>
	<path fill="#8697CB" d="M492.63,278.68h-14.621c-0.622,0-1.125-0.529-1.125-1.182c0-0.654,0.503-1.182,1.125-1.182h14.621
		c0.622,0,1.125,0.528,1.125,1.182C493.754,278.152,493.252,278.68,492.63,278.68z"/>
	<path fill="#F0C419" d="M508.375,278.68h-11.247c-0.622,0-1.125-0.529-1.125-1.182c0-0.654,0.503-1.182,1.125-1.182h11.247
		c0.622,0,1.125,0.528,1.125,1.182C509.5,278.152,508.997,278.68,508.375,278.68z"/>
	<path fill="#4FBA6F" d="M515.123,278.68h-2.249c-0.622,0-1.125-0.529-1.125-1.182c0-0.654,0.503-1.182,1.125-1.182h2.249
		c0.622,0,1.125,0.528,1.125,1.182C516.248,278.152,515.745,278.68,515.123,278.68z"/>
	<path fill="#8697CB" d="M520.747,283.409h-16.87c-0.622,0-1.125-0.528-1.125-1.182c0-0.654,0.503-1.182,1.125-1.182h16.87
		c0.622,0,1.125,0.528,1.125,1.182C521.871,282.881,521.368,283.409,520.747,283.409z"/>
	<path fill="#E64C3C" d="M499.378,283.409h-15.745c-0.622,0-1.125-0.528-1.125-1.182c0-0.654,0.503-1.182,1.125-1.182h15.745
		c0.622,0,1.125,0.528,1.125,1.182C500.502,282.881,500,283.409,499.378,283.409z"/>
	<path fill="#E64C3C" d="M479.134,283.409h-1.125c-0.622,0-1.125-0.528-1.125-1.182c0-0.654,0.503-1.182,1.125-1.182h1.125
		c0.622,0,1.125,0.528,1.125,1.182C480.258,282.881,479.756,283.409,479.134,283.409z"/>
	<path fill="#8697CB" d="M488.131,288.138h-10.122c-0.622,0-1.125-0.528-1.125-1.182c0-0.654,0.503-1.182,1.125-1.182h10.122
		c0.622,0,1.125,0.528,1.125,1.182C489.256,287.609,488.753,288.138,488.131,288.138z"/>
	<path fill="#F0C419" d="M494.879,288.138h-2.249c-0.622,0-1.125-0.528-1.125-1.182c0-0.654,0.503-1.182,1.125-1.182h2.249
		c0.622,0,1.125,0.528,1.125,1.182C496.004,287.609,495.501,288.138,494.879,288.138z"/>
	<path fill="#4FBA6F" d="M515.123,288.138h-15.745c-0.622,0-1.125-0.528-1.125-1.182c0-0.654,0.503-1.182,1.125-1.182h15.745
		c0.622,0,1.125,0.528,1.125,1.182C516.248,287.609,515.745,288.138,515.123,288.138z"/>
	<path fill="#F0C419" d="M492.63,292.866h-14.621c-0.622,0-1.125-0.529-1.125-1.182c0-0.654,0.503-1.182,1.125-1.182h14.621
		c0.622,0,1.125,0.528,1.125,1.182C493.754,292.338,493.252,292.866,492.63,292.866z"/>
	<path fill="#4FBA6F" d="M508.375,292.866h-11.247c-0.622,0-1.125-0.529-1.125-1.182c0-0.654,0.503-1.182,1.125-1.182h11.247
		c0.622,0,1.125,0.528,1.125,1.182C509.5,292.338,508.997,292.866,508.375,292.866z"/>
	<path fill="#F0C419" d="M512.874,297.595h-8.997c-0.622,0-1.125-0.528-1.125-1.182c0-0.654,0.503-1.182,1.125-1.182h8.997
		c0.622,0,1.125,0.528,1.125,1.182C513.999,297.067,513.496,297.595,512.874,297.595z"/>
	<path fill="#8697CB" d="M499.378,297.595h-15.745c-0.622,0-1.125-0.528-1.125-1.182c0-0.654,0.503-1.182,1.125-1.182h15.745
		c0.622,0,1.125,0.528,1.125,1.182C500.502,297.067,500,297.595,499.378,297.595z"/>
	<path fill="#4FBA6F" d="M479.134,297.595h-1.125c-0.622,0-1.125-0.528-1.125-1.182c0-0.654,0.503-1.182,1.125-1.182h1.125
		c0.622,0,1.125,0.528,1.125,1.182C480.258,297.067,479.756,297.595,479.134,297.595z"/>
	<path fill="#F0C419" d="M488.131,302.324h-10.122c-0.622,0-1.125-0.528-1.125-1.182c0-0.654,0.503-1.182,1.125-1.182h10.122
		c0.622,0,1.125,0.528,1.125,1.182C489.256,301.795,488.753,302.324,488.131,302.324z"/>
	<path fill="#8697CB" d="M494.879,302.324h-2.249c-0.622,0-1.125-0.528-1.125-1.182c0-0.654,0.503-1.182,1.125-1.182h2.249
		c0.622,0,1.125,0.528,1.125,1.182C496.004,301.795,495.501,302.324,494.879,302.324z"/>
	<path fill="#E64C3C" d="M516.248,302.324h-16.87c-0.622,0-1.125-0.528-1.125-1.182c0-0.654,0.503-1.182,1.125-1.182h16.87
		c0.622,0,1.125,0.528,1.125,1.182C517.373,301.795,516.87,302.324,516.248,302.324z"/>
</g>
<g>
	<path fill="#8697CB" d="M602.761,278.441h-13.814c-0.588,0-1.063-0.475-1.063-1.063c0-0.588,0.475-1.063,1.063-1.063h13.814
		c0.588,0,1.063,0.475,1.063,1.063C603.824,277.966,603.349,278.441,602.761,278.441z"/>
	<path fill="#F0C419" d="M617.638,278.441h-10.626c-0.588,0-1.063-0.475-1.063-1.063c0-0.588,0.475-1.063,1.063-1.063h10.626
		c0.588,0,1.063,0.475,1.063,1.063C618.701,277.966,618.226,278.441,617.638,278.441z"/>
	<path fill="#4FBA6F" d="M624.014,278.441h-2.125c-0.588,0-1.063-0.475-1.063-1.063c0-0.588,0.475-1.063,1.063-1.063h2.125
		c0.588,0,1.063,0.475,1.063,1.063C625.077,277.966,624.602,278.441,624.014,278.441z"/>
	<path fill="#8697CB" d="M629.327,282.692h-15.94c-0.588,0-1.063-0.475-1.063-1.063c0-0.588,0.475-1.063,1.063-1.063h15.94
		c0.588,0,1.063,0.475,1.063,1.063C630.39,282.217,629.915,282.692,629.327,282.692z"/>
	<path fill="#E64C3C" d="M609.137,282.692H594.26c-0.588,0-1.063-0.475-1.063-1.063c0-0.588,0.475-1.063,1.063-1.063h14.877
		c0.588,0,1.063,0.475,1.063,1.063C610.2,282.217,609.725,282.692,609.137,282.692z"/>
	<path fill="#E64C3C" d="M590.01,282.692h-1.063c-0.588,0-1.063-0.475-1.063-1.063c0-0.588,0.475-1.063,1.063-1.063h1.063
		c0.588,0,1.063,0.475,1.063,1.063C591.072,282.217,590.597,282.692,590.01,282.692z"/>
	<path fill="#8697CB" d="M598.511,286.942h-9.564c-0.588,0-1.063-0.475-1.063-1.063c0-0.588,0.475-1.063,1.063-1.063h9.564
		c0.588,0,1.063,0.475,1.063,1.063C599.573,286.467,599.098,286.942,598.511,286.942z"/>
	<path fill="#F0C419" d="M604.887,286.942h-2.125c-0.588,0-1.063-0.475-1.063-1.063c0-0.588,0.475-1.063,1.063-1.063h2.125
		c0.588,0,1.063,0.475,1.063,1.063C605.949,286.467,605.474,286.942,604.887,286.942z"/>
	<path fill="#4FBA6F" d="M624.014,286.942h-14.877c-0.588,0-1.063-0.475-1.063-1.063c0-0.588,0.475-1.063,1.063-1.063h14.877
		c0.588,0,1.063,0.475,1.063,1.063C625.077,286.467,624.602,286.942,624.014,286.942z"/>
	<path fill="#F0C419" d="M602.761,291.193h-13.814c-0.588,0-1.063-0.475-1.063-1.063s0.475-1.063,1.063-1.063h13.814
		c0.588,0,1.063,0.475,1.063,1.063S603.349,291.193,602.761,291.193z"/>
	<path fill="#4FBA6F" d="M617.638,291.193h-10.626c-0.588,0-1.063-0.475-1.063-1.063s0.475-1.063,1.063-1.063h10.626
		c0.588,0,1.063,0.475,1.063,1.063S618.226,291.193,617.638,291.193z"/>
	<path fill="#F0C419" d="M621.889,295.443h-8.501c-0.588,0-1.063-0.475-1.063-1.063c0-0.588,0.475-1.063,1.063-1.063h8.501
		c0.588,0,1.063,0.475,1.063,1.063C622.951,294.968,622.477,295.443,621.889,295.443z"/>
	<path fill="#8697CB" d="M609.137,295.443H594.26c-0.588,0-1.063-0.475-1.063-1.063c0-0.588,0.475-1.063,1.063-1.063h14.877
		c0.588,0,1.063,0.475,1.063,1.063C610.2,294.968,609.725,295.443,609.137,295.443z"/>
	<path fill="#4FBA6F" d="M590.01,295.443h-1.063c-0.588,0-1.063-0.475-1.063-1.063c0-0.588,0.475-1.063,1.063-1.063h1.063
		c0.588,0,1.063,0.475,1.063,1.063C591.072,294.968,590.597,295.443,590.01,295.443z"/>
	<path fill="#F0C419" d="M598.511,299.694h-9.564c-0.588,0-1.063-0.475-1.063-1.063c0-0.588,0.475-1.063,1.063-1.063h9.564
		c0.588,0,1.063,0.475,1.063,1.063C599.573,299.219,599.098,299.694,598.511,299.694z"/>
	<path fill="#8697CB" d="M604.887,299.694h-2.125c-0.588,0-1.063-0.475-1.063-1.063c0-0.588,0.475-1.063,1.063-1.063h2.125
		c0.588,0,1.063,0.475,1.063,1.063C605.949,299.219,605.474,299.694,604.887,299.694z"/>
	<path fill="#E64C3C" d="M625.077,299.694h-15.94c-0.588,0-1.063-0.475-1.063-1.063c0-0.588,0.475-1.063,1.063-1.063h15.94
		c0.588,0,1.063,0.475,1.063,1.063C626.139,299.219,625.664,299.694,625.077,299.694z"/>
</g>
</svg>
