<?xml version="1.0" encoding="utf-8"?>
<!-- Generator: Adobe Illustrator 17.0.0, SVG Export Plug-In . SVG Version: 6.00 Build 0)  -->
<!DOCTYPE svg PUBLIC "-//W3C//DTD SVG 1.1//EN" "http://www.w3.org/Graphics/SVG/1.1/DTD/svg11.dtd">
<svg version="1.1" id="Layer_1" xmlns="http://www.w3.org/2000/svg" xmlns:xlink="http://www.w3.org/1999/xlink" x="0px" y="0px"
	 width="1124.713px" height="351.473px" viewBox="475.287 148.527 1124.713 351.473"
	 enable-background="new 475.287 148.527 1124.713 351.473" xml:space="preserve">
<g>
	<path fill="#3B3D3C" d="M1040.27,369.844c0.742,0,1.344-0.602,1.344-1.344c0-0.742-0.602-1.344-1.344-1.344h-0.134
		c-0.742,0-1.344,0.602-1.344,1.344c0,0.742,0.602,1.344,1.344,1.344H1040.27z"/>
	<path fill="#3B3D3C" d="M1027.909,369.844c0.742,0,1.344-0.602,1.344-1.344c0-0.742-0.602-1.344-1.344-1.344h-0.134
		c-0.742,0-1.344,0.602-1.344,1.344c0,0.742,0.602,1.344,1.344,1.344H1027.909z"/>
	<path fill="#3B3D3C" d="M1003.053,369.844h0.134c0.742,0,1.344-0.602,1.344-1.344c0-0.742-0.602-1.344-1.344-1.344h-0.134
		c-0.742,0-1.344,0.602-1.344,1.344C1001.709,369.242,1002.31,369.844,1003.053,369.844z"/>
	<path fill="#3B3D3C" d="M1034.09,369.844c0.742,0,1.344-0.602,1.344-1.344c0-0.742-0.601-1.344-1.344-1.344h-0.134
		c-0.742,0-1.344,0.602-1.344,1.344c0,0.742,0.602,1.344,1.344,1.344H1034.09z"/>
	<path fill="#3B3D3C" d="M1021.729,369.844c0.742,0,1.344-0.602,1.344-1.344c0-0.742-0.602-1.344-1.344-1.344h-0.134
		c-0.742,0-1.344,0.602-1.344,1.344c0,0.742,0.601,1.344,1.344,1.344H1021.729z"/>
	<path fill="#3B3D3C" d="M1015.548,369.844c0.742,0,1.344-0.602,1.344-1.344c0-0.742-0.602-1.344-1.344-1.344h-0.134
		c-0.742,0-1.344,0.602-1.344,1.344c0,0.742,0.601,1.344,1.344,1.344H1015.548z"/>
	<path fill="#3B3D3C" d="M998.081,380.593c-0.742,0-1.344,0.602-1.344,1.344v0.134c0,0.742,0.601,1.344,1.344,1.344
		c0.742,0,1.344-0.602,1.344-1.344v-0.134C999.425,381.195,998.823,380.593,998.081,380.593z"/>
	<path fill="#3B3D3C" d="M998.081,386.773c-0.742,0-1.344,0.602-1.344,1.344v0.134c0,0.742,0.601,1.344,1.344,1.344
		c0.742,0,1.344-0.601,1.344-1.344v-0.134C999.425,387.375,998.823,386.773,998.081,386.773z"/>
	<path fill="#3B3D3C" d="M998.081,374.412c-0.742,0-1.344,0.602-1.344,1.344v0.134c0,0.742,0.601,1.344,1.344,1.344
		c0.742,0,1.344-0.602,1.344-1.344v-0.134C999.425,375.013,998.823,374.412,998.081,374.412z"/>
	<path fill="#3B3D3C" d="M1009.367,369.844c0.742,0,1.344-0.602,1.344-1.344c0-0.742-0.602-1.344-1.344-1.344h-0.134
		c-0.742,0-1.344,0.602-1.344,1.344c0,0.742,0.602,1.344,1.344,1.344H1009.367z"/>
	<path fill="#3B3D3C" d="M998.081,368.231c-0.742,0-1.344,0.601-1.344,1.344v0.134c0,0.742,0.601,1.344,1.344,1.344
		c0.742,0,1.344-0.602,1.344-1.344v-0.134C999.425,368.833,998.823,368.231,998.081,368.231z"/>
	<path fill="#3B3D3C" d="M1077.354,369.844c0.742,0,1.344-0.602,1.344-1.344c0-0.742-0.602-1.344-1.344-1.344h-0.134
		c-0.742,0-1.344,0.602-1.344,1.344c0,0.742,0.602,1.344,1.344,1.344H1077.354z"/>
	<path fill="#3B3D3C" d="M1071.173,369.844c0.742,0,1.344-0.602,1.344-1.344c0-0.742-0.602-1.344-1.344-1.344h-0.134
		c-0.742,0-1.344,0.602-1.344,1.344c0,0.742,0.602,1.344,1.344,1.344H1071.173z"/>
	<path fill="#3B3D3C" d="M1078.026,384.892c-0.742,0-1.344,0.602-1.344,1.344v0.134c0,0.455,0.226,0.857,0.572,1.101
		c-0.421,0.227-0.707,0.672-0.707,1.184c0,0.742,0.602,1.344,1.344,1.344h0.134c0.742,0,1.344-0.602,1.344-1.344
		c0-0.482-0.254-0.906-0.635-1.142c0.382-0.237,0.635-0.66,0.635-1.142v-0.134C1079.369,385.494,1078.767,384.892,1078.026,384.892z
		"/>
	<path fill="#3B3D3C" d="M1078.026,372.531c-0.742,0-1.344,0.602-1.344,1.344v0.134c0,0.742,0.602,1.344,1.344,1.344
		c0.742,0,1.344-0.602,1.344-1.344v-0.134C1079.369,373.133,1078.767,372.531,1078.026,372.531z"/>
	<path fill="#3B3D3C" d="M1078.026,378.712c-0.742,0-1.344,0.602-1.344,1.344v0.134c0,0.742,0.602,1.344,1.344,1.344
		c0.742,0,1.344-0.601,1.344-1.344v-0.134C1079.369,379.314,1078.767,378.712,1078.026,378.712z"/>
	<path fill="#3B3D3C" d="M1064.993,369.844c0.742,0,1.344-0.602,1.344-1.344c0-0.742-0.602-1.344-1.344-1.344h-0.134
		c-0.742,0-1.344,0.602-1.344,1.344c0,0.742,0.602,1.344,1.344,1.344H1064.993z"/>
	<path fill="#3B3D3C" d="M1052.631,369.844c0.742,0,1.344-0.602,1.344-1.344c0-0.742-0.602-1.344-1.344-1.344h-0.134
		c-0.742,0-1.344,0.602-1.344,1.344c0,0.742,0.601,1.344,1.344,1.344H1052.631z"/>
	<path fill="#3B3D3C" d="M1046.451,369.844c0.742,0,1.344-0.602,1.344-1.344c0-0.742-0.602-1.344-1.344-1.344h-0.134
		c-0.742,0-1.344,0.602-1.344,1.344c0,0.742,0.601,1.344,1.344,1.344H1046.451z"/>
	<path fill="#3B3D3C" d="M1058.812,369.844c0.742,0,1.344-0.602,1.344-1.344c0-0.742-0.602-1.344-1.344-1.344h-0.134
		c-0.742,0-1.344,0.602-1.344,1.344c0,0.742,0.602,1.344,1.344,1.344H1058.812z"/>
</g>
<path id="XMLID_165_" fill="#DCDEE0" stroke="#34508B" stroke-width="3" stroke-linecap="round" stroke-linejoin="round" stroke-miterlimit="10" d="
	M1014.337,217.464v-6.058h-4.082c-0.287-1.228-0.756-2.384-1.377-3.443l2.852-2.852l-4.284-4.284l-2.808,2.808
	c-1.068-0.656-2.238-1.154-3.487-1.466v-3.95h-6.058v3.95c-1.248,0.312-2.419,0.81-3.487,1.466l-2.808-2.808l-4.284,4.284
	l2.852,2.852c-0.621,1.059-1.089,2.215-1.377,3.443h-4.082v6.058h4.174c0.314,1.182,0.795,2.292,1.42,3.308l-2.986,2.986
	l4.284,4.284l3.03-3.03c1.007,0.591,2.103,1.041,3.265,1.332v4.306h6.058v-4.306c1.162-0.29,2.257-0.74,3.265-1.332l3.03,3.03
	l4.284-4.284l-2.986-2.986c0.625-1.016,1.106-2.126,1.42-3.308C1010.165,217.464,1014.337,217.464,1014.337,217.464z
	 M998.122,218.177c-2.165,0-3.92-1.755-3.92-3.92c0-2.165,1.755-3.92,3.92-3.92s3.92,1.755,3.92,3.92
	C1002.042,216.422,1000.287,218.177,998.122,218.177z"/>
<polygon fill="#DCDEE0" points="586.792,390.463 532.548,390.463 532.548,466.533 573.795,466.533 586.792,453.535 "/>
<g>
	<polygon fill="#FFAD61" points="586.792,453.535 573.795,466.533 573.783,453.524 	"/>
	<path fill="#FFAD61" d="M545.241,403.122c0.052,0.803,0.464,1.551,1.139,1.989c0.833,0.541,1.905,0.541,2.738,0
		c0.675-0.439,1.087-1.186,1.139-1.989l0.199-3.048c0.102-1.565-1.139-2.889-2.707-2.889l0,0c-1.568,0-2.81,1.325-2.707,2.889
		L545.241,403.122z"/>
</g>
<g>
	<path fill="#34508B" d="M586.792,388.885h-54.245c-0.872,0-1.578,0.707-1.578,1.578v76.069c0,0.872,0.707,1.578,1.578,1.578h41.247
		c0.419,0,0.82-0.167,1.116-0.462l12.997-12.998c0.296-0.296,0.462-0.697,0.462-1.116v-63.072
		C588.371,389.591,587.664,388.885,586.792,388.885z M534.126,424.868h0.135c0.872,0,1.578-0.707,1.578-1.578
		c0-0.871-0.707-1.578-1.578-1.578h-0.135v-29.67h51.089v29.671c-0.861,0.012-1.556,0.713-1.556,1.577
		c0,0.864,0.695,1.565,1.555,1.577v27.089l-11.429-0.01c0,0-0.001,0-0.001,0c-0.419,0-0.82,0.167-1.116,0.462
		c-0.296,0.296-0.463,0.698-0.462,1.117l0.01,11.429h-38.089V424.868z M575.363,455.103l7.622,0.007l-7.615,7.615L575.363,455.103z"
		/>
	<path fill="#34508B" d="M561.756,402.308h8.639c0.871,0,1.578-0.707,1.578-1.578c0-0.871-0.707-1.578-1.578-1.578h-8.639
		c-0.871,0-1.578,0.707-1.578,1.578C560.178,401.601,560.885,402.308,561.756,402.308z"/>
	<path fill="#34508B" d="M561.756,409.558h18.746c0.871,0,1.578-0.707,1.578-1.578c0-0.872-0.707-1.578-1.578-1.578h-18.746
		c-0.871,0-1.578,0.707-1.578,1.578C560.178,408.852,560.885,409.558,561.756,409.558z"/>
	<path fill="#34508B" d="M561.756,416.82h18.746c0.871,0,1.578-0.707,1.578-1.578s-0.707-1.578-1.578-1.578h-18.746
		c-0.871,0-1.578,0.707-1.578,1.578S560.885,416.82,561.756,416.82z"/>
	<path fill="#34508B" d="M540.1,430.4c-0.872,0-1.578,0.707-1.578,1.578c0,0.871,0.707,1.578,1.578,1.578h18.693
		c0.872,0,1.578-0.707,1.578-1.578c0-0.872-0.707-1.578-1.578-1.578H540.1z"/>
	<path fill="#34508B" d="M580.66,436.783H540.1c-0.872,0-1.578,0.707-1.578,1.578c0,0.872,0.707,1.578,1.578,1.578h40.56
		c0.871,0,1.578-0.707,1.578-1.578C582.239,437.49,581.531,436.783,580.66,436.783z"/>
	<path fill="#34508B" d="M580.66,443.176H540.1c-0.872,0-1.578,0.707-1.578,1.578c0,0.872,0.707,1.578,1.578,1.578h40.56
		c0.871,0,1.578-0.707,1.578-1.578C582.239,443.882,581.531,443.176,580.66,443.176z"/>
	<path fill="#34508B" d="M557.145,454.065h-1.333c-0.872,0-1.578,0.707-1.578,1.578c0,0.871,0.707,1.578,1.578,1.578h1.333
		c0.871,0,1.578-0.707,1.578-1.578C558.723,454.772,558.016,454.065,557.145,454.065z"/>
	<path fill="#34508B" d="M550.358,454.065H540.1c-0.872,0-1.578,0.707-1.578,1.578c0,0.871,0.707,1.578,1.578,1.578h10.258
		c0.871,0,1.578-0.707,1.578-1.578C551.936,454.772,551.23,454.065,550.358,454.065z"/>
	<path fill="#34508B" d="M543.665,403.225c0.085,1.311,0.779,2.511,1.854,3.21c0.677,0.44,1.453,0.66,2.228,0.66
		s1.552-0.22,2.229-0.66c1.076-0.699,1.769-1.899,1.855-3.21l0.199-3.048c0.077-1.18-0.343-2.351-1.151-3.213
		c-0.808-0.863-1.95-1.357-3.131-1.357s-2.323,0.494-3.131,1.357c-0.808,0.863-1.227,2.034-1.151,3.213L543.665,403.225z
		 M546.921,399.122c0.217-0.232,0.511-0.359,0.828-0.359c0.317,0,0.611,0.128,0.828,0.359c0.217,0.231,0.325,0.533,0.304,0.85
		l-0.199,3.048c-0.021,0.322-0.179,0.609-0.425,0.768c-0.31,0.201-0.709,0.201-1.018,0c-0.245-0.159-0.403-0.446-0.425-0.768l0,0
		l-0.199-3.048C546.596,399.655,546.704,399.353,546.921,399.122z"/>
	<path fill="#34508B" d="M539.153,416.977h17.191c0.468,0,0.912-0.208,1.211-0.567c0.3-0.359,0.425-0.832,0.342-1.293l-0.345-1.903
		c-0.478-2.639-2.569-4.746-5.203-5.241c-0.398-0.075-0.804-0.113-1.208-0.113h-1.039c-0.419,0-0.82,0.167-1.116,0.462
		c-0.331,0.331-0.771,0.513-1.238,0.513c-0.468,0-0.908-0.182-1.238-0.513c-0.296-0.296-0.697-0.462-1.116-0.462h-1.039
		c-0.404,0-0.81,0.038-1.209,0.113c-2.634,0.496-4.725,2.602-5.203,5.241l-0.345,1.903c-0.083,0.46,0.042,0.934,0.342,1.293
		C538.242,416.77,538.685,416.977,539.153,416.977z M541.051,413.777c0.247-1.36,1.324-2.447,2.681-2.702
		c0.206-0.039,0.415-0.058,0.624-0.058h0.456c1.735,1.297,4.138,1.297,5.873,0h0.456c0.209,0,0.419,0.019,0.624,0.058
		c1.357,0.255,2.435,1.342,2.681,2.702l0.008,0.044h-13.412L541.051,413.777z"/>
	<path fill="#34508B" d="M575.434,424.868c0.871,0,1.578-0.707,1.578-1.578c0-0.871-0.707-1.578-1.578-1.578h-1.96
		c-0.871,0-1.578,0.707-1.578,1.578c0,0.872,0.707,1.578,1.578,1.578H575.434z"/>
	<path fill="#34508B" d="M569.552,424.868c0.871,0,1.578-0.707,1.578-1.578c0-0.871-0.707-1.578-1.578-1.578h-1.96
		c-0.871,0-1.578,0.707-1.578,1.578c0,0.872,0.707,1.578,1.578,1.578H569.552z"/>
	<path fill="#34508B" d="M541.721,423.29c0-0.871-0.707-1.578-1.578-1.578h-1.96c-0.872,0-1.578,0.707-1.578,1.578
		c0,0.872,0.707,1.578,1.578,1.578h1.96C541.014,424.868,541.721,424.162,541.721,423.29z"/>
	<path fill="#34508B" d="M555.828,421.712c-0.872,0-1.578,0.707-1.578,1.578c0,0.871,0.707,1.578,1.578,1.578h1.96
		c0.872,0,1.578-0.707,1.578-1.578c0-0.872-0.707-1.578-1.578-1.578H555.828z"/>
	<path fill="#34508B" d="M551.906,424.868c0.872,0,1.578-0.707,1.578-1.578c0-0.871-0.707-1.578-1.578-1.578h-1.96
		c-0.872,0-1.578,0.707-1.578,1.578c0,0.872,0.707,1.578,1.578,1.578H551.906z"/>
	<path fill="#34508B" d="M579.355,421.712c-0.871,0-1.578,0.707-1.578,1.578c0,0.871,0.707,1.578,1.578,1.578h1.961
		c0.871,0,1.578-0.707,1.578-1.578c0-0.872-0.707-1.578-1.578-1.578H579.355z"/>
	<path fill="#34508B" d="M561.709,424.868h1.96c0.871,0,1.578-0.707,1.578-1.578c0-0.871-0.707-1.578-1.578-1.578h-1.96
		c-0.871,0-1.578,0.707-1.578,1.578C560.131,424.162,560.838,424.868,561.709,424.868z"/>
	<path fill="#34508B" d="M546.025,424.868c0.872,0,1.578-0.707,1.578-1.578c0-0.871-0.707-1.578-1.578-1.578h-1.96
		c-0.871,0-1.578,0.707-1.578,1.578c0,0.872,0.707,1.578,1.578,1.578H546.025z"/>
</g>
<polygon fill="#DCDEE0" points="673.39,390.463 619.145,390.463 619.145,466.533 660.393,466.533 673.39,453.535 "/>
<g>
	<polygon fill="#FFAD61" points="673.39,453.535 660.393,466.533 660.381,453.524 	"/>
	<path fill="#FFAD61" d="M631.838,403.122c0.052,0.803,0.464,1.551,1.139,1.989c0.833,0.541,1.905,0.541,2.738,0
		c0.675-0.439,1.087-1.186,1.139-1.989l0.199-3.048c0.102-1.565-1.139-2.889-2.707-2.889l0,0c-1.568,0-2.809,1.325-2.707,2.889
		L631.838,403.122z"/>
</g>
<g>
	<path fill="#34508B" d="M673.39,388.885h-54.245c-0.872,0-1.578,0.707-1.578,1.578v76.069c0,0.872,0.707,1.578,1.578,1.578h41.247
		c0.419,0,0.82-0.167,1.116-0.462l12.997-12.998c0.296-0.296,0.462-0.697,0.462-1.116v-63.072
		C674.968,389.591,674.261,388.885,673.39,388.885z M620.724,424.868h0.135c0.871,0,1.578-0.707,1.578-1.578
		c0-0.871-0.707-1.578-1.578-1.578h-0.135v-29.67h51.089v29.671c-0.861,0.012-1.555,0.713-1.555,1.577
		c0,0.864,0.695,1.565,1.555,1.577v27.089l-11.429-0.01c-0.001,0-0.001,0-0.001,0c-0.419,0-0.82,0.167-1.117,0.462
		c-0.296,0.296-0.462,0.698-0.462,1.117l0.011,11.429h-38.09V424.868z M661.961,455.103l7.622,0.007l-7.615,7.615L661.961,455.103z"
		/>
	<path fill="#34508B" d="M648.354,402.308h8.639c0.871,0,1.578-0.707,1.578-1.578c0-0.871-0.707-1.578-1.578-1.578h-8.639
		c-0.871,0-1.578,0.707-1.578,1.578C646.776,401.601,647.483,402.308,648.354,402.308z"/>
	<path fill="#34508B" d="M648.354,409.558H667.1c0.871,0,1.578-0.707,1.578-1.578c0-0.872-0.707-1.578-1.578-1.578h-18.746
		c-0.871,0-1.578,0.707-1.578,1.578C646.776,408.852,647.483,409.558,648.354,409.558z"/>
	<path fill="#34508B" d="M648.354,416.82H667.1c0.871,0,1.578-0.707,1.578-1.578s-0.707-1.578-1.578-1.578h-18.746
		c-0.871,0-1.578,0.707-1.578,1.578S647.483,416.82,648.354,416.82z"/>
	<path fill="#34508B" d="M626.698,430.4c-0.872,0-1.578,0.707-1.578,1.578c0,0.871,0.707,1.578,1.578,1.578h18.693
		c0.872,0,1.578-0.707,1.578-1.578c0-0.872-0.707-1.578-1.578-1.578H626.698z"/>
	<path fill="#34508B" d="M667.258,436.783h-40.56c-0.872,0-1.578,0.707-1.578,1.578c0,0.872,0.707,1.578,1.578,1.578h40.56
		c0.871,0,1.578-0.707,1.578-1.578C668.836,437.49,668.129,436.783,667.258,436.783z"/>
	<path fill="#34508B" d="M667.258,443.176h-40.56c-0.872,0-1.578,0.707-1.578,1.578c0,0.872,0.707,1.578,1.578,1.578h40.56
		c0.871,0,1.578-0.707,1.578-1.578C668.836,443.882,668.129,443.176,667.258,443.176z"/>
	<path fill="#34508B" d="M643.742,454.065h-1.333c-0.871,0-1.578,0.707-1.578,1.578c0,0.871,0.707,1.578,1.578,1.578h1.333
		c0.872,0,1.578-0.707,1.578-1.578C645.321,454.772,644.614,454.065,643.742,454.065z"/>
	<path fill="#34508B" d="M636.956,454.065h-10.258c-0.872,0-1.578,0.707-1.578,1.578c0,0.871,0.707,1.578,1.578,1.578h10.258
		c0.872,0,1.578-0.707,1.578-1.578C638.534,454.772,637.828,454.065,636.956,454.065z"/>
	<path fill="#34508B" d="M630.263,403.225c0.085,1.311,0.779,2.511,1.855,3.21c0.677,0.44,1.453,0.66,2.228,0.66
		c0.776,0,1.552-0.22,2.229-0.66c1.076-0.699,1.769-1.899,1.854-3.21l0.199-3.048c0.077-1.18-0.343-2.351-1.151-3.213
		c-0.808-0.863-1.95-1.357-3.131-1.357s-2.323,0.494-3.131,1.357c-0.808,0.863-1.227,2.034-1.151,3.213L630.263,403.225z
		 M633.518,399.122c0.217-0.232,0.511-0.359,0.828-0.359c0.317,0,0.611,0.128,0.828,0.359c0.217,0.231,0.325,0.533,0.304,0.85
		l-0.199,3.048c-0.021,0.322-0.179,0.609-0.425,0.768c-0.309,0.201-0.709,0.201-1.018,0c-0.245-0.159-0.403-0.446-0.425-0.768l0,0
		l-0.199-3.048C633.193,399.655,633.301,399.353,633.518,399.122z"/>
	<path fill="#34508B" d="M625.751,416.977h17.191c0.468,0,0.912-0.208,1.211-0.567c0.3-0.359,0.425-0.832,0.342-1.293l-0.345-1.903
		c-0.478-2.639-2.569-4.746-5.203-5.241c-0.398-0.075-0.804-0.113-1.208-0.113H636.7c-0.419,0-0.82,0.167-1.116,0.462
		c-0.331,0.331-0.771,0.513-1.238,0.513s-0.908-0.182-1.238-0.513c-0.296-0.296-0.697-0.462-1.116-0.462h-1.039
		c-0.404,0-0.81,0.038-1.209,0.113c-2.634,0.496-4.725,2.602-5.202,5.241l-0.345,1.903c-0.083,0.46,0.042,0.934,0.341,1.293
		C624.84,416.77,625.283,416.977,625.751,416.977z M627.648,413.777c0.247-1.36,1.324-2.447,2.681-2.702
		c0.206-0.039,0.415-0.058,0.624-0.058h0.456c1.735,1.297,4.138,1.297,5.873,0h0.456c0.209,0,0.419,0.019,0.624,0.058
		c1.357,0.255,2.435,1.342,2.681,2.702l0.008,0.044H627.64L627.648,413.777z"/>
	<path fill="#34508B" d="M662.031,424.868c0.871,0,1.578-0.707,1.578-1.578c0-0.871-0.707-1.578-1.578-1.578h-1.96
		c-0.871,0-1.578,0.707-1.578,1.578c0,0.872,0.707,1.578,1.578,1.578H662.031z"/>
	<path fill="#34508B" d="M656.15,424.868c0.871,0,1.578-0.707,1.578-1.578c0-0.871-0.707-1.578-1.578-1.578h-1.96
		c-0.871,0-1.578,0.707-1.578,1.578c0,0.872,0.707,1.578,1.578,1.578H656.15z"/>
	<path fill="#34508B" d="M628.318,423.29c0-0.871-0.707-1.578-1.578-1.578h-1.96c-0.871,0-1.578,0.707-1.578,1.578
		c0,0.872,0.707,1.578,1.578,1.578h1.96C627.612,424.868,628.318,424.162,628.318,423.29z"/>
	<path fill="#34508B" d="M642.425,421.712c-0.871,0-1.578,0.707-1.578,1.578c0,0.871,0.707,1.578,1.578,1.578h1.96
		c0.872,0,1.578-0.707,1.578-1.578c0-0.872-0.707-1.578-1.578-1.578H642.425z"/>
	<path fill="#34508B" d="M638.504,424.868c0.872,0,1.578-0.707,1.578-1.578c0-0.871-0.707-1.578-1.578-1.578h-1.96
		c-0.872,0-1.578,0.707-1.578,1.578c0,0.872,0.707,1.578,1.578,1.578H638.504z"/>
	<path fill="#34508B" d="M665.953,421.712c-0.871,0-1.578,0.707-1.578,1.578c0,0.871,0.707,1.578,1.578,1.578h1.961
		c0.871,0,1.578-0.707,1.578-1.578c0-0.872-0.707-1.578-1.578-1.578H665.953z"/>
	<path fill="#34508B" d="M648.307,424.868h1.96c0.871,0,1.578-0.707,1.578-1.578c0-0.871-0.707-1.578-1.578-1.578h-1.96
		c-0.871,0-1.578,0.707-1.578,1.578C646.729,424.162,647.436,424.868,648.307,424.868z"/>
	<path fill="#34508B" d="M632.622,424.868c0.872,0,1.578-0.707,1.578-1.578c0-0.871-0.707-1.578-1.578-1.578h-1.96
		c-0.872,0-1.578,0.707-1.578,1.578c0,0.872,0.707,1.578,1.578,1.578H632.622z"/>
</g>
<polygon fill="#DCDEE0" points="759.773,390.463 705.528,390.463 705.528,466.533 746.775,466.533 759.773,453.535 "/>
<g>
	<polygon fill="#FFAD61" points="759.773,453.535 746.775,466.533 746.764,453.524 	"/>
	<path fill="#FFAD61" d="M718.221,403.122c0.052,0.803,0.464,1.551,1.139,1.989c0.833,0.541,1.905,0.541,2.738,0
		c0.675-0.439,1.087-1.186,1.139-1.989l0.199-3.048c0.102-1.565-1.139-2.889-2.707-2.889l0,0c-1.568,0-2.809,1.325-2.707,2.889
		L718.221,403.122z"/>
</g>
<g>
	<path fill="#34508B" d="M759.772,388.885h-54.245c-0.871,0-1.578,0.707-1.578,1.578v76.069c0,0.872,0.707,1.578,1.578,1.578h41.247
		c0.419,0,0.82-0.167,1.116-0.462l12.997-12.998c0.296-0.296,0.462-0.697,0.462-1.116v-63.072
		C761.351,389.591,760.644,388.885,759.772,388.885z M707.106,424.868h0.135c0.872,0,1.578-0.707,1.578-1.578
		c0-0.871-0.707-1.578-1.578-1.578h-0.135v-29.67h51.089v29.671c-0.861,0.012-1.555,0.713-1.555,1.577
		c0,0.864,0.695,1.565,1.555,1.577v27.089l-11.429-0.01c0,0-0.001,0-0.001,0c-0.419,0-0.82,0.167-1.116,0.462
		c-0.296,0.296-0.462,0.698-0.462,1.117l0.01,11.429h-38.09V424.868z M748.344,455.103l7.622,0.007l-7.615,7.615L748.344,455.103z"
		/>
	<path fill="#34508B" d="M734.737,402.308h8.639c0.871,0,1.578-0.707,1.578-1.578c0-0.871-0.707-1.578-1.578-1.578h-8.639
		c-0.871,0-1.578,0.707-1.578,1.578C733.158,401.601,733.865,402.308,734.737,402.308z"/>
	<path fill="#34508B" d="M734.737,409.558h18.746c0.871,0,1.578-0.707,1.578-1.578c0-0.872-0.707-1.578-1.578-1.578h-18.746
		c-0.871,0-1.578,0.707-1.578,1.578C733.158,408.852,733.865,409.558,734.737,409.558z"/>
	<path fill="#34508B" d="M734.737,416.82h18.746c0.871,0,1.578-0.707,1.578-1.578s-0.707-1.578-1.578-1.578h-18.746
		c-0.871,0-1.578,0.707-1.578,1.578C733.158,416.113,733.865,416.82,734.737,416.82z"/>
	<path fill="#34508B" d="M713.08,430.4c-0.871,0-1.578,0.707-1.578,1.578c0,0.871,0.707,1.578,1.578,1.578h18.694
		c0.871,0,1.578-0.707,1.578-1.578c0-0.872-0.707-1.578-1.578-1.578H713.08z"/>
	<path fill="#34508B" d="M753.64,436.783h-40.56c-0.871,0-1.578,0.707-1.578,1.578c0,0.872,0.707,1.578,1.578,1.578h40.56
		c0.871,0,1.578-0.707,1.578-1.578C755.219,437.49,754.511,436.783,753.64,436.783z"/>
	<path fill="#34508B" d="M753.64,443.176h-40.56c-0.871,0-1.578,0.707-1.578,1.578c0,0.872,0.707,1.578,1.578,1.578h40.56
		c0.871,0,1.578-0.707,1.578-1.578C755.219,443.882,754.511,443.176,753.64,443.176z"/>
	<path fill="#34508B" d="M730.125,454.065h-1.333c-0.871,0-1.578,0.707-1.578,1.578c0,0.871,0.707,1.578,1.578,1.578h1.333
		c0.872,0,1.578-0.707,1.578-1.578C731.703,454.772,730.996,454.065,730.125,454.065z"/>
	<path fill="#34508B" d="M723.339,454.065H713.08c-0.871,0-1.578,0.707-1.578,1.578c0,0.871,0.707,1.578,1.578,1.578h10.258
		c0.872,0,1.578-0.707,1.578-1.578C724.917,454.772,724.211,454.065,723.339,454.065z"/>
	<path fill="#34508B" d="M716.645,403.225c0.085,1.311,0.779,2.511,1.855,3.21c0.677,0.44,1.453,0.66,2.229,0.66
		s1.552-0.22,2.229-0.66c1.076-0.699,1.769-1.899,1.854-3.21l0.199-3.048c0.077-1.18-0.343-2.351-1.151-3.213
		c-0.808-0.863-1.95-1.357-3.131-1.357s-2.323,0.494-3.131,1.357c-0.808,0.863-1.227,2.034-1.151,3.213L716.645,403.225z
		 M719.901,399.122c0.217-0.232,0.511-0.359,0.828-0.359c0.317,0,0.611,0.128,0.828,0.359c0.217,0.231,0.325,0.533,0.304,0.85
		l-0.199,3.048c-0.021,0.322-0.179,0.609-0.425,0.768c-0.309,0.201-0.709,0.201-1.018,0c-0.245-0.159-0.403-0.446-0.425-0.768l0,0
		l-0.199-3.048C719.576,399.655,719.684,399.353,719.901,399.122z"/>
	<path fill="#34508B" d="M712.134,416.977h17.191c0.468,0,0.912-0.208,1.211-0.567c0.3-0.359,0.425-0.832,0.342-1.293l-0.345-1.903
		c-0.478-2.639-2.569-4.746-5.203-5.241c-0.398-0.075-0.804-0.113-1.208-0.113h-1.039c-0.419,0-0.82,0.167-1.116,0.462
		c-0.331,0.331-0.771,0.513-1.238,0.513s-0.908-0.182-1.238-0.513c-0.296-0.296-0.697-0.462-1.116-0.462h-1.039
		c-0.404,0-0.81,0.038-1.209,0.113c-2.634,0.496-4.725,2.602-5.203,5.241l-0.345,1.903c-0.083,0.46,0.042,0.934,0.341,1.293
		C711.222,416.77,711.665,416.977,712.134,416.977z M714.031,413.777c0.247-1.36,1.324-2.447,2.681-2.702
		c0.206-0.039,0.415-0.058,0.624-0.058h0.456c1.735,1.297,4.138,1.297,5.873,0h0.456c0.208,0,0.419,0.019,0.624,0.058
		c1.357,0.255,2.435,1.342,2.681,2.702l0.008,0.044h-13.412L714.031,413.777z"/>
	<path fill="#34508B" d="M748.414,424.868c0.871,0,1.578-0.707,1.578-1.578c0-0.871-0.707-1.578-1.578-1.578h-1.96
		c-0.871,0-1.578,0.707-1.578,1.578c0,0.872,0.707,1.578,1.578,1.578H748.414z"/>
	<path fill="#34508B" d="M742.532,424.868c0.871,0,1.578-0.707,1.578-1.578c0-0.871-0.707-1.578-1.578-1.578h-1.96
		c-0.871,0-1.578,0.707-1.578,1.578c0,0.872,0.707,1.578,1.578,1.578H742.532z"/>
	<path fill="#34508B" d="M714.701,423.29c0-0.871-0.707-1.578-1.578-1.578h-1.96c-0.871,0-1.578,0.707-1.578,1.578
		c0,0.872,0.707,1.578,1.578,1.578h1.96C713.994,424.868,714.701,424.162,714.701,423.29z"/>
	<path fill="#34508B" d="M728.808,421.712c-0.871,0-1.578,0.707-1.578,1.578c0,0.871,0.707,1.578,1.578,1.578h1.96
		c0.872,0,1.578-0.707,1.578-1.578c0-0.872-0.707-1.578-1.578-1.578H728.808z"/>
	<path fill="#34508B" d="M724.886,424.868c0.871,0,1.578-0.707,1.578-1.578c0-0.871-0.707-1.578-1.578-1.578h-1.96
		c-0.871,0-1.578,0.707-1.578,1.578c0,0.872,0.707,1.578,1.578,1.578H724.886z"/>
	<path fill="#34508B" d="M752.336,421.712c-0.871,0-1.578,0.707-1.578,1.578c0,0.871,0.707,1.578,1.578,1.578h1.961
		c0.871,0,1.578-0.707,1.578-1.578c0-0.872-0.707-1.578-1.578-1.578H752.336z"/>
	<path fill="#34508B" d="M734.689,424.868h1.96c0.871,0,1.578-0.707,1.578-1.578c0-0.871-0.707-1.578-1.578-1.578h-1.96
		c-0.871,0-1.578,0.707-1.578,1.578C733.111,424.162,733.818,424.868,734.689,424.868z"/>
	<path fill="#34508B" d="M719.005,424.868c0.872,0,1.578-0.707,1.578-1.578c0-0.871-0.707-1.578-1.578-1.578h-1.96
		c-0.872,0-1.578,0.707-1.578,1.578c0,0.872,0.707,1.578,1.578,1.578H719.005z"/>
</g>
<g transform="translate(1 1)">
	<g>
		<path fill="#DCDEE0" d="M949.534,389.044v75.581c0,1.54,1.12,2.799,2.38,2.799h48.288c1.399,0,2.38-1.26,2.38-2.799v-75.581
			c0-1.54-1.12-2.799-2.38-2.799h-48.288C950.654,386.245,949.534,387.504,949.534,389.044"/>
	</g>
	<path fill="#FFFFFF" d="M949.534,464.625v-75.581c0-1.54,1.12-2.799,2.38-2.799h-3.779c-1.54,0-2.799,1.26-2.799,2.799v75.581
		c0,1.54,1.26,2.799,2.799,2.799h3.779C950.654,467.425,949.534,466.165,949.534,464.625"/>
	<path fill="#3BDDBA" d="M1004.12,386.245h-3.779c1.399,0,2.38,1.26,2.38,2.799v75.581c0,1.54-1.12,2.799-2.38,2.799h3.779
		c1.54,0,2.799-1.26,2.799-2.799v-75.581C1006.92,387.504,1005.66,386.245,1004.12,386.245"/>
	<g>
		<path fill="#54C9FD" d="M998.522,414.238v-6.718c0-3.919-3.079-6.998-6.998-6.998c-3.919,0-6.998,3.079-6.998,6.998v6.718H998.522
			L998.522,414.238z"/>
		<path fill="#54C9FD" d="M991.524,400.521c-2.38,0-4.199-1.819-4.199-4.199s1.819-4.199,4.199-4.199s4.199,1.819,4.199,4.199
			S993.903,400.521,991.524,400.521"/>
	</g>
	<path fill="#34508B" d="M991.524,401.921c-3.079,0-5.599-2.519-5.599-5.599c0-3.079,2.519-5.599,5.599-5.599
		c3.079,0,5.598,2.519,5.598,5.599C997.122,399.402,994.603,401.921,991.524,401.921z M991.524,393.523
		c-1.54,0-2.799,1.26-2.799,2.799s1.26,2.799,2.799,2.799c1.54,0,2.799-1.26,2.799-2.799
		C994.323,394.783,993.063,393.523,991.524,393.523z"/>
	<path fill="#34508B" d="M998.522,415.637h-13.996c-0.84,0-1.399-0.56-1.399-1.399v-6.718c0-4.619,3.779-8.398,8.398-8.398
		c4.619,0,8.398,3.779,8.398,8.398v6.718C999.922,415.078,999.362,415.637,998.522,415.637z M985.925,412.838h11.197v-5.319
		c0-3.079-2.519-5.598-5.599-5.598c-3.079,0-5.599,2.519-5.599,5.598L985.925,412.838L985.925,412.838z"/>
	<path fill="#34508B" d="M1004.12,468.824h-55.986c-2.379,0-4.199-1.819-4.199-4.199v-75.581c0-2.38,1.819-4.199,4.199-4.199h55.986
		c2.38,0,4.199,1.819,4.199,4.199v5.599c0,0.84-0.56,1.399-1.399,1.399c-0.84,0-1.399-0.56-1.399-1.399v-5.599
		c0-0.84-0.56-1.399-1.399-1.399h-55.986c-0.84,0-1.399,0.56-1.399,1.399v75.581c0,0.84,0.56,1.399,1.399,1.399h55.986
		c0.84,0,1.399-0.56,1.399-1.399V405.84c0-0.84,0.56-1.399,1.399-1.399c0.84,0,1.399,0.56,1.399,1.399v58.785
		C1008.32,467.005,1006.5,468.824,1004.12,468.824z"/>
	<path fill="#34508B" d="M1008.32,400.242c0-0.84-0.56-1.399-1.399-1.399c-0.84,0-1.399,0.56-1.399,1.399s0.56,1.399,1.399,1.399
		C1007.759,401.641,1008.32,401.082,1008.32,400.242"/>
	<path fill="#34508B" d="M963.531,398.842h-9.798c-0.84,0-1.399-0.56-1.399-1.399c0-0.84,0.56-1.399,1.399-1.399h9.798
		c0.84,0,1.399,0.56,1.399,1.399C964.931,398.282,964.37,398.842,963.531,398.842z"/>
	<path fill="#34508B" d="M963.531,410.039h-9.798c-0.84,0-1.399-0.56-1.399-1.399s0.56-1.399,1.399-1.399h9.798
		c0.84,0,1.399,0.56,1.399,1.399C964.931,409.479,964.37,410.039,963.531,410.039z"/>
	<path fill="#34508B" d="M970.529,398.842h-1.399c-0.84,0-1.399-0.56-1.399-1.399c0-0.84,0.56-1.399,1.399-1.399h1.399
		c0.84,0,1.399,0.56,1.399,1.399C971.929,398.282,971.369,398.842,970.529,398.842z"/>
	<path fill="#34508B" d="M976.128,404.441h-6.998c-0.84,0-1.399-0.56-1.399-1.399s0.56-1.399,1.399-1.399h6.998
		c0.84,0,1.399,0.56,1.399,1.399S976.967,404.441,976.128,404.441z"/>
	<path fill="#34508B" d="M970.529,410.039h-1.399c-0.84,0-1.399-0.56-1.399-1.399s0.56-1.399,1.399-1.399h1.399
		c0.84,0,1.399,0.56,1.399,1.399C971.929,409.479,971.369,410.039,970.529,410.039z"/>
	<path fill="#34508B" d="M976.128,415.637h-6.998c-0.84,0-1.399-0.56-1.399-1.399s0.56-1.399,1.399-1.399h6.998
		c0.84,0,1.399,0.56,1.399,1.399C977.527,415.078,976.967,415.637,976.128,415.637z"/>
</g>
<g>
	<g>
		<path fill="#FFC433" d="M992.701,265.387c-0.643-1.209-1.911-2.034-3.375-2.034c-2.113,0-3.826,1.713-3.826,3.826
			c0,2.113,1.712,3.826,3.826,3.826c1.465,0,2.732-0.825,3.375-2.034V265.387z"/>
		<path fill="#FFC433" d="M992.701,278.664c-0.643-1.209-1.911-2.034-3.375-2.034c-2.113,0-3.826,1.713-3.826,3.826
			s1.712,3.826,3.826,3.826c1.465,0,2.732-0.826,3.375-2.034V278.664z"/>
		<path fill="#FFC433" d="M1053.849,336.352c-1.208,0.643-2.033,1.911-2.033,3.375c0,2.113,1.713,3.826,3.826,3.826
			c2.113,0,3.826-1.712,3.826-3.826c0-1.465-0.825-2.732-2.033-3.375H1053.849z"/>
		<path fill="#FFC433" d="M1040.573,336.352c-1.209,0.643-2.034,1.911-2.034,3.375c0,2.113,1.713,3.826,3.826,3.826
			c2.113,0,3.826-1.712,3.826-3.826c0-1.465-0.825-2.732-2.033-3.375H1040.573z"/>
		<path fill="#FFC433" d="M1067.34,336.389c-1.204,0.644-2.025,1.91-2.025,3.371c0,2.113,1.713,3.826,3.826,3.826
			c2.113,0,3.826-1.712,3.826-3.826c0-1.468-0.829-2.738-2.042-3.38L1067.34,336.389z"/>
	</g>
	<g>
		
			<path fill="#3BDDBA" stroke="#34508B" stroke-width="3" stroke-linecap="round" stroke-linejoin="round" stroke-miterlimit="10" d="
			M1044.359,226.56v31.372h30.215c0,0,0.502-7.722-4.914-10.667c-0.327-0.177-0.672-0.344-1.043-0.493c0,0,0.654-1.948,0.494-4.191
			c-0.177-2.486-1.354-5.335-5.529-6.305c0,0,0.183-7.208-7.099-8.066c-0.527-0.062-1.089-0.093-1.696-0.084
			c0,0-1.316-1.295-3.319-2.109C1049.547,225.235,1046.995,224.895,1044.359,226.56z"/>
		
			<path fill="#3BDDBA" stroke="#34508B" stroke-width="3" stroke-linecap="round" stroke-linejoin="round" stroke-miterlimit="10" d="
			M1026.502,228.126c-9.01-0.142-8.797,8.15-8.797,8.15c-7.943,1.843-5.035,10.496-5.035,10.496
			c-6.525,2.624-5.958,11.16-5.958,11.16h30.214V226.56C1031.542,223.156,1026.502,228.126,1026.502,228.126z"/>
	</g>
	<path opacity="0.1" enable-background="new    " d="M1006.714,257.932h9.447c0,0-0.501-7.573,4.894-10.645
		c-0.005-0.007-0.01-0.015-0.015-0.022c0.327-0.177,0.672-0.344,1.043-0.493c0,0-0.654-1.948-0.494-4.191
		c0.012,0,0.023,0.002,0.034,0.002c0.177-2.487,1.353-5.338,5.529-6.307c0,0-0.181-7.182,7.063-8.061
		c0.001-0.001,0.002-0.003,0.003-0.005c0.04-0.005,0.082-0.008,0.123-0.012c0.02-0.002,0.041-0.004,0.062-0.006
		c0.228-0.024,0.462-0.042,0.703-0.052c0.024-0.001,0.049-0.001,0.073-0.002c0.238-0.009,0.482-0.014,0.735-0.01
		c0,0,0.371-0.363,1.014-0.825v-0.741c-2.649-1.674-5.213-1.322-7.135-0.533c-0.002-0.004-0.004-0.007-0.006-0.011
		c-2.003,0.815-3.319,2.109-3.319,2.109c-0.253-0.004-0.497,0.001-0.735,0.01c-0.024,0.001-0.049,0.001-0.073,0.002
		c-0.242,0.011-0.476,0.03-0.703,0.052c-0.021,0.002-0.042,0.004-0.062,0.006c-0.04,0.004-0.083,0.007-0.123,0.012
		c-0.001,0.002-0.002,0.003-0.003,0.005c-7.243,0.878-7.063,8.061-7.063,8.061c-4.176,0.969-5.352,3.821-5.529,6.307
		c-0.012,0-0.023-0.003-0.034-0.002c-0.16,2.244,0.494,4.191,0.494,4.191c-0.372,0.149-0.717,0.316-1.043,0.493
		c0.005,0.007,0.01,0.015,0.015,0.022C1006.213,250.359,1006.714,257.932,1006.714,257.932z"/>
	<path opacity="0.1" enable-background="new    " d="M1074.568,257.932h-9.447c0,0,0.501-7.573-4.894-10.645
		c0.005-0.007,0.01-0.015,0.015-0.022c-0.327-0.177-0.672-0.344-1.043-0.493c0,0,0.654-1.948,0.494-4.191
		c-0.012,0-0.023,0.002-0.034,0.002c-0.177-2.487-1.353-5.338-5.529-6.307c0,0,0.181-7.182-7.063-8.061
		c-0.001-0.001-0.001-0.003-0.003-0.005c-0.04-0.005-0.082-0.008-0.123-0.012c-0.02-0.002-0.041-0.004-0.062-0.006
		c-0.228-0.024-0.462-0.042-0.703-0.052c-0.024-0.001-0.049-0.001-0.073-0.002c-0.239-0.009-0.482-0.014-0.735-0.01
		c0,0-0.371-0.363-1.014-0.825v-0.741c2.649-1.674,5.213-1.322,7.135-0.533c0.002-0.004,0.004-0.007,0.006-0.011
		c2.003,0.815,3.319,2.109,3.319,2.109c0.253-0.004,0.497,0.001,0.735,0.01c0.024,0.001,0.049,0.001,0.073,0.002
		c0.242,0.011,0.476,0.03,0.703,0.052c0.021,0.002,0.042,0.004,0.062,0.006c0.04,0.004,0.083,0.007,0.123,0.012
		c0.001,0.002,0.002,0.003,0.003,0.005c7.243,0.878,7.063,8.061,7.063,8.061c4.176,0.969,5.352,3.821,5.529,6.307
		c0.012,0,0.023-0.003,0.034-0.002c0.16,2.244-0.494,4.191-0.494,4.191c0.371,0.149,0.717,0.316,1.043,0.493
		c-0.005,0.007-0.01,0.015-0.015,0.022C1075.069,250.359,1074.568,257.932,1074.568,257.932z"/>
	<path fill="#7EB3E4" d="M1003.3,323.497v-64.371c0-1.319,1.069-2.39,2.39-2.39h70.44c1.32,0,2.39,1.069,2.39,2.39v64.371
		c0,1.319-1.069,2.39-2.39,2.39h-70.44C1004.371,325.886,1003.3,324.817,1003.3,323.497z"/>
	<path opacity="0.1" enable-background="new    " d="M1003.3,259.126v64.371c0,1.319,1.069,2.39,2.39,2.39h70.44
		c1.32,0,2.39-1.07,2.39-2.39v-4.471h-65.968c-1.319,0-2.39-1.07-2.39-2.39v-59.899h-4.471
		C1004.371,256.737,1003.3,257.807,1003.3,259.126z"/>
	<path fill="#FFFFFF" d="M1021.88,306.417v-30.21c0-1.319,1.07-2.39,2.39-2.39h33.281c1.319,0,2.39,1.069,2.39,2.39v30.21
		c0,1.319-1.069,2.39-2.39,2.39h-33.281C1022.95,308.807,1021.88,307.736,1021.88,306.417z"/>
	<path fill="#FFC433" d="M1030.114,291.492L1030.114,291.492c0-1.707,1.397-3.104,3.104-3.104h15.076
		c1.707,0,3.104,1.397,3.104,3.104l0,0c0,1.707-1.397,3.104-3.104,3.104h-15.076
		C1031.511,294.596,1030.114,293.199,1030.114,291.492z"/>
	<g>
		<circle fill="#3A9CB4" cx="1069.084" cy="266.625" r="2.971"/>
		<circle fill="#3A9CB4" cx="1012.202" cy="266.625" r="2.971"/>
		<circle fill="#3A9CB4" cx="1069.084" cy="316.36" r="2.971"/>
		<circle fill="#3A9CB4" cx="1012.202" cy="316.36" r="2.971"/>
	</g>
	<path fill="#34508B" d="M983.709,280.456c0,3.098,2.52,5.618,5.618,5.618c2.471,0,4.573-1.605,5.323-3.826h6.86v41.249
		c0,2.306,1.876,4.181,4.181,4.181h34.883v6.726c-2.222,0.75-3.826,2.852-3.826,5.323c0,3.098,2.52,5.618,5.618,5.618
		c3.098,0,5.618-2.52,5.618-5.618c0-2.471-1.604-4.574-3.826-5.323v-6.726h9.692v6.726c-2.221,0.75-3.826,2.852-3.826,5.323
		c0,3.098,2.521,5.618,5.618,5.618c3.098,0,5.618-2.52,5.618-5.618c0-2.471-1.604-4.574-3.826-5.323v-6.726h9.916v6.758
		c-2.222,0.75-3.826,2.852-3.826,5.323c0,3.098,2.521,5.618,5.618,5.618c3.098,0,5.618-2.52,5.618-5.618
		c0-2.472-1.604-4.574-3.826-5.323v-6.758h5.197c2.306,0,4.181-1.876,4.181-4.181v-16.219c0-0.99-0.802-1.792-1.792-1.792
		c-0.99,0-1.792,0.802-1.792,1.792v16.218c0,0.329-0.268,0.597-0.597,0.597h-70.438c-0.329,0-0.597-0.268-0.597-0.597V299.1h14.995
		v7.316c0,2.306,1.876,4.181,4.181,4.181h33.281c2.306,0,4.181-1.876,4.181-4.181v-30.21c0-2.306-1.876-4.181-4.181-4.181h-33.28
		c-2.306,0-4.181,1.876-4.181,4.181v3.231h-9.064v-2.421c0-0.99-0.802-1.792-1.792-1.792c-0.99,0-1.792,0.802-1.792,1.792v4.214
		c0,0.99,0.802,1.792,1.792,1.792h10.856v6.678h-14.995v-30.574c0-0.329,0.268-0.597,0.597-0.597h1.024h30.214h11.634
		c0.99,0,1.792-0.802,1.792-1.792c0-0.99-0.802-1.792-1.792-1.792h-2.411v-27.313c2.104-0.916,4.104-0.309,5.491,0.436
		c0.114,0.136,0.25,0.257,0.407,0.357c0.294,0.195,2.711,1.939,1.417,5.71c-0.321,0.936,0.177,1.955,1.114,2.277
		c0.193,0.066,0.389,0.097,0.582,0.097c0.744,0,1.44-0.468,1.695-1.211c0.677-1.973,0.693-3.699,0.354-5.145
		c1.133,0.266,2.063,0.756,2.778,1.469c1.82,1.817,1.802,4.59,1.801,4.618c-0.012,0.843,0.565,1.591,1.387,1.782
		c1.694,0.394,2.837,1.151,3.492,2.315c0.646,1.147,0.736,2.524,0.651,3.655c-0.347,0.938-2.04,4.688-6.631,3.721
		c-0.968-0.204-1.919,0.416-2.123,1.385c-0.204,0.968,0.416,1.919,1.385,2.123c0.789,0.167,1.532,0.242,2.23,0.242
		c2.823,0,4.913-1.239,6.351-2.763c3.049,1.514,3.931,4.408,4.176,6.246h-17.85c-0.99,0-1.792,0.802-1.792,1.792
		c0,0.99,0.802,1.792,1.792,1.792h21.273c0.329,0,0.597,0.268,0.597,0.597v17.155h-10.615c-0.99,0-1.792,0.802-1.792,1.792
		c0,0.99,0.802,1.792,1.792,1.792h10.615v5.325h-10.615c-0.99,0-1.792,0.802-1.792,1.792c0,0.99,0.802,1.792,1.792,1.792h10.615
		v5.325h-10.614c-0.99,0-1.792,0.802-1.792,1.792s0.802,1.792,1.792,1.792h10.614v2.732c0,0.99,0.802,1.792,1.792,1.792
		c0.99,0,1.792-0.802,1.792-1.792v-41.29c0-2.24-1.772-4.069-3.988-4.172c-0.294-2.917-1.7-6.924-5.63-9.167
		c0.062-0.344,0.12-0.734,0.161-1.158c0.011-0.072,0.017-0.144,0.019-0.215c0.142-1.698,0.014-3.874-1.07-5.814
		c-0.966-1.731-2.488-2.97-4.535-3.698c-0.21-1.495-0.839-3.888-2.715-5.784c-1.742-1.759-4.121-2.694-7.077-2.782
		c-2.383-1.999-7.284-4.324-12.078-1.294c-0.52,0.329-0.835,0.9-0.835,1.515v28.384h-3.847v-28.384c0-0.615-0.315-1.186-0.835-1.515
		c-4.794-3.029-9.694-0.705-12.078,1.294c-2.957,0.088-5.334,1.022-7.077,2.782c-1.876,1.895-2.505,4.288-2.715,5.784
		c-2.046,0.728-3.569,1.968-4.535,3.698c-1.083,1.94-1.212,4.116-1.069,5.814c0.002,0.072,0.008,0.144,0.019,0.216
		c0.042,0.423,0.099,0.812,0.162,1.156c-3.956,2.257-5.355,6.304-5.636,9.225c-1.957,0.348-3.449,2.058-3.449,4.113v6.261h-6.858
		c-0.75-2.221-2.852-3.826-5.323-3.826c-3.098,0-5.618,2.52-5.618,5.618c0,3.098,2.52,5.618,5.618,5.618
		c2.472,0,4.573-1.605,5.323-3.826h6.86v9.692h-6.86c-0.75-2.222-2.852-3.826-5.323-3.826
		C986.227,274.838,983.707,277.358,983.709,280.456z M991.359,267.179c0,1.122-0.912,2.034-2.034,2.034s-2.034-0.913-2.034-2.034
		s0.912-2.034,2.034-2.034S991.359,266.058,991.359,267.179z M1067.107,339.76c0-1.122,0.913-2.034,2.034-2.034
		s2.034,0.912,2.034,2.034s-0.912,2.034-2.034,2.034C1068.02,341.794,1067.107,340.881,1067.107,339.76z M1053.608,339.728
		c0-1.12,0.91-2.032,2.03-2.034c0.001,0,0.003,0,0.003,0c0.001,0,0.002,0,0.003,0c1.12,0.001,2.03,0.914,2.03,2.034
		c0,1.121-0.912,2.034-2.034,2.034S1053.608,340.85,1053.608,339.728z M1040.331,339.728c0-1.12,0.91-2.032,2.03-2.034
		c0.001,0,0.003,0,0.003,0s0.002,0,0.003,0c1.12,0.001,2.03,0.914,2.03,2.034c0,1.121-0.912,2.034-2.034,2.034
		S1040.331,340.85,1040.331,339.728z M1035.136,254.944h-26.556c0.244-1.836,1.126-4.734,4.175-6.248
		c1.438,1.524,3.528,2.765,6.352,2.765c0.699,0,1.441-0.076,2.23-0.243c0.969-0.204,1.588-1.154,1.385-2.123
		c-0.204-0.968-1.153-1.587-2.123-1.385c-4.592,0.966-6.285-2.784-6.631-3.721c-0.085-1.131,0.005-2.507,0.651-3.655
		c0.656-1.164,1.798-1.922,3.492-2.315c0.829-0.192,1.408-0.941,1.387-1.792c0-0.017-0.018-2.791,1.801-4.608
		c0.715-0.713,1.645-1.205,2.778-1.471c-0.339,1.446-0.323,3.173,0.353,5.146c0.255,0.744,0.951,1.211,1.695,1.211
		c0.193,0,0.389-0.032,0.582-0.097c0.937-0.321,1.435-1.34,1.114-2.277c-1.346-3.927,1.289-5.63,1.402-5.7
		c0.164-0.102,0.304-0.227,0.422-0.367c1.386-0.744,3.386-1.352,5.491-0.435L1035.136,254.944L1035.136,254.944z M1023.672,306.417
		v-30.21c0-0.329,0.268-0.597,0.597-0.597h33.281c0.329,0,0.597,0.268,0.597,0.597v30.21c0,0.329-0.268,0.597-0.597,0.597h-33.281
		C1023.94,307.014,1023.672,306.746,1023.672,306.417L1023.672,306.417z M1005.093,295.516v-2.232h14.995v2.232H1005.093z
		 M987.291,280.455c0-1.121,0.912-2.034,2.034-2.034c1.121,0,2.034,0.912,2.034,2.034c0,1.122-0.912,2.034-2.034,2.034
		C988.204,282.489,987.291,281.577,987.291,280.455z"/>
	<path fill="#34508B" d="M1028.322,292.102c0,2.699,2.197,4.896,4.896,4.896h15.076c2.699,0,4.896-2.196,4.896-4.896
		c0-2.7-2.196-4.896-4.896-4.896h-15.076C1030.518,287.206,1028.322,289.403,1028.322,292.102z M1031.906,292.102
		c0-0.724,0.589-1.311,1.311-1.311h15.076c0.724,0,1.311,0.589,1.311,1.311c0,0.724-0.589,1.311-1.311,1.311h-15.076
		C1032.494,293.414,1031.906,292.826,1031.906,292.102z"/>
	<path fill="#34508B" d="M1069.085,261.862c-2.627,0-4.764,2.137-4.764,4.763c0,2.627,2.137,4.764,4.764,4.764
		s4.764-2.137,4.764-4.764C1073.848,263.998,1071.711,261.861,1069.085,261.862z M1069.085,265.446c0.65,0,1.179,0.529,1.179,1.179
		s-0.529,1.18-1.179,1.18c-0.65,0-1.179-0.529-1.179-1.18C1067.905,265.975,1068.434,265.446,1069.085,265.446z"/>
	<path fill="#34508B" d="M1012.203,271.389c2.627,0,4.764-2.137,4.764-4.764s-2.137-4.763-4.764-4.763s-4.764,2.137-4.764,4.763
		C1007.439,269.252,1009.576,271.389,1012.203,271.389z M1012.203,267.805c-0.65,0-1.179-0.529-1.179-1.18s0.529-1.179,1.179-1.179
		s1.179,0.529,1.179,1.179C1013.383,267.275,1012.853,267.805,1012.203,267.805z"/>
	<path fill="#34508B" d="M1069.085,321.123c2.627,0,4.764-2.137,4.764-4.764c0-2.627-2.137-4.763-4.764-4.763
		s-4.764,2.137-4.764,4.763S1066.458,321.123,1069.085,321.123z M1069.085,317.538c-0.65,0-1.179-0.529-1.179-1.179
		c0-0.65,0.529-1.179,1.179-1.179c0.65,0,1.179,0.529,1.179,1.179C1070.264,317.009,1069.735,317.538,1069.085,317.538z"/>
	<path fill="#34508B" d="M1012.203,321.123c2.627,0,4.764-2.137,4.764-4.764c0-2.627-2.137-4.763-4.764-4.763
		s-4.764,2.137-4.764,4.763S1009.576,321.123,1012.203,321.123z M1012.203,317.538c-0.65,0-1.179-0.529-1.179-1.179
		c0-0.65,0.529-1.179,1.179-1.179s1.179,0.529,1.179,1.179C1013.382,317.009,1012.853,317.538,1012.203,317.538z"/>
</g>
<path fill="#DCDEE0" d="M687.364,316.751c-5.646,0-10.224-4.578-10.224-10.225V228.14c0-5.647-4.578-10.225-10.224-10.225h-51.122
	c0,0-0.05,63.362-0.03,88.622c0.005,5.643,4.581,10.215,10.224,10.215L687.364,316.751L687.364,316.751z"/>
<g>
	<path fill="#CED7D9" d="M678.511,311.64h-50.816c-3.761,0-6.811-3.045-6.816-6.806c-0.024-18.679,0.01-70.435,0.022-86.918h-5.108
		c0,0-0.05,63.362-0.03,88.622c0.005,5.644,4.581,10.215,10.224,10.215h61.376C683.58,316.751,680.279,314.694,678.511,311.64z"/>
	<path fill="#CED7D9" d="M608.976,217.915c-5.646,0-10.224,4.578-10.224,10.225c0,5.647,4.578,10.224,10.224,10.224h57.938v-20.449
		H608.976z"/>
</g>
<g>
	<path fill="#B6C4C6" d="M599.074,225.584c-0.21,0.817-0.322,1.673-0.322,2.556c0,5.646,4.578,10.224,10.224,10.224h57.938v-5.112
		h-57.938C604.213,233.252,600.209,229.994,599.074,225.584z"/>
	<circle fill="#B6C4C6" cx="666.915" cy="228.14" r="10.224"/>
</g>
<circle fill="#859CA0" cx="672.961" cy="222.094" r="5.112"/>
<circle fill="#B6C4C6" cx="687.364" cy="306.527" r="10.224"/>
<circle fill="#859CA0" cx="687.364" cy="306.527" r="5.112"/>
<circle fill="#94C54B" cx="634.538" cy="260.517" r="11.929"/>
<circle fill="#F57811" cx="658.395" cy="294.599" r="11.929"/>
<path fill="#34508B" d="M614.163,278.068c0,0.882,0.715,1.598,1.598,1.598l0,0c0.883,0,1.598-0.715,1.598-1.598
	c0.003-12.932,0.011-26.892,0.017-38.107h49.54c3.401,0,6.468-1.445,8.627-3.751v7.266c0,0.882,0.715,1.598,1.598,1.598
	s1.598-0.715,1.598-1.598v-15.337c0-6.519-5.303-11.822-11.822-11.822h-57.938c-6.518,0-11.822,5.303-11.822,11.822
	s5.303,11.822,11.822,11.822h5.204C614.173,251.176,614.166,265.136,614.163,278.068z M675.542,228.14
	c0,4.757-3.87,8.627-8.627,8.627c-4.757,0-8.627-3.87-8.627-8.627c0-4.757,3.87-8.627,8.627-8.627
	C671.672,219.513,675.542,223.383,675.542,228.14z M600.35,228.14c0-4.757,3.87-8.627,8.627-8.627h49.868
	c-2.306,2.158-3.751,5.226-3.751,8.627s1.445,6.468,3.751,8.627h-49.868C604.219,236.767,600.35,232.896,600.35,228.14z"/>
<path fill="#34508B" d="M666.252,222.094c0,3.7,3.01,6.71,6.71,6.71c3.7,0,6.71-3.01,6.71-6.71c0-3.7-3.01-6.71-6.71-6.71
	C669.262,215.384,666.252,218.394,666.252,222.094z M676.476,222.094c0,1.938-1.577,3.515-3.515,3.515
	c-1.938,0-3.515-1.577-3.515-3.515c0-1.938,1.577-3.515,3.515-3.515C674.899,218.579,676.476,220.156,676.476,222.094z"/>
<path fill="#34508B" d="M687.364,294.705c-3.401,0-6.468,1.445-8.627,3.751v-48.163c0-0.882-0.715-1.598-1.598-1.598
	c-0.882,0-1.598,0.715-1.598,1.598v56.235c0,2.525,0.828,5.022,2.338,7.046c0.422,0.566,0.893,1.098,1.409,1.581h-53.301
	c-4.753,0-8.623-3.866-8.627-8.618c-0.005-5.913-0.006-13.914-0.005-22.701c0-0.882-0.715-1.598-1.598-1.598l0,0
	c-0.882,0-1.598,0.715-1.598,1.598c-0.001,8.788-0.001,16.79,0.005,22.704c0.005,6.512,5.309,11.811,11.822,11.811h61.376
	c6.518,0,11.822-5.303,11.822-11.822C699.186,300.009,693.883,294.705,687.364,294.705z M687.364,315.154
	c-4.757,0-8.627-3.87-8.627-8.627c0-4.757,3.87-8.627,8.627-8.627c4.757,0,8.627,3.87,8.627,8.627S692.121,315.154,687.364,315.154z
	"/>
<path fill="#34508B" d="M687.364,299.817c-3.7,0-6.71,3.01-6.71,6.71c0,3.7,3.01,6.71,6.71,6.71c3.7,0,6.71-3.01,6.71-6.71
	C694.073,302.828,691.064,299.817,687.364,299.817z M687.364,310.042c-1.938,0-3.515-1.577-3.515-3.515
	c0-1.938,1.577-3.515,3.515-3.515c1.938,0,3.515,1.577,3.515,3.515C690.878,308.465,689.302,310.042,687.364,310.042z"/>
<path fill="#34508B" d="M648.064,260.517c0-7.458-6.068-13.526-13.526-13.526c-7.458,0-13.526,6.068-13.526,13.526
	c0,7.458,6.068,13.526,13.526,13.526C641.996,274.044,648.064,267.975,648.064,260.517z M634.538,270.848
	c-5.696,0-10.331-4.634-10.331-10.331c0-5.696,4.634-10.331,10.331-10.331c5.696,0,10.331,4.634,10.331,10.331
	C644.869,266.214,640.234,270.848,634.538,270.848z"/>
<path fill="#34508B" d="M638.52,255.979l-5.686,5.687l-2.278-2.279c-0.624-0.624-1.635-0.624-2.259,0
	c-0.624,0.624-0.624,1.635,0,2.259l3.408,3.408c0.615,0.615,1.644,0.615,2.259,0l6.816-6.816c0.624-0.624,0.624-1.635,0-2.259
	C640.155,255.355,639.144,255.355,638.52,255.979z"/>
<path fill="#34508B" d="M658.395,308.125c7.458,0,13.526-6.068,13.526-13.526s-6.068-13.526-13.526-13.526
	c-7.458,0-13.526,6.068-13.526,13.526S650.936,308.125,658.395,308.125z M658.395,284.268c5.696,0,10.331,4.634,10.331,10.331
	c0,5.696-4.634,10.331-10.331,10.331c-5.696,0-10.331-4.635-10.331-10.331C648.064,288.902,652.698,284.268,658.395,284.268z"/>
<path fill="#34508B" d="M652.152,300.84c0.615,0.615,1.644,0.615,2.259,0l3.982-3.982l3.982,3.982
	c0.65,0.65,1.747,0.606,2.345-0.091c0.535-0.625,0.497-1.586-0.085-2.168l-3.982-3.982l3.982-3.982c0.624-0.624,0.624-1.636,0-2.259
	c-0.624-0.624-1.635-0.624-2.259,0l-3.982,3.982l-3.982-3.982c-0.624-0.624-1.635-0.624-2.259,0c-0.624,0.624-0.624,1.636,0,2.259
	l3.982,3.982l-3.982,3.982C651.529,299.205,651.529,300.217,652.152,300.84z"/>
<path fill="#34508B" d="M653.282,255.298h13.632c0.883,0,1.598-0.715,1.598-1.598c0-0.883-0.715-1.598-1.598-1.598h-13.632
	c-0.882,0-1.598,0.715-1.598,1.598C651.685,254.583,652.4,255.298,653.282,255.298z"/>
<path fill="#34508B" d="M653.282,262.114h13.632c0.883,0,1.598-0.715,1.598-1.598s-0.715-1.598-1.598-1.598h-13.632
	c-0.882,0-1.598,0.715-1.598,1.598C651.685,261.4,652.4,262.114,653.282,262.114z"/>
<path fill="#34508B" d="M653.282,268.931h13.632c0.883,0,1.598-0.715,1.598-1.598s-0.715-1.598-1.598-1.598h-13.632
	c-0.882,0-1.598,0.715-1.598,1.598S652.4,268.931,653.282,268.931z"/>
<path fill="#34508B" d="M639.65,287.889h-13.633c-0.882,0-1.598,0.715-1.598,1.598s0.715,1.598,1.598,1.598h13.632
	c0.883,0,1.598-0.715,1.598-1.598C641.248,288.604,640.532,287.889,639.65,287.889z"/>
<path fill="#34508B" d="M639.65,294.705h-13.633c-0.882,0-1.598,0.715-1.598,1.598s0.715,1.598,1.598,1.598h13.632
	c0.883,0,1.598-0.715,1.598-1.598C641.248,295.42,640.532,294.705,639.65,294.705z"/>
<path fill="#34508B" d="M639.65,301.522h-13.633c-0.882,0-1.598,0.715-1.598,1.598s0.715,1.598,1.598,1.598h13.632
	c0.883,0,1.598-0.715,1.598-1.598C641.248,302.237,640.532,301.522,639.65,301.522z"/>
<g transform="translate(1 1)">
	<g>
		<path fill="#DCDEE0" d="M1059.147,389.044v75.581c0,1.54,1.12,2.799,2.38,2.799h48.288c1.399,0,2.38-1.26,2.38-2.799v-75.581
			c0-1.54-1.12-2.799-2.38-2.799h-48.288C1060.267,386.245,1059.147,387.504,1059.147,389.044"/>
	</g>
	<path fill="#FFFFFF" d="M1059.147,464.625v-75.581c0-1.54,1.12-2.799,2.38-2.799h-3.779c-1.54,0-2.799,1.26-2.799,2.799v75.581
		c0,1.54,1.26,2.799,2.799,2.799h3.779C1060.267,467.425,1059.147,466.165,1059.147,464.625"/>
	<path fill="#3BDDBA" d="M1113.733,386.245h-3.779c1.399,0,2.38,1.26,2.38,2.799v75.581c0,1.54-1.12,2.799-2.38,2.799h3.779
		c1.54,0,2.799-1.26,2.799-2.799v-75.581C1116.532,387.504,1115.273,386.245,1113.733,386.245"/>
	<g>
		<path fill="#54C9FD" d="M1108.135,414.238v-6.718c0-3.919-3.079-6.998-6.998-6.998c-3.919,0-6.998,3.079-6.998,6.998v6.718
			H1108.135L1108.135,414.238z"/>
		<path fill="#54C9FD" d="M1101.137,400.521c-2.38,0-4.199-1.819-4.199-4.199s1.819-4.199,4.199-4.199s4.199,1.819,4.199,4.199
			S1103.516,400.521,1101.137,400.521"/>
	</g>
	<path fill="#34508B" d="M1101.137,401.921c-3.079,0-5.599-2.519-5.599-5.599c0-3.079,2.519-5.599,5.599-5.599
		c3.079,0,5.599,2.519,5.599,5.599C1106.735,399.402,1104.215,401.921,1101.137,401.921z M1101.137,393.523
		c-1.54,0-2.799,1.26-2.799,2.799s1.26,2.799,2.799,2.799c1.54,0,2.799-1.26,2.799-2.799S1102.676,393.523,1101.137,393.523z"/>
	<path fill="#34508B" d="M1108.135,415.637h-13.996c-0.84,0-1.399-0.56-1.399-1.399v-6.718c0-4.619,3.779-8.398,8.398-8.398
		c4.619,0,8.398,3.779,8.398,8.398v6.718C1109.534,415.078,1108.974,415.637,1108.135,415.637z M1095.538,412.838h11.197v-5.319
		c0-3.079-2.519-5.598-5.599-5.598c-3.079,0-5.599,2.519-5.599,5.598L1095.538,412.838L1095.538,412.838z"/>
	<path fill="#34508B" d="M1113.733,468.824h-55.986c-2.38,0-4.199-1.819-4.199-4.199v-75.581c0-2.38,1.819-4.199,4.199-4.199h55.986
		c2.38,0,4.199,1.819,4.199,4.199v5.599c0,0.84-0.56,1.399-1.399,1.399s-1.399-0.56-1.399-1.399v-5.599
		c0-0.84-0.56-1.399-1.399-1.399h-55.986c-0.84,0-1.399,0.56-1.399,1.399v75.581c0,0.84,0.56,1.399,1.399,1.399h55.986
		c0.84,0,1.399-0.56,1.399-1.399V405.84c0-0.84,0.56-1.399,1.399-1.399s1.399,0.56,1.399,1.399v58.785
		C1117.932,467.005,1116.112,468.824,1113.733,468.824z"/>
	<path fill="#34508B" d="M1117.932,400.242c0-0.84-0.56-1.399-1.399-1.399c-0.84,0-1.399,0.56-1.399,1.399s0.56,1.399,1.399,1.399
		C1117.372,401.641,1117.932,401.082,1117.932,400.242"/>
	<path fill="#34508B" d="M1073.143,398.842h-9.797c-0.84,0-1.399-0.56-1.399-1.399c0-0.84,0.56-1.399,1.399-1.399h9.797
		c0.84,0,1.399,0.56,1.399,1.399C1074.543,398.282,1073.983,398.842,1073.143,398.842z"/>
	<path fill="#34508B" d="M1073.143,410.039h-9.797c-0.84,0-1.399-0.56-1.399-1.399s0.56-1.399,1.399-1.399h9.797
		c0.84,0,1.399,0.56,1.399,1.399C1074.543,409.479,1073.983,410.039,1073.143,410.039z"/>
	<path fill="#34508B" d="M1080.141,398.842h-1.399c-0.84,0-1.399-0.56-1.399-1.399c0-0.84,0.56-1.399,1.399-1.399h1.399
		c0.84,0,1.399,0.56,1.399,1.399C1081.541,398.282,1080.981,398.842,1080.141,398.842z"/>
	<path fill="#34508B" d="M1085.74,404.441h-6.998c-0.84,0-1.399-0.56-1.399-1.399s0.56-1.399,1.399-1.399h6.998
		c0.84,0,1.399,0.56,1.399,1.399S1086.58,404.441,1085.74,404.441z"/>
	<path fill="#34508B" d="M1080.141,410.039h-1.399c-0.84,0-1.399-0.56-1.399-1.399s0.56-1.399,1.399-1.399h1.399
		c0.84,0,1.399,0.56,1.399,1.399C1081.541,409.479,1080.981,410.039,1080.141,410.039z"/>
	<path fill="#34508B" d="M1085.74,415.637h-6.998c-0.84,0-1.399-0.56-1.399-1.399s0.56-1.399,1.399-1.399h6.998
		c0.84,0,1.399,0.56,1.399,1.399C1087.14,415.078,1086.58,415.637,1085.74,415.637z"/>
</g>
<g>
	<path opacity="0.35" fill="#939598" enable-background="new    " d="M1479.346,309.862h-47.098
		c-5.865,0-10.637,4.772-10.637,10.636v72.881c0,5.867,4.772,10.637,10.637,10.637h47.098c5.865,0,10.636-4.77,10.636-10.637
		v-72.881C1489.982,314.634,1485.211,309.862,1479.346,309.862z"/>
	<g>
		<g>
			<path fill="#FFFFFF" stroke="#444444" stroke-width="3" stroke-linecap="round" stroke-linejoin="round" d="M1474.678,309.862
				c5.865,0,10.636,4.772,10.636,10.636v72.881c0,5.867-4.771,10.637-10.636,10.637h-47.098c-5.865,0-10.637-4.77-10.637-10.637
				v-72.881c0-5.864,4.772-10.636,10.637-10.636H1474.678z"/>
			<rect x="1422.721" y="319.191" fill="#7EB3E4" width="56.604" height="69.733"/>
			<path fill="#FFFFFF" stroke="#444444" stroke-width="3" stroke-linecap="round" stroke-linejoin="round" d="M1451.023,392.829
				c-1.723,0-3.125,1.394-3.125,3.124c0,1.727,1.402,3.128,3.125,3.128c1.731,0,3.127-1.401,3.127-3.128
				C1454.15,394.223,1452.752,392.829,1451.023,392.829z"/>
		</g>
		<g>
			<path fill="#A9CD68" stroke="#444444" stroke-width="3" stroke-miterlimit="10" d="M1431.882,348.713
				c0,10.234,8.293,18.529,18.526,18.529c10.232,0,18.527-8.295,18.527-18.529c0-10.231-8.295-18.526-18.527-18.526
				C1440.174,330.187,1431.882,338.482,1431.882,348.713z"/>
			<path fill="#FFFFFF" stroke="#444444" stroke-width="3" stroke-miterlimit="10" d="M1450.413,348.713v-20.335
				c11.286,0,20.45,9.081,20.587,20.335H1450.413z"/>
			<path fill="#36B8D1" stroke="#444444" stroke-width="3" stroke-miterlimit="10" d="M1468.938,348.599c0,0.041,0,0.079,0,0.114
				c0,10.234-8.295,18.529-18.526,18.529c-10.234,0-18.53-8.295-18.53-18.529c0-0.036,0.007-0.073,0.007-0.114H1468.938z"/>
			<path fill="#FAD978" stroke="#444444" stroke-width="3" stroke-miterlimit="10" d="M1450.413,348.621l15.595-15.599
				c8.655,8.658,8.715,22.648,0.192,31.385L1450.413,348.621z"/>
			<path fill="#FFFFFF" stroke="#444444" stroke-width="3" stroke-miterlimit="10" d="M1450.402,348.732l-9.263,18.108
				c-10.047-5.142-14.068-17.401-9.063-27.483L1450.402,348.732z"/>
			<path fill="#F0777E" stroke="#444444" stroke-width="3" stroke-miterlimit="10" d="M1450.43,348.599l6.611,20.471
				c-11.358,3.668-23.535-2.492-27.33-13.777L1450.43,348.599z"/>
			<path fill="#65CBE9" stroke="#444444" stroke-width="3" stroke-miterlimit="10" d="M1443.129,348.599
				c0,4.024,3.262,7.284,7.284,7.284c4.022,0,7.28-3.26,7.28-7.284c0-4.018-3.257-7.283-7.28-7.283
				C1446.392,341.316,1443.129,344.581,1443.129,348.599z"/>
		</g>
		<rect x="1429.627" y="377.359" fill="#FFFFFF" width="37.562" height="2.328"/>
		<rect x="1429.627" y="381.52" fill="#FFFFFF" width="31.666" height="2.328"/>
	</g>
	<path opacity="0.35" fill="#939598" enable-background="new    " d="M1413.574,286.251c-7.232,0-6.123,5.381-6.123,12.612v92.037
		c0,7.235,5.884,13.117,13.116,13.117h10.143c6.997-1.962,11.818-6.588,11.818-14.903v-2.493h-13.822l0.001-90.815
		c0-5.276-4.278-9.554-9.554-9.554L1413.574,286.251L1413.574,286.251z"/>
	<g>
		<g>
			<g>
				<g>
					<g>
						<g>
							
								<path fill="#EFEFEF" stroke="#34508B" stroke-width="3" stroke-linecap="round" stroke-linejoin="round" stroke-miterlimit="10" d="
								M1257.632,294.128c0-4.353,3.526-7.878,7.876-7.878h149.133c4.349,0,7.877,3.525,7.877,7.878l-0.002,93.38H1257.63
								L1257.632,294.128z"/>
							<g>
								
									<path fill="#EFEFEF" stroke="#34508B" stroke-width="3" stroke-linecap="round" stroke-linejoin="round" stroke-miterlimit="10" d="
									M1246.349,387.508v3.411c0,9.494,7.696,13.097,17.19,13.097h153.069c9.494,0,17.19-3.604,17.19-13.097v-3.411H1246.349z"/>
							</g>
							
								<rect x="1268.987" y="298.904" fill="#7EB3E4" stroke="#34508B" stroke-width="3" stroke-linecap="round" stroke-linejoin="round" stroke-miterlimit="10" width="144.118" height="83.027"/>
						</g>
					</g>
				</g>
			</g>
		</g>
		<g>
			<rect x="1296.645" y="314.838" fill="#FFFFFF" width="18.162" height="1.743"/>
			<rect x="1296.645" y="318.516" fill="#FFFFFF" width="28.125" height="1.743"/>
			<rect x="1296.645" y="322.193" fill="#FFFFFF" width="23.711" height="1.743"/>
			<g>
				<g>
					
						<rect x="1297.245" y="356.676" fill="#F0777E" stroke="#444444" stroke-width="3" stroke-miterlimit="10" width="11.302" height="13.503"/>
					
						<rect x="1314.107" y="348.851" fill="#FAD978" stroke="#444444" stroke-width="3" stroke-miterlimit="10" width="11.302" height="21.328"/>
					
						<rect x="1330.97" y="341.587" fill="#A9CD68" stroke="#444444" stroke-width="3" stroke-miterlimit="10" width="11.303" height="28.591"/>
					
						<rect x="1347.833" y="344.923" fill="#F0777E" stroke="#444444" stroke-width="3" stroke-miterlimit="10" width="11.302" height="25.255"/>
					
						<rect x="1364.696" y="329.19" fill="#FAD978" stroke="#444444" stroke-width="3" stroke-miterlimit="10" width="11.302" height="40.989"/>
					
						<rect x="1381.558" y="311.678" fill="#A9CD68" stroke="#444444" stroke-width="3" stroke-miterlimit="10" width="11.302" height="58.5"/>
					<g>
						<rect x="1284.919" y="315.337" fill="#FFFFFF" width="4.049" height="1.804"/>
						<rect x="1284.919" y="324.392" fill="#FFFFFF" width="4.049" height="1.804"/>
						<rect x="1284.919" y="333.45" fill="#FFFFFF" width="4.049" height="1.804"/>
						<rect x="1284.919" y="342.506" fill="#FFFFFF" width="4.049" height="1.804"/>
						<rect x="1284.919" y="351.563" fill="#FFFFFF" width="4.049" height="1.803"/>
						<rect x="1284.919" y="360.619" fill="#FFFFFF" width="4.049" height="1.803"/>
						<rect x="1284.919" y="369.675" fill="#FFFFFF" width="4.049" height="1.804"/>
					</g>
				</g>
				<path fill="none" stroke="#EFEFEF" stroke-width="3" stroke-miterlimit="10" d="M1301.445,343.163l11.618-9.641l5.206,6.241
					l17.395-14.602c0,0,7.569,9.248,8.227,10.052l21.064-17.527"/>
				<polyline fill="none" stroke="#444444" stroke-width="3" stroke-miterlimit="10" points="1291.611,315.341 1291.611,370.65 
					1396.138,370.65 				"/>
			</g>
		</g>
	</g>
	<g>
		
			<rect x="1497.131" y="377.522" transform="matrix(-0.3195 0.9476 -0.9476 -0.3195 2346.8875 -915.3204)" fill="#FFFFFF" stroke="#444444" stroke-width="3" stroke-miterlimit="10" width="9.957" height="15.037"/>
		<circle fill="#FFFFFF" stroke="#444444" stroke-width="3" stroke-miterlimit="10" cx="1470.693" cy="374.453" r="28.65"/>
		<circle fill="#7EB3E4" stroke="#444444" stroke-miterlimit="10" cx="1470.692" cy="374.453" r="22.279"/>
		<path fill="#F0777E" stroke="#444444" stroke-width="3" stroke-miterlimit="10" d="M1533.084,386.941
			c4.226,1.426,6.498,6.008,5.071,10.234c-1.426,4.226-6.008,6.498-10.233,5.073l-20.39-6.847c-1.276-0.429-1.961-1.812-1.531-3.09
			l3.604-10.685c0.431-1.275,1.814-1.96,3.089-1.53L1533.084,386.941z"/>
	</g>
	<g>
		<g>
			<path id="SVGID_1_" fill="#3DD0EC" d="M1474.694,352.308c12.232,2.211,20.354,13.917,18.143,26.147
				c-2.21,12.228-13.917,20.353-26.147,18.143c-12.231-2.21-20.354-13.917-18.143-26.147
				C1450.759,358.222,1462.465,350.099,1474.694,352.308z"/>
		</g>
		<g>
			<defs>
				<circle id="SVGID_3_" cx="1470.692" cy="374.453" r="22.504"/>
			</defs>
			<clipPath id="SVGID_4_">
				<use xlink:href="#SVGID_3_"  overflow="visible"/>
			</clipPath>
			<g clip-path="url(#SVGID_4_)">
				<path fill="#36B8D1" stroke="#444444" stroke-width="6" stroke-miterlimit="10" d="M1450.302,355.817l-3.38-32.125
					c17.83-1.876,33.817,10.946,35.903,28.703L1450.302,355.817z"/>
				<path fill="#A9CD68" stroke="#444444" stroke-width="3" stroke-miterlimit="10" d="M1479.549,352.556
					c0.007,0.065,0.013,0.124,0.019,0.181c1.701,16.168-10.024,30.65-26.186,32.35c-16.168,1.701-30.652-10.023-32.354-26.191
					c-0.006-0.056-0.002-0.117-0.009-0.181L1479.549,352.556z"/>
				<path fill="#FAD978" stroke="#444444" stroke-width="3" stroke-miterlimit="10" d="M1450.287,355.671l22.044-27.236
					c15.113,12.238,17.533,34.332,5.519,49.548L1450.287,355.671z"/>
				<path fill="#F0777E" stroke="#444444" stroke-width="6" stroke-miterlimit="10" d="M1450.29,355.849l-11.623,30.147
					c-16.727-6.454-25.117-25.152-18.887-41.911L1450.29,355.849z"/>
				<path fill="#F0777E" stroke="#444444" stroke-width="3" stroke-miterlimit="10" d="M1450.311,355.633l13.848,31.24
					c-17.334,7.683-37.595-0.024-45.465-17.22L1450.311,355.633z"/>
				<path fill="#65CBE9" stroke="#444444" stroke-width="3" stroke-miterlimit="10" d="M1438.776,356.847
					c0.669,6.357,6.365,10.964,12.718,10.296c6.355-0.668,10.958-6.361,10.289-12.717c-0.668-6.348-6.355-10.964-12.71-10.295
					C1442.72,344.799,1438.109,350.499,1438.776,356.847z"/>
			</g>
		</g>
		<g>
			<path id="SVGID_2_" fill="none" stroke="#444444" stroke-width="3" stroke-miterlimit="10" d="M1474.694,352.308
				c12.232,2.211,20.354,13.917,18.143,26.147c-2.21,12.228-13.917,20.353-26.147,18.143c-12.231-2.21-20.354-13.917-18.143-26.147
				C1450.759,358.222,1462.465,350.099,1474.694,352.308z"/>
		</g>
	</g>
	
		<line fill="none" stroke="#444444" stroke-width="3" stroke-miterlimit="10" x1="1539.925" y1="321.371" x2="1517.503" y2="321.371"/>
	<g>
		
			<line fill="none" stroke="#444444" stroke-width="3" stroke-miterlimit="10" x1="1406.797" y1="250.522" x2="1399.384" y2="243.108"/>
		
			<line fill="none" stroke="#444444" stroke-width="3" stroke-miterlimit="10" x1="1399.384" y1="250.522" x2="1406.797" y2="243.108"/>
	</g>
	
		<line fill="none" stroke="#444444" stroke-width="3" stroke-miterlimit="10" x1="1468.24" y1="223.842" x2="1518.935" y2="223.842"/>
	
		<line fill="none" stroke="#444444" stroke-width="3" stroke-miterlimit="10" x1="1503.106" y1="231.854" x2="1525.529" y2="231.854"/>
	
		<line fill="none" stroke="#444444" stroke-width="3" stroke-miterlimit="10" x1="1469.181" y1="215.833" x2="1491.603" y2="215.833"/>
	
		<line fill="none" stroke="#444444" stroke-width="3" stroke-miterlimit="10" x1="1374.353" y1="214.435" x2="1396.775" y2="214.435"/>
	
		<line fill="none" stroke="#444444" stroke-width="3" stroke-miterlimit="10" x1="1255.976" y1="229.076" x2="1280.412" y2="229.076"/>
	<path fill="none" stroke="#444444" stroke-width="3" stroke-linecap="round" stroke-linejoin="round" stroke-miterlimit="10" d="
		M1549.897,321.49c0,1.771-1.442,3.21-3.215,3.21c-1.772,0-3.21-1.439-3.21-3.21c0-1.776,1.438-3.216,3.21-3.216
		C1548.455,318.274,1549.897,319.714,1549.897,321.49z"/>
	<g>
		<g>
			
				<line fill="none" stroke="#444444" stroke-width="3" stroke-miterlimit="10" x1="1458.433" y1="246.834" x2="1457.871" y2="246.834"/>
			
				<line fill="none" stroke="#444444" stroke-width="3" stroke-miterlimit="10" stroke-dasharray="1.9612,1.9612" x1="1456.769" y1="246.834" x2="1411.047" y2="246.834"/>
			
				<line fill="none" stroke="#444444" stroke-width="3" stroke-miterlimit="10" x1="1410.497" y1="246.834" x2="1409.935" y2="246.834"/>
		</g>
	</g>
	
		<line fill="none" stroke="#444444" stroke-width="3" stroke-miterlimit="10" x1="1430.544" y1="270.21" x2="1405.979" y2="270.21"/>
	
		<rect x="1462.378" y="287.775" fill="none" stroke="#444444" stroke-width="3" stroke-miterlimit="10" width="4.71" height="7.104"/>
	
		<rect x="1470.683" y="279.051" fill="none" stroke="#444444" stroke-width="3" stroke-miterlimit="10" width="4.711" height="15.828"/>
	
		<rect x="1478.99" y="281.799" fill="none" stroke="#444444" stroke-width="3" stroke-miterlimit="10" width="4.711" height="13.08"/>
	
		<rect x="1487.297" y="274.516" fill="none" stroke="#444444" stroke-width="3" stroke-miterlimit="10" width="4.709" height="20.363"/>
	<polyline fill="none" stroke="#444444" stroke-width="3" stroke-miterlimit="10" points="1494.789,294.879 1458.782,294.879 
		1458.782,272.259 	"/>
	<g>
		<polyline fill="none" stroke="#444444" stroke-width="3" stroke-miterlimit="10" points="1433.79,206.65 1400.969,206.65 
			1400.969,194.259 		"/>
		<g>
			<g>
				<path fill="none" stroke="#444444" stroke-width="3" stroke-miterlimit="10" d="M1421.616,203.61
					c-5.542-0.377-5.742-9.065-5.937-17.467c-0.12-5.271-0.271-11.813-2.265-11.988c-1.993,0.175-2.144,6.717-2.265,11.988
					c-0.195,8.402-0.394,17.09-5.937,17.467"/>
			</g>
			<g>
				<path fill="none" stroke="#444444" stroke-width="3" stroke-miterlimit="10" d="M1432.12,203.611
					c-5.559,0-6.629-5.73-7.413-9.914c-0.584-3.127-1.058-5.191-2.235-5.249c-1.178,0.058-1.653,2.122-2.237,5.249
					c-0.781,4.184-1.853,9.914-7.412,9.914"/>
			</g>
		</g>
	</g>
	<g>
		<g>
			<g>
				<path fill="#444444" stroke="#34508B" stroke-miterlimit="10" d="M1363.852,249.433c0.008,0,0.016,0,0.025,0.001l2.184,0.703
					c0.054,0.018,0.082,0.057,0.093,0.079c0.011,0.021,0.028,0.067,0.009,0.121l-0.522,1.624l0.304,0.163
					c0.726,0.388,1.393,0.868,1.98,1.424l0.25,0.238l1.372-1.004c0.036-0.026,0.07-0.046,0.105-0.046
					c0.037,0,0.075,0.021,0.118,0.08l1.354,1.851c0.051,0.071,0.037,0.172-0.034,0.223l-1.372,1.004l0.152,0.312
					c0.361,0.742,0.622,1.522,0.773,2.32l0.065,0.338l1.684-0.005c0.087,0,0.158,0.072,0.159,0.159l0.006,2.294
					c0.001,0.057-0.028,0.095-0.046,0.112c-0.017,0.018-0.054,0.047-0.112,0.047l-1.676,0.005l-0.06,0.341
					c-0.074,0.421-0.175,0.832-0.3,1.22c-0.113,0.353-0.261,0.719-0.45,1.121l-0.146,0.31l1.354,0.978
					c0.046,0.034,0.06,0.079,0.064,0.103c0.004,0.024,0.005,0.072-0.028,0.118l-1.344,1.861c-0.043,0.058-0.104,0.065-0.129,0.065
					c-0.024,0-0.058-0.005-0.093-0.03l-1.343-0.969l-0.249,0.241c-0.593,0.573-1.262,1.063-1.99,1.46l-0.304,0.165l0.514,1.569
					c0.028,0.083-0.018,0.173-0.101,0.201l-2.23,0.723c-0.058,0-0.127-0.034-0.152-0.109l-0.515-1.57l-0.342,0.046
					c-0.449,0.061-0.848,0.092-1.25,0.092c-0.388,0-0.778-0.029-1.219-0.087l-0.343-0.046l-0.506,1.575
					c-0.026,0.077-0.095,0.111-0.153,0.111l-2.232-0.71c-0.085-0.027-0.13-0.117-0.104-0.2l0.507-1.575l-0.304-0.163
					c-0.732-0.394-1.405-0.88-1.997-1.446l-0.251-0.24l-1.341,0.98c-0.035,0.026-0.069,0.046-0.105,0.046
					c-0.037,0-0.076-0.021-0.118-0.08l-1.354-1.852c-0.033-0.046-0.033-0.094-0.028-0.12c0.003-0.024,0.017-0.069,0.063-0.103
					l1.35-0.987l-0.149-0.311c-0.359-0.745-0.616-1.531-0.764-2.335l-0.062-0.341l-1.677,0.005c-0.087,0-0.159-0.072-0.16-0.159
					l-0.005-2.295c-0.001-0.057,0.028-0.095,0.046-0.112c0.017-0.018,0.055-0.047,0.112-0.047l1.684-0.005l0.062-0.338
					c0.076-0.413,0.171-0.795,0.29-1.167c0.12-0.371,0.273-0.75,0.469-1.16l0.149-0.312l-1.375-0.993
					c-0.071-0.052-0.087-0.152-0.036-0.223l1.343-1.86c0.043-0.059,0.081-0.081,0.118-0.081c0.036,0,0.069,0.02,0.104,0.045
					l1.375,0.994l0.249-0.239c0.589-0.564,1.253-1.048,1.973-1.438l0.304-0.165l-0.529-1.616c-0.027-0.084,0.018-0.173,0.101-0.202
					l2.231-0.723c0.057,0,0.126,0.034,0.151,0.109l0.532,1.624l0.341-0.046c0.447-0.06,0.844-0.091,1.241-0.091
					c0.382,0,0.764,0.028,1.194,0.085l0.343,0.046l0.524-1.629C1363.698,249.466,1363.759,249.433,1363.852,249.433
					 M1361.606,265.374c2.798,0,5.075-2.276,5.075-5.074s-2.277-5.075-5.075-5.075c-2.798,0-5.075,2.277-5.075,5.075
					C1356.532,263.098,1358.808,265.374,1361.606,265.374 M1363.852,247.747L1363.852,247.747L1363.852,247.747
					c-0.83,0-1.528,0.498-1.779,1.268l-0.109,0.34c-0.117-0.004-0.232-0.006-0.349-0.006c-0.134,0-0.267,0.003-0.403,0.009
					l-0.109-0.335c-0.252-0.762-0.955-1.27-1.753-1.27h-0.266l-0.253,0.082l-2.231,0.723c-0.968,0.324-1.494,1.362-1.186,2.32
					l0.112,0.34c-0.209,0.141-0.413,0.29-0.611,0.445l-0.28-0.203c-0.337-0.243-0.703-0.364-1.091-0.364
					c-0.584,0-1.125,0.283-1.483,0.777l-1.345,1.863c-0.283,0.386-0.404,0.889-0.326,1.372c0.078,0.484,0.339,0.91,0.734,1.199
					l0.28,0.202c-0.047,0.128-0.091,0.255-0.132,0.383c-0.036,0.114-0.071,0.228-0.104,0.343l-0.335,0.001
					c-0.49,0-0.972,0.204-1.317,0.559c-0.332,0.332-0.528,0.816-0.521,1.31l0.005,2.275c0.009,1.02,0.837,1.84,1.845,1.84
					l0.328-0.001c0.071,0.247,0.151,0.492,0.24,0.734l-0.261,0.19c-0.387,0.281-0.655,0.716-0.732,1.194
					c-0.078,0.478,0.039,0.976,0.322,1.371l1.364,1.866c0.353,0.488,0.894,0.771,1.479,0.771c0.396,0,0.767-0.126,1.103-0.373
					l0.242-0.177c0.206,0.161,0.417,0.313,0.634,0.459l-0.093,0.289c-0.151,0.469-0.11,0.97,0.116,1.409
					c0.226,0.439,0.61,0.764,1.081,0.914l2.232,0.71l0.249,0.079h0.262c0.799,0,1.503-0.51,1.753-1.268l0.094-0.292
					c0.126,0.005,0.25,0.007,0.374,0.007c0.137,0,0.274-0.003,0.414-0.009l0.091,0.28c0.25,0.76,0.954,1.27,1.753,1.27h0.267
					l0.253-0.082l2.23-0.723c0.476-0.157,0.856-0.485,1.078-0.926c0.222-0.441,0.258-0.942,0.103-1.409l-0.091-0.278
					c0.217-0.147,0.428-0.302,0.633-0.464l0.244,0.176c0.323,0.23,0.693,0.349,1.08,0.349c0.583,0,1.138-0.28,1.485-0.75
					l1.354-1.875c0.287-0.396,0.405-0.902,0.324-1.385c-0.075-0.47-0.336-0.896-0.734-1.186l-0.263-0.189
					c0.042-0.116,0.081-0.23,0.118-0.343c0.042-0.13,0.081-0.261,0.118-0.395l0.318-0.001c0.485,0,0.957-0.197,1.3-0.541
					c0.348-0.347,0.544-0.825,0.539-1.319l-0.005-2.282c-0.003-1.015-0.83-1.84-1.844-1.84l-0.344,0.001
					c-0.071-0.243-0.152-0.483-0.24-0.722l0.277-0.202c0.814-0.589,1.001-1.743,0.408-2.568l-1.361-1.862
					c-0.361-0.491-0.899-0.771-1.479-0.771c-0.388,0-0.754,0.122-1.088,0.361l-0.294,0.215c-0.199-0.154-0.402-0.3-0.612-0.44
					l0.107-0.335c0.155-0.462,0.109-0.992-0.13-1.436c-0.218-0.414-0.594-0.732-1.055-0.883l-2.19-0.705l-0.203-0.065l-0.213-0.013
					l-0.05-0.003L1363.852,247.747L1363.852,247.747L1363.852,247.747z M1361.606,263.688c-1.869,0-3.389-1.52-3.389-3.389
					s1.52-3.389,3.389-3.389c1.869,0,3.389,1.52,3.389,3.389S1363.475,263.688,1361.606,263.688L1361.606,263.688z"/>
			</g>
		</g>
		<g>
			<g>
				<path fill="none" stroke="#34508B" stroke-width="3" stroke-miterlimit="10" d="M1353.273,241.827
					c-0.142-0.103-0.195-0.286-0.158-0.456c0.091-0.424,0.142-0.862,0.142-1.313c0-0.451-0.051-0.889-0.142-1.313
					c-0.037-0.171,0.017-0.353,0.158-0.456l1.965-1.428c0.125-0.091,0.153-0.267,0.062-0.392l-2.311-3.182
					c-0.091-0.126-0.267-0.153-0.392-0.062l-1.897,1.378c-0.144,0.105-0.338,0.087-0.489-0.006c-0.777-0.481-1.665-0.798-2.615-0.91
					c-0.173-0.021-0.33-0.129-0.384-0.296l-0.697-2.142c-0.048-0.148-0.206-0.228-0.354-0.181l-3.74,1.215
					c-0.148,0.048-0.228,0.206-0.181,0.354l0.657,2.021c0.047,0.145,0.026,0.311-0.093,0.407c-0.803,0.648-1.444,1.485-1.859,2.444
					c-0.073,0.167-0.22,0.302-0.402,0.302h-2.06c-0.155,0-0.281,0.126-0.281,0.281v3.933c0,0.155,0.126,0.281,0.281,0.281h2.06
					c0.154,0,0.307,0.073,0.366,0.216c0.402,0.966,1.032,1.812,1.824,2.471c0.138,0.115,0.22,0.295,0.165,0.466l-0.657,2.021
					c-0.048,0.148,0.033,0.306,0.181,0.354l3.74,1.215c0.148,0.048,0.306-0.033,0.354-0.181l0.697-2.142
					c0.056-0.175,0.231-0.277,0.414-0.299c0.949-0.117,1.835-0.437,2.609-0.922c0.143-0.089,0.328-0.09,0.464,0.009l1.897,1.378
					c0.125,0.091,0.301,0.063,0.392-0.062l2.312-3.182c0.091-0.126,0.063-0.301-0.062-0.392L1353.273,241.827z"/>
			</g>
			<circle fill="none" stroke="#34508B" stroke-width="3" stroke-miterlimit="10" cx="1346.778" cy="240.057" r="2.388"/>
		</g>
	</g>
</g>
<line fill="none" stroke="#34508B" stroke-width="3" stroke-linecap="round" stroke-linejoin="round" stroke-miterlimit="10" stroke-dasharray="8" x1="774.707" y1="316.436" x2="909.068" y2="316.436"/>
<line fill="none" stroke="#34508B" stroke-width="3" stroke-linecap="round" stroke-linejoin="round" stroke-miterlimit="10" stroke-dasharray="8" x1="1123.372" y1="314.42" x2="1226.83" y2="314.42"/>
<polyline fill="#34508B" points="909.919,306.527 921.116,316.752 908.788,324.392 "/>
<polyline fill="#34508B" points="1222.178,306.527 1232.913,313.236 1222.178,323.937 "/>
<path fill="none" stroke="#CCCCCC" stroke-width="3" stroke-linecap="round" stroke-linejoin="round" stroke-miterlimit="10" stroke-dasharray="8" d="
	M650.424,362.118h91.029v22.505 M646.729,379.921v-17.803h-90.693v22.505"/>
<line fill="none" stroke="#CCCCCC" stroke-width="3" stroke-linecap="round" stroke-linejoin="round" stroke-miterlimit="10" stroke-dasharray="8" x1="646.729" y1="325.505" x2="646.729" y2="361.782"/>
</svg>
