<?xml version="1.0" encoding="utf-8"?>
<!-- Generator: Adobe Illustrator 17.0.0, SVG Export Plug-In . SVG Version: 6.00 Build 0)  -->
<!DOCTYPE svg PUBLIC "-//W3C//DTD SVG 1.1//EN" "http://www.w3.org/Graphics/SVG/1.1/DTD/svg11.dtd">
<svg version="1.1" xmlns="http://www.w3.org/2000/svg" xmlns:xlink="http://www.w3.org/1999/xlink" x="0px" y="0px" width="300px"
	 height="300px" viewBox="0 0 300 300" enable-background="new 0 0 300 300" xml:space="preserve">
<g id="dotted_x5F_lines">
	
		<path fill="none" stroke="#BAD9FF" stroke-width="3" stroke-linecap="round" stroke-linejoin="round" stroke-miterlimit="10" stroke-dasharray="0,0,0,6" d="
		M158.029,173.889h91.029v25.713 M154.334,194.23v-20.341H63.641v25.713 M154.334,132.057v41.448"/>
</g>
<g id="documents">
	<polygon fill="#F1F2F3" points="87.397,202.015 33.153,202.015 33.153,278.085 74.4,278.085 87.397,265.087 	"/>
	<g>
		<polygon fill="#FFAD61" points="87.397,265.087 74.4,278.085 74.388,265.076 		"/>
		<path fill="#FFAD61" d="M45.846,214.674c0.052,0.803,0.464,1.551,1.139,1.989c0.833,0.541,1.905,0.541,2.738,0
			c0.675-0.439,1.087-1.186,1.139-1.989l0.199-3.048c0.102-1.565-1.139-2.889-2.707-2.889l0,0c-1.568,0-2.81,1.325-2.707,2.889
			L45.846,214.674z"/>
	</g>
	<g>
		<path fill="#5D73A2" d="M87.397,200.437H33.152c-0.872,0-1.578,0.707-1.578,1.578v76.069c0,0.872,0.707,1.578,1.578,1.578h41.247
			c0.419,0,0.82-0.167,1.116-0.462l12.997-12.998c0.296-0.296,0.462-0.697,0.462-1.116v-63.072
			C88.976,201.143,88.269,200.437,87.397,200.437z M34.731,236.42h0.135c0.872,0,1.578-0.707,1.578-1.578s-0.707-1.578-1.578-1.578
			h-0.135v-29.67H85.82v29.671c-0.861,0.012-1.556,0.713-1.556,1.577s0.695,1.565,1.555,1.577v27.089l-11.429-0.01h-0.001
			c-0.419,0-0.82,0.167-1.116,0.462c-0.296,0.296-0.463,0.698-0.462,1.117l0.01,11.429H34.732L34.731,236.42L34.731,236.42z
			 M75.968,266.655l7.622,0.007l-7.615,7.615L75.968,266.655z"/>
		<path fill="#5D73A2" d="M62.361,213.86H71c0.871,0,1.578-0.707,1.578-1.578s-0.707-1.578-1.578-1.578h-8.639
			c-0.871,0-1.578,0.707-1.578,1.578S61.49,213.86,62.361,213.86z"/>
		<path fill="#5D73A2" d="M62.361,221.11h18.746c0.871,0,1.578-0.707,1.578-1.578c0-0.872-0.707-1.578-1.578-1.578H62.361
			c-0.871,0-1.578,0.707-1.578,1.578C60.783,220.404,61.49,221.11,62.361,221.11z"/>
		<path fill="#5D73A2" d="M62.361,228.372h18.746c0.871,0,1.578-0.707,1.578-1.578s-0.707-1.578-1.578-1.578H62.361
			c-0.871,0-1.578,0.707-1.578,1.578S61.49,228.372,62.361,228.372z"/>
		<path fill="#5D73A2" d="M40.705,241.952c-0.872,0-1.578,0.707-1.578,1.578s0.707,1.578,1.578,1.578h18.693
			c0.872,0,1.578-0.707,1.578-1.578c0-0.872-0.707-1.578-1.578-1.578H40.705z"/>
		<path fill="#5D73A2" d="M81.265,248.335h-40.56c-0.872,0-1.578,0.707-1.578,1.578c0,0.872,0.707,1.578,1.578,1.578h40.56
			c0.871,0,1.578-0.707,1.578-1.578C82.844,249.042,82.136,248.335,81.265,248.335z"/>
		<path fill="#5D73A2" d="M81.265,254.728h-40.56c-0.872,0-1.578,0.707-1.578,1.578c0,0.872,0.707,1.578,1.578,1.578h40.56
			c0.871,0,1.578-0.707,1.578-1.578C82.844,255.434,82.136,254.728,81.265,254.728z"/>
		<path fill="#5D73A2" d="M57.75,265.617h-1.333c-0.872,0-1.578,0.707-1.578,1.578s0.707,1.578,1.578,1.578h1.333
			c0.871,0,1.578-0.707,1.578-1.578S58.621,265.617,57.75,265.617z"/>
		<path fill="#5D73A2" d="M50.963,265.617H40.705c-0.872,0-1.578,0.707-1.578,1.578s0.707,1.578,1.578,1.578h10.258
			c0.871,0,1.578-0.707,1.578-1.578S51.835,265.617,50.963,265.617z"/>
		<path fill="#5D73A2" d="M44.27,214.777c0.085,1.311,0.779,2.511,1.854,3.21c0.677,0.44,1.453,0.66,2.228,0.66
			s1.552-0.22,2.229-0.66c1.076-0.699,1.769-1.899,1.855-3.21l0.199-3.048c0.077-1.18-0.343-2.351-1.151-3.213
			c-0.808-0.863-1.95-1.357-3.131-1.357s-2.323,0.494-3.131,1.357s-1.227,2.034-1.151,3.213L44.27,214.777z M47.526,210.674
			c0.217-0.232,0.511-0.359,0.828-0.359s0.611,0.128,0.828,0.359c0.217,0.231,0.325,0.533,0.304,0.85l-0.199,3.048
			c-0.021,0.322-0.179,0.609-0.425,0.768c-0.31,0.201-0.709,0.201-1.018,0c-0.245-0.159-0.403-0.446-0.425-0.768l0,0l-0.199-3.048
			C47.201,211.207,47.309,210.905,47.526,210.674z"/>
		<path fill="#5D73A2" d="M39.758,228.529h17.191c0.468,0,0.912-0.208,1.211-0.567c0.3-0.359,0.425-0.832,0.342-1.293l-0.345-1.903
			c-0.478-2.639-2.569-4.746-5.203-5.241c-0.398-0.075-0.804-0.113-1.208-0.113h-1.039c-0.419,0-0.82,0.167-1.116,0.462
			c-0.331,0.331-0.771,0.513-1.238,0.513c-0.468,0-0.908-0.182-1.238-0.513c-0.296-0.296-0.697-0.462-1.116-0.462H44.96
			c-0.404,0-0.81,0.038-1.209,0.113c-2.634,0.496-4.725,2.602-5.203,5.241l-0.345,1.903c-0.083,0.46,0.042,0.934,0.342,1.293
			C38.847,228.322,39.29,228.529,39.758,228.529z M41.656,225.329c0.247-1.36,1.324-2.447,2.681-2.702
			c0.206-0.039,0.415-0.058,0.624-0.058h0.456c1.735,1.297,4.138,1.297,5.873,0h0.456c0.209,0,0.419,0.019,0.624,0.058
			c1.357,0.255,2.435,1.342,2.681,2.702l0.008,0.044H41.647L41.656,225.329z"/>
		<path fill="#5D73A2" d="M76.039,236.42c0.871,0,1.578-0.707,1.578-1.578s-0.707-1.578-1.578-1.578h-1.96
			c-0.871,0-1.578,0.707-1.578,1.578c0,0.872,0.707,1.578,1.578,1.578H76.039z"/>
		<path fill="#5D73A2" d="M70.157,236.42c0.871,0,1.578-0.707,1.578-1.578s-0.707-1.578-1.578-1.578h-1.96
			c-0.871,0-1.578,0.707-1.578,1.578c0,0.872,0.707,1.578,1.578,1.578H70.157z"/>
		<path fill="#5D73A2" d="M42.326,234.842c0-0.871-0.707-1.578-1.578-1.578h-1.96c-0.872,0-1.578,0.707-1.578,1.578
			c0,0.872,0.707,1.578,1.578,1.578h1.96C41.619,236.42,42.326,235.714,42.326,234.842z"/>
		<path fill="#5D73A2" d="M56.433,233.264c-0.872,0-1.578,0.707-1.578,1.578s0.707,1.578,1.578,1.578h1.96
			c0.872,0,1.578-0.707,1.578-1.578c0-0.872-0.707-1.578-1.578-1.578H56.433z"/>
		<path fill="#5D73A2" d="M52.511,236.42c0.872,0,1.578-0.707,1.578-1.578s-0.707-1.578-1.578-1.578h-1.96
			c-0.872,0-1.578,0.707-1.578,1.578c0,0.872,0.707,1.578,1.578,1.578H52.511z"/>
		<path fill="#5D73A2" d="M79.96,233.264c-0.871,0-1.578,0.707-1.578,1.578s0.707,1.578,1.578,1.578h1.961
			c0.871,0,1.578-0.707,1.578-1.578c0-0.872-0.707-1.578-1.578-1.578H79.96z"/>
		<path fill="#5D73A2" d="M62.314,236.42h1.96c0.871,0,1.578-0.707,1.578-1.578s-0.707-1.578-1.578-1.578h-1.96
			c-0.871,0-1.578,0.707-1.578,1.578C60.736,235.714,61.443,236.42,62.314,236.42z"/>
		<path fill="#5D73A2" d="M46.63,236.42c0.872,0,1.578-0.707,1.578-1.578s-0.707-1.578-1.578-1.578h-1.96
			c-0.871,0-1.578,0.707-1.578,1.578c0,0.872,0.707,1.578,1.578,1.578H46.63z"/>
	</g>
	<polygon fill="#F1F2F3" points="173.995,202.015 119.75,202.015 119.75,278.085 160.998,278.085 173.995,265.087 	"/>
	<g>
		<polygon fill="#FFAD61" points="173.995,265.087 160.998,278.085 160.986,265.076 		"/>
		<path fill="#FFAD61" d="M132.443,214.674c0.052,0.803,0.464,1.551,1.139,1.989c0.833,0.541,1.905,0.541,2.738,0
			c0.675-0.439,1.087-1.186,1.139-1.989l0.199-3.048c0.102-1.565-1.139-2.889-2.707-2.889l0,0c-1.568,0-2.809,1.325-2.707,2.889
			L132.443,214.674z"/>
	</g>
	<g>
		<path fill="#5D73A2" d="M173.995,200.437H119.75c-0.872,0-1.578,0.707-1.578,1.578v76.069c0,0.872,0.707,1.578,1.578,1.578h41.247
			c0.419,0,0.82-0.167,1.116-0.462l12.997-12.998c0.296-0.296,0.462-0.697,0.462-1.116v-63.072
			C175.573,201.143,174.866,200.437,173.995,200.437z M121.329,236.42h0.135c0.871,0,1.578-0.707,1.578-1.578
			s-0.707-1.578-1.578-1.578h-0.135v-29.67h51.089v29.671c-0.861,0.012-1.555,0.713-1.555,1.577s0.695,1.565,1.555,1.577v27.089
			l-11.429-0.01c-0.001,0-0.001,0-0.001,0c-0.419,0-0.82,0.167-1.117,0.462c-0.296,0.296-0.462,0.698-0.462,1.117l0.011,11.429
			h-38.09L121.329,236.42L121.329,236.42z M162.566,266.655l7.622,0.007l-7.615,7.615L162.566,266.655z"/>
		<path fill="#5D73A2" d="M148.959,213.86h8.639c0.871,0,1.578-0.707,1.578-1.578s-0.707-1.578-1.578-1.578h-8.639
			c-0.871,0-1.578,0.707-1.578,1.578S148.088,213.86,148.959,213.86z"/>
		<path fill="#5D73A2" d="M148.959,221.11h18.746c0.871,0,1.578-0.707,1.578-1.578c0-0.872-0.707-1.578-1.578-1.578h-18.746
			c-0.871,0-1.578,0.707-1.578,1.578C147.381,220.404,148.088,221.11,148.959,221.11z"/>
		<path fill="#5D73A2" d="M148.959,228.372h18.746c0.871,0,1.578-0.707,1.578-1.578s-0.707-1.578-1.578-1.578h-18.746
			c-0.871,0-1.578,0.707-1.578,1.578S148.088,228.372,148.959,228.372z"/>
		<path fill="#5D73A2" d="M127.303,241.952c-0.872,0-1.578,0.707-1.578,1.578s0.707,1.578,1.578,1.578h18.693
			c0.872,0,1.578-0.707,1.578-1.578c0-0.872-0.707-1.578-1.578-1.578H127.303z"/>
		<path fill="#5D73A2" d="M167.863,248.335h-40.56c-0.872,0-1.578,0.707-1.578,1.578c0,0.872,0.707,1.578,1.578,1.578h40.56
			c0.871,0,1.578-0.707,1.578-1.578S168.734,248.335,167.863,248.335z"/>
		<path fill="#5D73A2" d="M167.863,254.728h-40.56c-0.872,0-1.578,0.707-1.578,1.578c0,0.872,0.707,1.578,1.578,1.578h40.56
			c0.871,0,1.578-0.707,1.578-1.578C169.441,255.434,168.734,254.728,167.863,254.728z"/>
		<path fill="#5D73A2" d="M144.347,265.617h-1.333c-0.871,0-1.578,0.707-1.578,1.578s0.707,1.578,1.578,1.578h1.333
			c0.872,0,1.578-0.707,1.578-1.578C145.926,266.324,145.219,265.617,144.347,265.617z"/>
		<path fill="#5D73A2" d="M137.561,265.617h-10.258c-0.872,0-1.578,0.707-1.578,1.578s0.707,1.578,1.578,1.578h10.258
			c0.872,0,1.578-0.707,1.578-1.578S138.433,265.617,137.561,265.617z"/>
		<path fill="#5D73A2" d="M130.868,214.777c0.085,1.311,0.779,2.511,1.855,3.21c0.677,0.44,1.453,0.66,2.228,0.66
			c0.776,0,1.552-0.22,2.229-0.66c1.076-0.699,1.769-1.899,1.854-3.21l0.199-3.048c0.077-1.18-0.343-2.351-1.151-3.213
			c-0.808-0.863-1.95-1.357-3.131-1.357s-2.323,0.494-3.131,1.357s-1.227,2.034-1.151,3.213L130.868,214.777z M134.123,210.674
			c0.217-0.232,0.511-0.359,0.828-0.359s0.611,0.128,0.828,0.359c0.217,0.231,0.325,0.533,0.304,0.85l-0.199,3.048
			c-0.021,0.322-0.179,0.609-0.425,0.768c-0.309,0.201-0.709,0.201-1.018,0c-0.245-0.159-0.403-0.446-0.425-0.768l0,0l-0.199-3.048
			C133.798,211.207,133.906,210.905,134.123,210.674z"/>
		<path fill="#5D73A2" d="M126.356,228.529h17.191c0.468,0,0.912-0.208,1.211-0.567c0.3-0.359,0.425-0.832,0.342-1.293l-0.345-1.903
			c-0.478-2.639-2.569-4.746-5.203-5.241c-0.398-0.075-0.804-0.113-1.208-0.113h-1.039c-0.419,0-0.82,0.167-1.116,0.462
			c-0.331,0.331-0.771,0.513-1.238,0.513s-0.908-0.182-1.238-0.513c-0.296-0.296-0.697-0.462-1.116-0.462h-1.039
			c-0.404,0-0.81,0.038-1.209,0.113c-2.634,0.496-4.725,2.602-5.202,5.241l-0.345,1.903c-0.083,0.46,0.042,0.934,0.341,1.293
			C125.445,228.322,125.888,228.529,126.356,228.529z M128.253,225.329c0.247-1.36,1.324-2.447,2.681-2.702
			c0.206-0.039,0.415-0.058,0.624-0.058h0.456c1.735,1.297,4.138,1.297,5.873,0h0.456c0.209,0,0.419,0.019,0.624,0.058
			c1.357,0.255,2.435,1.342,2.681,2.702l0.008,0.044h-13.411L128.253,225.329z"/>
		<path fill="#5D73A2" d="M162.636,236.42c0.871,0,1.578-0.707,1.578-1.578s-0.707-1.578-1.578-1.578h-1.96
			c-0.871,0-1.578,0.707-1.578,1.578c0,0.872,0.707,1.578,1.578,1.578H162.636z"/>
		<path fill="#5D73A2" d="M156.755,236.42c0.871,0,1.578-0.707,1.578-1.578s-0.707-1.578-1.578-1.578h-1.96
			c-0.871,0-1.578,0.707-1.578,1.578c0,0.872,0.707,1.578,1.578,1.578H156.755z"/>
		<path fill="#5D73A2" d="M128.923,234.842c0-0.871-0.707-1.578-1.578-1.578h-1.96c-0.871,0-1.578,0.707-1.578,1.578
			c0,0.872,0.707,1.578,1.578,1.578h1.96C128.217,236.42,128.923,235.714,128.923,234.842z"/>
		<path fill="#5D73A2" d="M143.03,233.264c-0.871,0-1.578,0.707-1.578,1.578s0.707,1.578,1.578,1.578h1.96
			c0.872,0,1.578-0.707,1.578-1.578c0-0.872-0.707-1.578-1.578-1.578H143.03z"/>
		<path fill="#5D73A2" d="M139.109,236.42c0.872,0,1.578-0.707,1.578-1.578s-0.707-1.578-1.578-1.578h-1.96
			c-0.872,0-1.578,0.707-1.578,1.578c0,0.872,0.707,1.578,1.578,1.578H139.109z"/>
		<path fill="#5D73A2" d="M166.558,233.264c-0.871,0-1.578,0.707-1.578,1.578s0.707,1.578,1.578,1.578h1.961
			c0.871,0,1.578-0.707,1.578-1.578c0-0.872-0.707-1.578-1.578-1.578H166.558z"/>
		<path fill="#5D73A2" d="M148.912,236.42h1.96c0.871,0,1.578-0.707,1.578-1.578s-0.707-1.578-1.578-1.578h-1.96
			c-0.871,0-1.578,0.707-1.578,1.578C147.334,235.714,148.041,236.42,148.912,236.42z"/>
		<path fill="#5D73A2" d="M133.227,236.42c0.872,0,1.578-0.707,1.578-1.578s-0.707-1.578-1.578-1.578h-1.96
			c-0.872,0-1.578,0.707-1.578,1.578c0,0.872,0.707,1.578,1.578,1.578H133.227z"/>
	</g>
	<polygon fill="#F1F2F3" points="260.378,202.015 206.133,202.015 206.133,278.085 247.38,278.085 260.378,265.087 	"/>
	<g>
		<polygon fill="#FFAD61" points="260.378,265.087 247.38,278.085 247.369,265.076 		"/>
		<path fill="#FFAD61" d="M218.826,214.674c0.052,0.803,0.464,1.551,1.139,1.989c0.833,0.541,1.905,0.541,2.738,0
			c0.675-0.439,1.087-1.186,1.139-1.989l0.199-3.048c0.102-1.565-1.139-2.889-2.707-2.889l0,0c-1.568,0-2.809,1.325-2.707,2.889
			L218.826,214.674z"/>
	</g>
	<g>
		<path fill="#5D73A2" d="M260.377,200.437h-54.245c-0.871,0-1.578,0.707-1.578,1.578v76.069c0,0.872,0.707,1.578,1.578,1.578
			h41.247c0.419,0,0.82-0.167,1.116-0.462l12.997-12.998c0.296-0.296,0.462-0.697,0.462-1.116v-63.072
			C261.956,201.143,261.249,200.437,260.377,200.437z M207.711,236.42h0.135c0.872,0,1.578-0.707,1.578-1.578
			s-0.707-1.578-1.578-1.578h-0.135v-29.67H258.8v29.671c-0.861,0.012-1.555,0.713-1.555,1.577s0.695,1.565,1.555,1.577v27.089
			l-11.429-0.01h-0.001c-0.419,0-0.82,0.167-1.116,0.462c-0.296,0.296-0.462,0.698-0.462,1.117l0.01,11.429h-38.09L207.711,236.42
			L207.711,236.42z M248.949,266.655l7.622,0.007l-7.615,7.615L248.949,266.655z"/>
		<path fill="#5D73A2" d="M235.342,213.86h8.639c0.871,0,1.578-0.707,1.578-1.578s-0.707-1.578-1.578-1.578h-8.639
			c-0.871,0-1.578,0.707-1.578,1.578C233.763,213.153,234.47,213.86,235.342,213.86z"/>
		<path fill="#5D73A2" d="M235.342,221.11h18.746c0.871,0,1.578-0.707,1.578-1.578c0-0.872-0.707-1.578-1.578-1.578h-18.746
			c-0.871,0-1.578,0.707-1.578,1.578C233.763,220.404,234.47,221.11,235.342,221.11z"/>
		<path fill="#5D73A2" d="M235.342,228.372h18.746c0.871,0,1.578-0.707,1.578-1.578s-0.707-1.578-1.578-1.578h-18.746
			c-0.871,0-1.578,0.707-1.578,1.578C233.763,227.665,234.47,228.372,235.342,228.372z"/>
		<path fill="#5D73A2" d="M213.685,241.952c-0.871,0-1.578,0.707-1.578,1.578s0.707,1.578,1.578,1.578h18.694
			c0.871,0,1.578-0.707,1.578-1.578c0-0.872-0.707-1.578-1.578-1.578H213.685z"/>
		<path fill="#5D73A2" d="M254.245,248.335h-40.56c-0.871,0-1.578,0.707-1.578,1.578c0,0.872,0.707,1.578,1.578,1.578h40.56
			c0.871,0,1.578-0.707,1.578-1.578C255.824,249.042,255.116,248.335,254.245,248.335z"/>
		<path fill="#5D73A2" d="M254.245,254.728h-40.56c-0.871,0-1.578,0.707-1.578,1.578c0,0.872,0.707,1.578,1.578,1.578h40.56
			c0.871,0,1.578-0.707,1.578-1.578C255.824,255.434,255.116,254.728,254.245,254.728z"/>
		<path fill="#5D73A2" d="M230.73,265.617h-1.333c-0.871,0-1.578,0.707-1.578,1.578s0.707,1.578,1.578,1.578h1.333
			c0.872,0,1.578-0.707,1.578-1.578S231.601,265.617,230.73,265.617z"/>
		<path fill="#5D73A2" d="M223.944,265.617h-10.259c-0.871,0-1.578,0.707-1.578,1.578s0.707,1.578,1.578,1.578h10.258
			c0.872,0,1.578-0.707,1.578-1.578C225.522,266.324,224.816,265.617,223.944,265.617z"/>
		<path fill="#5D73A2" d="M217.25,214.777c0.085,1.311,0.779,2.511,1.855,3.21c0.677,0.44,1.453,0.66,2.229,0.66
			s1.552-0.22,2.229-0.66c1.076-0.699,1.769-1.899,1.854-3.21l0.199-3.048c0.077-1.18-0.343-2.351-1.151-3.213
			c-0.808-0.863-1.95-1.357-3.131-1.357s-2.323,0.494-3.131,1.357s-1.227,2.034-1.151,3.213L217.25,214.777z M220.506,210.674
			c0.217-0.232,0.511-0.359,0.828-0.359s0.611,0.128,0.828,0.359c0.217,0.231,0.325,0.533,0.304,0.85l-0.199,3.048
			c-0.021,0.322-0.179,0.609-0.425,0.768c-0.309,0.201-0.709,0.201-1.018,0c-0.245-0.159-0.403-0.446-0.425-0.768l0,0l-0.199-3.048
			C220.181,211.207,220.289,210.905,220.506,210.674z"/>
		<path fill="#5D73A2" d="M212.739,228.529h17.191c0.468,0,0.912-0.208,1.211-0.567c0.3-0.359,0.425-0.832,0.342-1.293l-0.345-1.903
			c-0.478-2.639-2.569-4.746-5.203-5.241c-0.398-0.075-0.804-0.113-1.208-0.113h-1.039c-0.419,0-0.82,0.167-1.116,0.462
			c-0.331,0.331-0.771,0.513-1.238,0.513s-0.908-0.182-1.238-0.513c-0.296-0.296-0.697-0.462-1.116-0.462h-1.039
			c-0.404,0-0.81,0.038-1.209,0.113c-2.634,0.496-4.725,2.602-5.203,5.241l-0.345,1.903c-0.083,0.46,0.042,0.934,0.341,1.293
			C211.827,228.322,212.27,228.529,212.739,228.529z M214.636,225.329c0.247-1.36,1.324-2.447,2.681-2.702
			c0.206-0.039,0.415-0.058,0.624-0.058h0.456c1.735,1.297,4.138,1.297,5.873,0h0.456c0.208,0,0.419,0.019,0.624,0.058
			c1.357,0.255,2.435,1.342,2.681,2.702l0.008,0.044h-13.412L214.636,225.329z"/>
		<path fill="#5D73A2" d="M249.019,236.42c0.871,0,1.578-0.707,1.578-1.578s-0.707-1.578-1.578-1.578h-1.96
			c-0.871,0-1.578,0.707-1.578,1.578c0,0.872,0.707,1.578,1.578,1.578H249.019z"/>
		<path fill="#5D73A2" d="M243.137,236.42c0.871,0,1.578-0.707,1.578-1.578s-0.707-1.578-1.578-1.578h-1.96
			c-0.871,0-1.578,0.707-1.578,1.578c0,0.872,0.707,1.578,1.578,1.578H243.137z"/>
		<path fill="#5D73A2" d="M215.306,234.842c0-0.871-0.707-1.578-1.578-1.578h-1.96c-0.871,0-1.578,0.707-1.578,1.578
			c0,0.872,0.707,1.578,1.578,1.578h1.96C214.599,236.42,215.306,235.714,215.306,234.842z"/>
		<path fill="#5D73A2" d="M229.413,233.264c-0.871,0-1.578,0.707-1.578,1.578s0.707,1.578,1.578,1.578h1.96
			c0.872,0,1.578-0.707,1.578-1.578c0-0.872-0.707-1.578-1.578-1.578H229.413z"/>
		<path fill="#5D73A2" d="M225.491,236.42c0.871,0,1.578-0.707,1.578-1.578s-0.707-1.578-1.578-1.578h-1.96
			c-0.871,0-1.578,0.707-1.578,1.578c0,0.872,0.707,1.578,1.578,1.578H225.491z"/>
		<path fill="#5D73A2" d="M252.941,233.264c-0.871,0-1.578,0.707-1.578,1.578s0.707,1.578,1.578,1.578h1.961
			c0.871,0,1.578-0.707,1.578-1.578c0-0.872-0.707-1.578-1.578-1.578H252.941z"/>
		<path fill="#5D73A2" d="M235.294,236.42h1.96c0.871,0,1.578-0.707,1.578-1.578s-0.707-1.578-1.578-1.578h-1.96
			c-0.871,0-1.578,0.707-1.578,1.578C233.716,235.714,234.423,236.42,235.294,236.42z"/>
		<path fill="#5D73A2" d="M219.61,236.42c0.872,0,1.578-0.707,1.578-1.578s-0.707-1.578-1.578-1.578h-1.96
			c-0.872,0-1.578,0.707-1.578,1.578c0,0.872,0.707,1.578,1.578,1.578H219.61z"/>
	</g>
	<path fill="#F1F2F3" d="M189.969,126.303c-5.646,0-10.224-4.578-10.224-10.225V37.692c0-5.647-4.578-10.225-10.224-10.225h-51.122
		c0,0-0.05,63.362-0.03,88.622c0.005,5.643,4.581,10.215,10.224,10.215L189.969,126.303L189.969,126.303z"/>
	<g>
		<path fill="#CED7D9" d="M181.116,121.192H130.3c-3.761,0-6.811-3.045-6.816-6.806c-0.024-18.679,0.01-70.435,0.022-86.918h-5.108
			c0,0-0.05,63.362-0.03,88.622c0.005,5.644,4.581,10.215,10.224,10.215h61.376C186.185,126.303,182.884,124.246,181.116,121.192z"
			/>
		<path fill="#CED7D9" d="M111.581,27.467c-5.646,0-10.224,4.578-10.224,10.225s4.578,10.224,10.224,10.224h57.938V27.467H111.581z"
			/>
	</g>
	<g>
		<path fill="#B6C4C6" d="M101.679,35.136c-0.21,0.817-0.322,1.673-0.322,2.556c0,5.646,4.578,10.224,10.224,10.224h57.938v-5.112
			h-57.938C106.818,42.804,102.814,39.546,101.679,35.136z"/>
		<circle fill="#B6C4C6" cx="169.52" cy="37.692" r="10.224"/>
	</g>
	<circle fill="#859CA0" cx="169.566" cy="37.646" r="5.112"/>
	<circle fill="#B6C4C6" cx="188.969" cy="116.079" r="10.224"/>
	<circle fill="#859CA0" cx="189.969" cy="116.079" r="5.112"/>
	<circle fill="#94C54B" cx="137.143" cy="70.069" r="11.929"/>
	<circle fill="#F57811" cx="161" cy="104.151" r="11.929"/>
	<path fill="#5D73A2" d="M116.768,87.62c0,0.882,0.715,1.598,1.598,1.598l0,0c0.883,0,1.598-0.715,1.598-1.598
		c0.003-12.932,0.011-26.892,0.017-38.107h49.54c3.401,0,6.468-1.445,8.627-3.751v7.266c0,0.882,0.715,1.598,1.598,1.598
		s1.598-0.715,1.598-1.598V37.691c0-6.519-5.303-11.822-11.822-11.822h-57.938c-6.518,0-11.822,5.303-11.822,11.822
		s5.303,11.822,11.822,11.822h5.204C116.778,60.728,116.771,74.688,116.768,87.62z M178.147,37.692c0,4.757-3.87,8.627-8.627,8.627
		s-8.627-3.87-8.627-8.627s3.87-8.627,8.627-8.627S178.147,32.935,178.147,37.692z M102.955,37.692c0-4.757,3.87-8.627,8.627-8.627
		h49.868c-2.306,2.158-3.751,5.226-3.751,8.627s1.445,6.468,3.751,8.627h-49.868C106.824,46.319,102.955,42.448,102.955,37.692z"/>
	<path fill="#5D73A2" d="M162.857,37.646c0,3.7,3.01,6.71,6.71,6.71s6.71-3.01,6.71-6.71s-3.01-6.71-6.71-6.71
		C165.867,30.936,162.857,33.946,162.857,37.646z M173.081,37.646c0,1.938-1.577,3.515-3.515,3.515s-3.515-1.577-3.515-3.515
		s1.577-3.515,3.515-3.515S173.081,35.708,173.081,37.646z"/>
	<path fill="#5D73A2" d="M189.969,104.257c-3.401,0-6.468,1.445-8.627,3.751V59.845c0-0.882-0.715-1.598-1.598-1.598
		c-0.882,0-1.598,0.715-1.598,1.598v56.235c0,2.525,0.828,5.022,2.338,7.046c0.422,0.566,0.893,1.098,1.409,1.581h-53.301
		c-4.753,0-8.623-3.866-8.627-8.618c-0.005-5.913-0.006-13.914-0.005-22.701c0-0.882-0.715-1.598-1.598-1.598l0,0
		c-0.882,0-1.598,0.715-1.598,1.598c-0.001,8.788-0.001,16.79,0.005,22.704c0.005,6.512,5.309,11.811,11.822,11.811h61.376
		c6.518,0,11.822-5.303,11.822-11.822C201.791,109.561,196.488,104.257,189.969,104.257z M189.969,124.706
		c-4.757,0-8.627-3.87-8.627-8.627s3.87-8.627,8.627-8.627s8.627,3.87,8.627,8.627S194.726,124.706,189.969,124.706z"/>
	<path fill="#5D73A2" d="M189.969,109.369c-3.7,0-6.71,3.01-6.71,6.71s3.01,6.71,6.71,6.71s6.71-3.01,6.71-6.71
		C196.678,112.38,193.669,109.369,189.969,109.369z M189.969,119.594c-1.938,0-3.515-1.577-3.515-3.515s1.577-3.515,3.515-3.515
		s3.515,1.577,3.515,3.515C193.483,118.017,191.907,119.594,189.969,119.594z"/>
	<path fill="#5D73A2" d="M150.669,70.069c0-7.458-6.068-13.526-13.526-13.526s-13.526,6.068-13.526,13.526
		s6.068,13.526,13.526,13.526C144.601,83.596,150.669,77.527,150.669,70.069z M137.143,80.4c-5.696,0-10.331-4.634-10.331-10.331
		c0-5.696,4.634-10.331,10.331-10.331c5.696,0,10.331,4.634,10.331,10.331S142.839,80.4,137.143,80.4z"/>
	<path fill="#5D73A2" d="M141.125,65.531l-5.686,5.687l-2.278-2.279c-0.624-0.624-1.635-0.624-2.259,0
		c-0.624,0.624-0.624,1.635,0,2.259l3.408,3.408c0.615,0.615,1.644,0.615,2.259,0l6.816-6.816c0.624-0.624,0.624-1.635,0-2.259
		C142.76,64.907,141.749,64.907,141.125,65.531z"/>
	<path fill="#5D73A2" d="M161,117.677c7.458,0,13.526-6.068,13.526-13.526S168.458,90.625,161,90.625s-13.526,6.068-13.526,13.526
		S153.541,117.677,161,117.677z M161,93.82c5.696,0,10.331,4.634,10.331,10.331c0,5.696-4.634,10.331-10.331,10.331
		c-5.696,0-10.331-4.635-10.331-10.331C150.669,98.454,155.303,93.82,161,93.82z"/>
	<path fill="#5D73A2" d="M154.757,110.392c0.615,0.615,1.644,0.615,2.259,0l3.982-3.982l3.982,3.982
		c0.65,0.65,1.747,0.606,2.345-0.091c0.535-0.625,0.497-1.586-0.085-2.168l-3.982-3.982l3.982-3.982
		c0.624-0.624,0.624-1.636,0-2.259c-0.624-0.624-1.635-0.624-2.259,0l-3.982,3.982l-3.982-3.982c-0.624-0.624-1.635-0.624-2.259,0
		c-0.624,0.624-0.624,1.636,0,2.259l3.982,3.982l-3.982,3.982C154.134,108.757,154.134,109.769,154.757,110.392z"/>
	<path fill="#5D73A2" d="M155.887,64.85h13.632c0.883,0,1.598-0.715,1.598-1.598s-0.715-1.598-1.598-1.598h-13.632
		c-0.882,0-1.598,0.715-1.598,1.598C154.29,64.135,155.005,64.85,155.887,64.85z"/>
	<path fill="#5D73A2" d="M155.887,71.666h13.632c0.883,0,1.598-0.715,1.598-1.598s-0.715-1.598-1.598-1.598h-13.632
		c-0.882,0-1.598,0.715-1.598,1.598C154.29,70.952,155.005,71.666,155.887,71.666z"/>
	<path fill="#5D73A2" d="M155.887,78.483h13.632c0.883,0,1.598-0.715,1.598-1.598s-0.715-1.598-1.598-1.598h-13.632
		c-0.882,0-1.598,0.715-1.598,1.598S155.005,78.483,155.887,78.483z"/>
	<path fill="#5D73A2" d="M142.255,97.441h-13.633c-0.882,0-1.598,0.715-1.598,1.598s0.715,1.598,1.598,1.598h13.632
		c0.883,0,1.598-0.715,1.598-1.598C143.853,98.156,143.137,97.441,142.255,97.441z"/>
	<path fill="#5D73A2" d="M142.255,104.257h-13.633c-0.882,0-1.598,0.715-1.598,1.598s0.715,1.598,1.598,1.598h13.632
		c0.883,0,1.598-0.715,1.598-1.598C143.853,104.972,143.137,104.257,142.255,104.257z"/>
	<path fill="#5D73A2" d="M142.255,111.074h-13.633c-0.882,0-1.598,0.715-1.598,1.598s0.715,1.598,1.598,1.598h13.632
		c0.883,0,1.598-0.715,1.598-1.598C143.853,111.789,143.137,111.074,142.255,111.074z"/>
	<rect x="1" fill="none" width="300" height="300"/>
</g>
<g id="Layer_3">
</g>
</svg>
