<?xml version="1.0" encoding="utf-8"?>
<!-- Generator: Adobe Illustrator 17.0.0, SVG Export Plug-In . SVG Version: 6.00 Build 0)  -->
<!DOCTYPE svg PUBLIC "-//W3C//DTD SVG 1.1//EN" "http://www.w3.org/Graphics/SVG/1.1/DTD/svg11.dtd">
<svg version="1.1" id="Layer_1" xmlns="http://www.w3.org/2000/svg" xmlns:xlink="http://www.w3.org/1999/xlink" x="0px" y="0px"
	 width="425.979px" height="300px" viewBox="0 0 425.979 300" enable-background="new 0 0 425.979 300" xml:space="preserve">
<line fill="none" stroke="#BAD9FF" stroke-width="3" stroke-linecap="round" stroke-linejoin="round" stroke-miterlimit="10" stroke-dasharray="0,0,0,6" x1="217.271" y1="155.319" x2="217.271" y2="179.018"/>
<path id="XMLID_165_" fill="#DCDEE0" stroke="#5D73A2" stroke-width="3" stroke-linecap="round" stroke-linejoin="round" stroke-miterlimit="10" d="
	M189.277,33.055v-6.058h-4.082c-0.287-1.228-0.756-2.384-1.377-3.443l2.852-2.852l-4.284-4.284l-2.808,2.808
	c-1.068-0.656-2.238-1.154-3.487-1.466v-3.95h-6.058v3.95c-1.248,0.312-2.419,0.81-3.487,1.466l-2.808-2.808l-4.284,4.284
	l2.852,2.852c-0.621,1.059-1.089,2.215-1.377,3.443h-4.082v6.058h4.174c0.314,1.182,0.795,2.292,1.42,3.308l-2.986,2.986
	l4.284,4.284l3.03-3.03c1.007,0.591,2.103,1.041,3.265,1.332v4.306h6.058v-4.306c1.162-0.29,2.257-0.74,3.265-1.332l3.03,3.03
	l4.284-4.284l-2.986-2.986c0.625-1.016,1.106-2.126,1.42-3.308C185.105,33.055,189.277,33.055,189.277,33.055z M173.062,33.768
	c-2.165,0-3.92-1.755-3.92-3.92s1.755-3.92,3.92-3.92s3.92,1.755,3.92,3.92C176.982,32.013,175.227,33.768,173.062,33.768z"/>
<g transform="translate(1 1)">
	<g>
		<path fill="#F1F2F3" d="M123.642,204.409v71.508c0,1.457,1.06,2.648,2.252,2.648h45.686c1.324,0,2.252-1.192,2.252-2.648v-71.508
			c0-1.457-1.06-2.648-2.252-2.648h-45.686C124.702,201.761,123.642,202.952,123.642,204.409"/>
	</g>
	<path fill="#FFFFFF" d="M123.642,275.916v-71.508c0-1.457,1.06-2.648,2.252-2.648h-3.575c-1.457,0-2.648,1.192-2.648,2.648v71.508
		c0,1.457,1.192,2.648,2.648,2.648h3.575C124.702,278.566,123.642,277.373,123.642,275.916"/>
	<path fill="#3BDDBA" d="M175.286,201.761h-3.575c1.324,0,2.252,1.192,2.252,2.648v71.508c0,1.457-1.06,2.648-2.252,2.648h3.575
		c1.457,0,2.648-1.192,2.648-2.648v-71.508C177.936,202.952,176.743,201.761,175.286,201.761"/>
	<g>
		<path fill="#54C9FD" d="M169.99,228.245v-6.356c0-3.708-2.913-6.621-6.621-6.621c-3.708,0-6.621,2.913-6.621,6.621v6.356H169.99
			L169.99,228.245z"/>
		<path fill="#54C9FD" d="M163.369,215.267c-2.252,0-3.973-1.721-3.973-3.973c0-2.252,1.721-3.973,3.973-3.973
			s3.973,1.721,3.973,3.973C167.342,213.546,165.62,215.267,163.369,215.267"/>
	</g>
	<path fill="#5D73A2" d="M163.369,216.592c-2.913,0-5.297-2.383-5.297-5.297c0-2.913,2.383-5.297,5.297-5.297
		c2.913,0,5.296,2.383,5.296,5.297C168.666,214.208,166.282,216.592,163.369,216.592z M163.369,208.646
		c-1.457,0-2.648,1.192-2.648,2.648c0,1.456,1.192,2.648,2.648,2.648c1.457,0,2.648-1.192,2.648-2.648
		C166.017,209.838,164.825,208.646,163.369,208.646z"/>
	<path fill="#5D73A2" d="M169.99,229.569h-13.242c-0.795,0-1.324-0.53-1.324-1.324v-6.356c0-4.37,3.575-7.945,7.945-7.945
		c4.37,0,7.945,3.575,7.945,7.945v6.356C171.315,229.04,170.785,229.569,169.99,229.569z M158.072,226.92h10.594v-5.032
		c0-2.913-2.383-5.296-5.297-5.296c-2.913,0-5.297,2.383-5.297,5.296L158.072,226.92L158.072,226.92z"/>
	<path fill="#5D73A2" d="M175.286,279.889h-52.969c-2.251,0-3.973-1.721-3.973-3.973v-71.508c0-2.252,1.721-3.973,3.973-3.973
		h52.969c2.252,0,3.973,1.721,3.973,3.973v5.297c0,0.795-0.53,1.324-1.324,1.324c-0.795,0-1.324-0.53-1.324-1.324v-5.297
		c0-0.795-0.53-1.324-1.324-1.324H122.32c-0.795,0-1.324,0.53-1.324,1.324v71.508c0,0.795,0.53,1.324,1.324,1.324h52.969
		c0.795,0,1.324-0.53,1.324-1.324V220.3c0-0.795,0.53-1.324,1.324-1.324c0.795,0,1.324,0.53,1.324,1.324v55.617
		C179.26,278.168,177.538,279.889,175.286,279.889z"/>
	<path fill="#5D73A2" d="M179.26,215.003c0-0.795-0.53-1.324-1.324-1.324c-0.795,0-1.324,0.53-1.324,1.324
		c0,0.794,0.53,1.324,1.324,1.324C178.729,216.327,179.26,215.798,179.26,215.003"/>
	<path fill="#5D73A2" d="M136.885,213.679h-9.27c-0.795,0-1.324-0.53-1.324-1.324c0-0.795,0.53-1.324,1.324-1.324h9.27
		c0.795,0,1.324,0.53,1.324,1.324C138.209,213.149,137.679,213.679,136.885,213.679z"/>
	<path fill="#5D73A2" d="M136.885,224.272h-9.27c-0.795,0-1.324-0.53-1.324-1.324s0.53-1.324,1.324-1.324h9.27
		c0.795,0,1.324,0.53,1.324,1.324C138.209,223.742,137.679,224.272,136.885,224.272z"/>
	<path fill="#5D73A2" d="M143.506,213.679h-1.324c-0.795,0-1.324-0.53-1.324-1.324c0-0.795,0.53-1.324,1.324-1.324h1.324
		c0.795,0,1.324,0.53,1.324,1.324C144.83,213.149,144.301,213.679,143.506,213.679z"/>
	<path fill="#5D73A2" d="M148.803,218.976h-6.621c-0.795,0-1.324-0.53-1.324-1.324c0-0.794,0.53-1.324,1.324-1.324h6.621
		c0.795,0,1.324,0.53,1.324,1.324C150.127,218.446,149.597,218.976,148.803,218.976z"/>
	<path fill="#5D73A2" d="M143.506,224.272h-1.324c-0.795,0-1.324-0.53-1.324-1.324s0.53-1.324,1.324-1.324h1.324
		c0.795,0,1.324,0.53,1.324,1.324C144.83,223.742,144.301,224.272,143.506,224.272z"/>
	<path fill="#5D73A2" d="M148.803,229.569h-6.621c-0.795,0-1.324-0.53-1.324-1.324c0-0.794,0.53-1.324,1.324-1.324h6.621
		c0.795,0,1.324,0.53,1.324,1.324C150.127,229.04,149.597,229.569,148.803,229.569z"/>
</g>
<g>
	<path fill="#FFC433" d="M167.641,80.978c-0.643-1.209-1.911-2.034-3.375-2.034c-2.113,0-3.826,1.713-3.826,3.826
		s1.712,3.826,3.826,3.826c1.465,0,2.732-0.825,3.375-2.034V80.978z"/>
	<path fill="#FFC433" d="M167.641,94.255c-0.643-1.209-1.911-2.034-3.375-2.034c-2.113,0-3.826,1.713-3.826,3.826
		s1.712,3.826,3.826,3.826c1.465,0,2.732-0.826,3.375-2.034V94.255z"/>
	<path fill="#FFC433" d="M228.789,151.943c-1.208,0.643-2.033,1.911-2.033,3.375c0,2.113,1.713,3.826,3.826,3.826
		s3.826-1.712,3.826-3.826c0-1.465-0.825-2.732-2.033-3.375H228.789z"/>
	<path fill="#FFC433" d="M215.513,151.943c-1.209,0.643-2.034,1.911-2.034,3.375c0,2.113,1.713,3.826,3.826,3.826
		s3.826-1.712,3.826-3.826c0-1.465-0.825-2.732-2.033-3.375H215.513z"/>
	<path fill="#FFC433" d="M242.28,151.98c-1.204,0.644-2.025,1.91-2.025,3.371c0,2.113,1.713,3.826,3.826,3.826
		s3.826-1.712,3.826-3.826c0-1.468-0.829-2.738-2.042-3.38L242.28,151.98z"/>
</g>
<g>
	<path fill="#7EFFE3" d="M219.299,42.151v31.372h30.215c0,0,0.502-7.722-4.914-10.667c-0.327-0.177-0.672-0.344-1.043-0.493
		c0,0,0.654-1.948,0.494-4.191c-0.177-2.486-1.354-5.335-5.529-6.305c0,0,0.183-7.208-7.099-8.066
		c-0.527-0.062-1.089-0.093-1.696-0.084c0,0-1.316-1.295-3.319-2.109C224.487,40.826,221.935,40.486,219.299,42.151z"/>
	<path fill="#7EFFE3" d="M201.442,43.717c-9.01-0.142-8.797,8.15-8.797,8.15c-7.943,1.843-5.035,10.496-5.035,10.496
		c-6.525,2.624-5.958,11.16-5.958,11.16h30.214V42.151C206.482,38.747,201.442,43.717,201.442,43.717z"/>
</g>
<path opacity="0.1" enable-background="new    " d="M181.654,73.523h9.447c0,0-0.501-7.573,4.894-10.645
	c-0.005-0.007-0.01-0.015-0.015-0.022c0.327-0.177,0.672-0.344,1.043-0.493c0,0-0.654-1.948-0.494-4.191
	c0.012,0,0.023,0.002,0.034,0.002c0.177-2.487,1.353-5.338,5.529-6.307c0,0-0.181-7.182,7.063-8.061
	c0.001-0.001,0.002-0.003,0.003-0.005c0.04-0.005,0.082-0.008,0.123-0.012c0.02-0.002,0.041-0.004,0.062-0.006
	c0.228-0.024,0.462-0.042,0.703-0.052c0.024-0.001,0.049-0.001,0.073-0.002c0.238-0.009,0.482-0.014,0.735-0.01
	c0,0,0.371-0.363,1.014-0.825v-0.741c-2.649-1.674-5.213-1.322-7.135-0.533c-0.002-0.004-0.004-0.007-0.006-0.011
	c-2.003,0.815-3.319,2.109-3.319,2.109c-0.253-0.004-0.497,0.001-0.735,0.01c-0.024,0.001-0.049,0.001-0.073,0.002
	c-0.242,0.011-0.476,0.03-0.703,0.052c-0.021,0.002-0.042,0.004-0.062,0.006c-0.04,0.004-0.083,0.007-0.123,0.012
	c-0.001,0.002-0.002,0.003-0.003,0.005c-7.243,0.878-7.063,8.061-7.063,8.061c-4.176,0.969-5.352,3.821-5.529,6.307
	c-0.012,0-0.023-0.003-0.034-0.002c-0.16,2.244,0.494,4.191,0.494,4.191c-0.372,0.149-0.717,0.316-1.043,0.493
	c0.005,0.007,0.01,0.015,0.015,0.022C181.153,65.95,181.654,73.523,181.654,73.523z"/>
<path opacity="0.1" enable-background="new    " d="M249.508,73.523h-9.447c0,0,0.501-7.573-4.894-10.645
	c0.005-0.007,0.01-0.015,0.015-0.022c-0.327-0.177-0.672-0.344-1.043-0.493c0,0,0.654-1.948,0.494-4.191
	c-0.012,0-0.023,0.002-0.034,0.002c-0.177-2.487-1.353-5.338-5.529-6.307c0,0,0.181-7.182-7.063-8.061
	c-0.001-0.001-0.001-0.003-0.003-0.005c-0.04-0.005-0.082-0.008-0.123-0.012c-0.02-0.002-0.041-0.004-0.062-0.006
	c-0.228-0.024-0.462-0.042-0.703-0.052c-0.024-0.001-0.049-0.001-0.073-0.002c-0.239-0.009-0.482-0.014-0.735-0.01
	c0,0-0.371-0.363-1.014-0.825v-0.741c2.649-1.674,5.213-1.322,7.135-0.533c0.002-0.004,0.004-0.007,0.006-0.011
	c2.003,0.815,3.319,2.109,3.319,2.109c0.253-0.004,0.497,0.001,0.735,0.01c0.024,0.001,0.049,0.001,0.073,0.002
	c0.242,0.011,0.476,0.03,0.703,0.052c0.021,0.002,0.042,0.004,0.062,0.006c0.04,0.004,0.083,0.007,0.123,0.012
	c0.001,0.002,0.002,0.003,0.003,0.005c7.243,0.878,7.063,8.061,7.063,8.061c4.176,0.969,5.352,3.821,5.529,6.307
	c0.012,0,0.023-0.003,0.034-0.002c0.16,2.244-0.494,4.191-0.494,4.191c0.371,0.149,0.717,0.316,1.043,0.493
	c-0.005,0.007-0.01,0.015-0.015,0.022C250.009,65.95,249.508,73.523,249.508,73.523z"/>
<path fill="#A6D4FF" d="M178.24,139.088V74.717c0-1.319,1.069-2.39,2.39-2.39h70.44c1.32,0,2.39,1.069,2.39,2.39v64.371
	c0,1.319-1.069,2.39-2.39,2.39h-70.44C179.311,141.477,178.24,140.408,178.24,139.088z"/>
<path opacity="0.1" enable-background="new    " d="M178.24,74.717v64.371c0,1.319,1.069,2.39,2.39,2.39h70.44
	c1.32,0,2.39-1.07,2.39-2.39v-4.471h-65.968c-1.319,0-2.39-1.07-2.39-2.39V72.328h-4.471
	C179.311,72.328,178.24,73.398,178.24,74.717z"/>
<path fill="#FFFFFF" d="M196.82,122.008v-30.21c0-1.319,1.07-2.39,2.39-2.39h33.281c1.319,0,2.39,1.069,2.39,2.39v30.21
	c0,1.319-1.069,2.39-2.39,2.39H199.21C197.89,124.398,196.82,123.327,196.82,122.008z"/>
<path fill="#FFC433" d="M205.054,107.083L205.054,107.083c0-1.707,1.397-3.104,3.104-3.104h15.076c1.707,0,3.104,1.397,3.104,3.104
	l0,0c0,1.707-1.397,3.104-3.104,3.104h-15.076C206.451,110.187,205.054,108.79,205.054,107.083z"/>
<g>
	<circle fill="#3A9CB4" cx="244.024" cy="82.216" r="2.971"/>
	<circle fill="#3A9CB4" cx="187.142" cy="82.216" r="2.971"/>
	<circle fill="#3A9CB4" cx="244.024" cy="131.951" r="2.971"/>
	<circle fill="#3A9CB4" cx="187.142" cy="131.951" r="2.971"/>
</g>
<path fill="#5D73A2" d="M158.649,96.047c0,3.098,2.52,5.618,5.618,5.618c2.471,0,4.573-1.605,5.323-3.826h6.86v41.249
	c0,2.306,1.876,4.181,4.181,4.181h34.883v6.726c-2.222,0.75-3.826,2.852-3.826,5.323c0,3.098,2.52,5.618,5.618,5.618
	s5.618-2.52,5.618-5.618c0-2.471-1.604-4.574-3.826-5.323v-6.726h9.692v6.726c-2.221,0.75-3.826,2.852-3.826,5.323
	c0,3.098,2.521,5.618,5.618,5.618c3.098,0,5.618-2.52,5.618-5.618c0-2.471-1.604-4.574-3.826-5.323v-6.726h9.916v6.758
	c-2.222,0.75-3.826,2.852-3.826,5.323c0,3.098,2.521,5.618,5.618,5.618c3.098,0,5.618-2.52,5.618-5.618
	c0-2.472-1.604-4.574-3.826-5.323v-6.758h5.197c2.306,0,4.181-1.876,4.181-4.181v-16.219c0-0.99-0.802-1.792-1.792-1.792
	s-1.792,0.802-1.792,1.792v16.218c0,0.329-0.268,0.597-0.597,0.597h-70.438c-0.329,0-0.597-0.268-0.597-0.597v-24.396h14.995v7.316
	c0,2.306,1.876,4.181,4.181,4.181h33.281c2.306,0,4.181-1.876,4.181-4.181v-30.21c0-2.306-1.876-4.181-4.181-4.181h-33.28
	c-2.306,0-4.181,1.876-4.181,4.181v3.231h-9.064v-2.421c0-0.99-0.802-1.792-1.792-1.792s-1.792,0.802-1.792,1.792v4.214
	c0,0.99,0.802,1.792,1.792,1.792h10.856v6.678h-14.995V74.717c0-0.329,0.268-0.597,0.597-0.597h1.024h30.214h11.634
	c0.99,0,1.792-0.802,1.792-1.792s-0.802-1.792-1.792-1.792h-2.411V43.223c2.104-0.916,4.104-0.309,5.491,0.436
	c0.114,0.136,0.25,0.257,0.407,0.357c0.294,0.195,2.711,1.939,1.417,5.71c-0.321,0.936,0.177,1.955,1.114,2.277
	c0.193,0.066,0.389,0.097,0.582,0.097c0.744,0,1.44-0.468,1.695-1.211c0.677-1.973,0.693-3.699,0.354-5.145
	c1.133,0.266,2.063,0.756,2.778,1.469c1.82,1.817,1.802,4.59,1.801,4.618c-0.012,0.843,0.565,1.591,1.387,1.782
	c1.694,0.394,2.837,1.151,3.492,2.315c0.646,1.147,0.736,2.524,0.651,3.655c-0.347,0.938-2.04,4.688-6.631,3.721
	c-0.968-0.204-1.919,0.416-2.123,1.385c-0.204,0.968,0.416,1.919,1.385,2.123c0.789,0.167,1.532,0.242,2.23,0.242
	c2.823,0,4.913-1.239,6.351-2.763c3.049,1.514,3.931,4.408,4.176,6.246h-17.85c-0.99,0-1.792,0.802-1.792,1.792
	s0.802,1.792,1.792,1.792h21.273c0.329,0,0.597,0.268,0.597,0.597v17.155h-10.615c-0.99,0-1.792,0.802-1.792,1.792
	s0.802,1.792,1.792,1.792h10.615v5.325h-10.615c-0.99,0-1.792,0.802-1.792,1.792s0.802,1.792,1.792,1.792h10.615v5.325h-10.614
	c-0.99,0-1.792,0.802-1.792,1.792s0.802,1.792,1.792,1.792h10.614v2.732c0,0.99,0.802,1.792,1.792,1.792s1.792-0.802,1.792-1.792
	v-41.29c0-2.24-1.772-4.069-3.988-4.172c-0.294-2.917-1.7-6.924-5.63-9.167c0.062-0.344,0.12-0.734,0.161-1.158
	c0.011-0.072,0.017-0.144,0.019-0.215c0.142-1.698,0.014-3.874-1.07-5.814c-0.966-1.731-2.488-2.97-4.535-3.698
	c-0.21-1.495-0.839-3.888-2.715-5.784c-1.742-1.759-4.121-2.694-7.077-2.782c-2.383-1.999-7.284-4.324-12.078-1.294
	c-0.52,0.329-0.835,0.9-0.835,1.515v28.384h-3.847V42.148c0-0.615-0.315-1.186-0.835-1.515c-4.794-3.029-9.694-0.705-12.078,1.294
	c-2.957,0.088-5.334,1.022-7.077,2.782c-1.876,1.895-2.505,4.288-2.715,5.784c-2.046,0.728-3.569,1.968-4.535,3.698
	c-1.083,1.94-1.212,4.116-1.069,5.814c0.002,0.072,0.008,0.144,0.019,0.216c0.042,0.423,0.099,0.812,0.162,1.156
	c-3.956,2.257-5.355,6.304-5.636,9.225c-1.957,0.348-3.449,2.058-3.449,4.113v6.261h-6.858c-0.75-2.221-2.852-3.826-5.323-3.826
	c-3.098,0-5.618,2.52-5.618,5.618s2.52,5.618,5.618,5.618c2.472,0,4.573-1.605,5.323-3.826h6.86v9.692h-6.86
	c-0.75-2.222-2.852-3.826-5.323-3.826C161.167,90.429,158.647,92.949,158.649,96.047z M166.299,82.77
	c0,1.122-0.912,2.034-2.034,2.034s-2.034-0.913-2.034-2.034s0.912-2.034,2.034-2.034S166.299,81.649,166.299,82.77z
	 M242.047,155.351c0-1.122,0.913-2.034,2.034-2.034s2.034,0.912,2.034,2.034s-0.912,2.034-2.034,2.034
	C242.96,157.385,242.047,156.472,242.047,155.351z M228.548,155.319c0-1.12,0.91-2.032,2.03-2.034c0.001,0,0.003,0,0.003,0
	c0.001,0,0.002,0,0.003,0c1.12,0.001,2.03,0.914,2.03,2.034c0,1.121-0.912,2.034-2.034,2.034S228.548,156.441,228.548,155.319z
	 M215.271,155.319c0-1.12,0.91-2.032,2.03-2.034c0.001,0,0.003,0,0.003,0s0.002,0,0.003,0c1.12,0.001,2.03,0.914,2.03,2.034
	c0,1.121-0.912,2.034-2.034,2.034S215.271,156.441,215.271,155.319z M210.076,70.535H183.52c0.244-1.836,1.126-4.734,4.175-6.248
	c1.438,1.524,3.528,2.765,6.352,2.765c0.699,0,1.441-0.076,2.23-0.243c0.969-0.204,1.588-1.154,1.385-2.123
	c-0.204-0.968-1.153-1.587-2.123-1.385c-4.592,0.966-6.285-2.784-6.631-3.721c-0.085-1.131,0.005-2.507,0.651-3.655
	c0.656-1.164,1.798-1.922,3.492-2.315c0.829-0.192,1.408-0.941,1.387-1.792c0-0.017-0.018-2.791,1.801-4.608
	c0.715-0.713,1.645-1.205,2.778-1.471c-0.339,1.446-0.323,3.173,0.353,5.146c0.255,0.744,0.951,1.211,1.695,1.211
	c0.193,0,0.389-0.032,0.582-0.097c0.937-0.321,1.435-1.34,1.114-2.277c-1.346-3.927,1.289-5.63,1.402-5.7
	c0.164-0.102,0.304-0.227,0.422-0.367c1.386-0.744,3.386-1.352,5.491-0.435L210.076,70.535L210.076,70.535z M198.612,122.008v-30.21
	c0-0.329,0.268-0.597,0.597-0.597h33.281c0.329,0,0.597,0.268,0.597,0.597v30.21c0,0.329-0.268,0.597-0.597,0.597h-33.281
	C198.88,122.605,198.612,122.337,198.612,122.008L198.612,122.008z M180.033,111.107v-2.232h14.995v2.232H180.033z M162.231,96.046
	c0-1.121,0.912-2.034,2.034-2.034c1.121,0,2.034,0.912,2.034,2.034s-0.912,2.034-2.034,2.034
	C163.144,98.08,162.231,97.168,162.231,96.046z"/>
<path fill="#5D73A2" d="M203.262,107.693c0,2.699,2.197,4.896,4.896,4.896h15.076c2.699,0,4.896-2.196,4.896-4.896
	s-2.196-4.896-4.896-4.896h-15.076C205.458,102.797,203.262,104.994,203.262,107.693z M206.846,107.693
	c0-0.724,0.589-1.311,1.311-1.311h15.076c0.724,0,1.311,0.589,1.311,1.311c0,0.724-0.589,1.311-1.311,1.311h-15.076
	C207.434,109.005,206.846,108.417,206.846,107.693z"/>
<path fill="#5D73A2" d="M244.025,77.453c-2.627,0-4.764,2.137-4.764,4.763c0,2.627,2.137,4.764,4.764,4.764s4.764-2.137,4.764-4.764
	C248.788,79.589,246.651,77.452,244.025,77.453z M244.025,81.037c0.65,0,1.179,0.529,1.179,1.179s-0.529,1.18-1.179,1.18
	s-1.179-0.529-1.179-1.18C242.845,81.566,243.374,81.037,244.025,81.037z"/>
<path fill="#5D73A2" d="M187.143,86.98c2.627,0,4.764-2.137,4.764-4.764s-2.137-4.763-4.764-4.763s-4.764,2.137-4.764,4.763
	C182.379,84.843,184.516,86.98,187.143,86.98z M187.143,83.396c-0.65,0-1.179-0.529-1.179-1.18s0.529-1.179,1.179-1.179
	s1.179,0.529,1.179,1.179C188.323,82.866,187.793,83.396,187.143,83.396z"/>
<path fill="#5D73A2" d="M244.025,136.714c2.627,0,4.764-2.137,4.764-4.764s-2.137-4.763-4.764-4.763s-4.764,2.137-4.764,4.763
	S241.398,136.714,244.025,136.714z M244.025,133.129c-0.65,0-1.179-0.529-1.179-1.179s0.529-1.179,1.179-1.179
	s1.179,0.529,1.179,1.179S244.675,133.129,244.025,133.129z"/>
<path fill="#5D73A2" d="M187.143,136.714c2.627,0,4.764-2.137,4.764-4.764s-2.137-4.763-4.764-4.763s-4.764,2.137-4.764,4.763
	S184.516,136.714,187.143,136.714z M187.143,133.129c-0.65,0-1.179-0.529-1.179-1.179s0.529-1.179,1.179-1.179
	s1.179,0.529,1.179,1.179S187.793,133.129,187.143,133.129z"/>
<g transform="translate(1 1)">
	<g>
		<path fill="#F1F2F3" d="M237.118,204.418v71.684c0,1.461,1.062,2.655,2.257,2.655h45.798c1.327,0,2.257-1.195,2.257-2.655v-71.684
			c0-1.461-1.062-2.655-2.257-2.655h-45.798C238.18,201.764,237.118,202.958,237.118,204.418"/>
	</g>
	<path fill="#FFFFFF" d="M237.118,276.103v-71.684c0-1.461,1.062-2.655,2.257-2.655h-3.584c-1.461,0-2.655,1.195-2.655,2.655v71.684
		c0,1.461,1.195,2.655,2.655,2.655h3.584C238.18,278.758,237.118,277.563,237.118,276.103"/>
	<path fill="#3BDDBA" d="M288.89,201.764h-3.584c1.327,0,2.257,1.195,2.257,2.655v71.684c0,1.461-1.062,2.655-2.257,2.655h3.584
		c1.461,0,2.655-1.195,2.655-2.655v-71.684C291.544,202.958,290.35,201.764,288.89,201.764"/>
	<g>
		<path fill="#54C9FD" d="M283.58,228.313v-6.372c0-3.717-2.92-6.637-6.637-6.637c-3.717,0-6.637,2.92-6.637,6.637v6.372H283.58
			L283.58,228.313z"/>
		<path fill="#54C9FD" d="M276.943,215.304c-2.257,0-3.982-1.725-3.982-3.982s1.725-3.983,3.982-3.983s3.982,1.725,3.982,3.983
			S279.199,215.304,276.943,215.304"/>
	</g>
	<path fill="#5D73A2" d="M276.943,216.632c-2.92,0-5.31-2.389-5.31-5.31c0-2.92,2.389-5.31,5.31-5.31c2.92,0,5.31,2.389,5.31,5.31
		C282.252,214.242,279.862,216.632,276.943,216.632z M276.943,208.667c-1.461,0-2.655,1.195-2.655,2.655
		c0,1.46,1.195,2.655,2.655,2.655c1.461,0,2.655-1.195,2.655-2.655C279.598,209.862,278.403,208.667,276.943,208.667z"/>
	<path fill="#5D73A2" d="M283.58,229.64h-13.274c-0.797,0-1.327-0.531-1.327-1.327v-6.372c0-4.381,3.584-7.965,7.965-7.965
		s7.965,3.584,7.965,7.965v6.372C284.907,229.11,284.376,229.64,283.58,229.64z M271.633,226.986h10.62v-5.045
		c0-2.92-2.389-5.309-5.31-5.309c-2.92,0-5.31,2.389-5.31,5.309L271.633,226.986L271.633,226.986z"/>
	<path fill="#5D73A2" d="M288.89,280.085H235.79c-2.257,0-3.982-1.725-3.982-3.983v-71.684c0-2.257,1.725-3.982,3.982-3.982h53.099
		c2.257,0,3.982,1.725,3.982,3.982v5.31c0,0.797-0.531,1.327-1.327,1.327c-0.796,0-1.327-0.531-1.327-1.327v-5.31
		c0-0.797-0.531-1.327-1.327-1.327h-53.099c-0.797,0-1.327,0.531-1.327,1.327v71.684c0,0.797,0.531,1.327,1.327,1.327h53.099
		c0.797,0,1.327-0.531,1.327-1.327v-55.754c0-0.797,0.531-1.327,1.327-1.327c0.796,0,1.327,0.531,1.327,1.327v55.754
		C292.872,278.36,291.146,280.085,288.89,280.085z"/>
	<path fill="#5D73A2" d="M292.872,215.039c0-0.797-0.531-1.327-1.327-1.327c-0.797,0-1.327,0.531-1.327,1.327
		s0.531,1.327,1.327,1.327C292.341,216.366,292.872,215.836,292.872,215.039"/>
	<path fill="#5D73A2" d="M250.392,213.711h-9.292c-0.797,0-1.327-0.531-1.327-1.327c0-0.797,0.531-1.327,1.327-1.327h9.292
		c0.797,0,1.327,0.531,1.327,1.327C251.72,213.18,251.189,213.711,250.392,213.711z"/>
	<path fill="#5D73A2" d="M250.392,224.331h-9.292c-0.797,0-1.327-0.531-1.327-1.327s0.531-1.327,1.327-1.327h9.292
		c0.797,0,1.327,0.531,1.327,1.327C251.72,223.8,251.189,224.331,250.392,224.331z"/>
	<path fill="#5D73A2" d="M257.03,213.711h-1.327c-0.797,0-1.327-0.531-1.327-1.327c0-0.797,0.531-1.327,1.327-1.327h1.327
		c0.797,0,1.327,0.531,1.327,1.327C258.357,213.18,257.826,213.711,257.03,213.711z"/>
	<path fill="#5D73A2" d="M262.34,219.022h-6.637c-0.797,0-1.327-0.531-1.327-1.327s0.531-1.327,1.327-1.327h6.637
		c0.797,0,1.327,0.531,1.327,1.327S263.137,219.022,262.34,219.022z"/>
	<path fill="#5D73A2" d="M257.03,224.331h-1.327c-0.797,0-1.327-0.531-1.327-1.327s0.531-1.327,1.327-1.327h1.327
		c0.797,0,1.327,0.531,1.327,1.327C258.357,223.8,257.826,224.331,257.03,224.331z"/>
	<path fill="#5D73A2" d="M262.34,229.64h-6.637c-0.797,0-1.327-0.531-1.327-1.327s0.531-1.327,1.327-1.327h6.637
		c0.797,0,1.327,0.531,1.327,1.327C263.668,229.11,263.137,229.64,262.34,229.64z"/>
</g>
<g>
	<path fill="#8697CB" d="M141.215,243.57h-13.833c-0.588,0-1.064-0.5-1.064-1.118c0-0.619,0.476-1.118,1.064-1.118h13.833
		c0.588,0,1.064,0.5,1.064,1.118C142.279,243.07,141.804,243.57,141.215,243.57z"/>
	<path fill="#F0C419" d="M156.112,243.57h-10.641c-0.589,0-1.064-0.5-1.064-1.118c0-0.619,0.476-1.118,1.064-1.118h10.641
		c0.589,0,1.064,0.5,1.064,1.118C157.176,243.07,156.7,243.57,156.112,243.57z"/>
	<path fill="#4FBA6F" d="M162.496,243.57h-2.128c-0.589,0-1.064-0.5-1.064-1.118c0-0.619,0.476-1.118,1.064-1.118h2.128
		c0.588,0,1.064,0.5,1.064,1.118C163.56,243.07,163.084,243.57,162.496,243.57z"/>
	<path fill="#8697CB" d="M167.817,248.044h-15.961c-0.588,0-1.064-0.5-1.064-1.118c0-0.619,0.476-1.118,1.064-1.118h15.961
		c0.588,0,1.064,0.5,1.064,1.118C168.88,247.545,168.404,248.044,167.817,248.044z"/>
	<path fill="#E64C3C" d="M147.6,248.044h-14.896c-0.588,0-1.064-0.5-1.064-1.118c0-0.619,0.476-1.118,1.064-1.118H147.6
		c0.588,0,1.064,0.5,1.064,1.118C148.663,247.545,148.188,248.044,147.6,248.044z"/>
	<path fill="#E64C3C" d="M128.447,248.044h-1.064c-0.588,0-1.064-0.5-1.064-1.118c0-0.619,0.476-1.118,1.064-1.118h1.064
		c0.588,0,1.064,0.5,1.064,1.118C129.51,247.545,129.035,248.044,128.447,248.044z"/>
	<path fill="#8697CB" d="M136.959,252.518h-9.577c-0.588,0-1.064-0.5-1.064-1.118c0-0.619,0.476-1.118,1.064-1.118h9.577
		c0.588,0,1.064,0.5,1.064,1.118C138.023,252.018,137.547,252.518,136.959,252.518z"/>
	<path fill="#F0C419" d="M143.343,252.518h-2.128c-0.588,0-1.064-0.5-1.064-1.118c0-0.619,0.476-1.118,1.064-1.118h2.128
		c0.588,0,1.064,0.5,1.064,1.118C144.407,252.018,143.932,252.518,143.343,252.518z"/>
	<path fill="#4FBA6F" d="M162.496,252.518H147.6c-0.588,0-1.064-0.5-1.064-1.118c0-0.619,0.476-1.118,1.064-1.118h14.896
		c0.588,0,1.064,0.5,1.064,1.118C163.56,252.018,163.084,252.518,162.496,252.518z"/>
	<path fill="#F0C419" d="M141.215,256.991h-13.833c-0.588,0-1.064-0.5-1.064-1.118c0-0.619,0.476-1.118,1.064-1.118h13.833
		c0.588,0,1.064,0.5,1.064,1.118C142.279,256.492,141.804,256.991,141.215,256.991z"/>
	<path fill="#4FBA6F" d="M156.112,256.991h-10.641c-0.589,0-1.064-0.5-1.064-1.118c0-0.619,0.476-1.118,1.064-1.118h10.641
		c0.589,0,1.064,0.5,1.064,1.118C157.176,256.492,156.7,256.991,156.112,256.991z"/>
	<path fill="#F0C419" d="M160.368,261.466h-8.512c-0.588,0-1.064-0.5-1.064-1.118s0.476-1.118,1.064-1.118h8.512
		c0.589,0,1.064,0.5,1.064,1.118S160.957,261.466,160.368,261.466z"/>
	<path fill="#8697CB" d="M147.6,261.466h-14.896c-0.588,0-1.064-0.5-1.064-1.118s0.476-1.118,1.064-1.118H147.6
		c0.588,0,1.064,0.5,1.064,1.118C148.663,260.966,148.188,261.466,147.6,261.466z"/>
	<path fill="#4FBA6F" d="M128.447,261.466h-1.064c-0.588,0-1.064-0.5-1.064-1.118s0.476-1.118,1.064-1.118h1.064
		c0.588,0,1.064,0.5,1.064,1.118C129.51,260.966,129.035,261.466,128.447,261.466z"/>
	<path fill="#F0C419" d="M136.959,265.94h-9.577c-0.588,0-1.064-0.5-1.064-1.118c0-0.619,0.476-1.118,1.064-1.118h9.577
		c0.588,0,1.064,0.5,1.064,1.118C138.023,265.439,137.547,265.94,136.959,265.94z"/>
	<path fill="#8697CB" d="M143.343,265.94h-2.128c-0.588,0-1.064-0.5-1.064-1.118c0-0.619,0.476-1.118,1.064-1.118h2.128
		c0.588,0,1.064,0.5,1.064,1.118C144.407,265.439,143.932,265.94,143.343,265.94z"/>
	<path fill="#E64C3C" d="M163.56,265.94H147.6c-0.588,0-1.064-0.5-1.064-1.118c0-0.619,0.476-1.118,1.064-1.118h15.961
		c0.588,0,1.064,0.5,1.064,1.118C164.625,265.439,164.149,265.94,163.56,265.94z"/>
</g>
<g>
	<path fill="#8697CB" d="M255.223,243.447h-13.102c-0.558,0-1.008-0.451-1.008-1.008c0-0.558,0.45-1.008,1.008-1.008h13.102
		c0.558,0,1.008,0.451,1.008,1.008S255.781,243.447,255.223,243.447z"/>
	<path fill="#F0C419" d="M269.333,243.447h-10.078c-0.558,0-1.008-0.451-1.008-1.008c0-0.558,0.45-1.008,1.008-1.008h10.078
		c0.558,0,1.008,0.451,1.008,1.008S269.891,243.447,269.333,243.447z"/>
	<path fill="#4FBA6F" d="M275.38,243.447h-2.015c-0.558,0-1.008-0.451-1.008-1.008c0-0.558,0.45-1.008,1.008-1.008h2.015
		c0.558,0,1.008,0.451,1.008,1.008C276.389,242.997,275.938,243.447,275.38,243.447z"/>
	<path fill="#8697CB" d="M280.419,247.479h-15.118c-0.558,0-1.008-0.451-1.008-1.008c0-0.558,0.45-1.008,1.008-1.008h15.118
		c0.558,0,1.008,0.451,1.008,1.008C281.428,247.028,280.977,247.479,280.419,247.479z"/>
	<path fill="#E64C3C" d="M261.27,247.479h-14.11c-0.558,0-1.008-0.451-1.008-1.008c0-0.558,0.45-1.008,1.008-1.008h14.11
		c0.558,0,1.008,0.451,1.008,1.008C262.279,247.028,261.828,247.479,261.27,247.479z"/>
	<path fill="#E64C3C" d="M243.13,247.479h-1.008c-0.558,0-1.008-0.451-1.008-1.008c0-0.558,0.45-1.008,1.008-1.008h1.008
		c0.558,0,1.008,0.451,1.008,1.008C244.137,247.028,243.686,247.479,243.13,247.479z"/>
	<path fill="#8697CB" d="M251.192,251.51h-9.071c-0.558,0-1.008-0.451-1.008-1.008c0-0.558,0.45-1.008,1.008-1.008h9.071
		c0.558,0,1.008,0.451,1.008,1.008C252.2,251.059,251.749,251.51,251.192,251.51z"/>
	<path fill="#F0C419" d="M257.24,251.51h-2.015c-0.558,0-1.008-0.451-1.008-1.008c0-0.558,0.45-1.008,1.008-1.008h2.015
		c0.558,0,1.008,0.451,1.008,1.008C258.247,251.059,257.796,251.51,257.24,251.51z"/>
	<path fill="#4FBA6F" d="M275.38,251.51h-14.11c-0.558,0-1.008-0.451-1.008-1.008c0-0.558,0.45-1.008,1.008-1.008h14.11
		c0.558,0,1.008,0.451,1.008,1.008C276.389,251.059,275.938,251.51,275.38,251.51z"/>
	<path fill="#F0C419" d="M255.223,255.542h-13.102c-0.558,0-1.008-0.451-1.008-1.008c0-0.558,0.45-1.008,1.008-1.008h13.102
		c0.558,0,1.008,0.451,1.008,1.008C256.231,255.091,255.781,255.542,255.223,255.542z"/>
	<path fill="#4FBA6F" d="M269.333,255.542h-10.078c-0.558,0-1.008-0.451-1.008-1.008c0-0.558,0.45-1.008,1.008-1.008h10.078
		c0.558,0,1.008,0.451,1.008,1.008C270.341,255.091,269.891,255.542,269.333,255.542z"/>
	<path fill="#F0C419" d="M273.365,259.573h-8.063c-0.558,0-1.008-0.451-1.008-1.008c0-0.558,0.451-1.008,1.008-1.008h8.063
		c0.558,0,1.008,0.451,1.008,1.008C274.372,259.122,273.923,259.573,273.365,259.573z"/>
	<path fill="#8697CB" d="M261.27,259.573h-14.11c-0.558,0-1.008-0.451-1.008-1.008c0-0.558,0.45-1.008,1.008-1.008h14.11
		c0.558,0,1.008,0.451,1.008,1.008C262.279,259.122,261.828,259.573,261.27,259.573z"/>
	<path fill="#4FBA6F" d="M243.13,259.573h-1.008c-0.558,0-1.008-0.451-1.008-1.008c0-0.558,0.45-1.008,1.008-1.008h1.008
		c0.558,0,1.008,0.451,1.008,1.008C244.137,259.122,243.686,259.573,243.13,259.573z"/>
	<path fill="#F0C419" d="M251.192,263.604h-9.071c-0.558,0-1.008-0.451-1.008-1.008c0-0.558,0.45-1.008,1.008-1.008h9.071
		c0.558,0,1.008,0.451,1.008,1.008C252.2,263.154,251.749,263.604,251.192,263.604z"/>
	<path fill="#8697CB" d="M257.24,263.604h-2.015c-0.558,0-1.008-0.451-1.008-1.008c0-0.558,0.45-1.008,1.008-1.008h2.015
		c0.558,0,1.008,0.451,1.008,1.008C258.247,263.154,257.796,263.604,257.24,263.604z"/>
	<path fill="#E64C3C" d="M276.389,263.604H261.27c-0.558,0-1.008-0.451-1.008-1.008c0-0.558,0.451-1.008,1.008-1.008h15.118
		c0.558,0,1.008,0.451,1.008,1.008C277.396,263.154,276.945,263.604,276.389,263.604z"/>
</g>
<polyline fill="none" stroke="#BAD9FF" stroke-width="3" stroke-linecap="round" stroke-linejoin="round" stroke-miterlimit="10" stroke-dasharray="0,0,0,6" points="
	147.868,200.214 147.868,177.709 262.685,177.709 262.685,201.436 "/>
<g>
	<g>
		
			<line fill="none" stroke="#5D73A2" stroke-width="2" stroke-linecap="round" stroke-linejoin="round" stroke-dasharray="6,6,6,6,6,6" x1="302.521" y1="154.057" x2="403.81" y2="154.057"/>
		<g>
			<polygon fill="#5D73A2" points="397.183,162.237 395.818,160.772 403.042,154.059 395.818,147.344 397.183,145.879 
				405.979,154.059 			"/>
		</g>
	</g>
</g>
<g>
	<g>
		
			<line fill="none" stroke="#5D73A2" stroke-width="2" stroke-linecap="round" stroke-linejoin="round" stroke-dasharray="6,6,6,6,6,6" x1="0.137" y1="154.057" x2="101.426" y2="154.057"/>
		<g>
			<polygon fill="#5D73A2" points="94.799,162.237 93.435,160.772 100.659,154.059 93.435,147.344 94.799,145.879 103.595,154.059 
							"/>
		</g>
	</g>
</g>
</svg>
