<?xml version="1.0" encoding="utf-8"?>
<!-- Generator: Adobe Illustrator 17.0.0, SVG Export Plug-In . SVG Version: 6.00 Build 0)  -->
<!DOCTYPE svg PUBLIC "-//W3C//DTD SVG 1.1//EN" "http://www.w3.org/Graphics/SVG/1.1/DTD/svg11.dtd">
<svg version="1.1" xmlns="http://www.w3.org/2000/svg" xmlns:xlink="http://www.w3.org/1999/xlink" x="0px" y="0px" width="300px"
	 height="300px" viewBox="0 0 300 300" enable-background="new 0 0 300 300" xml:space="preserve">
<g id="sheets">
	<g transform="translate(1 1)">
		<g>
			<path fill="#F1F2F3" d="M49.002,208.046v73.573c0,1.499,1.091,2.724,2.317,2.724h47.005c1.362,0,2.317-1.226,2.317-2.724v-73.573
				c0-1.499-1.091-2.724-2.317-2.724H51.319C50.092,205.321,49.002,206.547,49.002,208.046"/>
		</g>
		<path fill="#FFFFFF" d="M49.002,281.617v-73.573c0-1.499,1.091-2.724,2.317-2.724H47.64c-1.499,0-2.724,1.226-2.724,2.724v73.573
			c0,1.499,1.226,2.724,2.724,2.724h3.678C50.092,284.344,49.002,283.116,49.002,281.617"/>
		<path fill="#3BDDBA" d="M102.137,205.321h-3.678c1.362,0,2.317,1.226,2.317,2.724v73.573c0,1.499-1.091,2.724-2.317,2.724h3.678
			c1.499,0,2.724-1.226,2.724-2.724v-73.573C104.862,206.547,103.636,205.321,102.137,205.321"/>
		<g>
			<path fill="#54C9FD" d="M96.688,232.57v-6.539c0-3.815-2.997-6.812-6.812-6.812s-6.812,2.997-6.812,6.812v6.539H96.688
				L96.688,232.57z"/>
			<path fill="#54C9FD" d="M89.876,219.217c-2.317,0-4.088-1.771-4.088-4.088s1.771-4.088,4.088-4.088
				c2.317,0,4.088,1.771,4.088,4.088S92.192,219.217,89.876,219.217"/>
		</g>
		<path fill="#5D73A2" d="M89.876,220.58c-2.997,0-5.45-2.452-5.45-5.45c0-2.997,2.452-5.45,5.45-5.45
			c2.997,0,5.449,2.452,5.449,5.45C95.325,218.127,92.873,220.58,89.876,220.58z M89.876,212.405c-1.499,0-2.724,1.226-2.724,2.724
			c0,1.498,1.226,2.724,2.724,2.724c1.499,0,2.724-1.226,2.724-2.724C92.6,213.631,91.374,212.405,89.876,212.405z"/>
		<path fill="#5D73A2" d="M96.688,233.932H83.063c-0.818,0-1.362-0.545-1.362-1.362v-6.539c0-4.496,3.678-8.174,8.174-8.174
			s8.174,3.678,8.174,8.174v6.539C98.05,233.388,97.506,233.932,96.688,233.932z M84.425,231.207h10.899v-5.177
			c0-2.997-2.452-5.449-5.45-5.449c-2.997,0-5.45,2.452-5.45,5.449V231.207L84.425,231.207z"/>
		<path fill="#5D73A2" d="M102.137,285.705H47.639c-2.316,0-4.088-1.771-4.088-4.088v-73.573c0-2.317,1.771-4.088,4.088-4.088
			h54.499c2.317,0,4.088,1.771,4.088,4.088v5.45c0,0.818-0.545,1.362-1.362,1.362c-0.818,0-1.362-0.545-1.362-1.362v-5.45
			c0-0.818-0.545-1.362-1.362-1.362H47.641c-0.818,0-1.362,0.545-1.362,1.362v73.573c0,0.818,0.545,1.362,1.362,1.362h54.499
			c0.818,0,1.362-0.545,1.362-1.362v-57.222c0-0.818,0.545-1.362,1.362-1.362c0.818,0,1.362,0.545,1.362,1.362v57.223
			C106.225,283.934,104.453,285.705,102.137,285.705z"/>
		<path fill="#5D73A2" d="M106.225,218.945c0-0.818-0.545-1.362-1.362-1.362c-0.818,0-1.362,0.545-1.362,1.362
			c0,0.817,0.545,1.362,1.362,1.362C105.679,220.307,106.225,219.763,106.225,218.945"/>
		<path fill="#5D73A2" d="M62.626,217.583h-9.537c-0.818,0-1.362-0.545-1.362-1.362c0-0.818,0.545-1.362,1.362-1.362h9.537
			c0.818,0,1.362,0.545,1.362,1.362C63.989,217.038,63.442,217.583,62.626,217.583z"/>
		<path fill="#5D73A2" d="M62.626,228.483h-9.537c-0.818,0-1.362-0.545-1.362-1.362c0-0.817,0.545-1.362,1.362-1.362h9.537
			c0.818,0,1.362,0.545,1.362,1.362C63.989,227.937,63.442,228.483,62.626,228.483z"/>
		<path fill="#5D73A2" d="M69.439,217.583h-1.362c-0.818,0-1.362-0.545-1.362-1.362c0-0.818,0.545-1.362,1.362-1.362h1.362
			c0.818,0,1.362,0.545,1.362,1.362C70.801,217.038,70.256,217.583,69.439,217.583z"/>
		<path fill="#5D73A2" d="M74.889,223.033h-6.812c-0.818,0-1.362-0.545-1.362-1.362s0.545-1.362,1.362-1.362h6.812
			c0.818,0,1.362,0.545,1.362,1.362C76.25,222.488,75.706,223.033,74.889,223.033z"/>
		<path fill="#5D73A2" d="M69.439,228.483h-1.362c-0.818,0-1.362-0.545-1.362-1.362c0-0.817,0.545-1.362,1.362-1.362h1.362
			c0.818,0,1.362,0.545,1.362,1.362C70.801,227.937,70.256,228.483,69.439,228.483z"/>
		<path fill="#5D73A2" d="M74.889,233.932h-6.812c-0.818,0-1.362-0.545-1.362-1.362s0.545-1.362,1.362-1.362h6.812
			c0.818,0,1.362,0.545,1.362,1.362C76.25,233.388,75.706,233.932,74.889,233.932z"/>
	</g>
	<g transform="translate(1 1)">
		<g>
			<path fill="#F1F2F3" d="M165.754,208.054v73.754c0,1.503,1.092,2.732,2.323,2.732h47.121c1.365,0,2.323-1.229,2.323-2.732
				v-73.754c0-1.503-1.092-2.732-2.323-2.732h-47.121C166.847,205.324,165.754,206.553,165.754,208.054"/>
		</g>
		<path fill="#FFFFFF" d="M165.754,281.81v-73.754c0-1.503,1.092-2.732,2.323-2.732h-3.688c-1.503,0-2.732,1.229-2.732,2.732v73.754
			c0,1.503,1.229,2.732,2.732,2.732h3.688C166.847,284.542,165.754,283.312,165.754,281.81"/>
		<path fill="#3BDDBA" d="M219.02,205.324h-3.688c1.365,0,2.323,1.229,2.323,2.732v73.754c0,1.503-1.092,2.732-2.323,2.732h3.688
			c1.503,0,2.732-1.229,2.732-2.732v-73.754C221.752,206.553,220.524,205.324,219.02,205.324"/>
		<g>
			<path fill="#54C9FD" d="M213.558,232.64v-6.557c0-3.824-3.005-6.829-6.829-6.829s-6.829,3.005-6.829,6.829v6.556H213.558
				L213.558,232.64z"/>
			<path fill="#54C9FD" d="M206.73,219.255c-2.323,0-4.097-1.774-4.097-4.097s1.774-4.098,4.097-4.098
				c2.323,0,4.097,1.774,4.097,4.098C210.827,217.482,209.05,219.255,206.73,219.255"/>
		</g>
		<path fill="#5D73A2" d="M206.73,220.621c-3.005,0-5.463-2.458-5.463-5.463c0-3.005,2.458-5.463,5.463-5.463
			c3.005,0,5.463,2.458,5.463,5.463C212.192,218.163,209.732,220.621,206.73,220.621z M206.73,212.426
			c-1.503,0-2.732,1.229-2.732,2.732c0,1.502,1.229,2.732,2.732,2.732s2.732-1.229,2.732-2.732
			C209.461,213.656,208.231,212.426,206.73,212.426z"/>
		<path fill="#5D73A2" d="M213.558,234.005h-13.657c-0.82,0-1.365-0.546-1.365-1.365v-6.557c0-4.507,3.688-8.195,8.195-8.195
			s8.195,3.688,8.195,8.195v6.557C214.924,233.46,214.377,234.005,213.558,234.005z M201.266,231.275h10.926v-5.19
			c0-3.005-2.458-5.462-5.463-5.462c-3.005,0-5.463,2.458-5.463,5.462V231.275L201.266,231.275z"/>
		<path fill="#5D73A2" d="M219.02,285.907h-54.632c-2.323,0-4.097-1.774-4.097-4.098v-73.754c0-2.323,1.774-4.097,4.097-4.097
			h54.632c2.323,0,4.097,1.774,4.097,4.097v5.463c0,0.82-0.546,1.365-1.365,1.365s-1.365-0.546-1.365-1.365v-5.463
			c0-0.82-0.546-1.365-1.365-1.365H164.39c-0.82,0-1.365,0.546-1.365,1.365v73.754c0,0.82,0.546,1.365,1.365,1.365h54.632
			c0.82,0,1.365-0.546,1.365-1.365v-57.364c0-0.82,0.546-1.365,1.365-1.365s1.365,0.546,1.365,1.365v57.364
			C223.118,284.132,221.343,285.907,219.02,285.907z"/>
		<path fill="#5D73A2" d="M223.118,218.983c0-0.82-0.546-1.365-1.365-1.365c-0.82,0-1.365,0.546-1.365,1.365
			s0.546,1.365,1.365,1.365C222.572,220.348,223.118,219.802,223.118,218.983"/>
		<path fill="#5D73A2" d="M179.411,217.617h-9.56c-0.82,0-1.365-0.546-1.365-1.365c0-0.82,0.546-1.365,1.365-1.365h9.56
			c0.82,0,1.365,0.546,1.365,1.365C180.778,217.069,180.232,217.617,179.411,217.617z"/>
		<path fill="#5D73A2" d="M179.411,228.543h-9.56c-0.82,0-1.365-0.546-1.365-1.365s0.546-1.365,1.365-1.365h9.56
			c0.82,0,1.365,0.546,1.365,1.365C180.778,227.997,180.232,228.543,179.411,228.543z"/>
		<path fill="#5D73A2" d="M186.24,217.617h-1.365c-0.82,0-1.365-0.546-1.365-1.365c0-0.82,0.546-1.365,1.365-1.365h1.365
			c0.82,0,1.365,0.546,1.365,1.365C187.606,217.069,187.06,217.617,186.24,217.617z"/>
		<path fill="#5D73A2" d="M191.704,223.081h-6.829c-0.82,0-1.365-0.546-1.365-1.365s0.546-1.365,1.365-1.365h6.829
			c0.82,0,1.365,0.546,1.365,1.365C193.07,222.534,192.523,223.081,191.704,223.081z"/>
		<path fill="#5D73A2" d="M186.24,228.543h-1.365c-0.82,0-1.365-0.546-1.365-1.365s0.546-1.365,1.365-1.365h1.365
			c0.82,0,1.365,0.546,1.365,1.365C187.606,227.997,187.06,228.543,186.24,228.543z"/>
		<path fill="#5D73A2" d="M191.704,234.005h-6.829c-0.82,0-1.365-0.546-1.365-1.365s0.546-1.365,1.365-1.365h6.829
			c0.82,0,1.365,0.546,1.365,1.365C193.071,233.46,192.523,234.005,191.704,234.005z"/>
	</g>
	<g>
		<path fill="#8697CB" d="M67.053,248.308H52.821c-0.605,0-1.094-0.515-1.094-1.15c0-0.637,0.49-1.15,1.094-1.15h14.232
			c0.605,0,1.094,0.515,1.094,1.15C68.146,247.794,67.658,248.308,67.053,248.308z"/>
		<path fill="#F0C419" d="M82.38,248.308H71.432c-0.605,0-1.094-0.515-1.094-1.15c0-0.637,0.49-1.15,1.094-1.15H82.38
			c0.605,0,1.094,0.515,1.094,1.15S82.985,248.308,82.38,248.308z"/>
		<path fill="#4FBA6F" d="M88.948,248.308h-2.19c-0.605,0-1.094-0.515-1.094-1.15c0-0.637,0.49-1.15,1.094-1.15h2.19
			c0.605,0,1.094,0.515,1.094,1.15S89.553,248.308,88.948,248.308z"/>
		<path fill="#8697CB" d="M94.423,252.911H78.001c-0.605,0-1.094-0.515-1.094-1.15c0-0.637,0.49-1.15,1.094-1.15h16.422
			c0.605,0,1.094,0.515,1.094,1.15C95.516,252.399,95.027,252.911,94.423,252.911z"/>
		<path fill="#E64C3C" d="M73.621,252.911H58.295c-0.605,0-1.094-0.515-1.094-1.15c0-0.637,0.49-1.15,1.094-1.15h15.327
			c0.605,0,1.094,0.515,1.094,1.15C74.716,252.399,74.227,252.911,73.621,252.911z"/>
		<path fill="#E64C3C" d="M53.915,252.911h-1.094c-0.605,0-1.094-0.515-1.094-1.15c0-0.637,0.49-1.15,1.094-1.15h1.094
			c0.605,0,1.094,0.515,1.094,1.15C55.01,252.399,54.522,252.911,53.915,252.911z"/>
		<path fill="#8697CB" d="M62.673,257.515H52.82c-0.605,0-1.094-0.515-1.094-1.15c0-0.637,0.49-1.15,1.094-1.15h9.854
			c0.605,0,1.094,0.515,1.094,1.15C63.769,257.001,63.279,257.515,62.673,257.515z"/>
		<path fill="#F0C419" d="M69.243,257.515h-2.19c-0.605,0-1.094-0.515-1.094-1.15c0-0.637,0.49-1.15,1.094-1.15h2.19
			c0.605,0,1.094,0.515,1.094,1.15C70.337,257,69.847,257.515,69.243,257.515z"/>
		<path fill="#4FBA6F" d="M88.948,257.515H73.621c-0.605,0-1.094-0.515-1.094-1.15c0-0.637,0.49-1.15,1.094-1.15h15.327
			c0.605,0,1.094,0.515,1.094,1.15C90.043,257.001,89.553,257.515,88.948,257.515z"/>
		<path fill="#F0C419" d="M67.053,262.117H52.821c-0.605,0-1.094-0.515-1.094-1.15c0-0.637,0.49-1.15,1.094-1.15h14.232
			c0.605,0,1.094,0.515,1.094,1.15C68.146,261.604,67.658,262.117,67.053,262.117z"/>
		<path fill="#4FBA6F" d="M82.38,262.117H71.432c-0.605,0-1.094-0.515-1.094-1.15c0-0.637,0.49-1.15,1.094-1.15H82.38
			c0.605,0,1.094,0.515,1.094,1.15C83.475,261.604,82.985,262.117,82.38,262.117z"/>
		<path fill="#F0C419" d="M86.759,266.722h-8.758c-0.605,0-1.094-0.515-1.094-1.151s0.49-1.15,1.094-1.15h8.758
			c0.605,0,1.094,0.515,1.094,1.15C87.854,266.207,87.364,266.722,86.759,266.722z"/>
		<path fill="#8697CB" d="M73.621,266.722H58.295c-0.605,0-1.094-0.515-1.094-1.151s0.49-1.15,1.094-1.15h15.327
			c0.605,0,1.094,0.515,1.094,1.15C74.716,266.207,74.227,266.722,73.621,266.722z"/>
		<path fill="#4FBA6F" d="M53.915,266.722h-1.094c-0.605,0-1.094-0.515-1.094-1.151s0.49-1.15,1.094-1.15h1.094
			c0.605,0,1.094,0.515,1.094,1.15C55.01,266.207,54.522,266.722,53.915,266.722z"/>
		<path fill="#F0C419" d="M62.673,271.325H52.82c-0.605,0-1.094-0.515-1.094-1.151c0-0.637,0.49-1.15,1.094-1.15h9.854
			c0.605,0,1.094,0.515,1.094,1.15C63.769,270.809,63.279,271.325,62.673,271.325z"/>
		<path fill="#8697CB" d="M69.243,271.325h-2.19c-0.605,0-1.094-0.515-1.094-1.151c0-0.637,0.49-1.15,1.094-1.15h2.19
			c0.605,0,1.094,0.515,1.094,1.15C70.337,270.809,69.847,271.325,69.243,271.325z"/>
		<path fill="#E64C3C" d="M90.043,271.325H73.621c-0.605,0-1.094-0.515-1.094-1.151c0-0.637,0.49-1.15,1.094-1.15h16.422
			c0.605,0,1.094,0.515,1.094,1.15C91.138,270.809,90.649,271.325,90.043,271.325z"/>
	</g>
	<g>
		<path fill="#8697CB" d="M184.353,248.182h-13.48c-0.574,0-1.037-0.464-1.037-1.037c0-0.574,0.463-1.037,1.037-1.037h13.48
			c0.574,0,1.037,0.464,1.037,1.037C185.39,247.718,184.927,248.182,184.353,248.182z"/>
		<path fill="#F0C419" d="M198.871,248.182h-10.369c-0.574,0-1.037-0.464-1.037-1.037c0-0.574,0.463-1.037,1.037-1.037h10.369
			c0.574,0,1.037,0.464,1.037,1.037C199.908,247.718,199.445,248.182,198.871,248.182z"/>
		<path fill="#4FBA6F" d="M205.092,248.182h-2.073c-0.574,0-1.037-0.464-1.037-1.037c0-0.574,0.463-1.037,1.037-1.037h2.073
			c0.574,0,1.037,0.464,1.037,1.037C206.129,247.719,205.666,248.182,205.092,248.182z"/>
		<path fill="#8697CB" d="M210.277,252.331h-15.554c-0.574,0-1.037-0.464-1.037-1.037c0-0.574,0.463-1.037,1.037-1.037h15.554
			c0.574,0,1.037,0.464,1.037,1.037C211.314,251.867,210.851,252.331,210.277,252.331z"/>
		<path fill="#E64C3C" d="M190.575,252.331h-14.517c-0.574,0-1.037-0.464-1.037-1.037c0-0.574,0.463-1.037,1.037-1.037h14.517
			c0.574,0,1.037,0.464,1.037,1.037C191.612,251.867,191.149,252.331,190.575,252.331z"/>
		<path fill="#E64C3C" d="M171.91,252.331h-1.037c-0.574,0-1.037-0.464-1.037-1.037c0-0.574,0.464-1.037,1.037-1.037h1.037
			c0.574,0,1.037,0.464,1.037,1.037C172.947,251.867,172.483,252.331,171.91,252.331z"/>
		<path fill="#8697CB" d="M180.206,256.478h-9.333c-0.574,0-1.037-0.464-1.037-1.037c0-0.574,0.463-1.037,1.037-1.037h9.333
			c0.574,0,1.037,0.464,1.037,1.037C181.242,256.014,180.779,256.478,180.206,256.478z"/>
		<path fill="#F0C419" d="M186.427,256.478h-2.073c-0.574,0-1.037-0.464-1.037-1.037c0-0.574,0.463-1.037,1.037-1.037h2.073
			c0.574,0,1.037,0.464,1.037,1.037C187.464,256.014,187,256.478,186.427,256.478z"/>
		<path fill="#4FBA6F" d="M205.092,256.478h-14.517c-0.574,0-1.037-0.464-1.037-1.037c0-0.574,0.463-1.037,1.037-1.037h14.517
			c0.574,0,1.037,0.464,1.037,1.037C206.129,256.014,205.666,256.478,205.092,256.478z"/>
		<path fill="#F0C419" d="M184.353,260.626h-13.48c-0.574,0-1.037-0.464-1.037-1.037c0-0.574,0.463-1.037,1.037-1.037h13.48
			c0.574,0,1.037,0.464,1.037,1.037S184.927,260.626,184.353,260.626z"/>
		<path fill="#4FBA6F" d="M198.871,260.626h-10.369c-0.574,0-1.037-0.464-1.037-1.037c0-0.574,0.463-1.037,1.037-1.037h10.369
			c0.574,0,1.037,0.464,1.037,1.037S199.445,260.626,198.871,260.626z"/>
		<path fill="#F0C419" d="M203.019,264.773h-8.296c-0.574,0-1.037-0.464-1.037-1.037c0-0.574,0.463-1.037,1.037-1.037h8.296
			c0.574,0,1.037,0.464,1.037,1.037C204.055,264.309,203.592,264.773,203.019,264.773z"/>
		<path fill="#8697CB" d="M190.575,264.773h-14.517c-0.574,0-1.037-0.464-1.037-1.037c0-0.574,0.463-1.037,1.037-1.037h14.517
			c0.574,0,1.037,0.464,1.037,1.037S191.149,264.773,190.575,264.773z"/>
		<path fill="#4FBA6F" d="M171.91,264.773h-1.037c-0.574,0-1.037-0.464-1.037-1.037c0-0.574,0.464-1.037,1.037-1.037h1.037
			c0.574,0,1.037,0.464,1.037,1.037S172.483,264.773,171.91,264.773z"/>
		<path fill="#F0C419" d="M180.206,268.921h-9.333c-0.574,0-1.037-0.464-1.037-1.037c0-0.574,0.463-1.037,1.037-1.037h9.333
			c0.574,0,1.037,0.464,1.037,1.037C181.242,268.458,180.779,268.921,180.206,268.921z"/>
		<path fill="#8697CB" d="M186.427,268.921h-2.073c-0.574,0-1.037-0.464-1.037-1.037c0-0.574,0.463-1.037,1.037-1.037h2.073
			c0.574,0,1.037,0.464,1.037,1.037C187.464,268.458,187,268.921,186.427,268.921z"/>
		<path fill="#E64C3C" d="M206.129,268.921h-15.554c-0.574,0-1.037-0.464-1.037-1.037c0-0.574,0.463-1.037,1.037-1.037h15.554
			c0.574,0,1.037,0.464,1.037,1.037C207.166,268.458,206.702,268.921,206.129,268.921z"/>
	</g>
</g>
<g id="dotted_x5F_lines">
	
		<path fill="none" stroke="#BAD9FF" stroke-width="3" stroke-linecap="round" stroke-linejoin="round" stroke-miterlimit="10" stroke-dasharray="0,0,0,6" d="
		M159.95,161.367v24.383 M73.898,206.57v-23.155h118.133v24.412"/>
</g>
<g id="brain_x5F_chip">
	<g>
		<path fill="#FFC433" d="M95.192,78.04c-0.662-1.244-1.966-2.093-3.472-2.093c-2.174,0-3.936,1.762-3.936,3.936
			c0,2.174,1.761,3.936,3.936,3.936c1.508,0,2.81-0.848,3.472-2.093V78.04z"/>
		<path fill="#FFC433" d="M95.192,91.7c-0.662-1.244-1.966-2.093-3.472-2.093c-2.174,0-3.936,1.762-3.936,3.936
			c0,2.174,1.761,3.936,3.936,3.936c1.508,0,2.81-0.849,3.472-2.093V91.7z"/>
		<path fill="#FFC433" d="M158.105,151.055c-1.243,0.662-2.092,1.966-2.092,3.472c0,2.174,1.762,3.936,3.936,3.936
			s3.936-1.761,3.936-3.936c0-1.508-0.848-2.81-2.092-3.472H158.105z"/>
		<path fill="#FFC433" d="M144.446,151.055c-1.244,0.662-2.093,1.966-2.093,3.472c0,2.174,1.762,3.936,3.936,3.936
			c2.174,0,3.936-1.761,3.936-3.936c0-1.508-0.848-2.81-2.092-3.472H144.446z"/>
		<path fill="#FFC433" d="M171.987,151.092c-1.239,0.663-2.083,1.965-2.083,3.469c0,2.174,1.762,3.936,3.936,3.936
			s3.936-1.761,3.936-3.936c0-1.51-0.853-2.817-2.101-3.477L171.987,151.092z"/>
	</g>
	<g>
		<path fill="#7EFFE3" d="M148.341,38.092V70.37h31.087c0,0,0.517-7.945-5.056-10.975c-0.337-0.182-0.692-0.354-1.073-0.507
			c0,0,0.672-2.004,0.508-4.312c-0.182-2.558-1.393-5.489-5.689-6.487c0,0,0.188-7.416-7.304-8.298
			c-0.542-0.064-1.12-0.096-1.745-0.086c0,0-1.354-1.333-3.415-2.17C153.679,36.729,151.054,36.379,148.341,38.092z"/>
		<path fill="#7EFFE3" d="M129.969,39.704c-9.27-0.146-9.051,8.386-9.051,8.386c-8.172,1.896-5.18,10.799-5.18,10.799
			c-6.713,2.7-6.13,11.482-6.13,11.482h31.086V38.092C135.155,34.59,129.969,39.704,129.969,39.704z"/>
	</g>
	<path opacity="0.1" enable-background="new    " d="M109.61,70.37h9.72c0,0-0.516-7.791,5.036-10.952
		c-0.005-0.008-0.011-0.015-0.015-0.023c0.337-0.182,0.692-0.354,1.073-0.507c0,0-0.672-2.004-0.508-4.312
		c0.012,0,0.024,0.002,0.035,0.002c0.182-2.559,1.392-5.492,5.689-6.49c0,0-0.187-7.39,7.267-8.294
		c0.001-0.001,0.002-0.003,0.003-0.005c0.041-0.005,0.084-0.009,0.126-0.012c0.02-0.002,0.042-0.004,0.064-0.006
		c0.234-0.025,0.475-0.043,0.723-0.054c0.025-0.001,0.051-0.001,0.076-0.002c0.245-0.01,0.496-0.014,0.757-0.011
		c0,0,0.382-0.373,1.044-0.849v-0.762c-2.725-1.722-5.364-1.36-7.341-0.548c-0.002-0.004-0.004-0.008-0.006-0.011
		c-2.061,0.839-3.415,2.17-3.415,2.17c-0.26-0.004-0.512,0.001-0.757,0.011c-0.025,0.001-0.051,0.001-0.076,0.002
		c-0.249,0.011-0.49,0.031-0.723,0.054c-0.022,0.002-0.043,0.004-0.064,0.006c-0.041,0.004-0.085,0.008-0.126,0.012
		c-0.001,0.002-0.002,0.003-0.003,0.005c-7.452,0.903-7.267,8.294-7.267,8.294c-4.297,0.997-5.506,3.932-5.689,6.49
		c-0.012,0-0.024-0.003-0.035-0.002c-0.165,2.309,0.508,4.312,0.508,4.312c-0.383,0.153-0.738,0.325-1.073,0.507
		c0.005,0.008,0.011,0.015,0.015,0.023C109.094,62.579,109.61,70.37,109.61,70.37z"/>
	<path opacity="0.1" enable-background="new    " d="M179.423,70.37h-9.72c0,0,0.516-7.791-5.036-10.952
		c0.005-0.008,0.011-0.015,0.015-0.023c-0.337-0.182-0.692-0.354-1.073-0.507c0,0,0.672-2.004,0.508-4.312
		c-0.012,0-0.024,0.002-0.035,0.002c-0.182-2.559-1.392-5.492-5.689-6.49c0,0,0.187-7.39-7.267-8.294
		c-0.001-0.001-0.001-0.003-0.003-0.005c-0.041-0.005-0.084-0.009-0.126-0.012c-0.02-0.002-0.042-0.004-0.064-0.006
		c-0.234-0.025-0.475-0.043-0.723-0.054c-0.025-0.001-0.051-0.001-0.076-0.002c-0.246-0.01-0.496-0.014-0.757-0.011
		c0,0-0.382-0.373-1.044-0.849v-0.762c2.725-1.722,5.364-1.36,7.341-0.548c0.002-0.004,0.004-0.008,0.006-0.011
		c2.061,0.839,3.415,2.17,3.415,2.17c0.26-0.004,0.512,0.001,0.757,0.011c0.025,0.001,0.051,0.001,0.076,0.002
		c0.249,0.011,0.49,0.031,0.723,0.054c0.022,0.002,0.043,0.004,0.064,0.006c0.041,0.004,0.085,0.008,0.126,0.012
		c0.001,0.002,0.002,0.003,0.003,0.005c7.452,0.903,7.267,8.294,7.267,8.294c4.297,0.997,5.506,3.932,5.689,6.49
		c0.012,0,0.024-0.003,0.035-0.002c0.165,2.309-0.508,4.312-0.508,4.312c0.382,0.153,0.738,0.325,1.073,0.507
		c-0.005,0.008-0.011,0.015-0.015,0.023C179.939,62.579,179.423,70.37,179.423,70.37z"/>
	<path fill="#A6D4FF" d="M106.097,137.828v-66.23c0-1.357,1.1-2.459,2.459-2.459h72.474c1.358,0,2.459,1.1,2.459,2.459v66.23
		c0,1.357-1.1,2.459-2.459,2.459h-72.474C107.199,140.287,106.097,139.187,106.097,137.828z"/>
	<path opacity="0.1" enable-background="new    " d="M106.097,71.598v66.23c0,1.357,1.1,2.459,2.459,2.459h72.474
		c1.358,0,2.459-1.101,2.459-2.459v-4.6h-67.873c-1.357,0-2.459-1.101-2.459-2.459V69.14h-4.6
		C107.199,69.14,106.097,70.241,106.097,71.598z"/>
	<path fill="#FFFFFF" d="M125.214,120.256V89.173c0-1.357,1.101-2.459,2.459-2.459h34.242c1.357,0,2.459,1.1,2.459,2.459v31.083
		c0,1.357-1.1,2.459-2.459,2.459h-34.242C126.315,122.714,125.214,121.612,125.214,120.256z"/>
	<path fill="#FFC433" d="M133.685,104.899L133.685,104.899c0-1.756,1.438-3.194,3.194-3.194h15.511c1.756,0,3.194,1.438,3.194,3.194
		l0,0c0,1.756-1.438,3.194-3.194,3.194H136.88C135.122,108.092,133.685,106.656,133.685,104.899z"/>
	<g>
		<circle fill="#3A9CB4" cx="173.781" cy="79.314" r="3.057"/>
		<circle fill="#3A9CB4" cx="115.256" cy="79.314" r="3.057"/>
		<circle fill="#3A9CB4" cx="173.781" cy="130.485" r="3.056"/>
		<circle fill="#3A9CB4" cx="115.256" cy="130.485" r="3.056"/>
	</g>
	<path fill="#5D73A2" d="M85.94,93.545c0,3.187,2.592,5.781,5.781,5.781c2.543,0,4.705-1.651,5.477-3.936h7.058v42.44
		c0,2.372,1.93,4.302,4.302,4.302h35.89v6.92c-2.286,0.772-3.936,2.935-3.936,5.477c0,3.187,2.592,5.781,5.781,5.781
		c3.187,0,5.781-2.592,5.781-5.781c0-2.543-1.65-4.706-3.936-5.477v-6.92h9.972v6.92c-2.285,0.772-3.936,2.935-3.936,5.477
		c0,3.187,2.594,5.781,5.781,5.781c3.187,0,5.781-2.592,5.781-5.781c0-2.543-1.65-4.706-3.936-5.477v-6.92h10.202v6.953
		c-2.286,0.772-3.936,2.935-3.936,5.477c0,3.187,2.594,5.781,5.781,5.781c3.187,0,5.781-2.592,5.781-5.781
		c0-2.544-1.65-4.706-3.936-5.477v-6.953h5.347c2.372,0,4.302-1.93,4.302-4.302v-16.688c0-1.019-0.826-1.843-1.843-1.843
		c-1.018,0-1.843,0.826-1.843,1.843v16.686c0,0.339-0.275,0.614-0.614,0.614h-72.473c-0.339,0-0.614-0.275-0.614-0.614v-25.1h15.428
		v7.527c0,2.372,1.93,4.302,4.302,4.302h34.242c2.372,0,4.302-1.93,4.302-4.302V89.172c0-2.372-1.93-4.302-4.302-4.302h-34.241
		c-2.372,0-4.302,1.93-4.302,4.302v3.324h-9.326v-2.491c0-1.019-0.826-1.843-1.843-1.843c-1.019,0-1.843,0.826-1.843,1.843v4.335
		c0,1.019,0.826,1.843,1.843,1.843h11.169v6.871h-15.428V71.598c0-0.339,0.275-0.614,0.614-0.614h1.053h31.086h11.97
		c1.019,0,1.843-0.826,1.843-1.843c0-1.019-0.826-1.843-1.843-1.843h-2.48V39.195c2.165-0.942,4.222-0.318,5.65,0.449
		c0.118,0.14,0.257,0.264,0.419,0.367c0.302,0.201,2.789,1.995,1.458,5.874c-0.33,0.963,0.182,2.012,1.146,2.343
		c0.199,0.068,0.4,0.099,0.599,0.099c0.765,0,1.482-0.481,1.744-1.246c0.696-2.03,0.713-3.806,0.364-5.294
		c1.166,0.274,2.123,0.778,2.858,1.511c1.873,1.869,1.854,4.723,1.853,4.751c-0.012,0.868,0.582,1.637,1.427,1.834
		c1.743,0.406,2.919,1.184,3.593,2.382c0.665,1.18,0.758,2.597,0.67,3.76c-0.357,0.965-2.099,4.823-6.822,3.828
		c-0.996-0.209-1.974,0.428-2.184,1.425c-0.209,0.996,0.428,1.974,1.425,2.184c0.812,0.172,1.576,0.249,2.295,0.249
		c2.904,0,5.055-1.275,6.535-2.843c3.137,1.557,4.044,4.535,4.297,6.426h-18.366c-1.019,0-1.843,0.826-1.843,1.843
		c0,1.019,0.826,1.843,1.843,1.843h21.887c0.339,0,0.614,0.275,0.614,0.614v17.653h-10.921c-1.019,0-1.843,0.826-1.843,1.843
		c0,1.019,0.826,1.843,1.843,1.843h10.921v5.478h-10.921c-1.019,0-1.843,0.826-1.843,1.843c0,1.018,0.826,1.843,1.843,1.843h10.921
		v5.478h-10.92c-1.019,0-1.843,0.826-1.843,1.843c0,1.019,0.826,1.843,1.843,1.843h10.92v2.81c0,1.019,0.826,1.843,1.843,1.843
		c1.018,0,1.843-0.826,1.843-1.843V71.595c0-2.304-1.823-4.186-4.103-4.292c-0.302-3.001-1.749-7.124-5.792-9.432
		c0.064-0.354,0.123-0.755,0.165-1.192c0.011-0.074,0.017-0.148,0.019-0.221c0.146-1.747,0.014-3.986-1.101-5.982
		c-0.994-1.781-2.56-3.055-4.666-3.804c-0.216-1.538-0.863-4-2.793-5.951c-1.793-1.81-4.24-2.772-7.282-2.862
		c-2.452-2.057-7.494-4.449-12.427-1.332c-0.535,0.339-0.859,0.926-0.859,1.558v29.204h-3.958v-29.2
		c0-0.632-0.324-1.221-0.859-1.558c-4.932-3.117-9.974-0.725-12.427,1.332c-3.042,0.091-5.488,1.051-7.282,2.862
		c-1.93,1.95-2.577,4.412-2.793,5.951c-2.105,0.749-3.672,2.025-4.666,3.804c-1.114,1.996-1.247,4.235-1.1,5.982
		c0.002,0.074,0.009,0.148,0.019,0.222c0.043,0.435,0.101,0.835,0.166,1.189c-4.07,2.323-5.51,6.486-5.799,9.491
		c-2.014,0.358-3.549,2.118-3.549,4.232v6.442h-7.056c-0.772-2.285-2.935-3.936-5.477-3.936c-3.187,0-5.781,2.592-5.781,5.781
		c0,3.188,2.592,5.781,5.781,5.781c2.544,0,4.705-1.651,5.477-3.936h7.058v9.972h-7.058c-0.772-2.286-2.935-3.936-5.477-3.936
		C88.531,87.764,85.938,90.357,85.94,93.545z M93.811,79.884c0,1.155-0.938,2.093-2.093,2.093s-2.093-0.939-2.093-2.093
		s0.938-2.093,2.093-2.093C92.873,77.791,93.811,78.731,93.811,79.884z M171.746,154.561c0-1.155,0.939-2.093,2.093-2.093
		c1.154,0,2.093,0.938,2.093,2.093c0,1.155-0.938,2.093-2.093,2.093C172.686,156.654,171.746,155.715,171.746,154.561z
		 M157.858,154.528c0-1.153,0.937-2.091,2.088-2.093c0.001,0,0.003,0,0.003,0c0.001,0,0.002,0,0.003,0
		c1.153,0.001,2.088,0.94,2.088,2.093c0,1.154-0.938,2.093-2.093,2.093C158.794,156.62,157.858,155.682,157.858,154.528z
		 M144.197,154.528c0-1.153,0.937-2.091,2.088-2.093c0.001,0,0.003,0,0.003,0s0.002,0,0.003,0c1.153,0.001,2.088,0.94,2.088,2.093
		c0,1.154-0.938,2.093-2.093,2.093C145.134,156.62,144.197,155.682,144.197,154.528z M138.852,67.296h-27.323
		c0.251-1.889,1.158-4.871,4.295-6.428c1.48,1.568,3.63,2.845,6.535,2.845c0.719,0,1.483-0.078,2.295-0.25
		c0.997-0.209,1.634-1.187,1.425-2.184c-0.209-0.996-1.186-1.633-2.184-1.425c-4.725,0.994-6.467-2.864-6.822-3.828
		c-0.087-1.163,0.005-2.579,0.67-3.76c0.675-1.198,1.85-1.977,3.593-2.382c0.853-0.198,1.448-0.968,1.427-1.843
		c0-0.017-0.018-2.872,1.853-4.741c0.736-0.734,1.692-1.24,2.858-1.513c-0.349,1.488-0.332,3.265,0.364,5.295
		c0.262,0.765,0.979,1.246,1.744,1.246c0.199,0,0.4-0.033,0.599-0.099c0.964-0.33,1.476-1.378,1.146-2.343
		c-1.385-4.041,1.326-5.792,1.443-5.865c0.168-0.105,0.313-0.233,0.434-0.378c1.426-0.765,3.484-1.391,5.65-0.448L138.852,67.296
		L138.852,67.296z M127.057,120.256V89.173c0-0.339,0.276-0.614,0.614-0.614h34.242c0.339,0,0.614,0.276,0.614,0.614v31.083
		c0,0.339-0.275,0.614-0.614,0.614h-34.242C127.333,120.87,127.057,120.593,127.057,120.256L127.057,120.256z M107.942,109.039
		v-2.297h15.428v2.297H107.942z M89.626,93.544c0-1.154,0.938-2.093,2.093-2.093c1.154,0,2.093,0.938,2.093,2.093
		s-0.938,2.093-2.093,2.093C90.565,95.636,89.626,94.697,89.626,93.544z"/>
	<path fill="#5D73A2" d="M131.842,105.527c0,2.777,2.26,5.037,5.037,5.037h15.511c2.777,0,5.037-2.259,5.037-5.037
		s-2.259-5.037-5.037-5.037H136.88C134.101,100.489,131.842,102.75,131.842,105.527z M135.529,105.527
		c0-0.745,0.606-1.349,1.349-1.349h15.511c0.745,0,1.349,0.606,1.349,1.349c0,0.745-0.606,1.349-1.349,1.349h-15.511
		C136.134,106.877,135.529,106.272,135.529,105.527z"/>
	<path fill="#5D73A2" d="M173.782,74.414c-2.703,0-4.902,2.198-4.902,4.901c0,2.703,2.198,4.902,4.902,4.902
		c2.703,0,4.902-2.198,4.902-4.902C178.683,76.611,176.483,74.413,173.782,74.414z M173.782,78.101c0.669,0,1.213,0.544,1.213,1.213
		s-0.544,1.214-1.213,1.214c-0.669,0-1.213-0.544-1.213-1.214C172.568,78.646,173.112,78.101,173.782,78.101z"/>
	<path fill="#5D73A2" d="M115.257,84.216c2.703,0,4.902-2.198,4.902-4.902c0-2.703-2.198-4.901-4.902-4.901
		s-4.902,2.198-4.902,4.901C110.356,82.017,112.554,84.216,115.257,84.216z M115.257,80.528c-0.669,0-1.213-0.544-1.213-1.214
		c0-0.67,0.544-1.213,1.213-1.213c0.669,0,1.213,0.544,1.213,1.213C116.472,79.983,115.926,80.528,115.257,80.528z"/>
	<path fill="#5D73A2" d="M173.782,135.386c2.703,0,4.902-2.198,4.902-4.902s-2.198-4.901-4.902-4.901
		c-2.703,0-4.902,2.198-4.902,4.901C168.88,133.186,171.079,135.386,173.782,135.386z M173.782,131.697
		c-0.669,0-1.213-0.544-1.213-1.213c0-0.669,0.544-1.213,1.213-1.213c0.669,0,1.213,0.544,1.213,1.213
		C174.995,131.153,174.451,131.697,173.782,131.697z"/>
	<path fill="#5D73A2" d="M115.257,135.386c2.703,0,4.902-2.198,4.902-4.902s-2.198-4.901-4.902-4.901s-4.902,2.198-4.902,4.901
		C110.356,133.186,112.554,135.386,115.257,135.386z M115.257,131.697c-0.669,0-1.213-0.544-1.213-1.213
		c0-0.669,0.544-1.213,1.213-1.213c0.669,0,1.213,0.544,1.213,1.213C116.47,131.153,115.926,131.697,115.257,131.697z"/>
</g>
<g id="wheel">
	
		<path id="XMLID_165_" fill="#DCDEE0" stroke="#5D73A2" stroke-width="3" stroke-linecap="round" stroke-linejoin="round" stroke-miterlimit="10" d="
		M100.746,35.975v-7.229h-4.871c-0.343-1.466-0.902-2.845-1.643-4.108l3.404-3.404l-5.113-5.113l-3.351,3.351
		c-1.275-0.783-2.671-1.377-4.161-1.75V13.01h-7.229v4.713c-1.489,0.373-2.887,0.966-4.161,1.75l-3.351-3.351l-5.113,5.113
		l3.404,3.404c-0.741,1.264-1.299,2.643-1.643,4.108h-4.871v7.229h4.98c0.375,1.41,0.949,2.735,1.694,3.948l-3.564,3.564
		l5.113,5.113l3.616-3.616c1.202,0.706,2.51,1.243,3.897,1.59v5.138h7.229v-5.138c1.387-0.346,2.694-0.883,3.897-1.59l3.616,3.616
		l5.113-5.113l-3.564-3.564c0.746-1.213,1.32-2.537,1.694-3.948h4.976V35.975z M81.396,36.826c-2.584,0-4.678-2.095-4.678-4.678
		s2.095-4.678,4.678-4.678s4.678,2.095,4.678,4.678C86.074,34.731,83.98,36.826,81.396,36.826z"/>
</g>
</svg>
