<?xml version="1.0" encoding="utf-8"?>
<!-- Generator: Adobe Illustrator 17.0.0, SVG Export Plug-In . SVG Version: 6.00 Build 0)  -->
<!DOCTYPE svg PUBLIC "-//W3C//DTD SVG 1.1//EN" "http://www.w3.org/Graphics/SVG/1.1/DTD/svg11.dtd">
<svg version="1.1" id="Layer_1" xmlns="http://www.w3.org/2000/svg" xmlns:xlink="http://www.w3.org/1999/xlink" x="0px" y="0px"
	 width="280px" height="300px" viewBox="0 0 280 300" enable-background="new 0 0 280 300" xml:space="preserve">
<path opacity="0.35" fill="#939598" enable-background="new    " d="M213.609,156.629h-42.402c-5.28,0-9.577,4.296-9.577,9.576
	v65.615c0,5.282,4.296,9.576,9.577,9.576h42.402c5.28,0,9.576-4.294,9.576-9.576v-65.615
	C223.185,160.925,218.89,156.629,213.609,156.629z"/>
<path fill="#FFFFFF" stroke="#5D73A2" stroke-width="3" stroke-linecap="round" stroke-linejoin="round" d="M209.407,156.629
	c5.28,0,9.576,4.296,9.576,9.576v65.615c0,5.282-4.295,9.576-9.576,9.576h-42.402c-5.28,0-9.577-4.294-9.577-9.576v-65.615
	c0-5.279,4.296-9.576,9.577-9.576H209.407z"/>
<rect x="162.63" y="165.028" fill="#7EB3E4" width="50.961" height="62.781"/>
<path fill="none" stroke="#5D73A2" stroke-width="3" stroke-linecap="round" stroke-linejoin="round" d="M188.11,231.324
	c-1.551,0-2.813,1.255-2.813,2.813c0,1.555,1.262,2.816,2.813,2.816c1.558,0,2.815-1.261,2.815-2.816
	C190.925,232.579,189.667,231.324,188.11,231.324z"/>
<g>
	<path fill="#A9CD68" stroke="#5D73A2" stroke-width="3" stroke-miterlimit="10" d="M170.877,191.607
		c0,9.214,7.466,16.682,16.679,16.682c9.212,0,16.68-7.468,16.68-16.682c0-9.211-7.468-16.679-16.68-16.679
		C178.343,174.928,170.877,182.396,170.877,191.607z"/>
	<path fill="#FFFFFF" stroke="#5D73A2" stroke-width="3" stroke-miterlimit="10" d="M187.561,191.607v-18.308
		c10.161,0,18.411,8.176,18.534,18.308H187.561z"/>
	<path fill="#36B8D1" stroke="#5D73A2" stroke-width="3" stroke-miterlimit="10" d="M204.239,191.504c0,0.037,0,0.071,0,0.103
		c0,9.214-7.468,16.682-16.679,16.682c-9.214,0-16.683-7.468-16.683-16.682c0-0.032,0.006-0.066,0.006-0.103L204.239,191.504
		L204.239,191.504z"/>
	<path fill="#FAD978" stroke="#5D73A2" stroke-width="3" stroke-miterlimit="10" d="M187.561,191.524l14.04-14.044
		c7.792,7.795,7.846,20.39,0.173,28.256L187.561,191.524z"/>
	<path fill="#FFFFFF" stroke="#5D73A2" stroke-width="3" stroke-miterlimit="10" d="M187.551,191.624l-8.339,16.303
		c-9.045-4.629-12.665-15.666-8.159-24.743L187.551,191.624z"/>
	<path fill="#F0777E" stroke="#5D73A2" stroke-width="3" stroke-miterlimit="10" d="M187.576,191.504l5.952,18.43
		c-10.226,3.302-21.189-2.244-24.605-12.403L187.576,191.504z"/>
	<path fill="#65CBE9" stroke="#5D73A2" stroke-width="3" stroke-miterlimit="10" d="M181.003,191.504
		c0,3.623,2.937,6.558,6.558,6.558s6.554-2.935,6.554-6.558c0-3.617-2.932-6.557-6.554-6.557
		C183.941,184.947,181.003,187.887,181.003,191.504z"/>
</g>
<rect x="168.847" y="217.397" fill="#FFFFFF" width="33.817" height="2.096"/>
<rect x="168.847" y="221.143" fill="#FFFFFF" width="28.509" height="2.096"/>
<path opacity="0.35" fill="#939598" enable-background="new    " d="M154.395,135.372c-6.511,0-5.513,4.845-5.513,11.355v82.861
	c0,6.514,5.297,11.809,11.808,11.809h9.132c6.299-1.766,10.64-5.931,10.64-13.417v-2.244h-12.444l0.001-81.761
	c0-4.75-3.852-8.601-8.601-8.601L154.395,135.372L154.395,135.372z"/>
<g>
	<g>
		<g>
			<g>
				
					<path fill="#EFEFEF" stroke="#5D73A2" stroke-width="3" stroke-linecap="round" stroke-linejoin="round" stroke-miterlimit="10" d="
					M14,142.464c0-3.919,3.174-7.093,7.091-7.093h134.265c3.915,0,7.092,3.174,7.092,7.093l-0.002,84.07H13.998L14,142.464z"/>
				<g>
					
						<path fill="#EFEFEF" stroke="#5D73A2" stroke-width="3" stroke-linecap="round" stroke-linejoin="round" stroke-miterlimit="10" d="
						M3.842,226.534v3.071c0,8.547,6.929,11.791,15.476,11.791h137.808c8.547,0,15.476-3.245,15.476-11.791v-3.071H3.842z"/>
				</g>
				
					<rect x="24.223" y="146.764" fill="#7EB3E4" stroke="#5D73A2" stroke-width="3" stroke-linecap="round" stroke-linejoin="round" stroke-miterlimit="10" width="129.75" height="74.749"/>
			</g>
		</g>
	</g>
</g>
<g>
	<rect x="49.123" y="161.109" fill="#FFFFFF" width="16.351" height="1.569"/>
	<rect x="49.123" y="164.42" fill="#FFFFFF" width="25.321" height="1.569"/>
	<rect x="49.123" y="167.731" fill="#FFFFFF" width="21.347" height="1.569"/>
	<g>
		<g>
			<rect x="49.664" y="198.776" fill="#F0777E" width="10.175" height="12.157"/>
			<rect x="64.844" y="191.731" fill="#FAD978" width="10.175" height="19.202"/>
			<rect x="80.026" y="185.191" fill="#A9CD68" width="10.176" height="25.741"/>
			<rect x="95.208" y="188.195" fill="#F0777E" width="10.175" height="22.737"/>
			<rect x="110.39" y="174.03" fill="#FAD978" width="10.175" height="36.902"/>
			<rect x="125.571" y="158.264" fill="#A9CD68" width="10.175" height="52.668"/>
			<g>
				<rect x="38.566" y="161.558" fill="#FFFFFF" width="3.645" height="1.624"/>
				<rect x="38.566" y="169.71" fill="#FFFFFF" width="3.645" height="1.624"/>
				<rect x="38.566" y="177.865" fill="#FFFFFF" width="3.645" height="1.624"/>
				<rect x="38.566" y="186.019" fill="#FFFFFF" width="3.645" height="1.624"/>
				<rect x="38.566" y="194.173" fill="#FFFFFF" width="3.645" height="1.623"/>
				<rect x="38.566" y="202.326" fill="#FFFFFF" width="3.645" height="1.623"/>
				<rect x="38.566" y="210.479" fill="#FFFFFF" width="3.645" height="1.624"/>
			</g>
		</g>
		<path fill="none" stroke="#EFEFEF" stroke-width="3" stroke-miterlimit="10" d="M53.445,186.61l10.46-8.68l4.687,5.619
			l15.661-13.146c0,0,6.814,8.326,7.407,9.05l18.964-15.78"/>
		<polyline fill="none" stroke="#5D73A2" stroke-width="3" stroke-miterlimit="10" points="44.591,161.562 44.591,211.357 
			138.697,211.357 		"/>
	</g>
</g>
<rect x="229.619" y="217.549" transform="matrix(-0.3195 0.9476 -0.9476 -0.3195 521.4556 74.1552)" fill="#FFFFFF" stroke="#5D73A2" stroke-width="3" stroke-miterlimit="10" width="8.964" height="13.538"/>
<circle fill="#FFFFFF" stroke="#5D73A2" stroke-width="3" stroke-miterlimit="10" cx="205.819" cy="214.781" r="25.794"/>
<circle fill="#7EB3E4" stroke="#5D73A2" stroke-miterlimit="10" cx="205.818" cy="214.781" r="20.058"/>
<path fill="#F0777E" stroke="#5D73A2" stroke-width="3" stroke-miterlimit="10" d="M261.99,226.023
	c3.805,1.284,5.85,5.409,4.565,9.214c-1.284,3.805-5.409,5.85-9.213,4.567l-18.357-6.164c-1.149-0.386-1.766-1.631-1.378-2.782
	l3.245-9.62c0.388-1.148,1.633-1.765,2.781-1.377L261.99,226.023z"/>
<g>
	<g>
		<path id="SVGID_1_" fill="#3DD0EC" d="M209.421,194.843c11.012,1.991,18.325,12.53,16.334,23.54
			c-1.99,11.009-12.529,18.324-23.54,16.334c-11.012-1.99-18.325-12.529-16.334-23.54
			C187.872,200.168,198.411,192.855,209.421,194.843z"/>
	</g>
	<g>
		<g>
			<g>
				<defs>
					<circle id="SVGID_3_" cx="205.818" cy="214.781" r="20.26"/>
				</defs>
				<clipPath id="SVGID_4_">
					<use xlink:href="#SVGID_3_"  overflow="visible"/>
				</clipPath>
				<g clip-path="url(#SVGID_4_)">
					<path fill="#36B8D1" stroke="#5D73A2" stroke-width="6" stroke-miterlimit="10" d="M187.461,198.002l-3.043-28.922
						c16.052-1.689,30.446,9.855,32.324,25.841L187.461,198.002z"/>
					<path fill="#A9CD68" stroke="#5D73A2" stroke-width="3" stroke-miterlimit="10" d="M213.792,195.067
						c0.006,0.059,0.012,0.112,0.017,0.163c1.531,14.556-9.025,27.594-23.575,29.125c-14.556,1.531-27.596-9.024-29.128-23.58
						c-0.005-0.05-0.002-0.105-0.008-0.163L213.792,195.067z"/>
					<path fill="#FAD978" stroke="#5D73A2" stroke-width="3" stroke-miterlimit="10" d="M187.447,197.871l19.846-24.521
						c13.606,11.018,15.785,30.909,4.969,44.608L187.447,197.871z"/>
					<path fill="#F0777E" stroke="#5D73A2" stroke-width="6" stroke-miterlimit="10" d="M187.45,198.031l-10.464,27.141
						c-15.059-5.811-22.613-22.644-17.004-37.733L187.45,198.031z"/>
					<path fill="#F0777E" stroke="#5D73A2" stroke-width="3" stroke-miterlimit="10" d="M187.469,197.837l12.467,28.125
						c-15.606,6.917-33.847-0.022-40.932-15.503L187.469,197.837z"/>
					<path fill="#65CBE9" stroke="#5D73A2" stroke-width="3" stroke-miterlimit="10" d="M177.084,198.93
						c0.602,5.723,5.73,9.871,11.45,9.27c5.721-0.601,9.866-5.727,9.263-11.449c-0.601-5.715-5.721-9.871-11.443-9.269
						C180.635,188.083,176.484,193.215,177.084,198.93z"/>
				</g>
			</g>
		</g>
	</g>
	<g>
		<path id="SVGID_2_" fill="none" stroke="#5D73A2" stroke-width="3" stroke-miterlimit="10" d="M209.421,194.843
			c11.012,1.991,18.325,12.53,16.334,23.54c-1.99,11.009-12.529,18.324-23.54,16.334c-11.012-1.99-18.325-12.529-16.334-23.54
			C187.872,200.168,198.411,192.855,209.421,194.843z"/>
	</g>
</g>
<line fill="none" stroke="#BAD9FF" stroke-width="3" stroke-miterlimit="10" x1="268.149" y1="166.991" x2="247.962" y2="166.991"/>
<g>
	<line fill="none" stroke="#BAD9FF" stroke-width="3" stroke-miterlimit="10" x1="148.293" y1="103.205" x2="141.619" y2="96.53"/>
	<line fill="none" stroke="#BAD9FF" stroke-width="3" stroke-miterlimit="10" x1="141.619" y1="103.205" x2="148.293" y2="96.53"/>
</g>
<line fill="none" stroke="#BAD9FF" stroke-width="3" stroke-miterlimit="10" x1="203.611" y1="79.185" x2="249.251" y2="79.185"/>
<line fill="none" stroke="#BAD9FF" stroke-width="3" stroke-miterlimit="10" x1="235.001" y1="86.398" x2="255.188" y2="86.398"/>
<line fill="none" stroke="#BAD9FF" stroke-width="3" stroke-miterlimit="10" x1="204.458" y1="71.975" x2="224.644" y2="71.975"/>
<line fill="none" stroke="#BAD9FF" stroke-width="3" stroke-miterlimit="10" x1="119.084" y1="70.716" x2="139.271" y2="70.716"/>
<line fill="none" stroke="#BAD9FF" stroke-width="3" stroke-miterlimit="10" x1="12.509" y1="83.897" x2="34.509" y2="83.897"/>
<path fill="none" stroke="#BAD9FF" stroke-width="3" stroke-linecap="round" stroke-linejoin="round" stroke-miterlimit="10" d="
	M277.126,167.098c0,1.594-1.298,2.89-2.894,2.89c-1.595,0-2.89-1.296-2.89-2.89c0-1.599,1.295-2.895,2.89-2.895
	C275.828,164.202,277.126,165.499,277.126,167.098z"/>
<g>
	<g>
		<line fill="none" stroke="#BAD9FF" stroke-width="3" stroke-miterlimit="10" x1="194.781" y1="99.885" x2="194.275" y2="99.885"/>
		
			<line fill="none" stroke="#BAD9FF" stroke-width="3" stroke-miterlimit="10" stroke-dasharray="1.9612,1.9612" x1="193.283" y1="99.885" x2="152.12" y2="99.885"/>
		<line fill="none" stroke="#BAD9FF" stroke-width="3" stroke-miterlimit="10" x1="151.624" y1="99.885" x2="151.118" y2="99.885"/>
	</g>
</g>
<line fill="none" stroke="#BAD9FF" stroke-width="3" stroke-miterlimit="10" x1="169.673" y1="120.93" x2="147.557" y2="120.93"/>
<rect x="198.333" y="136.744" fill="none" stroke="#BAD9FF" stroke-width="3" stroke-miterlimit="10" width="4.24" height="6.396"/>
<rect x="205.81" y="128.89" fill="none" stroke="#BAD9FF" stroke-width="3" stroke-miterlimit="10" width="4.241" height="14.25"/>
<rect x="213.289" y="131.364" fill="none" stroke="#BAD9FF" stroke-width="3" stroke-miterlimit="10" width="4.241" height="11.776"/>
<rect x="220.768" y="124.807" fill="none" stroke="#BAD9FF" stroke-width="3" stroke-miterlimit="10" width="4.24" height="18.333"/>
<polyline fill="none" stroke="#BAD9FF" stroke-width="3" stroke-miterlimit="10" points="227.513,143.14 195.096,143.14 
	195.096,122.775 "/>
<g>
	<polyline fill="none" stroke="#BAD9FF" stroke-width="3" stroke-miterlimit="10" points="172.595,63.707 143.046,63.707 
		143.046,52.552 	"/>
	<g>
		<g>
			<path fill="none" stroke="#BAD9FF" stroke-width="3" stroke-miterlimit="10" d="M161.635,60.97
				c-4.989-0.339-5.17-8.161-5.345-15.726c-0.108-4.745-0.244-10.635-2.039-10.793c-1.794,0.158-1.93,6.047-2.039,10.793
				c-0.176,7.564-0.355,15.386-5.345,15.726"/>
		</g>
		<g>
			<path fill="none" stroke="#BAD9FF" stroke-width="3" stroke-miterlimit="10" d="M171.092,60.971
				c-5.005,0-5.968-5.159-6.674-8.926c-0.526-2.815-0.952-4.673-2.012-4.726c-1.061,0.052-1.488,1.91-2.014,4.726
				c-0.703,3.767-1.668,8.926-6.673,8.926"/>
		</g>
	</g>
</g>
<g>
	<g>
		<g>
			<path fill="#BAD9FF" stroke="#BAD9FF" stroke-miterlimit="10" d="M109.63,102.225c0.007,0,0.014,0,0.023,0.001l1.966,0.633
				c0.049,0.016,0.074,0.051,0.084,0.071c0.01,0.019,0.025,0.06,0.008,0.109l-0.47,1.462l0.274,0.147
				c0.654,0.349,1.254,0.781,1.783,1.282l0.225,0.214l1.235-0.904c0.032-0.023,0.063-0.041,0.095-0.041
				c0.033,0,0.068,0.019,0.106,0.072l1.219,1.666c0.046,0.064,0.033,0.155-0.031,0.201l-1.235,0.904l0.137,0.281
				c0.325,0.668,0.56,1.37,0.696,2.089l0.059,0.304l1.516-0.005c0.078,0,0.142,0.065,0.143,0.143l0.005,2.065
				c0.001,0.051-0.025,0.086-0.041,0.101c-0.015,0.016-0.049,0.042-0.101,0.042l-1.509,0.005l-0.054,0.307
				c-0.067,0.379-0.158,0.749-0.27,1.098c-0.102,0.318-0.235,0.647-0.405,1.009l-0.131,0.279l1.219,0.88
				c0.041,0.031,0.054,0.071,0.058,0.093c0.004,0.022,0.005,0.065-0.025,0.106l-1.21,1.675c-0.039,0.052-0.094,0.059-0.116,0.059
				c-0.022,0-0.052-0.005-0.084-0.027l-1.209-0.872l-0.224,0.217c-0.534,0.516-1.136,0.957-1.792,1.314l-0.274,0.149l0.463,1.413
				c0.025,0.075-0.016,0.156-0.091,0.181l-2.008,0.651c-0.052,0-0.114-0.031-0.137-0.098l-0.464-1.413l-0.308,0.041
				c-0.404,0.055-0.763,0.083-1.125,0.083c-0.349,0-0.7-0.026-1.097-0.078l-0.309-0.041l-0.456,1.418
				c-0.023,0.069-0.086,0.1-0.138,0.1l-2.009-0.639c-0.077-0.024-0.117-0.105-0.094-0.18l0.456-1.418l-0.274-0.147
				c-0.659-0.355-1.265-0.792-1.798-1.302l-0.226-0.216l-1.207,0.882c-0.031,0.023-0.062,0.041-0.095,0.041
				c-0.033,0-0.068-0.019-0.106-0.072l-1.219-1.667c-0.03-0.041-0.03-0.085-0.025-0.108c0.003-0.022,0.015-0.062,0.057-0.093
				l1.215-0.889l-0.134-0.28c-0.323-0.671-0.555-1.378-0.688-2.102l-0.056-0.307l-1.51,0.005c-0.078,0-0.143-0.065-0.144-0.143
				l-0.005-2.066c-0.001-0.051,0.025-0.086,0.041-0.101c0.015-0.016,0.05-0.042,0.101-0.042l1.516-0.005l0.056-0.304
				c0.068-0.372,0.154-0.716,0.261-1.051c0.108-0.334,0.246-0.675,0.422-1.044l0.134-0.281l-1.238-0.894
				c-0.064-0.047-0.078-0.137-0.032-0.201l1.209-1.675c0.039-0.053,0.073-0.073,0.106-0.073c0.032,0,0.062,0.018,0.094,0.041
				l1.238,0.895l0.224-0.215c0.53-0.508,1.128-0.944,1.776-1.295l0.274-0.149l-0.476-1.455c-0.024-0.076,0.016-0.156,0.091-0.182
				l2.009-0.651c0.051,0,0.113,0.031,0.136,0.098l0.479,1.462l0.307-0.041c0.402-0.054,0.76-0.082,1.117-0.082
				c0.344,0,0.688,0.025,1.075,0.077l0.309,0.041l0.472-1.467C109.491,102.255,109.546,102.225,109.63,102.225 M107.608,116.577
				c2.519,0,4.569-2.049,4.569-4.568c0-2.519-2.05-4.569-4.569-4.569s-4.569,2.05-4.569,4.569
				C103.04,114.527,105.089,116.577,107.608,116.577 M109.63,100.707L109.63,100.707L109.63,100.707
				c-0.747,0-1.376,0.448-1.602,1.142l-0.098,0.306c-0.105-0.004-0.209-0.005-0.314-0.005c-0.121,0-0.24,0.003-0.363,0.008
				l-0.098-0.302c-0.227-0.686-0.86-1.143-1.578-1.143h-0.239l-0.228,0.074l-2.009,0.651c-0.872,0.292-1.345,1.226-1.068,2.089
				l0.101,0.306c-0.188,0.127-0.372,0.261-0.55,0.401l-0.252-0.183c-0.303-0.219-0.633-0.328-0.982-0.328
				c-0.526,0-1.013,0.255-1.335,0.7l-1.211,1.677c-0.255,0.348-0.364,0.8-0.293,1.235c0.07,0.436,0.305,0.819,0.661,1.079
				l0.252,0.182c-0.042,0.115-0.082,0.23-0.119,0.345c-0.032,0.103-0.064,0.205-0.094,0.309l-0.302,0.001
				c-0.441,0-0.875,0.184-1.186,0.503c-0.299,0.299-0.475,0.735-0.469,1.179l0.005,2.048c0.008,0.918,0.754,1.657,1.661,1.657
				l0.295-0.001c0.064,0.222,0.136,0.443,0.216,0.661l-0.235,0.171c-0.348,0.253-0.59,0.645-0.659,1.075
				c-0.07,0.43,0.035,0.879,0.29,1.234l1.228,1.68c0.318,0.439,0.805,0.694,1.332,0.694c0.357,0,0.691-0.113,0.993-0.336
				l0.218-0.159c0.185,0.145,0.375,0.282,0.571,0.413l-0.084,0.26c-0.136,0.422-0.099,0.873,0.104,1.269
				c0.203,0.395,0.549,0.688,0.973,0.823l2.009,0.639l0.224,0.071h0.236c0.719,0,1.353-0.459,1.578-1.142l0.085-0.263
				c0.113,0.004,0.225,0.006,0.337,0.006c0.123,0,0.247-0.003,0.373-0.008l0.082,0.252c0.225,0.684,0.859,1.143,1.578,1.143h0.24
				l0.228-0.074l2.008-0.651c0.429-0.141,0.771-0.437,0.971-0.834s0.232-0.848,0.093-1.269l-0.082-0.25
				c0.195-0.132,0.385-0.272,0.57-0.418l0.22,0.158c0.291,0.207,0.624,0.314,0.972,0.314c0.525,0,1.025-0.252,1.337-0.675
				l1.219-1.688c0.258-0.357,0.365-0.812,0.292-1.247c-0.068-0.423-0.302-0.807-0.661-1.068l-0.237-0.17
				c0.038-0.104,0.073-0.207,0.106-0.309c0.038-0.117,0.073-0.235,0.106-0.356l0.286-0.001c0.437,0,0.862-0.177,1.17-0.487
				c0.313-0.312,0.49-0.743,0.485-1.187l-0.005-2.054c-0.003-0.914-0.747-1.657-1.66-1.657l-0.31,0.001
				c-0.064-0.219-0.137-0.435-0.216-0.65l0.249-0.182c0.733-0.53,0.901-1.569,0.367-2.312l-1.225-1.676
				c-0.325-0.442-0.809-0.694-1.332-0.694c-0.349,0-0.679,0.11-0.98,0.325l-0.265,0.194c-0.179-0.139-0.362-0.27-0.551-0.396
				l0.096-0.302c0.14-0.416,0.098-0.893-0.117-1.293c-0.196-0.373-0.535-0.659-0.95-0.795l-1.972-0.635l-0.183-0.059l-0.192-0.012
				l-0.045-0.003L109.63,100.707L109.63,100.707L109.63,100.707z M107.608,115.059c-1.683,0-3.051-1.368-3.051-3.051
				c0-1.683,1.368-3.051,3.051-3.051s3.051,1.368,3.051,3.051C110.659,113.69,109.291,115.059,107.608,115.059L107.608,115.059z"/>
		</g>
	</g>
	<g>
		<g>
			<path fill="none" stroke="#BAD9FF" stroke-miterlimit="10" d="M100.106,95.377c-0.128-0.093-0.176-0.257-0.142-0.411
				c0.082-0.382,0.128-0.776,0.128-1.182c0-0.406-0.046-0.8-0.128-1.182c-0.033-0.154,0.015-0.318,0.142-0.411l1.769-1.286
				c0.113-0.082,0.138-0.24,0.056-0.353l-2.081-2.865c-0.082-0.113-0.24-0.138-0.353-0.056l-1.708,1.241
				c-0.13,0.095-0.304,0.078-0.44-0.005c-0.7-0.433-1.499-0.718-2.354-0.819c-0.156-0.019-0.297-0.116-0.346-0.266l-0.628-1.928
				c-0.043-0.133-0.185-0.205-0.319-0.163l-3.367,1.094c-0.133,0.043-0.205,0.185-0.163,0.319l0.591,1.82
				c0.042,0.131,0.023,0.28-0.084,0.366c-0.723,0.583-1.3,1.337-1.674,2.2c-0.066,0.15-0.198,0.272-0.362,0.272H86.79
				c-0.14,0-0.253,0.113-0.253,0.253v3.541c0,0.14,0.113,0.253,0.253,0.253h1.855c0.139,0,0.276,0.066,0.33,0.194
				c0.362,0.87,0.929,1.631,1.642,2.225c0.124,0.104,0.198,0.266,0.149,0.42l-0.591,1.82c-0.043,0.133,0.03,0.275,0.163,0.319
				l3.367,1.094c0.133,0.043,0.276-0.03,0.319-0.163l0.628-1.928c0.05-0.158,0.208-0.249,0.373-0.269
				c0.854-0.105,1.652-0.393,2.349-0.83c0.129-0.08,0.295-0.081,0.418,0.008l1.708,1.241c0.113,0.082,0.271,0.057,0.353-0.056
				l2.082-2.865c0.082-0.113,0.057-0.271-0.056-0.353L100.106,95.377z"/>
		</g>
		<circle fill="none" stroke="#BAD9FF" stroke-miterlimit="10" cx="94.258" cy="93.784" r="2.15"/>
	</g>
</g>
</svg>
