<?xml version="1.0" encoding="utf-8"?>
<!-- Generator: Adobe Illustrator 17.0.0, SVG Export Plug-In . SVG Version: 6.00 Build 0)  -->
<!DOCTYPE svg PUBLIC "-//W3C//DTD SVG 1.1//EN" "http://www.w3.org/Graphics/SVG/1.1/DTD/svg11.dtd">
<svg version="1.1" xmlns="http://www.w3.org/2000/svg" xmlns:xlink="http://www.w3.org/1999/xlink" x="0px" y="0px" width="300px"
	 height="300px" viewBox="0 0 300 300" enable-background="new 0 0 300 300" xml:space="preserve">
<g id="dashboards">
	<path opacity="0.35" fill="#939598" enable-background="new    " d="M224.167,152.798h-39.623c-4.934,0-8.949,4.014-8.949,8.948
		v61.314c0,4.936,4.014,8.948,8.949,8.948h39.623c4.934,0,8.948-4.013,8.948-8.948v-61.314
		C233.116,156.812,229.102,152.798,224.167,152.798z"/>
	<path fill="#FFFFFF" stroke="#5D73A2" stroke-width="3" stroke-linecap="round" stroke-linejoin="round" d="M220.241,152.798
		c4.934,0,8.948,4.014,8.948,8.948v61.314c0,4.936-4.013,8.948-8.948,8.948h-39.623c-4.934,0-8.949-4.013-8.949-8.948v-61.314
		c0-4.933,4.014-8.948,8.949-8.948L220.241,152.798L220.241,152.798z"/>
	<rect x="176.53" y="160.646" fill="#7EB3E4" width="47.621" height="58.666"/>
	<path fill="none" stroke="#5D73A2" stroke-width="3" stroke-linecap="round" stroke-linejoin="round" d="M200.34,222.597
		c-1.449,0-2.629,1.173-2.629,2.629c0,1.453,1.179,2.631,2.629,2.631c1.456,0,2.63-1.178,2.63-2.631
		C202.97,223.77,201.795,222.597,200.34,222.597z"/>
	<g>
		<path fill="#A9CD68" stroke="#5D73A2" stroke-width="3" stroke-miterlimit="10" d="M184.236,185.483
			c0,8.61,6.977,15.589,15.586,15.589c8.608,0,15.587-6.979,15.587-15.589c0-8.607-6.979-15.586-15.587-15.586
			C191.213,169.897,184.236,176.876,184.236,185.483z"/>
		<path fill="#FFFFFF" stroke="#5D73A2" stroke-width="3" stroke-miterlimit="10" d="M199.827,185.483v-17.108
			c9.495,0,17.204,7.64,17.319,17.108H199.827z"/>
		<path fill="#36B8D1" stroke="#5D73A2" stroke-width="3" stroke-miterlimit="10" d="M215.411,185.387c0,0.035,0,0.066,0,0.096
			c0,8.61-6.979,15.589-15.586,15.589c-8.61,0-15.59-6.979-15.59-15.589c0-0.03,0.006-0.062,0.006-0.096H215.411L215.411,185.387z"
			/>
		<path fill="#FAD978" stroke="#5D73A2" stroke-width="3" stroke-miterlimit="10" d="M199.827,185.405l13.12-13.123
			c7.281,7.284,7.332,19.054,0.162,26.404L199.827,185.405z"/>
		<path fill="#FFFFFF" stroke="#5D73A2" stroke-width="3" stroke-miterlimit="10" d="M199.817,185.499l-7.792,15.234
			c-8.452-4.326-11.835-14.639-7.624-23.121L199.817,185.499z"/>
		<path fill="#F0777E" stroke="#5D73A2" stroke-width="3" stroke-miterlimit="10" d="M199.841,185.387l5.562,17.222
			c-9.556,3.086-19.8-2.097-22.992-11.59L199.841,185.387z"/>
		<path fill="#65CBE9" stroke="#5D73A2" stroke-width="3" stroke-miterlimit="10" d="M193.698,185.387
			c0,3.386,2.744,6.128,6.128,6.128c3.384,0,6.124-2.743,6.124-6.128c0-3.38-2.74-6.127-6.124-6.127
			C196.444,179.26,193.698,182.007,193.698,185.387z"/>
	</g>
	<rect x="182.339" y="209.583" fill="#FFFFFF" width="31.6" height="1.959"/>
	<rect x="182.339" y="213.083" fill="#FFFFFF" width="26.64" height="1.959"/>
	<path opacity="0.35" fill="#939598" enable-background="new    " d="M168.835,132.934c-6.084,0-5.152,4.527-5.152,10.611v77.43
		c0,6.087,4.95,11.035,11.034,11.035h8.533c5.886-1.65,9.943-5.542,9.943-12.538v-2.097h-11.628l0.001-76.402
		c0-4.439-3.6-8.037-8.038-8.037L168.835,132.934L168.835,132.934z"/>
	<g>
		<g>
			<g>
				<g>

						<path fill="#EFEFEF" stroke="#5D73A2" stroke-width="3" stroke-linecap="round" stroke-linejoin="round" stroke-miterlimit="10" d="
						M37.642,139.561c0-3.662,2.966-6.628,6.626-6.628h125.464c3.658,0,6.627,2.966,6.627,6.628l-0.002,78.56H37.64L37.642,139.561z
						"/>
					<g>

							<path fill="#EFEFEF" stroke="#5D73A2" stroke-width="3" stroke-linecap="round" stroke-linejoin="round" stroke-miterlimit="10" d="
							M28.15,218.121v2.87c0,7.987,6.475,11.018,14.462,11.018h128.775c7.987,0,14.462-3.032,14.462-11.018v-2.87H28.15z"/>
					</g>

						<rect x="47.195" y="143.579" fill="#7EB3E4" stroke="#5D73A2" stroke-width="3" stroke-linecap="round" stroke-linejoin="round" stroke-miterlimit="10" width="121.246" height="69.85"/>
				</g>
			</g>
		</g>
	</g>
	<g>
		<rect x="70.463" y="156.984" fill="#FFFFFF" width="15.279" height="1.466"/>
		<rect x="70.463" y="160.078" fill="#FFFFFF" width="23.661" height="1.466"/>
		<rect x="70.463" y="163.172" fill="#FFFFFF" width="19.948" height="1.466"/>
		<g>
			<g>
				<rect x="70.967" y="192.182" fill="#F0777E" width="9.508" height="11.36"/>
				<rect x="85.153" y="185.599" fill="#FAD978" width="9.508" height="17.943"/>
				<rect x="99.34" y="179.488" fill="#A9CD68" width="9.509" height="24.054"/>
				<rect x="113.527" y="182.295" fill="#F0777E" width="9.508" height="21.247"/>
				<rect x="127.714" y="169.058" fill="#FAD978" width="9.508" height="34.483"/>
				<rect x="141.9" y="154.326" fill="#A9CD68" width="9.508" height="49.216"/>
				<g>
					<rect x="60.598" y="157.404" fill="#FFFFFF" width="3.406" height="1.518"/>
					<rect x="60.598" y="165.021" fill="#FFFFFF" width="3.406" height="1.518"/>
					<rect x="60.598" y="172.642" fill="#FFFFFF" width="3.406" height="1.518"/>
					<rect x="60.598" y="180.261" fill="#FFFFFF" width="3.406" height="1.518"/>
					<rect x="60.598" y="187.881" fill="#FFFFFF" width="3.406" height="1.517"/>
					<rect x="60.598" y="195.499" fill="#FFFFFF" width="3.406" height="1.517"/>
					<rect x="60.598" y="203.118" fill="#FFFFFF" width="3.406" height="1.518"/>
				</g>
			</g>
			<path fill="none" stroke="#EFEFEF" stroke-width="3" stroke-miterlimit="10" d="M74.501,180.814l9.774-8.111l4.38,5.251
				l14.634-12.284c0,0,6.367,7.78,6.922,8.457l17.721-14.746"/>
			<polyline fill="none" stroke="#5D73A2" stroke-width="3" stroke-miterlimit="10" points="66.228,157.407 66.228,203.939
				154.165,203.939 			"/>
		</g>
	</g>

		<rect x="239.124" y="209.726" transform="matrix(0.3195 -0.9476 0.9476 0.3195 -39.1531 377.5835)" fill="#FFFFFF" stroke="#5D73A2" stroke-width="3" stroke-miterlimit="10" width="8.377" height="12.651"/>
	<circle fill="#FFFFFF" stroke="#5D73A2" stroke-width="3" stroke-miterlimit="10" cx="216.888" cy="207.138" r="24.103"/>
	<circle fill="#7EB3E4" stroke="#5D73A2" stroke-miterlimit="10" cx="216.887" cy="207.138" r="18.743"/>
	<path fill="#F0777E" stroke="#5D73A2" stroke-width="3" stroke-miterlimit="10" d="M269.377,217.643
		c3.556,1.2,5.467,5.054,4.266,8.61c-1.2,3.556-5.054,5.467-8.609,4.268l-17.154-5.76c-1.074-0.361-1.65-1.524-1.288-2.6
		l3.032-8.989c0.363-1.073,1.526-1.649,2.599-1.287L269.377,217.643z"/>
	<g>
		<g>
			<path id="SVGID_1_" fill="#3DD0EC" d="M220.254,188.507c10.29,1.861,17.124,11.709,15.263,21.997
				c-1.86,10.287-11.708,17.123-21.997,15.263c-10.29-1.86-17.124-11.708-15.263-21.997
				C200.117,193.483,209.965,186.649,220.254,188.507z"/>
		</g>
		<g>
			<g>
				<g>
					<g>
						<defs>
							<circle id="SVGID_3_" cx="216.887" cy="207.138" r="18.932"/>
						</defs>
						<clipPath id="SVGID_4_">
							<use xlink:href="#SVGID_3_"  overflow="visible"/>
						</clipPath>
						<g clip-path="url(#SVGID_4_)">
							<path fill="#36B8D1" stroke="#5D73A2" stroke-width="6" stroke-miterlimit="10" d="M199.733,191.459l-2.844-27.026
								c15-1.578,28.45,9.209,30.205,24.147L199.733,191.459z"/>
							<path fill="#A9CD68" stroke="#5D73A2" stroke-width="3" stroke-miterlimit="10" d="M224.338,188.716
								c0.006,0.055,0.011,0.105,0.016,0.152c1.431,13.602-8.433,25.785-22.03,27.216c-13.602,1.431-25.787-8.433-27.219-22.034
								c-0.005-0.047-0.002-0.098-0.007-0.152L224.338,188.716z"/>
							<path fill="#FAD978" stroke="#5D73A2" stroke-width="3" stroke-miterlimit="10" d="M199.72,191.336l18.545-22.914
								c12.714,10.296,14.75,28.883,4.643,41.684L199.72,191.336z"/>
							<path fill="#F0777E" stroke="#5D73A2" stroke-width="6" stroke-miterlimit="10" d="M199.723,191.486l-9.778,25.362
								c-14.072-5.43-21.131-21.16-15.889-35.26L199.723,191.486z"/>
							<path fill="#F0777E" stroke="#5D73A2" stroke-width="3" stroke-miterlimit="10" d="M199.741,191.305l11.65,26.282
								c-14.583,6.464-31.628-0.021-38.249-14.487L199.741,191.305z"/>
							<path fill="#65CBE9" stroke="#5D73A2" stroke-width="3" stroke-miterlimit="10" d="M190.036,192.326
								c0.563,5.348,5.354,9.224,10.7,8.662c5.346-0.562,9.219-5.352,8.656-10.699c-0.562-5.34-5.346-9.224-10.693-8.661
								C193.355,182.19,189.476,186.986,190.036,192.326z"/>
						</g>
					</g>
				</g>
			</g>
		</g>
		<g>
			<path id="SVGID_2_" fill="none" stroke="#5D73A2" stroke-width="3" stroke-miterlimit="10" d="M220.254,188.507
				c10.29,1.861,17.124,11.709,15.263,21.997c-1.86,10.287-11.708,17.123-21.997,15.263c-10.29-1.86-17.124-11.708-15.263-21.997
				C200.117,193.483,209.965,186.649,220.254,188.507z"/>
		</g>
	</g>
</g>
<g id="floating">

		<line fill="none" stroke="#BAD9FF" stroke-width="3" stroke-miterlimit="10" x1="261.854" y1="131.915" x2="244.072" y2="131.915"/>
	<g>
		<line fill="none" stroke="#BAD9FF" stroke-width="3" stroke-miterlimit="10" x1="139.538" y1="93.344" x2="133.659" y2="87.464"/>
		<line fill="none" stroke="#BAD9FF" stroke-width="3" stroke-miterlimit="10" x1="133.659" y1="93.344" x2="139.538" y2="87.464"/>
	</g>
	<line fill="none" stroke="#BAD9FF" stroke-width="3" stroke-miterlimit="10" x1="177.637" y1="53.637" x2="217.841" y2="53.637"/>
	<line fill="none" stroke="#BAD9FF" stroke-width="3" stroke-miterlimit="10" x1="205.288" y1="59.99" x2="223.07" y2="59.99"/>
	<line fill="none" stroke="#BAD9FF" stroke-width="3" stroke-miterlimit="10" x1="178.383" y1="47.285" x2="196.165" y2="47.285"/>
	<line fill="none" stroke="#BAD9FF" stroke-width="3" stroke-miterlimit="10" x1="95.31" y1="64.725" x2="113.091" y2="64.725"/>
	<line fill="none" stroke="#BAD9FF" stroke-width="3" stroke-miterlimit="10" x1="27.856" y1="76.336" x2="47.236" y2="76.336"/>
	<path fill="none" stroke="#BAD9FF" stroke-width="3" stroke-linecap="round" stroke-linejoin="round" stroke-miterlimit="10" d="
		M269.762,132.009c0,1.404-1.143,2.546-2.549,2.546c-1.405,0-2.546-1.142-2.546-2.546c0-1.409,1.141-2.55,2.546-2.55
		C268.619,129.458,269.762,130.6,269.762,132.009z"/>
	<g>
		<g>
			<line fill="none" stroke="#BAD9FF" stroke-width="3" stroke-miterlimit="10" x1="180.489" y1="90.42" x2="180.043" y2="90.42"/>

				<line fill="none" stroke="#BAD9FF" stroke-width="3" stroke-miterlimit="10" stroke-dasharray="1.9612,1.9612" x1="179.169" y1="90.42" x2="142.909" y2="90.42"/>
			<line fill="none" stroke="#BAD9FF" stroke-width="3" stroke-miterlimit="10" x1="142.473" y1="90.42" x2="142.027" y2="90.42"/>
		</g>
	</g>
	<g>
		<line fill="none" stroke="#BAD9FF" stroke-width="3" stroke-miterlimit="10" x1="190.468" y1="261.75" x2="184.589" y2="255.87"/>
		<line fill="none" stroke="#BAD9FF" stroke-width="3" stroke-miterlimit="10" x1="184.589" y1="261.75" x2="190.468" y2="255.87"/>
	</g>
	<g>
		<g>

				<line fill="none" stroke="#BAD9FF" stroke-width="3" stroke-miterlimit="10" x1="231.419" y1="258.825" x2="230.973" y2="258.825"/>

				<line fill="none" stroke="#BAD9FF" stroke-width="3" stroke-miterlimit="10" stroke-dasharray="1.9612,1.9612" x1="230.099" y1="258.825" x2="193.839" y2="258.825"/>

				<line fill="none" stroke="#BAD9FF" stroke-width="3" stroke-miterlimit="10" x1="193.402" y1="258.825" x2="192.957" y2="258.825"/>
		</g>
	</g>
	<line fill="none" stroke="#BAD9FF" stroke-width="3" stroke-miterlimit="10" x1="158.372" y1="108.958" x2="138.89" y2="108.958"/>

		<rect x="210.88" y="107.95" fill="none" stroke="#BAD9FF" stroke-width="3" stroke-miterlimit="10" width="5.202" height="10.419"/>

		<rect x="220.053" y="95.156" fill="none" stroke="#BAD9FF" stroke-width="3" stroke-miterlimit="10" width="5.203" height="23.213"/>

		<rect x="229.228" y="99.186" fill="none" stroke="#BAD9FF" stroke-width="3" stroke-miterlimit="10" width="5.203" height="19.183"/>

		<rect x="238.403" y="88.505" fill="none" stroke="#BAD9FF" stroke-width="3" stroke-miterlimit="10" width="5.202" height="29.864"/>
	<polyline fill="none" stroke="#BAD9FF" stroke-width="3" stroke-miterlimit="10" points="246.677,118.369 206.909,118.369
		206.909,85.195 	"/>
	<g>
		<polyline fill="none" stroke="#BAD9FF" stroke-width="3" stroke-miterlimit="10" points="142.447,45.338 116.418,45.338
			116.418,35.512 		"/>
		<g>
			<g>
				<path fill="none" stroke="#BAD9FF" stroke-width="3" stroke-miterlimit="10" d="M132.792,42.927
					c-4.395-0.299-4.554-7.189-4.708-13.853c-0.095-4.18-0.215-9.368-1.796-9.507c-1.58,0.139-1.7,5.327-1.796,9.507
					c-0.155,6.663-0.313,13.553-4.708,13.853"/>
			</g>
			<g>
				<path fill="none" stroke="#BAD9FF" stroke-width="3" stroke-miterlimit="10" d="M141.123,42.928
					c-4.409,0-5.257-4.544-5.879-7.863c-0.463-2.48-0.839-4.116-1.772-4.163c-0.935,0.046-1.311,1.682-1.774,4.163
					c-0.619,3.318-1.469,7.863-5.878,7.863"/>
			</g>
		</g>
	</g>
	<g>
		<g>
			<g>
				<path fill="#BAD9FF" stroke="#BAD9FF" stroke-miterlimit="10" d="M95.791,92.481c0.006,0,0.012,0,0.02,0.001l1.732,0.558
					c0.043,0.014,0.065,0.045,0.074,0.063c0.009,0.017,0.022,0.053,0.007,0.096l-0.414,1.288l0.241,0.129
					c0.576,0.307,1.105,0.688,1.571,1.129l0.198,0.189l1.088-0.796c0.028-0.02,0.055-0.036,0.084-0.036
					c0.029,0,0.06,0.017,0.093,0.063l1.074,1.468c0.041,0.056,0.029,0.137-0.027,0.177l-1.088,0.796l0.121,0.248
					c0.286,0.588,0.493,1.207,0.613,1.84l0.052,0.268l1.335-0.004c0.069,0,0.125,0.057,0.126,0.126l0.004,1.819
					c0.001,0.045-0.022,0.076-0.036,0.089c-0.013,0.014-0.043,0.037-0.089,0.037l-1.329,0.004l-0.048,0.27
					c-0.059,0.334-0.139,0.66-0.238,0.967c-0.09,0.28-0.207,0.57-0.357,0.889l-0.115,0.246l1.074,0.775
					c0.036,0.027,0.048,0.063,0.051,0.082c0.004,0.019,0.004,0.057-0.022,0.093l-1.066,1.475c-0.034,0.046-0.083,0.052-0.102,0.052
					s-0.046-0.004-0.074-0.024l-1.065-0.768l-0.197,0.191c-0.47,0.455-1.001,0.843-1.579,1.157l-0.241,0.131l0.408,1.245
					c0.022,0.066-0.014,0.137-0.08,0.159l-1.769,0.573c-0.046,0-0.1-0.027-0.121-0.086l-0.409-1.245l-0.271,0.036
					c-0.356,0.048-0.672,0.073-0.991,0.073c-0.307,0-0.617-0.023-0.966-0.069l-0.272-0.036l-0.402,1.249
					c-0.02,0.061-0.076,0.088-0.122,0.088l-1.77-0.563c-0.068-0.021-0.103-0.092-0.083-0.159l0.402-1.249l-0.241-0.129
					c-0.58-0.313-1.114-0.698-1.584-1.147l-0.199-0.19l-1.063,0.777c-0.027,0.02-0.055,0.036-0.084,0.036s-0.06-0.017-0.093-0.063
					l-1.074-1.468c-0.026-0.036-0.026-0.075-0.022-0.095c0.003-0.019,0.013-0.055,0.05-0.082l1.07-0.783l-0.118-0.247
					c-0.285-0.591-0.489-1.214-0.606-1.852l-0.049-0.27l-1.33,0.004c-0.069,0-0.126-0.057-0.127-0.126l-0.004-1.82
					c-0.001-0.045,0.022-0.076,0.036-0.089c0.013-0.014,0.044-0.037,0.089-0.037l1.335-0.004l0.049-0.268
					c0.06-0.328,0.136-0.631,0.23-0.926c0.095-0.294,0.217-0.595,0.372-0.92l0.118-0.248l-1.091-0.788
					c-0.056-0.041-0.069-0.121-0.028-0.177l1.065-1.475c0.034-0.047,0.064-0.064,0.093-0.064c0.028,0,0.055,0.016,0.083,0.036
					l1.091,0.788l0.197-0.189c0.467-0.447,0.994-0.832,1.564-1.141l0.241-0.131l-0.419-1.282c-0.021-0.067,0.014-0.137,0.08-0.16
					l1.77-0.573c0.045,0,0.1,0.027,0.12,0.086l0.422,1.288l0.27-0.036c0.354-0.048,0.669-0.072,0.984-0.072
					c0.303,0,0.606,0.022,0.947,0.068l0.272,0.036l0.416-1.292C95.668,92.507,95.717,92.481,95.791,92.481 M94.01,105.123
					c2.219,0,4.025-1.805,4.025-4.024s-1.806-4.025-4.025-4.025s-4.025,1.806-4.025,4.025
					C89.986,103.318,91.791,105.123,94.01,105.123 M95.791,91.144L95.791,91.144L95.791,91.144c-0.658,0-1.212,0.395-1.411,1.006
					l-0.086,0.27c-0.092-0.004-0.184-0.004-0.277-0.004c-0.107,0-0.211,0.003-0.32,0.007l-0.086-0.266
					c-0.2-0.604-0.758-1.007-1.39-1.007H92.01l-0.201,0.065l-1.77,0.573c-0.768,0.257-1.185,1.08-0.941,1.84l0.089,0.27
					c-0.166,0.112-0.328,0.23-0.484,0.353l-0.222-0.161c-0.267-0.193-0.558-0.289-0.865-0.289c-0.463,0-0.892,0.225-1.176,0.617
					l-1.067,1.477c-0.225,0.307-0.321,0.705-0.258,1.088c0.062,0.384,0.269,0.721,0.582,0.95l0.222,0.16
					c-0.037,0.101-0.072,0.203-0.105,0.304c-0.028,0.091-0.056,0.181-0.083,0.272l-0.266,0.001c-0.388,0-0.771,0.162-1.045,0.443
					c-0.263,0.263-0.418,0.647-0.413,1.039l0.004,1.804c0.007,0.809,0.664,1.46,1.463,1.46l0.26-0.001
					c0.056,0.196,0.12,0.39,0.19,0.582l-0.207,0.151c-0.307,0.223-0.52,0.568-0.581,0.947c-0.062,0.379,0.031,0.774,0.255,1.087
					l1.082,1.48c0.28,0.387,0.709,0.611,1.173,0.611c0.314,0,0.609-0.1,0.875-0.296l0.192-0.14c0.163,0.128,0.33,0.248,0.503,0.364
					l-0.074,0.229c-0.12,0.372-0.087,0.769,0.092,1.118c0.179,0.348,0.484,0.606,0.857,0.725l1.77,0.563l0.197,0.063h0.208
					c0.633,0,1.192-0.404,1.39-1.006l0.075-0.232c0.1,0.004,0.198,0.005,0.297,0.005c0.108,0,0.218-0.003,0.329-0.007l0.072,0.222
					c0.198,0.603,0.757,1.007,1.39,1.007h0.211l0.201-0.065l1.769-0.573c0.378-0.124,0.679-0.385,0.855-0.735
					c0.176-0.35,0.204-0.747,0.082-1.118l-0.072-0.22c0.172-0.116,0.339-0.24,0.502-0.368l0.194,0.139
					c0.256,0.182,0.55,0.277,0.856,0.277c0.462,0,0.903-0.222,1.178-0.595l1.074-1.487c0.227-0.314,0.322-0.715,0.257-1.098
					c-0.06-0.373-0.266-0.711-0.582-0.941l-0.209-0.15c0.033-0.092,0.064-0.182,0.093-0.272c0.033-0.103,0.064-0.207,0.093-0.314
					l0.252-0.001c0.385,0,0.759-0.156,1.031-0.429c0.276-0.275,0.432-0.654,0.427-1.046l-0.004-1.809
					c-0.003-0.805-0.658-1.46-1.462-1.46l-0.273,0.001c-0.056-0.193-0.121-0.383-0.19-0.573l0.219-0.16
					c0.646-0.467,0.794-1.382,0.323-2.037l-1.079-1.476c-0.286-0.389-0.713-0.611-1.173-0.611c-0.307,0-0.598,0.097-0.863,0.286
					l-0.233,0.171c-0.158-0.122-0.319-0.238-0.485-0.349l0.085-0.266c0.123-0.366,0.086-0.787-0.103-1.139
					c-0.173-0.329-0.471-0.58-0.837-0.7l-1.737-0.559l-0.161-0.052l-0.169-0.011l-0.04-0.003L95.791,91.144L95.791,91.144
					L95.791,91.144z M94.01,103.786c-1.483,0-2.688-1.205-2.688-2.688s1.205-2.688,2.688-2.688s2.688,1.205,2.688,2.688
					C96.697,102.58,95.491,103.786,94.01,103.786L94.01,103.786z"/>
			</g>
		</g>
		<g>
			<g>
				<path fill="none" stroke="#BAD9FF" stroke-miterlimit="10" d="M87.401,86.449c-0.113-0.082-0.155-0.226-0.125-0.362
					c0.072-0.337,0.113-0.684,0.113-1.041c0-0.358-0.041-0.705-0.113-1.041c-0.029-0.136,0.013-0.28,0.125-0.362l1.558-1.133
					c0.1-0.072,0.122-0.211,0.049-0.311l-1.833-2.524c-0.072-0.1-0.211-0.122-0.311-0.049l-1.505,1.093
					c-0.115,0.084-0.268,0.069-0.388-0.004c-0.617-0.381-1.32-0.632-2.074-0.721c-0.137-0.017-0.262-0.102-0.305-0.234l-0.553-1.698
					c-0.038-0.117-0.163-0.181-0.281-0.144l-2.966,0.964c-0.117,0.038-0.181,0.163-0.144,0.281l0.521,1.603
					c0.037,0.115,0.02,0.247-0.074,0.322c-0.637,0.514-1.145,1.178-1.475,1.938c-0.058,0.132-0.174,0.24-0.319,0.24H75.67
					c-0.123,0-0.223,0.1-0.223,0.223v3.119c0,0.123,0.1,0.223,0.223,0.223h1.634c0.122,0,0.243,0.058,0.291,0.171
					c0.319,0.766,0.818,1.437,1.446,1.96c0.109,0.092,0.174,0.234,0.131,0.37l-0.521,1.603c-0.038,0.117,0.026,0.242,0.144,0.281
					l2.966,0.964c0.117,0.038,0.243-0.026,0.281-0.144l0.553-1.698c0.044-0.139,0.183-0.219,0.329-0.237
					c0.752-0.092,1.455-0.346,2.069-0.731c0.114-0.07,0.26-0.071,0.368,0.007l1.505,1.093c0.1,0.072,0.239,0.05,0.311-0.049
					l1.834-2.524c0.072-0.1,0.05-0.239-0.049-0.311L87.401,86.449z"/>
			</g>
			<circle fill="none" stroke="#BAD9FF" stroke-miterlimit="10" cx="82.25" cy="85.045" r="1.894"/>
		</g>
	</g>
	<line fill="none" stroke="#BAD9FF" stroke-width="3" stroke-miterlimit="10" x1="52.132" y1="270.075" x2="34.35" y2="270.075"/>
	<path fill="none" stroke="#BAD9FF" stroke-width="3" stroke-linecap="round" stroke-linejoin="round" stroke-miterlimit="10" d="
		M60.04,270.169c0,1.404-1.143,2.546-2.549,2.546c-1.405,0-2.546-1.142-2.546-2.546c0-1.409,1.141-2.55,2.546-2.55
		C58.896,267.618,60.04,268.76,60.04,270.169z"/>

		<line fill="none" stroke="#BAD9FF" stroke-width="3" stroke-miterlimit="10" x1="110.659" y1="256.917" x2="130.039" y2="256.917"/>
</g>
</svg>
