<?xml version="1.0" encoding="utf-8"?>
<!-- Generator: Adobe Illustrator 17.0.0, SVG Export Plug-In . SVG Version: 6.00 Build 0)  -->
<!DOCTYPE svg PUBLIC "-//W3C//DTD SVG 1.1//EN" "http://www.w3.org/Graphics/SVG/1.1/DTD/svg11.dtd">
<svg version="1.1" id="Layer_1" xmlns="http://www.w3.org/2000/svg" xmlns:xlink="http://www.w3.org/1999/xlink" x="0px" y="0px"
	 width="300px" height="300px" viewBox="-36.756 0 300 300" enable-background="new -36.756 0 300 300" xml:space="preserve">
<line fill="none" stroke="#BAD9FF" stroke-width="3" stroke-linecap="round" stroke-linejoin="round" stroke-miterlimit="10" stroke-dasharray="0,0,0,6" x1="145.803" y1="157.731" x2="145.803" y2="183.22"/>
<path id="XMLID_165_" fill="#DCDEE0" stroke="#5D73A2" stroke-width="3" stroke-linecap="round" stroke-linejoin="round" stroke-miterlimit="10" d="
	M115.694,26.228v-6.516h-4.39c-0.309-1.321-0.813-2.564-1.481-3.703l3.068-3.068l-4.608-4.608l-3.02,3.02
	c-1.149-0.706-2.407-1.241-3.75-1.577V5.529h-6.516v4.248c-1.342,0.336-2.602,0.871-3.75,1.577l-3.02-3.02l-4.608,4.608l3.068,3.068
	c-0.668,1.139-1.171,2.382-1.481,3.703h-4.39v6.516h4.489c0.338,1.271,0.855,2.465,1.527,3.558l-3.212,3.212l4.608,4.608
	l3.259-3.259c1.083,0.636,2.262,1.12,3.512,1.433v4.631h6.516v-4.631c1.25-0.312,2.428-0.796,3.512-1.433l3.259,3.259l4.608-4.608
	l-3.212-3.212c0.672-1.093,1.19-2.287,1.527-3.558H115.694z M98.253,26.995c-2.329,0-4.216-1.888-4.216-4.216
	s1.888-4.216,4.216-4.216s4.216,1.888,4.216,4.216C102.47,25.107,100.582,26.995,98.253,26.995z"/>
<g transform="translate(1 1)">
	<g>
		<path fill="#F1F2F3" d="M45.175,210.606v76.911c0,1.567,1.14,2.848,2.422,2.848h49.138c1.424,0,2.422-1.282,2.422-2.848v-76.911
			c0-1.567-1.14-2.848-2.422-2.848H47.597C46.315,207.758,45.175,209.039,45.175,210.606"/>
	</g>
	<path fill="#FFFFFF" d="M45.175,287.516v-76.911c0-1.567,1.14-2.848,2.422-2.848h-3.845c-1.567,0-2.848,1.282-2.848,2.848v76.911
		c0,1.567,1.282,2.848,2.848,2.848h3.845C46.315,290.366,45.175,289.083,45.175,287.516"/>
	<path fill="#3BDDBA" d="M100.721,207.758h-3.845c1.424,0,2.422,1.282,2.422,2.848v76.911c0,1.567-1.14,2.848-2.422,2.848h3.845
		c1.567,0,2.848-1.282,2.848-2.848v-76.911C103.57,209.039,102.288,207.758,100.721,207.758"/>
	<g>
		<path fill="#54C9FD" d="M95.025,236.243v-6.836c0-3.988-3.133-7.121-7.121-7.121c-3.988,0-7.121,3.133-7.121,7.121v6.836H95.025
			L95.025,236.243z"/>
		<path fill="#54C9FD" d="M87.904,222.284c-2.422,0-4.273-1.851-4.273-4.273s1.851-4.273,4.273-4.273
			c2.422,0,4.273,1.851,4.273,4.273C92.177,220.433,90.325,222.284,87.904,222.284"/>
	</g>
	<path fill="#5D73A2" d="M87.904,223.709c-3.133,0-5.697-2.563-5.697-5.697c0-3.133,2.563-5.697,5.697-5.697
		c3.133,0,5.696,2.563,5.696,5.697C93.6,221.145,91.037,223.709,87.904,223.709z M87.904,215.163c-1.567,0-2.848,1.282-2.848,2.848
		c0,1.566,1.282,2.848,2.848,2.848c1.567,0,2.848-1.282,2.848-2.848C90.752,216.445,89.47,215.163,87.904,215.163z"/>
	<path fill="#5D73A2" d="M95.025,237.667H80.782c-0.855,0-1.424-0.57-1.424-1.424v-6.836c0-4.7,3.845-8.545,8.545-8.545
		s8.545,3.845,8.545,8.545v6.836C96.449,237.098,95.88,237.667,95.025,237.667z M82.206,234.818H93.6v-5.412
		c0-3.133-2.563-5.696-5.697-5.696c-3.133,0-5.697,2.563-5.697,5.696L82.206,234.818L82.206,234.818z"/>
	<path fill="#5D73A2" d="M100.721,291.789H43.75c-2.421,0-4.273-1.851-4.273-4.273v-76.911c0-2.422,1.851-4.273,4.273-4.273h56.972
		c2.422,0,4.273,1.851,4.273,4.273v5.697c0,0.855-0.57,1.424-1.424,1.424c-0.855,0-1.424-0.57-1.424-1.424v-5.697
		c0-0.855-0.57-1.424-1.424-1.424h-56.97c-0.855,0-1.424,0.57-1.424,1.424v76.911c0,0.855,0.57,1.424,1.424,1.424h56.972
		c0.855,0,1.424-0.57,1.424-1.424v-59.819c0-0.855,0.57-1.424,1.424-1.424c0.855,0,1.424,0.57,1.424,1.424v59.82
		C104.995,289.938,103.143,291.789,100.721,291.789z"/>
	<path fill="#5D73A2" d="M104.995,222c0-0.855-0.57-1.424-1.424-1.424c-0.855,0-1.424,0.57-1.424,1.424s0.57,1.424,1.424,1.424
		C104.424,223.424,104.995,222.855,104.995,222"/>
	<path fill="#5D73A2" d="M59.418,220.576h-9.97c-0.855,0-1.424-0.57-1.424-1.424c0-0.855,0.57-1.424,1.424-1.424h9.97
		c0.855,0,1.424,0.57,1.424,1.424S60.271,220.576,59.418,220.576z"/>
	<path fill="#5D73A2" d="M59.418,231.97h-9.97c-0.855,0-1.424-0.57-1.424-1.424s0.57-1.424,1.424-1.424h9.97
		c0.855,0,1.424,0.57,1.424,1.424S60.271,231.97,59.418,231.97z"/>
	<path fill="#5D73A2" d="M66.54,220.576h-1.424c-0.855,0-1.424-0.57-1.424-1.424c0-0.855,0.57-1.424,1.424-1.424h1.424
		c0.855,0,1.424,0.57,1.424,1.424C67.964,220.006,67.394,220.576,66.54,220.576z"/>
	<path fill="#5D73A2" d="M72.237,226.273h-7.121c-0.855,0-1.424-0.57-1.424-1.424c0-0.854,0.57-1.424,1.424-1.424h7.121
		c0.855,0,1.424,0.57,1.424,1.424C73.66,225.703,73.091,226.273,72.237,226.273z"/>
	<path fill="#5D73A2" d="M66.54,231.97h-1.424c-0.855,0-1.424-0.57-1.424-1.424s0.57-1.424,1.424-1.424h1.424
		c0.855,0,1.424,0.57,1.424,1.424C67.964,231.4,67.394,231.97,66.54,231.97z"/>
	<path fill="#5D73A2" d="M72.237,237.667h-7.121c-0.855,0-1.424-0.57-1.424-1.424s0.57-1.424,1.424-1.424h7.121
		c0.855,0,1.424,0.57,1.424,1.424C73.66,237.098,73.091,237.667,72.237,237.667z"/>
</g>
<g>
	<path fill="#FFC433" d="M92.423,77.772c-0.692-1.3-2.055-2.188-3.63-2.188c-2.273,0-4.115,1.842-4.115,4.115
		c0,2.273,1.841,4.115,4.115,4.115c1.576,0,2.938-0.887,3.63-2.188V77.772z"/>
	<path fill="#FFC433" d="M92.423,92.052c-0.692-1.3-2.055-2.188-3.63-2.188c-2.273,0-4.115,1.842-4.115,4.115
		c0,2.273,1.841,4.115,4.115,4.115c1.576,0,2.938-0.888,3.63-2.188V92.052z"/>
	<path fill="#FFC433" d="M158.191,154.1c-1.299,0.692-2.187,2.055-2.187,3.63c0,2.273,1.842,4.115,4.115,4.115
		s4.115-1.841,4.115-4.115c0-1.576-0.887-2.938-2.187-3.63H158.191z"/>
	<path fill="#FFC433" d="M143.912,154.1c-1.3,0.692-2.188,2.055-2.188,3.63c0,2.273,1.842,4.115,4.115,4.115
		c2.273,0,4.115-1.841,4.115-4.115c0-1.576-0.887-2.938-2.187-3.63H143.912z"/>
	<path fill="#FFC433" d="M172.702,154.139c-1.295,0.693-2.178,2.054-2.178,3.626c0,2.273,1.842,4.115,4.115,4.115
		s4.115-1.841,4.115-4.115c0-1.579-0.892-2.945-2.196-3.635L172.702,154.139z"/>
</g>
<g>
	<path fill="#7EFFE3" d="M147.984,36.011v33.743h32.498c0,0,0.54-8.306-5.285-11.473c-0.352-0.19-0.723-0.37-1.122-0.53
		c0,0,0.703-2.095,0.531-4.508c-0.19-2.674-1.456-5.738-5.947-6.781c0,0,0.197-7.753-7.635-8.675c-0.567-0.067-1.171-0.1-1.824-0.09
		c0,0-1.415-1.393-3.57-2.268C153.564,34.586,150.82,34.22,147.984,36.011z"/>
	<path fill="#7EFFE3" d="M128.778,37.696c-9.691-0.153-9.462,8.766-9.462,8.766c-8.543,1.982-5.415,11.289-5.415,11.289
		c-7.018,2.822-6.408,12.003-6.408,12.003h32.497V36.011C134.199,32.35,128.778,37.696,128.778,37.696z"/>
</g>
<path opacity="0.1" enable-background="new    " d="M107.495,69.754h10.161c0,0-0.539-8.145,5.264-11.449
	c-0.005-0.008-0.011-0.016-0.016-0.024c0.352-0.19,0.723-0.37,1.122-0.53c0,0-0.703-2.095-0.531-4.508
	c0.013,0,0.025,0.002,0.037,0.002c0.19-2.675,1.455-5.741,5.947-6.784c0,0-0.195-7.725,7.597-8.67
	c0.001-0.001,0.002-0.003,0.003-0.005c0.043-0.005,0.088-0.009,0.132-0.013c0.021-0.002,0.044-0.004,0.067-0.006
	c0.245-0.026,0.497-0.045,0.756-0.056c0.026-0.001,0.053-0.001,0.079-0.002c0.256-0.01,0.518-0.015,0.791-0.011
	c0,0,0.399-0.39,1.091-0.887v-0.797c-2.849-1.8-5.607-1.422-7.674-0.573c-0.002-0.004-0.004-0.008-0.006-0.012
	c-2.154,0.877-3.57,2.268-3.57,2.268c-0.272-0.004-0.535,0.001-0.791,0.011c-0.026,0.001-0.053,0.001-0.079,0.002
	c-0.26,0.012-0.512,0.032-0.756,0.056c-0.023,0.002-0.045,0.004-0.067,0.006c-0.043,0.004-0.089,0.008-0.132,0.013
	c-0.001,0.002-0.002,0.003-0.003,0.005c-7.79,0.944-7.597,8.67-7.597,8.67c-4.492,1.042-5.756,4.11-5.947,6.784
	c-0.013,0-0.025-0.003-0.037-0.002c-0.172,2.414,0.531,4.508,0.531,4.508c-0.4,0.16-0.771,0.34-1.122,0.53
	c0.005,0.008,0.011,0.016,0.016,0.024C106.956,61.609,107.495,69.754,107.495,69.754z"/>
<path opacity="0.1" enable-background="new    " d="M180.476,69.754h-10.161c0,0,0.539-8.145-5.264-11.449
	c0.005-0.008,0.011-0.016,0.016-0.024c-0.352-0.19-0.723-0.37-1.122-0.53c0,0,0.703-2.095,0.531-4.508
	c-0.013,0-0.025,0.002-0.037,0.002c-0.19-2.675-1.455-5.741-5.947-6.784c0,0,0.195-7.725-7.597-8.67
	c-0.001-0.001-0.001-0.003-0.003-0.005c-0.043-0.005-0.088-0.009-0.132-0.013c-0.021-0.002-0.044-0.004-0.067-0.006
	c-0.245-0.026-0.497-0.045-0.756-0.056c-0.026-0.001-0.053-0.001-0.079-0.002c-0.257-0.01-0.518-0.015-0.791-0.011
	c0,0-0.399-0.39-1.091-0.887v-0.797c2.849-1.8,5.607-1.422,7.674-0.573c0.002-0.004,0.004-0.008,0.006-0.012
	c2.154,0.877,3.57,2.268,3.57,2.268c0.272-0.004,0.535,0.001,0.791,0.011c0.026,0.001,0.053,0.001,0.079,0.002
	c0.26,0.012,0.512,0.032,0.756,0.056c0.023,0.002,0.045,0.004,0.067,0.006c0.043,0.004,0.089,0.008,0.132,0.013
	c0.001,0.002,0.002,0.003,0.003,0.005c7.79,0.944,7.597,8.67,7.597,8.67c4.492,1.042,5.756,4.11,5.947,6.784
	c0.013,0,0.025-0.003,0.037-0.002c0.172,2.414-0.531,4.508-0.531,4.508c0.399,0.16,0.771,0.34,1.122,0.53
	c-0.005,0.008-0.011,0.016-0.016,0.024C181.015,61.609,180.476,69.754,180.476,69.754z"/>
<path fill="#A6D4FF" d="M103.823,140.273V71.038c0-1.419,1.15-2.571,2.571-2.571h75.763c1.42,0,2.571,1.15,2.571,2.571v69.235
	c0,1.419-1.15,2.571-2.571,2.571h-75.763C104.975,142.843,103.823,141.693,103.823,140.273z"/>
<path opacity="0.1" enable-background="new    " d="M103.823,71.038v69.235c0,1.419,1.15,2.571,2.571,2.571h75.763
	c1.42,0,2.571-1.151,2.571-2.571v-4.809h-70.953c-1.419,0-2.571-1.151-2.571-2.571V68.468h-4.809
	C104.975,68.468,103.823,69.619,103.823,71.038z"/>
<path fill="#FFFFFF" d="M123.807,121.903V89.41c0-1.419,1.151-2.571,2.571-2.571h35.796c1.419,0,2.571,1.15,2.571,2.571v32.493
	c0,1.419-1.15,2.571-2.571,2.571h-35.796C124.958,124.473,123.807,123.321,123.807,121.903z"/>
<path fill="#FFC433" d="M132.663,105.85L132.663,105.85c0-1.836,1.503-3.339,3.339-3.339h16.215c1.836,0,3.339,1.503,3.339,3.339
	l0,0c0,1.836-1.503,3.339-3.339,3.339h-16.215C134.165,109.188,132.663,107.686,132.663,105.85z"/>
<g>
	<circle fill="#3A9CB4" cx="174.578" cy="79.104" r="3.196"/>
	<circle fill="#3A9CB4" cx="113.397" cy="79.104" r="3.196"/>
	<circle fill="#3A9CB4" cx="174.578" cy="132.597" r="3.195"/>
	<circle fill="#3A9CB4" cx="113.397" cy="132.597" r="3.195"/>
</g>
<path fill="#5D73A2" d="M82.751,93.98c0,3.332,2.71,6.043,6.043,6.043c2.658,0,4.919-1.726,5.725-4.115h7.378v44.366
	c0,2.48,2.018,4.497,4.497,4.497h37.519v7.234c-2.39,0.807-4.115,3.068-4.115,5.725c0,3.332,2.71,6.043,6.043,6.043
	c3.332,0,6.043-2.71,6.043-6.043c0-2.658-1.725-4.92-4.115-5.725v-7.234h10.424v7.234c-2.389,0.807-4.115,3.068-4.115,5.725
	c0,3.332,2.712,6.043,6.043,6.043c3.332,0,6.043-2.71,6.043-6.043c0-2.658-1.725-4.92-4.115-5.725v-7.234h10.665v7.269
	c-2.39,0.807-4.115,3.068-4.115,5.725c0,3.332,2.712,6.043,6.043,6.043c3.332,0,6.043-2.71,6.043-6.043
	c0-2.659-1.725-4.92-4.115-5.725v-7.269h5.59c2.48,0,4.497-2.018,4.497-4.497v-17.445c0-1.065-0.863-1.927-1.927-1.927
	s-1.927,0.863-1.927,1.927v17.443c0,0.354-0.288,0.642-0.642,0.642h-75.761c-0.354,0-0.642-0.288-0.642-0.642v-26.239h16.128v7.869
	c0,2.48,2.018,4.497,4.497,4.497h35.796c2.48,0,4.497-2.018,4.497-4.497V89.409c0-2.48-2.018-4.497-4.497-4.497h-35.795
	c-2.48,0-4.497,2.018-4.497,4.497v3.475h-9.749V90.28c0-1.065-0.863-1.927-1.927-1.927c-1.065,0-1.927,0.863-1.927,1.927v4.532
	c0,1.065,0.863,1.927,1.927,1.927h11.676v7.183h-16.128V71.038c0-0.354,0.288-0.642,0.642-0.642h1.101h32.497h12.513
	c1.065,0,1.927-0.863,1.927-1.927c0-1.065-0.863-1.927-1.927-1.927h-2.593V37.164c2.263-0.985,4.414-0.332,5.906,0.469
	c0.123,0.146,0.269,0.276,0.438,0.384c0.316,0.21,2.916,2.086,1.524,6.141c-0.345,1.007,0.19,2.103,1.198,2.449
	c0.208,0.071,0.418,0.104,0.626,0.104c0.8,0,1.549-0.503,1.823-1.303c0.728-2.122,0.745-3.979,0.381-5.534
	c1.219,0.286,2.219,0.813,2.988,1.58c1.958,1.954,1.938,4.937,1.937,4.967c-0.013,0.907,0.608,1.711,1.492,1.917
	c1.822,0.424,3.051,1.238,3.756,2.49c0.695,1.234,0.792,2.715,0.7,3.931c-0.373,1.009-2.194,5.042-7.132,4.002
	c-1.041-0.219-2.064,0.447-2.283,1.49c-0.219,1.041,0.447,2.064,1.49,2.283c0.849,0.18,1.648,0.26,2.399,0.26
	c3.036,0,5.284-1.333,6.831-2.972c3.279,1.628,4.228,4.741,4.492,6.718h-19.199c-1.065,0-1.927,0.863-1.927,1.927
	c0,1.065,0.863,1.927,1.927,1.927h22.88c0.354,0,0.642,0.288,0.642,0.642V89.49h-11.417c-1.065,0-1.927,0.863-1.927,1.927
	c0,1.065,0.863,1.927,1.927,1.927h11.417v5.727h-11.417c-1.065,0-1.927,0.863-1.927,1.927s0.863,1.927,1.927,1.927h11.417v5.727
	h-11.416c-1.065,0-1.927,0.863-1.927,1.927c0,1.065,0.863,1.927,1.927,1.927h11.416v2.938c0,1.065,0.863,1.927,1.927,1.927
	s1.927-0.863,1.927-1.927v-44.41c0-2.409-1.906-4.376-4.289-4.487c-0.316-3.137-1.828-7.447-6.055-9.86
	c0.067-0.37,0.129-0.789,0.173-1.246c0.012-0.077,0.018-0.155,0.02-0.231c0.153-1.826,0.015-4.167-1.151-6.253
	c-1.039-1.862-2.676-3.194-4.878-3.977c-0.226-1.608-0.902-4.182-2.92-6.221c-1.874-1.892-4.432-2.898-7.612-2.992
	c-2.563-2.15-7.834-4.651-12.991-1.392c-0.559,0.354-0.898,0.968-0.898,1.629v30.529h-4.138V36.008c0-0.661-0.339-1.276-0.898-1.629
	c-5.156-3.258-10.427-0.758-12.991,1.392c-3.18,0.095-5.737,1.099-7.612,2.992c-2.018,2.038-2.694,4.612-2.92,6.221
	c-2.201,0.783-3.839,2.117-4.878,3.977c-1.165,2.087-1.304,4.427-1.15,6.253c0.002,0.077,0.009,0.155,0.02,0.232
	c0.045,0.455,0.106,0.873,0.174,1.243c-4.255,2.428-5.76,6.78-6.062,9.922c-2.105,0.374-3.71,2.214-3.71,4.424v6.734h-7.376
	c-0.807-2.389-3.068-4.115-5.725-4.115c-3.332,0-6.043,2.71-6.043,6.043s2.71,6.043,6.043,6.043c2.659,0,4.919-1.726,5.725-4.115
	h7.378v10.424h-7.378c-0.807-2.39-3.068-4.115-5.725-4.115C85.46,87.937,82.749,90.648,82.751,93.98z M90.979,79.7
	c0,1.207-0.981,2.188-2.188,2.188c-1.207,0-2.188-0.982-2.188-2.188c0-1.206,0.981-2.188,2.188-2.188
	C89.999,77.512,90.979,78.494,90.979,79.7z M172.451,157.765c0-1.207,0.982-2.188,2.188-2.188c1.206,0,2.188,0.981,2.188,2.188
	c0,1.207-0.981,2.188-2.188,2.188C173.433,159.953,172.451,158.971,172.451,157.765z M157.932,157.731
	c0-1.205,0.979-2.186,2.183-2.188c0.001,0,0.003,0,0.003,0c0.001,0,0.002,0,0.003,0c1.205,0.001,2.183,0.983,2.183,2.188
	c0,1.206-0.981,2.188-2.188,2.188C158.911,159.918,157.932,158.937,157.932,157.731z M143.652,157.731
	c0-1.205,0.979-2.186,2.183-2.188c0.001,0,0.003,0,0.003,0s0.002,0,0.003,0c1.205,0.001,2.183,0.983,2.183,2.188
	c0,1.206-0.981,2.188-2.188,2.188C144.631,159.918,143.652,158.937,143.652,157.731z M138.064,66.54h-28.563
	c0.262-1.975,1.211-5.092,4.49-6.72c1.547,1.639,3.795,2.974,6.832,2.974c0.752,0,1.55-0.082,2.399-0.261
	c1.042-0.219,1.708-1.241,1.49-2.283c-0.219-1.041-1.24-1.707-2.283-1.49c-4.939,1.039-6.76-2.994-7.132-4.002
	c-0.091-1.216,0.005-2.696,0.7-3.931c0.706-1.252,1.934-2.067,3.756-2.49c0.892-0.207,1.514-1.012,1.492-1.927
	c0-0.018-0.019-3.002,1.937-4.956c0.769-0.767,1.769-1.296,2.988-1.582c-0.365,1.555-0.347,3.413,0.38,5.535
	c0.274,0.8,1.023,1.303,1.823,1.303c0.208,0,0.418-0.034,0.626-0.104c1.008-0.345,1.543-1.441,1.198-2.449
	c-1.448-4.224,1.386-6.055,1.508-6.131c0.176-0.11,0.327-0.244,0.454-0.395c1.491-0.8,3.642-1.454,5.906-0.468V66.54L138.064,66.54z
	 M125.734,121.903V89.41c0-0.354,0.288-0.642,0.642-0.642h35.796c0.354,0,0.642,0.288,0.642,0.642v32.493
	c0,0.354-0.288,0.642-0.642,0.642h-35.796C126.022,122.545,125.734,122.256,125.734,121.903L125.734,121.903z M105.751,110.178
	v-2.401h16.128v2.401H105.751z M86.604,93.979c0-1.206,0.981-2.188,2.188-2.188c1.206,0,2.188,0.981,2.188,2.188
	c0,1.207-0.981,2.188-2.188,2.188C87.586,96.166,86.604,95.185,86.604,93.979z"/>
<path fill="#5D73A2" d="M130.736,106.506c0,2.903,2.363,5.266,5.266,5.266h16.215c2.903,0,5.266-2.362,5.266-5.266
	c0-2.904-2.362-5.266-5.266-5.266h-16.215C133.097,101.24,130.736,103.603,130.736,106.506z M134.59,106.506
	c0-0.779,0.633-1.41,1.41-1.41h16.215c0.779,0,1.41,0.633,1.41,1.41c0,0.779-0.633,1.41-1.41,1.41H136
	C135.223,107.917,134.59,107.285,134.59,106.506z"/>
<path fill="#5D73A2" d="M174.579,73.981c-2.826,0-5.124,2.298-5.124,5.123c0,2.826,2.298,5.124,5.124,5.124
	c2.826,0,5.124-2.298,5.124-5.124C179.702,76.278,177.403,73.98,174.579,73.981z M174.579,77.836c0.699,0,1.268,0.569,1.268,1.268
	s-0.569,1.269-1.268,1.269c-0.699,0-1.268-0.569-1.268-1.269C173.31,78.405,173.879,77.836,174.579,77.836z"/>
<path fill="#5D73A2" d="M113.398,84.228c2.826,0,5.124-2.298,5.124-5.124c0-2.826-2.298-5.123-5.124-5.123s-5.124,2.298-5.124,5.123
	C108.275,81.929,110.573,84.228,113.398,84.228z M113.398,80.373c-0.699,0-1.268-0.569-1.268-1.269c0-0.7,0.569-1.268,1.268-1.268
	s1.268,0.569,1.268,1.268C114.668,79.803,114.098,80.373,113.398,80.373z"/>
<path fill="#5D73A2" d="M174.579,137.72c2.826,0,5.124-2.298,5.124-5.124s-2.298-5.123-5.124-5.123
	c-2.826,0-5.124,2.298-5.124,5.123C169.455,135.42,171.753,137.72,174.579,137.72z M174.579,133.864
	c-0.699,0-1.268-0.569-1.268-1.268s0.569-1.268,1.268-1.268c0.699,0,1.268,0.569,1.268,1.268S175.278,133.864,174.579,133.864z"/>
<path fill="#5D73A2" d="M113.398,137.72c2.826,0,5.124-2.298,5.124-5.124s-2.298-5.123-5.124-5.123s-5.124,2.298-5.124,5.123
	C108.275,135.42,110.573,137.72,113.398,137.72z M113.398,133.864c-0.699,0-1.268-0.569-1.268-1.268s0.569-1.268,1.268-1.268
	s1.268,0.569,1.268,1.268S114.098,133.864,113.398,133.864z"/>
<g transform="translate(1 1)">
	<g>
		<path fill="#F1F2F3" d="M167.225,210.615v77.101c0,1.571,1.142,2.856,2.428,2.856h49.259c1.427,0,2.428-1.285,2.428-2.856v-77.101
			c0-1.571-1.142-2.856-2.428-2.856h-49.259C168.368,207.761,167.225,209.045,167.225,210.615"/>
	</g>
	<path fill="#FFFFFF" d="M167.225,287.717v-77.101c0-1.571,1.142-2.856,2.428-2.856h-3.855c-1.571,0-2.856,1.285-2.856,2.856v77.101
		c0,1.571,1.285,2.856,2.856,2.856h3.855C168.368,290.573,167.225,289.287,167.225,287.717"/>
	<path fill="#3BDDBA" d="M222.908,207.761h-3.855c1.427,0,2.428,1.285,2.428,2.856v77.101c0,1.571-1.142,2.856-2.428,2.856h3.855
		c1.571,0,2.856-1.285,2.856-2.856v-77.101C225.764,209.045,224.48,207.761,222.908,207.761"/>
	<g>
		<path fill="#54C9FD" d="M217.198,236.316v-6.854c0-3.998-3.141-7.139-7.139-7.139s-7.139,3.141-7.139,7.139v6.854H217.198
			L217.198,236.316z"/>
		<path fill="#54C9FD" d="M210.06,222.324c-2.428,0-4.283-1.855-4.283-4.283s1.855-4.284,4.283-4.284
			c2.428,0,4.283,1.855,4.283,4.284S212.486,222.324,210.06,222.324"/>
	</g>
	<path fill="#5D73A2" d="M210.06,223.752c-3.141,0-5.711-2.57-5.711-5.711c0-3.141,2.57-5.711,5.711-5.711
		c3.141,0,5.711,2.57,5.711,5.711C215.77,221.182,213.199,223.752,210.06,223.752z M210.06,215.185
		c-1.571,0-2.856,1.285-2.856,2.856c0,1.57,1.285,2.856,2.856,2.856c1.571,0,2.856-1.285,2.856-2.856
		C212.915,216.471,211.629,215.185,210.06,215.185z"/>
	<path fill="#5D73A2" d="M217.198,237.743h-14.277c-0.857,0-1.427-0.571-1.427-1.427v-6.854c0-4.712,3.855-8.567,8.567-8.567
		s8.567,3.855,8.567,8.567v6.854C218.626,237.173,218.054,237.743,217.198,237.743z M204.348,234.889h11.422v-5.426
		c0-3.141-2.57-5.71-5.711-5.71c-3.141,0-5.711,2.57-5.711,5.71V234.889L204.348,234.889z"/>
	<path fill="#5D73A2" d="M222.908,292h-57.111c-2.428,0-4.283-1.855-4.283-4.284v-77.101c0-2.428,1.855-4.283,4.283-4.283h57.111
		c2.428,0,4.283,1.855,4.283,4.283v5.711c0,0.857-0.571,1.427-1.427,1.427c-0.856,0-1.427-0.571-1.427-1.427v-5.711
		c0-0.857-0.571-1.427-1.427-1.427h-57.111c-0.857,0-1.427,0.571-1.427,1.427v77.101c0,0.857,0.571,1.427,1.427,1.427h57.111
		c0.857,0,1.427-0.571,1.427-1.427v-59.967c0-0.857,0.571-1.427,1.427-1.427c0.856,0,1.427,0.571,1.427,1.427v59.967
		C227.192,290.145,225.336,292,222.908,292z"/>
	<path fill="#5D73A2" d="M227.192,222.039c0-0.857-0.571-1.427-1.427-1.427c-0.857,0-1.427,0.571-1.427,1.427
		c0,0.856,0.571,1.427,1.427,1.427C226.621,223.466,227.192,222.896,227.192,222.039"/>
	<path fill="#5D73A2" d="M181.502,220.611h-9.994c-0.857,0-1.427-0.571-1.427-1.427c0-0.857,0.571-1.427,1.427-1.427h9.994
		c0.857,0,1.427,0.571,1.427,1.427C182.931,220.039,182.36,220.611,181.502,220.611z"/>
	<path fill="#5D73A2" d="M181.502,232.033h-9.994c-0.857,0-1.427-0.571-1.427-1.427c0-0.856,0.571-1.427,1.427-1.427h9.994
		c0.857,0,1.427,0.571,1.427,1.427C182.931,231.462,182.36,232.033,181.502,232.033z"/>
	<path fill="#5D73A2" d="M188.641,220.611h-1.427c-0.857,0-1.427-0.571-1.427-1.427c0-0.857,0.571-1.427,1.427-1.427h1.427
		c0.857,0,1.427,0.571,1.427,1.427C190.069,220.039,189.498,220.611,188.641,220.611z"/>
	<path fill="#5D73A2" d="M194.353,226.323h-7.139c-0.857,0-1.427-0.571-1.427-1.427c0-0.856,0.571-1.427,1.427-1.427h7.139
		c0.857,0,1.427,0.571,1.427,1.427C195.781,225.752,195.209,226.323,194.353,226.323z"/>
	<path fill="#5D73A2" d="M188.641,232.033h-1.427c-0.857,0-1.427-0.571-1.427-1.427c0-0.856,0.571-1.427,1.427-1.427h1.427
		c0.857,0,1.427,0.571,1.427,1.427C190.069,231.462,189.498,232.033,188.641,232.033z"/>
	<path fill="#5D73A2" d="M194.353,237.743h-7.139c-0.857,0-1.427-0.571-1.427-1.427c0-0.856,0.571-1.427,1.427-1.427h7.139
		c0.857,0,1.427,0.571,1.427,1.427C195.782,237.173,195.209,237.743,194.353,237.743z"/>
</g>
<g>
	<path fill="#8697CB" d="M64,252.65H49.122c-0.632,0-1.144-0.538-1.144-1.202c0-0.666,0.512-1.202,1.144-1.202H64
		c0.632,0,1.144,0.538,1.144,1.202C65.143,252.112,64.632,252.65,64,252.65z"/>
	<path fill="#F0C419" d="M80.022,252.65H68.578c-0.632,0-1.144-0.538-1.144-1.202c0-0.666,0.512-1.202,1.144-1.202h11.445
		c0.632,0,1.144,0.538,1.144,1.202C81.167,252.112,80.655,252.65,80.022,252.65z"/>
	<path fill="#4FBA6F" d="M86.889,252.65H84.6c-0.632,0-1.144-0.538-1.144-1.202c0-0.666,0.512-1.202,1.144-1.202h2.289
		c0.632,0,1.144,0.538,1.144,1.202C88.033,252.112,87.521,252.65,86.889,252.65z"/>
	<path fill="#8697CB" d="M92.612,257.462H75.445c-0.632,0-1.144-0.538-1.144-1.202c0-0.666,0.512-1.202,1.144-1.202h17.167
		c0.632,0,1.144,0.538,1.144,1.202C93.755,256.926,93.243,257.462,92.612,257.462z"/>
	<path fill="#E64C3C" d="M70.866,257.462H54.845c-0.632,0-1.144-0.538-1.144-1.202c0-0.666,0.512-1.202,1.144-1.202h16.022
		c0.632,0,1.144,0.538,1.144,1.202C72.011,256.926,71.5,257.462,70.866,257.462z"/>
	<path fill="#E64C3C" d="M50.266,257.462h-1.144c-0.632,0-1.144-0.538-1.144-1.202c0-0.666,0.512-1.202,1.144-1.202h1.144
		c0.632,0,1.144,0.538,1.144,1.202C51.411,256.926,50.9,257.462,50.266,257.462z"/>
	<path fill="#8697CB" d="M59.421,262.274H49.121c-0.632,0-1.144-0.538-1.144-1.202c0-0.666,0.512-1.202,1.144-1.202h10.301
		c0.632,0,1.144,0.538,1.144,1.202C60.567,261.737,60.055,262.274,59.421,262.274z"/>
	<path fill="#F0C419" d="M66.289,262.274H64c-0.632,0-1.144-0.538-1.144-1.202c0-0.666,0.512-1.202,1.144-1.202h2.289
		c0.632,0,1.144,0.538,1.144,1.202S66.921,262.274,66.289,262.274z"/>
	<path fill="#4FBA6F" d="M86.889,262.274H70.866c-0.632,0-1.144-0.538-1.144-1.202c0-0.666,0.512-1.202,1.144-1.202h16.022
		c0.632,0,1.144,0.538,1.144,1.202C88.033,261.737,87.521,262.274,86.889,262.274z"/>
	<path fill="#F0C419" d="M64,267.085H49.122c-0.632,0-1.144-0.538-1.144-1.202c0-0.666,0.512-1.202,1.144-1.202H64
		c0.632,0,1.144,0.538,1.144,1.202C65.143,266.549,64.632,267.085,64,267.085z"/>
	<path fill="#4FBA6F" d="M80.022,267.085H68.578c-0.632,0-1.144-0.538-1.144-1.202c0-0.666,0.512-1.202,1.144-1.202h11.445
		c0.632,0,1.144,0.538,1.144,1.202C81.167,266.549,80.655,267.085,80.022,267.085z"/>
	<path fill="#F0C419" d="M84.6,271.899h-9.155c-0.632,0-1.144-0.538-1.144-1.203c0-0.665,0.512-1.202,1.144-1.202H84.6
		c0.632,0,1.144,0.538,1.144,1.202C85.745,271.361,85.233,271.899,84.6,271.899z"/>
	<path fill="#8697CB" d="M70.866,271.899H54.845c-0.632,0-1.144-0.538-1.144-1.203c0-0.665,0.512-1.202,1.144-1.202h16.022
		c0.632,0,1.144,0.538,1.144,1.202C72.011,271.361,71.5,271.899,70.866,271.899z"/>
	<path fill="#4FBA6F" d="M50.266,271.899h-1.144c-0.632,0-1.144-0.538-1.144-1.203c0-0.665,0.512-1.202,1.144-1.202h1.144
		c0.632,0,1.144,0.538,1.144,1.202C51.411,271.361,50.9,271.899,50.266,271.899z"/>
	<path fill="#F0C419" d="M59.421,276.711H49.121c-0.632,0-1.144-0.538-1.144-1.203c0-0.666,0.512-1.202,1.144-1.202h10.301
		c0.632,0,1.144,0.538,1.144,1.202C60.567,276.172,60.055,276.711,59.421,276.711z"/>
	<path fill="#8697CB" d="M66.289,276.711H64c-0.632,0-1.144-0.538-1.144-1.203c0-0.666,0.512-1.202,1.144-1.202h2.289
		c0.632,0,1.144,0.538,1.144,1.202C67.433,276.172,66.921,276.711,66.289,276.711z"/>
	<path fill="#E64C3C" d="M88.033,276.711H70.866c-0.632,0-1.144-0.538-1.144-1.203c0-0.666,0.512-1.202,1.144-1.202h17.167
		c0.632,0,1.144,0.538,1.144,1.202C89.178,276.172,88.667,276.711,88.033,276.711z"/>
</g>
<g>
	<path fill="#8697CB" d="M186.623,252.518h-14.092c-0.6,0-1.084-0.485-1.084-1.084c0-0.6,0.484-1.084,1.084-1.084h14.092
		c0.6,0,1.084,0.485,1.084,1.084C187.707,252.033,187.223,252.518,186.623,252.518z"/>
	<path fill="#F0C419" d="M201.799,252.518h-10.84c-0.6,0-1.084-0.485-1.084-1.084c0-0.6,0.484-1.084,1.084-1.084h10.84
		c0.6,0,1.084,0.485,1.084,1.084C202.883,252.033,202.399,252.518,201.799,252.518z"/>
	<path fill="#4FBA6F" d="M208.303,252.518h-2.167c-0.6,0-1.084-0.485-1.084-1.084c0-0.6,0.484-1.084,1.084-1.084h2.167
		c0.6,0,1.084,0.485,1.084,1.084C209.387,252.034,208.903,252.518,208.303,252.518z"/>
	<path fill="#8697CB" d="M213.723,256.855h-16.26c-0.6,0-1.084-0.485-1.084-1.084c0-0.6,0.484-1.084,1.084-1.084h16.26
		c0.6,0,1.084,0.485,1.084,1.084C214.807,256.37,214.323,256.855,213.723,256.855z"/>
	<path fill="#E64C3C" d="M193.127,256.855h-15.176c-0.6,0-1.084-0.485-1.084-1.084c0-0.6,0.484-1.084,1.084-1.084h15.176
		c0.6,0,1.084,0.485,1.084,1.084C194.211,256.37,193.727,256.855,193.127,256.855z"/>
	<path fill="#E64C3C" d="M173.615,256.855h-1.084c-0.6,0-1.084-0.485-1.084-1.084c0-0.6,0.485-1.084,1.084-1.084h1.084
		c0.6,0,1.084,0.485,1.084,1.084C174.699,256.37,174.214,256.855,173.615,256.855z"/>
	<path fill="#8697CB" d="M182.287,261.19h-9.756c-0.6,0-1.084-0.485-1.084-1.084c0-0.6,0.484-1.084,1.084-1.084h9.756
		c0.6,0,1.084,0.485,1.084,1.084C183.37,260.705,182.886,261.19,182.287,261.19z"/>
	<path fill="#F0C419" d="M188.791,261.19h-2.167c-0.6,0-1.084-0.485-1.084-1.084c0-0.6,0.484-1.084,1.084-1.084h2.167
		c0.6,0,1.084,0.485,1.084,1.084C189.875,260.705,189.39,261.19,188.791,261.19z"/>
	<path fill="#4FBA6F" d="M208.303,261.19h-15.176c-0.6,0-1.084-0.485-1.084-1.084c0-0.6,0.484-1.084,1.084-1.084h15.176
		c0.6,0,1.084,0.485,1.084,1.084C209.387,260.705,208.903,261.19,208.303,261.19z"/>
	<path fill="#F0C419" d="M186.623,265.527h-14.092c-0.6,0-1.084-0.485-1.084-1.084c0-0.6,0.484-1.084,1.084-1.084h14.092
		c0.6,0,1.084,0.485,1.084,1.084S187.223,265.527,186.623,265.527z"/>
	<path fill="#4FBA6F" d="M201.799,265.527h-10.84c-0.6,0-1.084-0.485-1.084-1.084c0-0.6,0.484-1.084,1.084-1.084h10.84
		c0.6,0,1.084,0.485,1.084,1.084S202.399,265.527,201.799,265.527z"/>
	<path fill="#F0C419" d="M206.136,269.862h-8.672c-0.6,0-1.084-0.485-1.084-1.084c0-0.6,0.484-1.084,1.084-1.084h8.672
		c0.6,0,1.084,0.485,1.084,1.084C207.219,269.377,206.735,269.862,206.136,269.862z"/>
	<path fill="#8697CB" d="M193.127,269.862h-15.176c-0.6,0-1.084-0.485-1.084-1.084c0-0.6,0.484-1.084,1.084-1.084h15.176
		c0.6,0,1.084,0.485,1.084,1.084C194.211,269.377,193.727,269.862,193.127,269.862z"/>
	<path fill="#4FBA6F" d="M173.615,269.862h-1.084c-0.6,0-1.084-0.485-1.084-1.084c0-0.6,0.485-1.084,1.084-1.084h1.084
		c0.6,0,1.084,0.485,1.084,1.084C174.699,269.377,174.214,269.862,173.615,269.862z"/>
	<path fill="#F0C419" d="M182.287,274.198h-9.756c-0.6,0-1.084-0.485-1.084-1.084c0-0.6,0.484-1.084,1.084-1.084h9.756
		c0.6,0,1.084,0.485,1.084,1.084C183.37,273.714,182.886,274.198,182.287,274.198z"/>
	<path fill="#8697CB" d="M188.791,274.198h-2.167c-0.6,0-1.084-0.485-1.084-1.084c0-0.6,0.484-1.084,1.084-1.084h2.167
		c0.6,0,1.084,0.485,1.084,1.084C189.875,273.714,189.39,274.198,188.791,274.198z"/>
	<path fill="#E64C3C" d="M209.387,274.198h-16.26c-0.6,0-1.084-0.485-1.084-1.084c0-0.6,0.484-1.084,1.084-1.084h16.26
		c0.6,0,1.084,0.485,1.084,1.084C210.471,273.714,209.986,274.198,209.387,274.198z"/>
</g>
<polyline fill="none" stroke="#BAD9FF" stroke-width="3" stroke-linecap="round" stroke-linejoin="round" stroke-miterlimit="10" stroke-dasharray="0,0,0,6" points="
	71.156,206.018 71.156,181.812 194.649,181.812 194.649,207.332 "/>
</svg>
