<?xml version="1.0" encoding="utf-8"?>
<!-- Generator: Adobe Illustrator 17.0.0, SVG Export Plug-In . SVG Version: 6.00 Build 0)  -->
<!DOCTYPE svg PUBLIC "-//W3C//DTD SVG 1.1//EN" "http://www.w3.org/Graphics/SVG/1.1/DTD/svg11.dtd">
<svg version="1.1" id="Layer_1" xmlns="http://www.w3.org/2000/svg" xmlns:xlink="http://www.w3.org/1999/xlink" x="0px" y="0px"
	 width="226.489px" height="300px" viewBox="0 0 226.489 300" enable-background="new 0 0 226.489 300" xml:space="preserve">
<line fill="none" stroke="#BAD9FF" stroke-width="3" stroke-linecap="round" stroke-linejoin="round" stroke-miterlimit="10" stroke-dasharray="0,0,0,6" x1="122.776" y1="155.319" x2="122.776" y2="179.018"/>
<path id="XMLID_165_" fill="#DCDEE0" stroke="#5D73A2" stroke-width="3" stroke-linecap="round" stroke-linejoin="round" stroke-miterlimit="10" d="
	M94.782,33.055v-6.058H90.7c-0.287-1.228-0.756-2.384-1.377-3.443l2.852-2.852l-4.284-4.284l-2.808,2.808
	c-1.068-0.656-2.238-1.154-3.487-1.466v-3.95h-6.058v3.95c-1.248,0.312-2.419,0.81-3.487,1.466l-2.808-2.808l-4.284,4.284
	l2.852,2.852c-0.621,1.059-1.089,2.215-1.377,3.443h-4.082v6.058h4.174c0.314,1.182,0.795,2.292,1.42,3.308l-2.986,2.986
	l4.284,4.284l3.03-3.03c1.007,0.591,2.103,1.041,3.265,1.332v4.306h6.058v-4.306c1.162-0.29,2.257-0.74,3.265-1.332l3.03,3.03
	l4.284-4.284l-2.986-2.986c0.625-1.016,1.106-2.126,1.42-3.308H94.782z M78.567,33.768c-2.165,0-3.92-1.755-3.92-3.92
	s1.755-3.92,3.92-3.92s3.92,1.755,3.92,3.92C82.487,32.013,80.732,33.768,78.567,33.768z"/>
<g transform="translate(1 1)">
	<g>
		<path fill="#F1F2F3" d="M29.147,204.409v71.508c0,1.457,1.06,2.648,2.252,2.648h45.686c1.324,0,2.252-1.192,2.252-2.648v-71.508
			c0-1.457-1.06-2.648-2.252-2.648H31.399C30.207,201.761,29.147,202.952,29.147,204.409"/>
	</g>
	<path fill="#FFFFFF" d="M29.147,275.916v-71.508c0-1.457,1.06-2.648,2.252-2.648h-3.575c-1.457,0-2.648,1.192-2.648,2.648v71.508
		c0,1.457,1.192,2.648,2.648,2.648h3.575C30.207,278.566,29.147,277.373,29.147,275.916"/>
	<path fill="#3BDDBA" d="M80.791,201.761h-3.575c1.324,0,2.252,1.192,2.252,2.648v71.508c0,1.457-1.06,2.648-2.252,2.648h3.575
		c1.457,0,2.648-1.192,2.648-2.648v-71.508C83.44,202.952,82.248,201.761,80.791,201.761"/>
	<g>
		<path fill="#54C9FD" d="M75.495,228.245v-6.356c0-3.708-2.913-6.621-6.621-6.621c-3.708,0-6.621,2.913-6.621,6.621v6.356H75.495
			L75.495,228.245z"/>
		<path fill="#54C9FD" d="M68.874,215.267c-2.252,0-3.973-1.721-3.973-3.973c0-2.252,1.721-3.973,3.973-3.973
			c2.252,0,3.973,1.721,3.973,3.973C72.847,213.546,71.125,215.267,68.874,215.267"/>
	</g>
	<path fill="#5D73A2" d="M68.874,216.592c-2.913,0-5.297-2.383-5.297-5.297c0-2.913,2.383-5.297,5.297-5.297
		c2.913,0,5.296,2.383,5.296,5.297C74.17,214.208,71.787,216.592,68.874,216.592z M68.874,208.646c-1.457,0-2.648,1.192-2.648,2.648
		c0,1.456,1.192,2.648,2.648,2.648c1.457,0,2.648-1.192,2.648-2.648C71.522,209.838,70.33,208.646,68.874,208.646z"/>
	<path fill="#5D73A2" d="M75.495,229.569H62.253c-0.795,0-1.324-0.53-1.324-1.324v-6.356c0-4.37,3.575-7.945,7.945-7.945
		c4.37,0,7.945,3.575,7.945,7.945v6.356C76.819,229.04,76.29,229.569,75.495,229.569z M63.577,226.92H74.17v-5.032
		c0-2.913-2.383-5.296-5.297-5.296c-2.913,0-5.297,2.383-5.297,5.296L63.577,226.92L63.577,226.92z"/>
	<path fill="#5D73A2" d="M80.791,279.889H27.822c-2.251,0-3.973-1.721-3.973-3.973v-71.508c0-2.252,1.721-3.973,3.973-3.973h52.969
		c2.252,0,3.973,1.721,3.973,3.973v5.297c0,0.795-0.53,1.324-1.324,1.324c-0.795,0-1.324-0.53-1.324-1.324v-5.297
		c0-0.795-0.53-1.324-1.324-1.324H27.824c-0.795,0-1.324,0.53-1.324,1.324v71.508c0,0.795,0.53,1.324,1.324,1.324h52.969
		c0.795,0,1.324-0.53,1.324-1.324V220.3c0-0.795,0.53-1.324,1.324-1.324c0.795,0,1.324,0.53,1.324,1.324v55.617
		C84.765,278.168,83.043,279.889,80.791,279.889z"/>
	<path fill="#5D73A2" d="M84.765,215.003c0-0.795-0.53-1.324-1.324-1.324c-0.795,0-1.324,0.53-1.324,1.324
		c0,0.794,0.53,1.324,1.324,1.324C84.234,216.327,84.765,215.798,84.765,215.003"/>
	<path fill="#5D73A2" d="M42.39,213.679h-9.27c-0.795,0-1.324-0.53-1.324-1.324c0-0.795,0.53-1.324,1.324-1.324h9.27
		c0.795,0,1.324,0.53,1.324,1.324C43.714,213.149,43.183,213.679,42.39,213.679z"/>
	<path fill="#5D73A2" d="M42.39,224.272h-9.27c-0.795,0-1.324-0.53-1.324-1.324s0.53-1.324,1.324-1.324h9.27
		c0.795,0,1.324,0.53,1.324,1.324C43.714,223.742,43.183,224.272,42.39,224.272z"/>
	<path fill="#5D73A2" d="M49.011,213.679h-1.324c-0.795,0-1.324-0.53-1.324-1.324c0-0.795,0.53-1.324,1.324-1.324h1.324
		c0.795,0,1.324,0.53,1.324,1.324C50.335,213.149,49.805,213.679,49.011,213.679z"/>
	<path fill="#5D73A2" d="M54.308,218.976h-6.621c-0.795,0-1.324-0.53-1.324-1.324c0-0.794,0.53-1.324,1.324-1.324h6.621
		c0.795,0,1.324,0.53,1.324,1.324C55.631,218.446,55.102,218.976,54.308,218.976z"/>
	<path fill="#5D73A2" d="M49.011,224.272h-1.324c-0.795,0-1.324-0.53-1.324-1.324s0.53-1.324,1.324-1.324h1.324
		c0.795,0,1.324,0.53,1.324,1.324C50.335,223.742,49.805,224.272,49.011,224.272z"/>
	<path fill="#5D73A2" d="M54.308,229.569h-6.621c-0.795,0-1.324-0.53-1.324-1.324c0-0.794,0.53-1.324,1.324-1.324h6.621
		c0.795,0,1.324,0.53,1.324,1.324C55.631,229.04,55.102,229.569,54.308,229.569z"/>
</g>
<g>
	<path fill="#FFC433" d="M73.146,80.978c-0.643-1.209-1.911-2.034-3.375-2.034c-2.113,0-3.826,1.713-3.826,3.826
		s1.712,3.826,3.826,3.826c1.465,0,2.732-0.825,3.375-2.034V80.978z"/>
	<path fill="#FFC433" d="M73.146,94.255c-0.643-1.209-1.911-2.034-3.375-2.034c-2.113,0-3.826,1.713-3.826,3.826
		s1.712,3.826,3.826,3.826c1.465,0,2.732-0.826,3.375-2.034V94.255z"/>
	<path fill="#FFC433" d="M134.294,151.943c-1.208,0.643-2.033,1.911-2.033,3.375c0,2.113,1.713,3.826,3.826,3.826
		s3.826-1.712,3.826-3.826c0-1.465-0.825-2.732-2.033-3.375H134.294z"/>
	<path fill="#FFC433" d="M121.018,151.943c-1.209,0.643-2.034,1.911-2.034,3.375c0,2.113,1.713,3.826,3.826,3.826
		s3.826-1.712,3.826-3.826c0-1.465-0.825-2.732-2.033-3.375H121.018z"/>
	<path fill="#FFC433" d="M147.785,151.98c-1.204,0.644-2.025,1.91-2.025,3.371c0,2.113,1.713,3.826,3.826,3.826
		s3.826-1.712,3.826-3.826c0-1.468-0.829-2.738-2.042-3.38L147.785,151.98z"/>
</g>
<g>
	<path fill="#7EFFE3" d="M124.804,42.151v31.372h30.215c0,0,0.502-7.722-4.914-10.667c-0.327-0.177-0.672-0.344-1.043-0.493
		c0,0,0.654-1.948,0.494-4.191c-0.177-2.486-1.354-5.335-5.529-6.305c0,0,0.183-7.208-7.099-8.066
		c-0.527-0.062-1.089-0.093-1.696-0.084c0,0-1.316-1.295-3.319-2.109C129.992,40.826,127.44,40.486,124.804,42.151z"/>
	<path fill="#7EFFE3" d="M106.947,43.717c-9.01-0.142-8.797,8.15-8.797,8.15c-7.943,1.843-5.035,10.496-5.035,10.496
		c-6.525,2.624-5.958,11.16-5.958,11.16h30.214V42.151C111.987,38.747,106.947,43.717,106.947,43.717z"/>
</g>
<path opacity="0.1" enable-background="new    " d="M87.159,73.523h9.447c0,0-0.501-7.573,4.894-10.645
	c-0.005-0.007-0.01-0.015-0.015-0.022c0.327-0.177,0.672-0.344,1.043-0.493c0,0-0.654-1.948-0.494-4.191
	c0.012,0,0.023,0.002,0.034,0.002c0.177-2.487,1.353-5.338,5.529-6.307c0,0-0.181-7.182,7.063-8.061
	c0.001-0.001,0.002-0.003,0.003-0.005c0.04-0.005,0.082-0.008,0.123-0.012c0.02-0.002,0.041-0.004,0.062-0.006
	c0.228-0.024,0.462-0.042,0.703-0.052c0.024-0.001,0.049-0.001,0.073-0.002c0.238-0.009,0.482-0.014,0.735-0.01
	c0,0,0.371-0.363,1.014-0.825v-0.741c-2.649-1.674-5.213-1.322-7.135-0.533c-0.002-0.004-0.004-0.007-0.006-0.011
	c-2.003,0.815-3.319,2.109-3.319,2.109c-0.253-0.004-0.497,0.001-0.735,0.01c-0.024,0.001-0.049,0.001-0.073,0.002
	c-0.242,0.011-0.476,0.03-0.703,0.052c-0.021,0.002-0.042,0.004-0.062,0.006c-0.04,0.004-0.083,0.007-0.123,0.012
	c-0.001,0.002-0.002,0.003-0.003,0.005c-7.243,0.878-7.063,8.061-7.063,8.061c-4.176,0.969-5.352,3.821-5.529,6.307
	c-0.012,0-0.023-0.003-0.034-0.002c-0.16,2.244,0.494,4.191,0.494,4.191c-0.372,0.149-0.717,0.316-1.043,0.493
	c0.005,0.007,0.01,0.015,0.015,0.022C86.658,65.95,87.159,73.523,87.159,73.523z"/>
<path opacity="0.1" enable-background="new    " d="M155.013,73.523h-9.447c0,0,0.501-7.573-4.894-10.645
	c0.005-0.007,0.01-0.015,0.015-0.022c-0.327-0.177-0.672-0.344-1.043-0.493c0,0,0.654-1.948,0.494-4.191
	c-0.012,0-0.023,0.002-0.034,0.002c-0.177-2.487-1.353-5.338-5.529-6.307c0,0,0.181-7.182-7.063-8.061
	c-0.001-0.001-0.001-0.003-0.003-0.005c-0.04-0.005-0.082-0.008-0.123-0.012c-0.02-0.002-0.041-0.004-0.062-0.006
	c-0.228-0.024-0.462-0.042-0.703-0.052c-0.024-0.001-0.049-0.001-0.073-0.002c-0.239-0.009-0.482-0.014-0.735-0.01
	c0,0-0.371-0.363-1.014-0.825v-0.741c2.649-1.674,5.213-1.322,7.135-0.533c0.002-0.004,0.004-0.007,0.006-0.011
	c2.003,0.815,3.319,2.109,3.319,2.109c0.253-0.004,0.497,0.001,0.735,0.01c0.024,0.001,0.049,0.001,0.073,0.002
	c0.242,0.011,0.476,0.03,0.703,0.052c0.021,0.002,0.042,0.004,0.062,0.006c0.04,0.004,0.083,0.007,0.123,0.012
	c0.001,0.002,0.002,0.003,0.003,0.005c7.243,0.878,7.063,8.061,7.063,8.061c4.176,0.969,5.352,3.821,5.529,6.307
	c0.012,0,0.023-0.003,0.034-0.002c0.16,2.244-0.494,4.191-0.494,4.191c0.371,0.149,0.717,0.316,1.043,0.493
	c-0.005,0.007-0.01,0.015-0.015,0.022C155.514,65.95,155.013,73.523,155.013,73.523z"/>
<path fill="#A6D4FF" d="M83.745,139.088V74.717c0-1.319,1.069-2.39,2.39-2.39h70.44c1.32,0,2.39,1.069,2.39,2.39v64.371
	c0,1.319-1.069,2.39-2.39,2.39h-70.44C84.816,141.477,83.745,140.408,83.745,139.088z"/>
<path opacity="0.1" enable-background="new    " d="M83.745,74.717v64.371c0,1.319,1.069,2.39,2.39,2.39h70.44
	c1.32,0,2.39-1.07,2.39-2.39v-4.471H92.997c-1.319,0-2.39-1.07-2.39-2.39V72.328h-4.471C84.816,72.328,83.745,73.398,83.745,74.717z
	"/>
<path fill="#FFFFFF" d="M102.325,122.008v-30.21c0-1.319,1.07-2.39,2.39-2.39h33.281c1.319,0,2.39,1.069,2.39,2.39v30.21
	c0,1.319-1.069,2.39-2.39,2.39h-33.281C103.395,124.398,102.325,123.327,102.325,122.008z"/>
<path fill="#FFC433" d="M110.559,107.083L110.559,107.083c0-1.707,1.397-3.104,3.104-3.104h15.076c1.707,0,3.104,1.397,3.104,3.104
	l0,0c0,1.707-1.397,3.104-3.104,3.104h-15.076C111.956,110.187,110.559,108.79,110.559,107.083z"/>
<g>
	<circle fill="#3A9CB4" cx="149.529" cy="82.216" r="2.971"/>
	<circle fill="#3A9CB4" cx="92.647" cy="82.216" r="2.971"/>
	<circle fill="#3A9CB4" cx="149.529" cy="131.951" r="2.971"/>
	<circle fill="#3A9CB4" cx="92.647" cy="131.951" r="2.971"/>
</g>
<path fill="#5D73A2" d="M64.154,96.047c0,3.098,2.52,5.618,5.618,5.618c2.471,0,4.573-1.605,5.323-3.826h6.86v41.249
	c0,2.306,1.876,4.181,4.181,4.181h34.883v6.726c-2.222,0.75-3.826,2.852-3.826,5.323c0,3.098,2.52,5.618,5.618,5.618
	s5.618-2.52,5.618-5.618c0-2.471-1.604-4.574-3.826-5.323v-6.726h9.692v6.726c-2.221,0.75-3.826,2.852-3.826,5.323
	c0,3.098,2.521,5.618,5.618,5.618c3.098,0,5.618-2.52,5.618-5.618c0-2.471-1.604-4.574-3.826-5.323v-6.726h9.916v6.758
	c-2.222,0.75-3.826,2.852-3.826,5.323c0,3.098,2.521,5.618,5.618,5.618c3.098,0,5.618-2.52,5.618-5.618
	c0-2.472-1.604-4.574-3.826-5.323v-6.758h5.197c2.306,0,4.181-1.876,4.181-4.181v-16.219c0-0.99-0.802-1.792-1.792-1.792
	s-1.792,0.802-1.792,1.792v16.218c0,0.329-0.268,0.597-0.597,0.597H86.138c-0.329,0-0.597-0.268-0.597-0.597v-24.396h14.995v7.316
	c0,2.306,1.876,4.181,4.181,4.181h33.281c2.306,0,4.181-1.876,4.181-4.181v-30.21c0-2.306-1.876-4.181-4.181-4.181h-33.28
	c-2.306,0-4.181,1.876-4.181,4.181v3.231h-9.064v-2.421c0-0.99-0.802-1.792-1.792-1.792s-1.792,0.802-1.792,1.792v4.214
	c0,0.99,0.802,1.792,1.792,1.792h10.856v6.678H85.542V74.717c0-0.329,0.268-0.597,0.597-0.597h1.024h30.214h11.634
	c0.99,0,1.792-0.802,1.792-1.792s-0.802-1.792-1.792-1.792H126.6V43.223c2.104-0.916,4.104-0.309,5.491,0.436
	c0.114,0.136,0.25,0.257,0.407,0.357c0.294,0.195,2.711,1.939,1.417,5.71c-0.321,0.936,0.177,1.955,1.114,2.277
	c0.193,0.066,0.389,0.097,0.582,0.097c0.744,0,1.44-0.468,1.695-1.211c0.677-1.973,0.693-3.699,0.354-5.145
	c1.133,0.266,2.063,0.756,2.778,1.469c1.82,1.817,1.802,4.59,1.801,4.618c-0.012,0.843,0.565,1.591,1.387,1.782
	c1.694,0.394,2.837,1.151,3.492,2.315c0.646,1.147,0.736,2.524,0.651,3.655c-0.347,0.938-2.04,4.688-6.631,3.721
	c-0.968-0.204-1.919,0.416-2.123,1.385c-0.204,0.968,0.416,1.919,1.385,2.123c0.789,0.167,1.532,0.242,2.23,0.242
	c2.823,0,4.913-1.239,6.351-2.763c3.049,1.514,3.931,4.408,4.176,6.246h-17.85c-0.99,0-1.792,0.802-1.792,1.792
	s0.802,1.792,1.792,1.792h21.273c0.329,0,0.597,0.268,0.597,0.597v17.155h-10.615c-0.99,0-1.792,0.802-1.792,1.792
	s0.802,1.792,1.792,1.792h10.615v5.325h-10.615c-0.99,0-1.792,0.802-1.792,1.792s0.802,1.792,1.792,1.792h10.615v5.325h-10.614
	c-0.99,0-1.792,0.802-1.792,1.792s0.802,1.792,1.792,1.792h10.614v2.732c0,0.99,0.802,1.792,1.792,1.792s1.792-0.802,1.792-1.792
	v-41.29c0-2.24-1.772-4.069-3.988-4.172c-0.294-2.917-1.7-6.924-5.63-9.167c0.062-0.344,0.12-0.734,0.161-1.158
	c0.011-0.072,0.017-0.144,0.019-0.215c0.142-1.698,0.014-3.874-1.07-5.814c-0.966-1.731-2.488-2.97-4.535-3.698
	c-0.21-1.495-0.839-3.888-2.715-5.784c-1.742-1.759-4.121-2.694-7.077-2.782c-2.383-1.999-7.284-4.324-12.078-1.294
	c-0.52,0.329-0.835,0.9-0.835,1.515v28.384h-3.847V42.148c0-0.615-0.315-1.186-0.835-1.515c-4.794-3.029-9.694-0.705-12.078,1.294
	c-2.957,0.088-5.334,1.022-7.077,2.782c-1.876,1.895-2.505,4.288-2.715,5.784c-2.046,0.728-3.569,1.968-4.535,3.698
	c-1.083,1.94-1.212,4.116-1.069,5.814c0.002,0.072,0.008,0.144,0.019,0.216c0.042,0.423,0.099,0.812,0.162,1.156
	c-3.956,2.257-5.355,6.304-5.636,9.225c-1.957,0.348-3.449,2.058-3.449,4.113v6.261h-6.858c-0.75-2.221-2.852-3.826-5.323-3.826
	c-3.098,0-5.618,2.52-5.618,5.618s2.52,5.618,5.618,5.618c2.472,0,4.573-1.605,5.323-3.826h6.86v9.692h-6.86
	c-0.75-2.222-2.852-3.826-5.323-3.826C66.672,90.429,64.152,92.949,64.154,96.047z M71.804,82.77c0,1.122-0.912,2.034-2.034,2.034
	s-2.034-0.913-2.034-2.034s0.912-2.034,2.034-2.034S71.804,81.649,71.804,82.77z M147.552,155.351c0-1.122,0.913-2.034,2.034-2.034
	s2.034,0.912,2.034,2.034s-0.912,2.034-2.034,2.034C148.465,157.385,147.552,156.472,147.552,155.351z M134.053,155.319
	c0-1.12,0.91-2.032,2.03-2.034c0.001,0,0.003,0,0.003,0c0.001,0,0.002,0,0.003,0c1.12,0.001,2.03,0.914,2.03,2.034
	c0,1.121-0.912,2.034-2.034,2.034S134.053,156.441,134.053,155.319z M120.776,155.319c0-1.12,0.91-2.032,2.03-2.034
	c0.001,0,0.003,0,0.003,0s0.002,0,0.003,0c1.12,0.001,2.03,0.914,2.03,2.034c0,1.121-0.912,2.034-2.034,2.034
	S120.776,156.441,120.776,155.319z M115.581,70.535H89.025c0.244-1.836,1.126-4.734,4.175-6.248
	c1.438,1.524,3.528,2.765,6.352,2.765c0.699,0,1.441-0.076,2.23-0.243c0.969-0.204,1.588-1.154,1.385-2.123
	c-0.204-0.968-1.153-1.587-2.123-1.385c-4.592,0.966-6.285-2.784-6.631-3.721c-0.085-1.131,0.005-2.507,0.651-3.655
	c0.656-1.164,1.798-1.922,3.492-2.315c0.829-0.192,1.408-0.941,1.387-1.792c0-0.017-0.018-2.791,1.801-4.608
	c0.715-0.713,1.645-1.205,2.778-1.471c-0.339,1.446-0.323,3.173,0.353,5.146c0.255,0.744,0.951,1.211,1.695,1.211
	c0.193,0,0.389-0.032,0.582-0.097c0.937-0.321,1.435-1.34,1.114-2.277c-1.346-3.927,1.289-5.63,1.402-5.7
	c0.164-0.102,0.304-0.227,0.422-0.367c1.386-0.744,3.386-1.352,5.491-0.435L115.581,70.535L115.581,70.535z M104.117,122.008v-30.21
	c0-0.329,0.268-0.597,0.597-0.597h33.281c0.329,0,0.597,0.268,0.597,0.597v30.21c0,0.329-0.268,0.597-0.597,0.597h-33.281
	C104.385,122.605,104.117,122.337,104.117,122.008L104.117,122.008z M85.538,111.107v-2.232h14.995v2.232H85.538z M67.736,96.046
	c0-1.121,0.912-2.034,2.034-2.034c1.121,0,2.034,0.912,2.034,2.034s-0.912,2.034-2.034,2.034
	C68.649,98.08,67.736,97.168,67.736,96.046z"/>
<path fill="#5D73A2" d="M108.767,107.693c0,2.699,2.197,4.896,4.896,4.896h15.076c2.699,0,4.896-2.196,4.896-4.896
	s-2.196-4.896-4.896-4.896h-15.076C110.963,102.797,108.767,104.994,108.767,107.693z M112.351,107.693
	c0-0.724,0.589-1.311,1.311-1.311h15.076c0.724,0,1.311,0.589,1.311,1.311c0,0.724-0.589,1.311-1.311,1.311h-15.076
	C112.939,109.005,112.351,108.417,112.351,107.693z"/>
<path fill="#5D73A2" d="M149.53,77.453c-2.627,0-4.764,2.137-4.764,4.763c0,2.627,2.137,4.764,4.764,4.764s4.764-2.137,4.764-4.764
	C154.293,79.589,152.156,77.452,149.53,77.453z M149.53,81.037c0.65,0,1.179,0.529,1.179,1.179s-0.529,1.18-1.179,1.18
	s-1.179-0.529-1.179-1.18C148.35,81.566,148.879,81.037,149.53,81.037z"/>
<path fill="#5D73A2" d="M92.648,86.98c2.627,0,4.764-2.137,4.764-4.764s-2.137-4.763-4.764-4.763s-4.764,2.137-4.764,4.763
	C87.884,84.843,90.021,86.98,92.648,86.98z M92.648,83.396c-0.65,0-1.179-0.529-1.179-1.18s0.529-1.179,1.179-1.179
	s1.179,0.529,1.179,1.179C93.828,82.866,93.298,83.396,92.648,83.396z"/>
<path fill="#5D73A2" d="M149.53,136.714c2.627,0,4.764-2.137,4.764-4.764s-2.137-4.763-4.764-4.763s-4.764,2.137-4.764,4.763
	S146.903,136.714,149.53,136.714z M149.53,133.129c-0.65,0-1.179-0.529-1.179-1.179s0.529-1.179,1.179-1.179
	s1.179,0.529,1.179,1.179S150.18,133.129,149.53,133.129z"/>
<path fill="#5D73A2" d="M92.648,136.714c2.627,0,4.764-2.137,4.764-4.764s-2.137-4.763-4.764-4.763s-4.764,2.137-4.764,4.763
	S90.021,136.714,92.648,136.714z M92.648,133.129c-0.65,0-1.179-0.529-1.179-1.179s0.529-1.179,1.179-1.179s1.179,0.529,1.179,1.179
	S93.298,133.129,92.648,133.129z"/>
<g transform="translate(1 1)">
	<g>
		<path fill="#F1F2F3" d="M142.623,204.418v71.684c0,1.461,1.062,2.655,2.257,2.655h45.798c1.327,0,2.257-1.195,2.257-2.655v-71.684
			c0-1.461-1.062-2.655-2.257-2.655H144.88C143.685,201.764,142.623,202.958,142.623,204.418"/>
	</g>
	<path fill="#FFFFFF" d="M142.623,276.103v-71.684c0-1.461,1.062-2.655,2.257-2.655h-3.584c-1.461,0-2.655,1.195-2.655,2.655v71.684
		c0,1.461,1.195,2.655,2.655,2.655h3.584C143.685,278.758,142.623,277.563,142.623,276.103"/>
	<path fill="#3BDDBA" d="M194.394,201.764h-3.584c1.327,0,2.257,1.195,2.257,2.655v71.684c0,1.461-1.062,2.655-2.257,2.655h3.584
		c1.461,0,2.655-1.195,2.655-2.655v-71.684C197.049,202.958,195.855,201.764,194.394,201.764"/>
	<g>
		<path fill="#54C9FD" d="M189.085,228.313v-6.372c0-3.717-2.92-6.637-6.637-6.637c-3.717,0-6.637,2.92-6.637,6.637v6.372H189.085
			L189.085,228.313z"/>
		<path fill="#54C9FD" d="M182.448,215.304c-2.257,0-3.982-1.725-3.982-3.982s1.725-3.983,3.982-3.983
			c2.257,0,3.982,1.725,3.982,3.983S184.704,215.304,182.448,215.304"/>
	</g>
	<path fill="#5D73A2" d="M182.448,216.632c-2.92,0-5.31-2.389-5.31-5.31c0-2.92,2.389-5.31,5.31-5.31c2.92,0,5.31,2.389,5.31,5.31
		C187.757,214.242,185.367,216.632,182.448,216.632z M182.448,208.667c-1.461,0-2.655,1.195-2.655,2.655
		c0,1.46,1.195,2.655,2.655,2.655c1.461,0,2.655-1.195,2.655-2.655C185.103,209.862,183.907,208.667,182.448,208.667z"/>
	<path fill="#5D73A2" d="M189.085,229.64h-13.274c-0.797,0-1.327-0.531-1.327-1.327v-6.372c0-4.381,3.584-7.965,7.965-7.965
		s7.965,3.584,7.965,7.965v6.372C190.412,229.11,189.881,229.64,189.085,229.64z M177.138,226.986h10.62v-5.045
		c0-2.92-2.389-5.309-5.31-5.309c-2.92,0-5.31,2.389-5.31,5.309L177.138,226.986L177.138,226.986z"/>
	<path fill="#5D73A2" d="M194.394,280.085h-53.099c-2.257,0-3.982-1.725-3.982-3.983v-71.684c0-2.257,1.725-3.982,3.982-3.982
		h53.099c2.257,0,3.982,1.725,3.982,3.982v5.31c0,0.797-0.531,1.327-1.327,1.327s-1.327-0.531-1.327-1.327v-5.31
		c0-0.797-0.531-1.327-1.327-1.327h-53.099c-0.797,0-1.327,0.531-1.327,1.327v71.684c0,0.797,0.531,1.327,1.327,1.327h53.099
		c0.797,0,1.327-0.531,1.327-1.327v-55.754c0-0.797,0.531-1.327,1.327-1.327s1.327,0.531,1.327,1.327v55.754
		C198.377,278.36,196.651,280.085,194.394,280.085z"/>
	<path fill="#5D73A2" d="M198.377,215.039c0-0.797-0.531-1.327-1.327-1.327c-0.797,0-1.327,0.531-1.327,1.327
		s0.531,1.327,1.327,1.327S198.377,215.836,198.377,215.039"/>
	<path fill="#5D73A2" d="M155.897,213.711h-9.292c-0.797,0-1.327-0.531-1.327-1.327c0-0.797,0.531-1.327,1.327-1.327h9.292
		c0.797,0,1.327,0.531,1.327,1.327C157.225,213.18,156.694,213.711,155.897,213.711z"/>
	<path fill="#5D73A2" d="M155.897,224.331h-9.292c-0.797,0-1.327-0.531-1.327-1.327s0.531-1.327,1.327-1.327h9.292
		c0.797,0,1.327,0.531,1.327,1.327C157.225,223.8,156.694,224.331,155.897,224.331z"/>
	<path fill="#5D73A2" d="M162.534,213.711h-1.327c-0.797,0-1.327-0.531-1.327-1.327c0-0.797,0.531-1.327,1.327-1.327h1.327
		c0.797,0,1.327,0.531,1.327,1.327C163.862,213.18,163.331,213.711,162.534,213.711z"/>
	<path fill="#5D73A2" d="M167.845,219.022h-6.637c-0.797,0-1.327-0.531-1.327-1.327s0.531-1.327,1.327-1.327h6.637
		c0.797,0,1.327,0.531,1.327,1.327S168.641,219.022,167.845,219.022z"/>
	<path fill="#5D73A2" d="M162.534,224.331h-1.327c-0.797,0-1.327-0.531-1.327-1.327s0.531-1.327,1.327-1.327h1.327
		c0.797,0,1.327,0.531,1.327,1.327C163.862,223.8,163.331,224.331,162.534,224.331z"/>
	<path fill="#5D73A2" d="M167.845,229.64h-6.637c-0.797,0-1.327-0.531-1.327-1.327s0.531-1.327,1.327-1.327h6.637
		c0.797,0,1.327,0.531,1.327,1.327C169.173,229.11,168.641,229.64,167.845,229.64z"/>
</g>
<g>
	<path fill="#8697CB" d="M46.72,243.57H32.887c-0.588,0-1.064-0.5-1.064-1.118c0-0.619,0.476-1.118,1.064-1.118H46.72
		c0.588,0,1.064,0.5,1.064,1.118C47.783,243.07,47.308,243.57,46.72,243.57z"/>
	<path fill="#F0C419" d="M61.616,243.57H50.976c-0.588,0-1.064-0.5-1.064-1.118c0-0.619,0.476-1.118,1.064-1.118h10.641
		c0.588,0,1.064,0.5,1.064,1.118C62.681,243.07,62.205,243.57,61.616,243.57z"/>
	<path fill="#4FBA6F" d="M68.001,243.57h-2.128c-0.588,0-1.064-0.5-1.064-1.118c0-0.619,0.476-1.118,1.064-1.118h2.128
		c0.588,0,1.064,0.5,1.064,1.118C69.065,243.07,68.589,243.57,68.001,243.57z"/>
	<path fill="#8697CB" d="M73.322,248.044H57.361c-0.588,0-1.064-0.5-1.064-1.118c0-0.619,0.476-1.118,1.064-1.118h15.961
		c0.588,0,1.064,0.5,1.064,1.118C74.385,247.545,73.909,248.044,73.322,248.044z"/>
	<path fill="#E64C3C" d="M53.104,248.044H38.208c-0.588,0-1.064-0.5-1.064-1.118c0-0.619,0.476-1.118,1.064-1.118h14.896
		c0.588,0,1.064,0.5,1.064,1.118C54.168,247.545,53.693,248.044,53.104,248.044z"/>
	<path fill="#E64C3C" d="M33.951,248.044h-1.064c-0.588,0-1.064-0.5-1.064-1.118c0-0.619,0.476-1.118,1.064-1.118h1.064
		c0.588,0,1.064,0.5,1.064,1.118C35.015,247.545,34.54,248.044,33.951,248.044z"/>
	<path fill="#8697CB" d="M42.463,252.518h-9.577c-0.588,0-1.064-0.5-1.064-1.118c0-0.619,0.476-1.118,1.064-1.118h9.577
		c0.588,0,1.064,0.5,1.064,1.118C43.528,252.018,43.052,252.518,42.463,252.518z"/>
	<path fill="#F0C419" d="M48.848,252.518H46.72c-0.588,0-1.064-0.5-1.064-1.118c0-0.619,0.476-1.118,1.064-1.118h2.128
		c0.588,0,1.064,0.5,1.064,1.118C49.912,252.018,49.436,252.518,48.848,252.518z"/>
	<path fill="#4FBA6F" d="M68.001,252.518H53.104c-0.588,0-1.064-0.5-1.064-1.118c0-0.619,0.476-1.118,1.064-1.118h14.896
		c0.588,0,1.064,0.5,1.064,1.118C69.065,252.018,68.589,252.518,68.001,252.518z"/>
	<path fill="#F0C419" d="M46.72,256.991H32.887c-0.588,0-1.064-0.5-1.064-1.118c0-0.619,0.476-1.118,1.064-1.118H46.72
		c0.588,0,1.064,0.5,1.064,1.118C47.783,256.492,47.308,256.991,46.72,256.991z"/>
	<path fill="#4FBA6F" d="M61.616,256.991H50.976c-0.588,0-1.064-0.5-1.064-1.118c0-0.619,0.476-1.118,1.064-1.118h10.641
		c0.588,0,1.064,0.5,1.064,1.118C62.681,256.492,62.205,256.991,61.616,256.991z"/>
	<path fill="#F0C419" d="M65.873,261.466h-8.512c-0.588,0-1.064-0.5-1.064-1.118s0.476-1.118,1.064-1.118h8.512
		c0.588,0,1.064,0.5,1.064,1.118S66.461,261.466,65.873,261.466z"/>
	<path fill="#8697CB" d="M53.104,261.466H38.208c-0.588,0-1.064-0.5-1.064-1.118s0.476-1.118,1.064-1.118h14.896
		c0.588,0,1.064,0.5,1.064,1.118C54.168,260.966,53.693,261.466,53.104,261.466z"/>
	<path fill="#4FBA6F" d="M33.951,261.466h-1.064c-0.588,0-1.064-0.5-1.064-1.118s0.476-1.118,1.064-1.118h1.064
		c0.588,0,1.064,0.5,1.064,1.118C35.015,260.966,34.54,261.466,33.951,261.466z"/>
	<path fill="#F0C419" d="M42.463,265.94h-9.577c-0.588,0-1.064-0.5-1.064-1.118c0-0.619,0.476-1.118,1.064-1.118h9.577
		c0.588,0,1.064,0.5,1.064,1.118C43.528,265.439,43.052,265.94,42.463,265.94z"/>
	<path fill="#8697CB" d="M48.848,265.94H46.72c-0.588,0-1.064-0.5-1.064-1.118c0-0.619,0.476-1.118,1.064-1.118h2.128
		c0.588,0,1.064,0.5,1.064,1.118C49.912,265.439,49.436,265.94,48.848,265.94z"/>
	<path fill="#E64C3C" d="M69.065,265.94H53.104c-0.588,0-1.064-0.5-1.064-1.118c0-0.619,0.476-1.118,1.064-1.118h15.961
		c0.588,0,1.064,0.5,1.064,1.118C70.129,265.439,69.654,265.94,69.065,265.94z"/>
</g>
<g>
	<path fill="#8697CB" d="M160.728,243.447h-13.102c-0.558,0-1.008-0.451-1.008-1.008c0-0.558,0.45-1.008,1.008-1.008h13.102
		c0.558,0,1.008,0.451,1.008,1.008S161.286,243.447,160.728,243.447z"/>
	<path fill="#F0C419" d="M174.838,243.447H164.76c-0.558,0-1.008-0.451-1.008-1.008c0-0.558,0.45-1.008,1.008-1.008h10.078
		c0.558,0,1.008,0.451,1.008,1.008S175.396,243.447,174.838,243.447z"/>
	<path fill="#4FBA6F" d="M180.885,243.447h-2.015c-0.558,0-1.008-0.451-1.008-1.008c0-0.558,0.45-1.008,1.008-1.008h2.015
		c0.558,0,1.008,0.451,1.008,1.008C181.893,242.997,181.443,243.447,180.885,243.447z"/>
	<path fill="#8697CB" d="M185.924,247.479h-15.118c-0.558,0-1.008-0.451-1.008-1.008c0-0.558,0.45-1.008,1.008-1.008h15.118
		c0.558,0,1.008,0.451,1.008,1.008C186.932,247.028,186.482,247.479,185.924,247.479z"/>
	<path fill="#E64C3C" d="M166.775,247.479h-14.11c-0.558,0-1.008-0.451-1.008-1.008c0-0.558,0.45-1.008,1.008-1.008h14.11
		c0.558,0,1.008,0.451,1.008,1.008C167.783,247.028,167.333,247.479,166.775,247.479z"/>
	<path fill="#E64C3C" d="M148.634,247.479h-1.008c-0.558,0-1.008-0.451-1.008-1.008c0-0.558,0.451-1.008,1.008-1.008h1.008
		c0.558,0,1.008,0.451,1.008,1.008C149.642,247.028,149.191,247.479,148.634,247.479z"/>
	<path fill="#8697CB" d="M156.697,251.51h-9.071c-0.558,0-1.008-0.451-1.008-1.008c0-0.558,0.45-1.008,1.008-1.008h9.071
		c0.558,0,1.008,0.451,1.008,1.008C157.704,251.059,157.254,251.51,156.697,251.51z"/>
	<path fill="#F0C419" d="M162.744,251.51h-2.015c-0.558,0-1.008-0.451-1.008-1.008c0-0.558,0.45-1.008,1.008-1.008h2.015
		c0.558,0,1.008,0.451,1.008,1.008C163.752,251.059,163.301,251.51,162.744,251.51z"/>
	<path fill="#4FBA6F" d="M180.885,251.51h-14.11c-0.558,0-1.008-0.451-1.008-1.008c0-0.558,0.45-1.008,1.008-1.008h14.11
		c0.558,0,1.008,0.451,1.008,1.008C181.893,251.059,181.443,251.51,180.885,251.51z"/>
	<path fill="#F0C419" d="M160.728,255.542h-13.102c-0.558,0-1.008-0.451-1.008-1.008c0-0.558,0.45-1.008,1.008-1.008h13.102
		c0.558,0,1.008,0.451,1.008,1.008C161.736,255.091,161.286,255.542,160.728,255.542z"/>
	<path fill="#4FBA6F" d="M174.838,255.542H164.76c-0.558,0-1.008-0.451-1.008-1.008c0-0.558,0.45-1.008,1.008-1.008h10.078
		c0.558,0,1.008,0.451,1.008,1.008C175.846,255.091,175.396,255.542,174.838,255.542z"/>
	<path fill="#F0C419" d="M178.87,259.573h-8.063c-0.558,0-1.008-0.451-1.008-1.008c0-0.558,0.45-1.008,1.008-1.008h8.063
		c0.558,0,1.008,0.451,1.008,1.008C179.877,259.122,179.427,259.573,178.87,259.573z"/>
	<path fill="#8697CB" d="M166.775,259.573h-14.11c-0.558,0-1.008-0.451-1.008-1.008c0-0.558,0.45-1.008,1.008-1.008h14.11
		c0.558,0,1.008,0.451,1.008,1.008C167.783,259.122,167.333,259.573,166.775,259.573z"/>
	<path fill="#4FBA6F" d="M148.634,259.573h-1.008c-0.558,0-1.008-0.451-1.008-1.008c0-0.558,0.451-1.008,1.008-1.008h1.008
		c0.558,0,1.008,0.451,1.008,1.008C149.642,259.122,149.191,259.573,148.634,259.573z"/>
	<path fill="#F0C419" d="M156.697,263.604h-9.071c-0.558,0-1.008-0.451-1.008-1.008c0-0.558,0.45-1.008,1.008-1.008h9.071
		c0.558,0,1.008,0.451,1.008,1.008C157.704,263.154,157.254,263.604,156.697,263.604z"/>
	<path fill="#8697CB" d="M162.744,263.604h-2.015c-0.558,0-1.008-0.451-1.008-1.008c0-0.558,0.45-1.008,1.008-1.008h2.015
		c0.558,0,1.008,0.451,1.008,1.008C163.752,263.154,163.301,263.604,162.744,263.604z"/>
	<path fill="#E64C3C" d="M181.893,263.604h-15.118c-0.558,0-1.008-0.451-1.008-1.008c0-0.558,0.45-1.008,1.008-1.008h15.118
		c0.558,0,1.008,0.451,1.008,1.008C182.901,263.154,182.45,263.604,181.893,263.604z"/>
</g>
<polyline fill="none" stroke="#BAD9FF" stroke-width="3" stroke-linecap="round" stroke-linejoin="round" stroke-miterlimit="10" stroke-dasharray="0,0,0,6" points="
	53.373,200.214 53.373,177.709 168.19,177.709 168.19,201.436 "/>
</svg>
