<?xml version="1.0" encoding="utf-8"?>
<!-- Generator: Adobe Illustrator 17.0.0, SVG Export Plug-In . SVG Version: 6.00 Build 0)  -->
<!DOCTYPE svg PUBLIC "-//W3C//DTD SVG 1.1//EN" "http://www.w3.org/Graphics/SVG/1.1/DTD/svg11.dtd">
<svg version="1.1" id="Layer_1" xmlns="http://www.w3.org/2000/svg" xmlns:xlink="http://www.w3.org/1999/xlink" x="0px" y="0px"
	 width="280px" height="300px" viewBox="0 0 280 300" enable-background="new 0 0 280 300" xml:space="preserve">
<polygon fill="#F1F2F3" points="77.397,202.015 23.153,202.015 23.153,278.085 64.4,278.085 77.397,265.087 "/>
<g>
	<polygon fill="#FFAD61" points="77.397,265.087 64.4,278.085 64.388,265.076 	"/>
	<path fill="#FFAD61" d="M35.846,214.674c0.052,0.803,0.464,1.551,1.139,1.989c0.833,0.541,1.905,0.541,2.738,0
		c0.675-0.439,1.087-1.186,1.139-1.989l0.199-3.048c0.102-1.565-1.139-2.889-2.707-2.889l0,0c-1.568,0-2.81,1.325-2.707,2.889
		L35.846,214.674z"/>
</g>
<g>
	<path fill="#5D73A2" d="M77.397,200.437H23.152c-0.872,0-1.578,0.707-1.578,1.578v76.069c0,0.872,0.707,1.578,1.578,1.578h41.247
		c0.419,0,0.82-0.167,1.116-0.462l12.997-12.998c0.296-0.296,0.462-0.697,0.462-1.116v-63.072
		C78.976,201.143,78.269,200.437,77.397,200.437z M24.731,236.42h0.135c0.872,0,1.578-0.707,1.578-1.578s-0.707-1.578-1.578-1.578
		h-0.135v-29.67H75.82v29.671c-0.861,0.012-1.556,0.713-1.556,1.577c0,0.864,0.695,1.565,1.555,1.577v27.089l-11.429-0.01h-0.001
		c-0.419,0-0.82,0.167-1.116,0.462c-0.296,0.296-0.463,0.698-0.462,1.117l0.01,11.429H24.732L24.731,236.42L24.731,236.42z
		 M65.968,266.655l7.622,0.007l-7.615,7.615L65.968,266.655z"/>
	<path fill="#5D73A2" d="M52.361,213.86H61c0.871,0,1.578-0.707,1.578-1.578s-0.707-1.578-1.578-1.578h-8.639
		c-0.871,0-1.578,0.707-1.578,1.578S51.49,213.86,52.361,213.86z"/>
	<path fill="#5D73A2" d="M52.361,221.11h18.746c0.871,0,1.578-0.707,1.578-1.578c0-0.872-0.707-1.578-1.578-1.578H52.361
		c-0.871,0-1.578,0.707-1.578,1.578C50.783,220.404,51.49,221.11,52.361,221.11z"/>
	<path fill="#5D73A2" d="M52.361,228.372h18.746c0.871,0,1.578-0.707,1.578-1.578s-0.707-1.578-1.578-1.578H52.361
		c-0.871,0-1.578,0.707-1.578,1.578S51.49,228.372,52.361,228.372z"/>
	<path fill="#5D73A2" d="M30.705,241.952c-0.872,0-1.578,0.707-1.578,1.578s0.707,1.578,1.578,1.578h18.693
		c0.872,0,1.578-0.707,1.578-1.578c0-0.872-0.707-1.578-1.578-1.578H30.705z"/>
	<path fill="#5D73A2" d="M71.265,248.335h-40.56c-0.872,0-1.578,0.707-1.578,1.578c0,0.872,0.707,1.578,1.578,1.578h40.56
		c0.871,0,1.578-0.707,1.578-1.578C72.844,249.042,72.136,248.335,71.265,248.335z"/>
	<path fill="#5D73A2" d="M71.265,254.728h-40.56c-0.872,0-1.578,0.707-1.578,1.578c0,0.872,0.707,1.578,1.578,1.578h40.56
		c0.871,0,1.578-0.707,1.578-1.578C72.844,255.434,72.136,254.728,71.265,254.728z"/>
	<path fill="#5D73A2" d="M47.75,265.617h-1.333c-0.872,0-1.578,0.707-1.578,1.578s0.707,1.578,1.578,1.578h1.333
		c0.871,0,1.578-0.707,1.578-1.578S48.621,265.617,47.75,265.617z"/>
	<path fill="#5D73A2" d="M40.963,265.617H30.705c-0.872,0-1.578,0.707-1.578,1.578s0.707,1.578,1.578,1.578h10.258
		c0.871,0,1.578-0.707,1.578-1.578S41.835,265.617,40.963,265.617z"/>
	<path fill="#5D73A2" d="M34.27,214.777c0.085,1.311,0.779,2.511,1.854,3.21c0.677,0.44,1.453,0.66,2.228,0.66
		s1.552-0.22,2.229-0.66c1.076-0.699,1.769-1.899,1.855-3.21l0.199-3.048c0.077-1.18-0.343-2.351-1.151-3.213
		c-0.808-0.863-1.95-1.357-3.131-1.357s-2.323,0.494-3.131,1.357s-1.227,2.034-1.151,3.213L34.27,214.777z M37.526,210.674
		c0.217-0.232,0.511-0.359,0.828-0.359s0.611,0.128,0.828,0.359c0.217,0.231,0.325,0.533,0.304,0.85l-0.199,3.048
		c-0.021,0.322-0.179,0.609-0.425,0.768c-0.31,0.201-0.709,0.201-1.018,0c-0.245-0.159-0.403-0.446-0.425-0.768l0,0l-0.199-3.048
		C37.201,211.207,37.309,210.905,37.526,210.674z"/>
	<path fill="#5D73A2" d="M29.758,228.529h17.191c0.468,0,0.912-0.208,1.211-0.567c0.3-0.359,0.425-0.832,0.342-1.293l-0.345-1.903
		c-0.478-2.639-2.569-4.746-5.203-5.241c-0.398-0.075-0.804-0.113-1.208-0.113h-1.039c-0.419,0-0.82,0.167-1.116,0.462
		c-0.331,0.331-0.771,0.513-1.238,0.513c-0.468,0-0.908-0.182-1.238-0.513c-0.296-0.296-0.697-0.462-1.116-0.462H34.96
		c-0.404,0-0.81,0.038-1.209,0.113c-2.634,0.496-4.725,2.602-5.203,5.241l-0.345,1.903c-0.083,0.46,0.042,0.934,0.342,1.293
		C28.847,228.322,29.29,228.529,29.758,228.529z M31.656,225.329c0.247-1.36,1.324-2.447,2.681-2.702
		c0.206-0.039,0.415-0.058,0.624-0.058h0.456c1.735,1.297,4.138,1.297,5.873,0h0.456c0.209,0,0.419,0.019,0.624,0.058
		c1.357,0.255,2.435,1.342,2.681,2.702l0.008,0.044H31.647L31.656,225.329z"/>
	<path fill="#5D73A2" d="M66.039,236.42c0.871,0,1.578-0.707,1.578-1.578s-0.707-1.578-1.578-1.578h-1.96
		c-0.871,0-1.578,0.707-1.578,1.578c0,0.872,0.707,1.578,1.578,1.578H66.039z"/>
	<path fill="#5D73A2" d="M60.157,236.42c0.871,0,1.578-0.707,1.578-1.578s-0.707-1.578-1.578-1.578h-1.96
		c-0.871,0-1.578,0.707-1.578,1.578c0,0.872,0.707,1.578,1.578,1.578H60.157z"/>
	<path fill="#5D73A2" d="M32.326,234.842c0-0.871-0.707-1.578-1.578-1.578h-1.96c-0.872,0-1.578,0.707-1.578,1.578
		c0,0.872,0.707,1.578,1.578,1.578h1.96C31.619,236.42,32.326,235.714,32.326,234.842z"/>
	<path fill="#5D73A2" d="M46.433,233.264c-0.872,0-1.578,0.707-1.578,1.578s0.707,1.578,1.578,1.578h1.96
		c0.872,0,1.578-0.707,1.578-1.578c0-0.872-0.707-1.578-1.578-1.578H46.433z"/>
	<path fill="#5D73A2" d="M42.511,236.42c0.872,0,1.578-0.707,1.578-1.578s-0.707-1.578-1.578-1.578h-1.96
		c-0.872,0-1.578,0.707-1.578,1.578c0,0.872,0.707,1.578,1.578,1.578H42.511z"/>
	<path fill="#5D73A2" d="M69.96,233.264c-0.871,0-1.578,0.707-1.578,1.578s0.707,1.578,1.578,1.578h1.961
		c0.871,0,1.578-0.707,1.578-1.578c0-0.872-0.707-1.578-1.578-1.578H69.96z"/>
	<path fill="#5D73A2" d="M52.314,236.42h1.96c0.871,0,1.578-0.707,1.578-1.578s-0.707-1.578-1.578-1.578h-1.96
		c-0.871,0-1.578,0.707-1.578,1.578C50.736,235.714,51.443,236.42,52.314,236.42z"/>
	<path fill="#5D73A2" d="M36.63,236.42c0.872,0,1.578-0.707,1.578-1.578s-0.707-1.578-1.578-1.578h-1.96
		c-0.871,0-1.578,0.707-1.578,1.578c0,0.872,0.707,1.578,1.578,1.578H36.63z"/>
</g>
<polygon fill="#F1F2F3" points="163.995,202.015 109.75,202.015 109.75,278.085 150.998,278.085 163.995,265.087 "/>
<g>
	<polygon fill="#FFAD61" points="163.995,265.087 150.998,278.085 150.986,265.076 	"/>
	<path fill="#FFAD61" d="M122.443,214.674c0.052,0.803,0.464,1.551,1.139,1.989c0.833,0.541,1.905,0.541,2.738,0
		c0.675-0.439,1.087-1.186,1.139-1.989l0.199-3.048c0.102-1.565-1.139-2.889-2.707-2.889l0,0c-1.568,0-2.809,1.325-2.707,2.889
		L122.443,214.674z"/>
</g>
<g>
	<path fill="#5D73A2" d="M163.995,200.437H109.75c-0.872,0-1.578,0.707-1.578,1.578v76.069c0,0.872,0.707,1.578,1.578,1.578h41.247
		c0.419,0,0.82-0.167,1.116-0.462l12.997-12.998c0.296-0.296,0.462-0.697,0.462-1.116v-63.072
		C165.573,201.143,164.866,200.437,163.995,200.437z M111.329,236.42h0.135c0.871,0,1.578-0.707,1.578-1.578
		s-0.707-1.578-1.578-1.578h-0.135v-29.67h51.089v29.671c-0.861,0.012-1.555,0.713-1.555,1.577c0,0.864,0.695,1.565,1.555,1.577
		v27.089l-11.429-0.01c-0.001,0-0.001,0-0.001,0c-0.419,0-0.82,0.167-1.117,0.462c-0.296,0.296-0.462,0.698-0.462,1.117
		l0.011,11.429h-38.09L111.329,236.42L111.329,236.42z M152.566,266.655l7.622,0.007l-7.615,7.615L152.566,266.655z"/>
	<path fill="#5D73A2" d="M138.959,213.86h8.639c0.871,0,1.578-0.707,1.578-1.578s-0.707-1.578-1.578-1.578h-8.639
		c-0.871,0-1.578,0.707-1.578,1.578S138.088,213.86,138.959,213.86z"/>
	<path fill="#5D73A2" d="M138.959,221.11h18.746c0.871,0,1.578-0.707,1.578-1.578c0-0.872-0.707-1.578-1.578-1.578h-18.746
		c-0.871,0-1.578,0.707-1.578,1.578C137.381,220.404,138.088,221.11,138.959,221.11z"/>
	<path fill="#5D73A2" d="M138.959,228.372h18.746c0.871,0,1.578-0.707,1.578-1.578s-0.707-1.578-1.578-1.578h-18.746
		c-0.871,0-1.578,0.707-1.578,1.578S138.088,228.372,138.959,228.372z"/>
	<path fill="#5D73A2" d="M117.303,241.952c-0.872,0-1.578,0.707-1.578,1.578s0.707,1.578,1.578,1.578h18.693
		c0.872,0,1.578-0.707,1.578-1.578c0-0.872-0.707-1.578-1.578-1.578H117.303z"/>
	<path fill="#5D73A2" d="M157.863,248.335h-40.56c-0.872,0-1.578,0.707-1.578,1.578c0,0.872,0.707,1.578,1.578,1.578h40.56
		c0.871,0,1.578-0.707,1.578-1.578S158.734,248.335,157.863,248.335z"/>
	<path fill="#5D73A2" d="M157.863,254.728h-40.56c-0.872,0-1.578,0.707-1.578,1.578c0,0.872,0.707,1.578,1.578,1.578h40.56
		c0.871,0,1.578-0.707,1.578-1.578C159.441,255.434,158.734,254.728,157.863,254.728z"/>
	<path fill="#5D73A2" d="M134.347,265.617h-1.333c-0.871,0-1.578,0.707-1.578,1.578s0.707,1.578,1.578,1.578h1.333
		c0.872,0,1.578-0.707,1.578-1.578C135.926,266.324,135.219,265.617,134.347,265.617z"/>
	<path fill="#5D73A2" d="M127.561,265.617h-10.258c-0.872,0-1.578,0.707-1.578,1.578s0.707,1.578,1.578,1.578h10.258
		c0.872,0,1.578-0.707,1.578-1.578S128.433,265.617,127.561,265.617z"/>
	<path fill="#5D73A2" d="M120.868,214.777c0.085,1.311,0.779,2.511,1.855,3.21c0.677,0.44,1.453,0.66,2.228,0.66
		c0.776,0,1.552-0.22,2.229-0.66c1.076-0.699,1.769-1.899,1.854-3.21l0.199-3.048c0.077-1.18-0.343-2.351-1.151-3.213
		c-0.808-0.863-1.95-1.357-3.131-1.357s-2.323,0.494-3.131,1.357s-1.227,2.034-1.151,3.213L120.868,214.777z M124.123,210.674
		c0.217-0.232,0.511-0.359,0.828-0.359s0.611,0.128,0.828,0.359c0.217,0.231,0.325,0.533,0.304,0.85l-0.199,3.048
		c-0.021,0.322-0.179,0.609-0.425,0.768c-0.309,0.201-0.709,0.201-1.018,0c-0.245-0.159-0.403-0.446-0.425-0.768l0,0l-0.199-3.048
		C123.798,211.207,123.906,210.905,124.123,210.674z"/>
	<path fill="#5D73A2" d="M116.356,228.529h17.191c0.468,0,0.912-0.208,1.211-0.567c0.3-0.359,0.425-0.832,0.342-1.293l-0.345-1.903
		c-0.478-2.639-2.569-4.746-5.203-5.241c-0.398-0.075-0.804-0.113-1.208-0.113h-1.039c-0.419,0-0.82,0.167-1.116,0.462
		c-0.331,0.331-0.771,0.513-1.238,0.513s-0.908-0.182-1.238-0.513c-0.296-0.296-0.697-0.462-1.116-0.462h-1.039
		c-0.404,0-0.81,0.038-1.209,0.113c-2.634,0.496-4.725,2.602-5.202,5.241l-0.345,1.903c-0.083,0.46,0.042,0.934,0.341,1.293
		C115.445,228.322,115.888,228.529,116.356,228.529z M118.253,225.329c0.247-1.36,1.324-2.447,2.681-2.702
		c0.206-0.039,0.415-0.058,0.624-0.058h0.456c1.735,1.297,4.138,1.297,5.873,0h0.456c0.209,0,0.419,0.019,0.624,0.058
		c1.357,0.255,2.435,1.342,2.681,2.702l0.008,0.044h-13.411L118.253,225.329z"/>
	<path fill="#5D73A2" d="M152.636,236.42c0.871,0,1.578-0.707,1.578-1.578s-0.707-1.578-1.578-1.578h-1.96
		c-0.871,0-1.578,0.707-1.578,1.578c0,0.872,0.707,1.578,1.578,1.578H152.636z"/>
	<path fill="#5D73A2" d="M146.755,236.42c0.871,0,1.578-0.707,1.578-1.578s-0.707-1.578-1.578-1.578h-1.96
		c-0.871,0-1.578,0.707-1.578,1.578c0,0.872,0.707,1.578,1.578,1.578H146.755z"/>
	<path fill="#5D73A2" d="M118.923,234.842c0-0.871-0.707-1.578-1.578-1.578h-1.96c-0.871,0-1.578,0.707-1.578,1.578
		c0,0.872,0.707,1.578,1.578,1.578h1.96C118.217,236.42,118.923,235.714,118.923,234.842z"/>
	<path fill="#5D73A2" d="M133.03,233.264c-0.871,0-1.578,0.707-1.578,1.578s0.707,1.578,1.578,1.578h1.96
		c0.872,0,1.578-0.707,1.578-1.578c0-0.872-0.707-1.578-1.578-1.578H133.03z"/>
	<path fill="#5D73A2" d="M129.109,236.42c0.872,0,1.578-0.707,1.578-1.578s-0.707-1.578-1.578-1.578h-1.96
		c-0.872,0-1.578,0.707-1.578,1.578c0,0.872,0.707,1.578,1.578,1.578H129.109z"/>
	<path fill="#5D73A2" d="M156.558,233.264c-0.871,0-1.578,0.707-1.578,1.578s0.707,1.578,1.578,1.578h1.961
		c0.871,0,1.578-0.707,1.578-1.578c0-0.872-0.707-1.578-1.578-1.578H156.558z"/>
	<path fill="#5D73A2" d="M138.912,236.42h1.96c0.871,0,1.578-0.707,1.578-1.578s-0.707-1.578-1.578-1.578h-1.96
		c-0.871,0-1.578,0.707-1.578,1.578C137.334,235.714,138.041,236.42,138.912,236.42z"/>
	<path fill="#5D73A2" d="M123.227,236.42c0.872,0,1.578-0.707,1.578-1.578s-0.707-1.578-1.578-1.578h-1.96
		c-0.872,0-1.578,0.707-1.578,1.578c0,0.872,0.707,1.578,1.578,1.578H123.227z"/>
</g>
<polygon fill="#F1F2F3" points="250.378,202.015 196.133,202.015 196.133,278.085 237.38,278.085 250.378,265.087 "/>
<g>
	<polygon fill="#FFAD61" points="250.378,265.087 237.38,278.085 237.369,265.076 	"/>
	<path fill="#FFAD61" d="M208.826,214.674c0.052,0.803,0.464,1.551,1.139,1.989c0.833,0.541,1.905,0.541,2.738,0
		c0.675-0.439,1.087-1.186,1.139-1.989l0.199-3.048c0.102-1.565-1.139-2.889-2.707-2.889l0,0c-1.568,0-2.809,1.325-2.707,2.889
		L208.826,214.674z"/>
</g>
<g>
	<path fill="#5D73A2" d="M250.377,200.437h-54.245c-0.871,0-1.578,0.707-1.578,1.578v76.069c0,0.872,0.707,1.578,1.578,1.578h41.247
		c0.419,0,0.82-0.167,1.116-0.462l12.997-12.998c0.296-0.296,0.462-0.697,0.462-1.116v-63.072
		C251.956,201.143,251.249,200.437,250.377,200.437z M197.711,236.42h0.135c0.872,0,1.578-0.707,1.578-1.578
		s-0.707-1.578-1.578-1.578h-0.135v-29.67H248.8v29.671c-0.861,0.012-1.555,0.713-1.555,1.577c0,0.864,0.695,1.565,1.555,1.577
		v27.089l-11.429-0.01h-0.001c-0.419,0-0.82,0.167-1.116,0.462c-0.296,0.296-0.462,0.698-0.462,1.117l0.01,11.429h-38.09
		L197.711,236.42L197.711,236.42z M238.949,266.655l7.622,0.007l-7.615,7.615L238.949,266.655z"/>
	<path fill="#5D73A2" d="M225.342,213.86h8.639c0.871,0,1.578-0.707,1.578-1.578s-0.707-1.578-1.578-1.578h-8.639
		c-0.871,0-1.578,0.707-1.578,1.578C223.763,213.153,224.47,213.86,225.342,213.86z"/>
	<path fill="#5D73A2" d="M225.342,221.11h18.746c0.871,0,1.578-0.707,1.578-1.578c0-0.872-0.707-1.578-1.578-1.578h-18.746
		c-0.871,0-1.578,0.707-1.578,1.578C223.763,220.404,224.47,221.11,225.342,221.11z"/>
	<path fill="#5D73A2" d="M225.342,228.372h18.746c0.871,0,1.578-0.707,1.578-1.578s-0.707-1.578-1.578-1.578h-18.746
		c-0.871,0-1.578,0.707-1.578,1.578C223.763,227.665,224.47,228.372,225.342,228.372z"/>
	<path fill="#5D73A2" d="M203.685,241.952c-0.871,0-1.578,0.707-1.578,1.578s0.707,1.578,1.578,1.578h18.694
		c0.871,0,1.578-0.707,1.578-1.578c0-0.872-0.707-1.578-1.578-1.578H203.685z"/>
	<path fill="#5D73A2" d="M244.245,248.335h-40.56c-0.871,0-1.578,0.707-1.578,1.578c0,0.872,0.707,1.578,1.578,1.578h40.56
		c0.871,0,1.578-0.707,1.578-1.578C245.824,249.042,245.116,248.335,244.245,248.335z"/>
	<path fill="#5D73A2" d="M244.245,254.728h-40.56c-0.871,0-1.578,0.707-1.578,1.578c0,0.872,0.707,1.578,1.578,1.578h40.56
		c0.871,0,1.578-0.707,1.578-1.578C245.824,255.434,245.116,254.728,244.245,254.728z"/>
	<path fill="#5D73A2" d="M220.73,265.617h-1.333c-0.871,0-1.578,0.707-1.578,1.578s0.707,1.578,1.578,1.578h1.333
		c0.872,0,1.578-0.707,1.578-1.578S221.601,265.617,220.73,265.617z"/>
	<path fill="#5D73A2" d="M213.944,265.617h-10.259c-0.871,0-1.578,0.707-1.578,1.578s0.707,1.578,1.578,1.578h10.258
		c0.872,0,1.578-0.707,1.578-1.578C215.522,266.324,214.816,265.617,213.944,265.617z"/>
	<path fill="#5D73A2" d="M207.25,214.777c0.085,1.311,0.779,2.511,1.855,3.21c0.677,0.44,1.453,0.66,2.229,0.66
		s1.552-0.22,2.229-0.66c1.076-0.699,1.769-1.899,1.854-3.21l0.199-3.048c0.077-1.18-0.343-2.351-1.151-3.213
		c-0.808-0.863-1.95-1.357-3.131-1.357s-2.323,0.494-3.131,1.357s-1.227,2.034-1.151,3.213L207.25,214.777z M210.506,210.674
		c0.217-0.232,0.511-0.359,0.828-0.359s0.611,0.128,0.828,0.359c0.217,0.231,0.325,0.533,0.304,0.85l-0.199,3.048
		c-0.021,0.322-0.179,0.609-0.425,0.768c-0.309,0.201-0.709,0.201-1.018,0c-0.245-0.159-0.403-0.446-0.425-0.768l0,0l-0.199-3.048
		C210.181,211.207,210.289,210.905,210.506,210.674z"/>
	<path fill="#5D73A2" d="M202.739,228.529h17.191c0.468,0,0.912-0.208,1.211-0.567c0.3-0.359,0.425-0.832,0.342-1.293l-0.345-1.903
		c-0.478-2.639-2.569-4.746-5.203-5.241c-0.398-0.075-0.804-0.113-1.208-0.113h-1.039c-0.419,0-0.82,0.167-1.116,0.462
		c-0.331,0.331-0.771,0.513-1.238,0.513s-0.908-0.182-1.238-0.513c-0.296-0.296-0.697-0.462-1.116-0.462h-1.039
		c-0.404,0-0.81,0.038-1.209,0.113c-2.634,0.496-4.725,2.602-5.203,5.241l-0.345,1.903c-0.083,0.46,0.042,0.934,0.341,1.293
		C201.827,228.322,202.27,228.529,202.739,228.529z M204.636,225.329c0.247-1.36,1.324-2.447,2.681-2.702
		c0.206-0.039,0.415-0.058,0.624-0.058h0.456c1.735,1.297,4.138,1.297,5.873,0h0.456c0.208,0,0.419,0.019,0.624,0.058
		c1.357,0.255,2.435,1.342,2.681,2.702l0.008,0.044h-13.412L204.636,225.329z"/>
	<path fill="#5D73A2" d="M239.019,236.42c0.871,0,1.578-0.707,1.578-1.578s-0.707-1.578-1.578-1.578h-1.96
		c-0.871,0-1.578,0.707-1.578,1.578c0,0.872,0.707,1.578,1.578,1.578H239.019z"/>
	<path fill="#5D73A2" d="M233.137,236.42c0.871,0,1.578-0.707,1.578-1.578s-0.707-1.578-1.578-1.578h-1.96
		c-0.871,0-1.578,0.707-1.578,1.578c0,0.872,0.707,1.578,1.578,1.578H233.137z"/>
	<path fill="#5D73A2" d="M205.306,234.842c0-0.871-0.707-1.578-1.578-1.578h-1.96c-0.871,0-1.578,0.707-1.578,1.578
		c0,0.872,0.707,1.578,1.578,1.578h1.96C204.599,236.42,205.306,235.714,205.306,234.842z"/>
	<path fill="#5D73A2" d="M219.413,233.264c-0.871,0-1.578,0.707-1.578,1.578s0.707,1.578,1.578,1.578h1.96
		c0.872,0,1.578-0.707,1.578-1.578c0-0.872-0.707-1.578-1.578-1.578H219.413z"/>
	<path fill="#5D73A2" d="M215.491,236.42c0.871,0,1.578-0.707,1.578-1.578s-0.707-1.578-1.578-1.578h-1.96
		c-0.871,0-1.578,0.707-1.578,1.578c0,0.872,0.707,1.578,1.578,1.578H215.491z"/>
	<path fill="#5D73A2" d="M242.941,233.264c-0.871,0-1.578,0.707-1.578,1.578s0.707,1.578,1.578,1.578h1.961
		c0.871,0,1.578-0.707,1.578-1.578c0-0.872-0.707-1.578-1.578-1.578H242.941z"/>
	<path fill="#5D73A2" d="M225.294,236.42h1.96c0.871,0,1.578-0.707,1.578-1.578s-0.707-1.578-1.578-1.578h-1.96
		c-0.871,0-1.578,0.707-1.578,1.578C223.716,235.714,224.423,236.42,225.294,236.42z"/>
	<path fill="#5D73A2" d="M209.61,236.42c0.872,0,1.578-0.707,1.578-1.578s-0.707-1.578-1.578-1.578h-1.96
		c-0.872,0-1.578,0.707-1.578,1.578c0,0.872,0.707,1.578,1.578,1.578H209.61z"/>
</g>
<path fill="#F1F2F3" d="M179.969,126.303c-5.646,0-10.224-4.578-10.224-10.225V37.692c0-5.647-4.578-10.225-10.224-10.225h-51.122
	c0,0-0.05,63.362-0.03,88.622c0.005,5.643,4.581,10.215,10.224,10.215L179.969,126.303L179.969,126.303z"/>
<g>
	<path fill="#CED7D9" d="M171.116,121.192H120.3c-3.761,0-6.811-3.045-6.816-6.806c-0.024-18.679,0.01-70.435,0.022-86.918h-5.108
		c0,0-0.05,63.362-0.03,88.622c0.005,5.644,4.581,10.215,10.224,10.215h61.376C176.185,126.303,172.884,124.246,171.116,121.192z"/>
	<path fill="#CED7D9" d="M101.581,27.467c-5.646,0-10.224,4.578-10.224,10.225s4.578,10.224,10.224,10.224h57.938V27.467H101.581z"
		/>
</g>
<g>
	<path fill="#B6C4C6" d="M91.679,35.136c-0.21,0.817-0.322,1.673-0.322,2.556c0,5.646,4.578,10.224,10.224,10.224h57.938v-5.112
		h-57.938C96.818,42.804,92.814,39.546,91.679,35.136z"/>
	<circle fill="#B6C4C6" cx="159.52" cy="37.692" r="10.224"/>
</g>
<circle fill="#859CA0" cx="159.566" cy="37.646" r="5.112"/>
<circle fill="#B6C4C6" cx="178.969" cy="116.079" r="10.224"/>
<circle fill="#859CA0" cx="179.969" cy="116.079" r="5.112"/>
<circle fill="#94C54B" cx="127.143" cy="70.069" r="11.929"/>
<circle fill="#F57811" cx="151" cy="104.151" r="11.929"/>
<path fill="#5D73A2" d="M106.768,87.62c0,0.882,0.715,1.598,1.598,1.598l0,0c0.883,0,1.598-0.715,1.598-1.598
	c0.003-12.932,0.011-26.892,0.017-38.107h49.54c3.401,0,6.468-1.445,8.627-3.751v7.266c0,0.882,0.715,1.598,1.598,1.598
	s1.598-0.715,1.598-1.598V37.691c0-6.519-5.303-11.822-11.822-11.822h-57.938c-6.518,0-11.822,5.303-11.822,11.822
	s5.303,11.822,11.822,11.822h5.204C106.778,60.728,106.771,74.688,106.768,87.62z M168.147,37.692c0,4.757-3.87,8.627-8.627,8.627
	s-8.627-3.87-8.627-8.627s3.87-8.627,8.627-8.627S168.147,32.935,168.147,37.692z M92.955,37.692c0-4.757,3.87-8.627,8.627-8.627
	h49.868c-2.306,2.158-3.751,5.226-3.751,8.627s1.445,6.468,3.751,8.627h-49.868C96.824,46.319,92.955,42.448,92.955,37.692z"/>
<path fill="#5D73A2" d="M152.857,37.646c0,3.7,3.01,6.71,6.71,6.71s6.71-3.01,6.71-6.71s-3.01-6.71-6.71-6.71
	C155.867,30.936,152.857,33.946,152.857,37.646z M163.081,37.646c0,1.938-1.577,3.515-3.515,3.515s-3.515-1.577-3.515-3.515
	s1.577-3.515,3.515-3.515S163.081,35.708,163.081,37.646z"/>
<path fill="#5D73A2" d="M179.969,104.257c-3.401,0-6.468,1.445-8.627,3.751V59.845c0-0.882-0.715-1.598-1.598-1.598
	c-0.882,0-1.598,0.715-1.598,1.598v56.235c0,2.525,0.828,5.022,2.338,7.046c0.422,0.566,0.893,1.098,1.409,1.581h-53.301
	c-4.753,0-8.623-3.866-8.627-8.618c-0.005-5.913-0.006-13.914-0.005-22.701c0-0.882-0.715-1.598-1.598-1.598l0,0
	c-0.882,0-1.598,0.715-1.598,1.598c-0.001,8.788-0.001,16.79,0.005,22.704c0.005,6.512,5.309,11.811,11.822,11.811h61.376
	c6.518,0,11.822-5.303,11.822-11.822C191.791,109.561,186.488,104.257,179.969,104.257z M179.969,124.706
	c-4.757,0-8.627-3.87-8.627-8.627s3.87-8.627,8.627-8.627s8.627,3.87,8.627,8.627S184.726,124.706,179.969,124.706z"/>
<path fill="#5D73A2" d="M179.969,109.369c-3.7,0-6.71,3.01-6.71,6.71c0,3.7,3.01,6.71,6.71,6.71s6.71-3.01,6.71-6.71
	C186.678,112.38,183.669,109.369,179.969,109.369z M179.969,119.594c-1.938,0-3.515-1.577-3.515-3.515s1.577-3.515,3.515-3.515
	s3.515,1.577,3.515,3.515C183.483,118.017,181.907,119.594,179.969,119.594z"/>
<path fill="#5D73A2" d="M140.669,70.069c0-7.458-6.068-13.526-13.526-13.526s-13.526,6.068-13.526,13.526
	s6.068,13.526,13.526,13.526C134.601,83.596,140.669,77.527,140.669,70.069z M127.143,80.4c-5.696,0-10.331-4.634-10.331-10.331
	c0-5.696,4.634-10.331,10.331-10.331c5.696,0,10.331,4.634,10.331,10.331S132.839,80.4,127.143,80.4z"/>
<path fill="#5D73A2" d="M131.125,65.531l-5.686,5.687l-2.278-2.279c-0.624-0.624-1.635-0.624-2.259,0
	c-0.624,0.624-0.624,1.635,0,2.259l3.408,3.408c0.615,0.615,1.644,0.615,2.259,0l6.816-6.816c0.624-0.624,0.624-1.635,0-2.259
	C132.76,64.907,131.749,64.907,131.125,65.531z"/>
<path fill="#5D73A2" d="M151,117.677c7.458,0,13.526-6.068,13.526-13.526S158.458,90.625,151,90.625s-13.526,6.068-13.526,13.526
	S143.541,117.677,151,117.677z M151,93.82c5.696,0,10.331,4.634,10.331,10.331c0,5.696-4.634,10.331-10.331,10.331
	c-5.696,0-10.331-4.635-10.331-10.331C140.669,98.454,145.303,93.82,151,93.82z"/>
<path fill="#5D73A2" d="M144.757,110.392c0.615,0.615,1.644,0.615,2.259,0l3.982-3.982l3.982,3.982
	c0.65,0.65,1.747,0.606,2.345-0.091c0.535-0.625,0.497-1.586-0.085-2.168l-3.982-3.982l3.982-3.982c0.624-0.624,0.624-1.636,0-2.259
	c-0.624-0.624-1.635-0.624-2.259,0l-3.982,3.982l-3.982-3.982c-0.624-0.624-1.635-0.624-2.259,0c-0.624,0.624-0.624,1.636,0,2.259
	l3.982,3.982l-3.982,3.982C144.134,108.757,144.134,109.769,144.757,110.392z"/>
<path fill="#5D73A2" d="M145.887,64.85h13.632c0.883,0,1.598-0.715,1.598-1.598s-0.715-1.598-1.598-1.598h-13.632
	c-0.882,0-1.598,0.715-1.598,1.598C144.29,64.135,145.005,64.85,145.887,64.85z"/>
<path fill="#5D73A2" d="M145.887,71.666h13.632c0.883,0,1.598-0.715,1.598-1.598s-0.715-1.598-1.598-1.598h-13.632
	c-0.882,0-1.598,0.715-1.598,1.598C144.29,70.952,145.005,71.666,145.887,71.666z"/>
<path fill="#5D73A2" d="M145.887,78.483h13.632c0.883,0,1.598-0.715,1.598-1.598s-0.715-1.598-1.598-1.598h-13.632
	c-0.882,0-1.598,0.715-1.598,1.598S145.005,78.483,145.887,78.483z"/>
<path fill="#5D73A2" d="M132.255,97.441h-13.633c-0.882,0-1.598,0.715-1.598,1.598s0.715,1.598,1.598,1.598h13.632
	c0.883,0,1.598-0.715,1.598-1.598C133.853,98.156,133.137,97.441,132.255,97.441z"/>
<path fill="#5D73A2" d="M132.255,104.257h-13.633c-0.882,0-1.598,0.715-1.598,1.598s0.715,1.598,1.598,1.598h13.632
	c0.883,0,1.598-0.715,1.598-1.598C133.853,104.972,133.137,104.257,132.255,104.257z"/>
<path fill="#5D73A2" d="M132.255,111.074h-13.633c-0.882,0-1.598,0.715-1.598,1.598s0.715,1.598,1.598,1.598h13.632
	c0.883,0,1.598-0.715,1.598-1.598C133.853,111.789,133.137,111.074,132.255,111.074z"/>
<path fill="none" stroke="#BAD9FF" stroke-width="3" stroke-linecap="round" stroke-linejoin="round" stroke-miterlimit="10" stroke-dasharray="0,0,0,6" d="
	M141.029,173.67h91.029v22.505 M137.334,191.473V173.67H46.641v22.505"/>
<line fill="none" stroke="#BAD9FF" stroke-width="3" stroke-linecap="round" stroke-linejoin="round" stroke-miterlimit="10" stroke-dasharray="0,0,0,6" x1="137.334" y1="137.057" x2="137.334" y2="173.334"/>
<rect x="-9" fill="none" width="300" height="300"/>
</svg>
